<svg xmlns="http://www.w3.org/2000/svg"><defs><font id="SairaStencilOne-Regular" horiz-adv-x="0"><font-face font-family="Saira Stencil One" font-weight="400" panose-1="0 0 5 0 0 0 0 0 0 0" ascent="800" descent="-200" x-height="510" cap-height="688" bbox="-677 -354 1258 1163" underline-thickness="80" underline-position="-215" unicode-range="U+000D-FEFF"/><glyph glyph-name="fi" unicode="fi" horiz-adv-x="736" d="M18 510h94v11q0 85 12 129t44 64q30 19 83 24t168 5V615q-52 0-68-1-24-1-36.5-7T300 589q-3-12-3-34v-45h122V369H18v141zm476 233h185V599H494v144zm0-233h185V0H494v510zM112 329h185V0H112v329z"/><glyph glyph-name="fl" unicode="fl" horiz-adv-x="736" d="M18 510h94v11q0 85 12 129t44 64q30 19 83 24t168 5V615q-52 0-68-1-24-1-36.5-7T300 589q-3-12-3-34v-45h122V369H18v141zm476 233h185V0H494v743zM112 329h185V0H112v329z"/><glyph glyph-name="f_f" unicode="ff" horiz-adv-x="819" d="M679 555v-45h122V369H18v141h94v11q0 85 12 129t44 64q30 19 83 24t168 5V615q-52 0-68-1-24-1-36.5-7T300 589q-3-12-3-34v-45h197v11q0 85 12 129t44 64q30 19 83 24t168 5V615q-52 0-68-1-24-1-36.5-7T682 589q-3-12-3-34zM112 329h185V0H112v329zm382 0h185V0H494v329z"/><glyph glyph-name="f_f_i" unicode="ffi" horiz-adv-x="1118" d="M679 555v-45h122V369H18v141h94v11q0 85 12 129t44 64q30 19 83 24t168 5V615q-52 0-68-1-24-1-36.5-7T300 589q-3-12-3-34v-45h197v11q0 85 12 129t44 64q30 19 83 24t168 5V615q-52 0-68-1-24-1-36.5-7T682 589q-3-12-3-34zM112 329h185V0H112v329zm382 0h185V0H494v329zm382 414h185V599H876v144zm0-233h185V0H876v510z"/><glyph glyph-name="f_f_l" unicode="ffl" horiz-adv-x="1118" d="M679 555v-45h122V369H18v141h94v11q0 85 12 129t44 64q30 19 83 24t168 5V615q-52 0-68-1-24-1-36.5-7T300 589q-3-12-3-34v-45h197v11q0 85 12 129t44 64q30 19 83 24t168 5V615q-52 0-68-1-24-1-36.5-7T682 589q-3-12-3-34zM112 329h185V0H112v329zm382 0h185V0H494v329zm382 414h185V0H876v743z"/><glyph glyph-name=".notdef" horiz-adv-x="500" d="M0 700h500V0H0v700zM450 50v600H50V50h400zM229 278q0 29 13.5 48t40.5 41q28 23 42 43.5t14 54.5q0 30-15 54-23 33-74 33-59 0-83-41-15-25-15-59v-28h-49q-3 15-3 19-1 3-1 12 0 15 5 38t18 45q38 64 128 64 87 0 124-63 14-25 17-46l2-26q0-42-22-79-15-24-45-50-22-18-33-33t-11-37v-53h-53v63zm-4-109h60V99h-60v70z"/><glyph glyph-name=".null"/><glyph glyph-name="nonmarkingreturn" horiz-adv-x="260"/><glyph glyph-name="NULL"/><glyph glyph-name="NULL"/><glyph glyph-name="space" horiz-adv-x="260"/><glyph glyph-name="exclam" unicode="!" horiz-adv-x="363" d="M100 447q-3 24-7 77l-7 68-4 53-2 28v15h223v-15l-1-28-5-53-6-68-8-77-20-201H120zM90 163h202V0H90v163z"/><glyph glyph-name="quotedbl" unicode="&quot;" horiz-adv-x="525" d="M65 639v49h170v-49l-20-215H85zm225 0v49h170v-49l-20-215H310z"/><glyph glyph-name="numbersign" unicode="#" horiz-adv-x="700" d="M185 404H84v114h128l39 170h125l-39-170h108l39 170h125l-39-170h83V404H543l-9-40H409l9 40H310l-9-40H176zm-54-234H47v114h111l9 40h125l-9-40h108l9 40h125l-9-40h100V170H489L450 0H325l39 170H256L217 0H92z"/><glyph glyph-name="dollar" unicode="$" horiz-adv-x="539" d="M292 214q13 2 16.5 7t3.5 18q0 16-5 20.5t-22 6.5l-113 15q-79 11-105 57-12 21-16.5 49.5T46 456q0 81 44 119 39 33 113 41v80h47V476q-15-2-19-7t-4-18q0-14 4.5-18t25.5-7l125-17q28-3 47.5-10.5T463 375q30-36 30-129 0-92-43-133-38-36-111-42V-8h-47v222zm67 261q-38 2-54 2h-13v219h47v-79q52-4 92-11l33-7V465q-53 6-105 10zM203 71q-59 4-101 11l-39 7v134q59-6 112-9 40-2 57-2h18V-8h-47v79z"/><glyph glyph-name="percent" unicode="%" horiz-adv-x="898" d="M245 566q-2 25-5 33-4 10-12 12t-27 2h-6v83h6q58 0 89-9.5t46-31.5q14-20 17-52.5t3-99.5q0-60-2.5-90T342 363q-11-23-33.5-35T245 313v253zM113 320.5Q82 330 67 353q-14 20-17 52t-3 98q0 57 2.5 88.5T62 644q11 23 33 35t63 15V503q0-47 1-62 0-23 4-32 3-10 11.5-12.5T201 394h7v-83h-7q-57 0-88 9.5zM615 688h117L283 0H166zm125-441q-2 25-5 33-4 10-12 12t-27 2h-6v83h6q58 0 89-9.5t46-31.5q14-20 17-52.5t3-99.5q0-60-2.5-90T837 44q-11-23-33.5-35T740-6v253zM608 1.5Q577 11 562 34q-14 20-17 52t-3 98q0 57 2.5 88.5T557 325q11 23 33 35t63 15V184q0-47 1-62 0-23 4-32 3-10 11.5-12.5T696 75h7V-8h-7q-57 0-88 9.5z"/><glyph glyph-name="ampersand" unicode="&amp;" horiz-adv-x="739" d="M474 549q-52 2-81 2-71 0-106-6v148q34 3 75 3 92 0 173-12 41-5 78-12V537zM102 43q-32 23-43.5 57T47 184q0 80 32 118 28 32 93 47v4q-62 15-90.5 52T53 515q0 78 39 117 43 45 153 58V483q0-22 3-34.5t10-19.5q7-6 21-8.5t39-2.5h51V277h-51q-27 0-41.5-2t-22.5-9q-9-7-12-20.5t-3-38.5q0-24 5-37t18-20 36.5-10 64.5-3h27V-8h-27Q170-8 102 43zm330 375h287V277H617V16Q571 6 503 0q-33-4-71-6v424z"/><glyph glyph-name="quotesingle" unicode="'" horiz-adv-x="300" d="M65 639v49h170v-49l-20-215H85z"/><glyph glyph-name="parenleft" unicode="(" horiz-adv-x="374" d="M68.5 469.5Q78 530 98 576q19 42 49 79t83 88h123q-18-24-35.5-48T289 651q-29-54-39-121-15-87-15-213H58q1 92 10.5 152.5zM215-134q-25 27-47.5 52.5T130-35Q91 22 76 87q-18 72-18 190h177q1-136 15-214 10-68 39-120 11-21 28.5-45t35.5-48H230z"/><glyph glyph-name="parenright" unicode=")" horiz-adv-x="374" d="M130 485.5Q122 552 107 598q-13 39-31.5 68T21 743h123q53-53 83-89.5t49-77.5q20-46 29.5-106.5T316 317H139q-1 102-9 168.5zM75.5-73Q94-44 107-5q16 46 23.5 112.5T139 277h177q0-118-18-190-16-66-55-122-17-24-43.5-54T144-150H21q36 48 54.5 77z"/><glyph glyph-name="asterisk" unicode="*" horiz-adv-x="454" d="M192 443L89 370l-47 82 114 51-114 53 47 82 103-73-12 123h94l-12-122 103 72 47-82-115-53 115-51-47-82-103 73 12-123h-94z"/><glyph glyph-name="plus" unicode="+" horiz-adv-x="540" d="M203 186H70v134h133v133h134V320h133V186H337V53H203v133z"/><glyph glyph-name="comma" unicode="," horiz-adv-x="330" d="M64-84q24 0 38.5 3.5T124-69t9.5 20 2.5 34V0H64v163h202V40q0-63-6.5-98.5T233-115q-21-22-60.5-32T64-157v73z"/><glyph glyph-name="hyphen" unicode="-" horiz-adv-x="379" d="M47 359h285V210H47v149z"/><glyph glyph-name="period" unicode="." horiz-adv-x="330" d="M64 163h202V0H64v163z"/><glyph glyph-name="slash" unicode="/" horiz-adv-x="429" d="M279 743h161L149-55H-11z"/><glyph glyph-name="zero" unicode="0" horiz-adv-x="660" d="M409 344q0 87-1 114-2 42-8 59-7 17-21.5 21.5T330 543q-15 0-37-2v154q6 1 18 1h19q105 0 162-17.5t84-57.5q25-37 31-97t6-180q0-108-4.5-164T586 86q-20-42-61.5-63.5T409-5v349zM168.5 9.5Q111 27 84 68q-25 37-31 96t-6 180q0 108 4.5 164T74 602q20 42 61.5 63.5T251 693V344q0-86 1-113 2-40 9-60 7-17 21-21.5t48-4.5h20q7 0 17 2V-7q-6-1-18-1h-19Q226-8 168.5 9.5z"/><glyph glyph-name="one" unicode="1" horiz-adv-x="402" d="M137 487L10 439v156l194 93h133V0H137v487z"/><glyph glyph-name="two" unicode="2" horiz-adv-x="614" d="M61 671q127 28 262 25V540q-19 3-79 3-49 0-121-8l-62-8v144zM47 101q0 65 4 105t17 69q14 31 39.5 53.5T177 369l117 47q22 9 38 16.5t22 14.5q7 7 9 16.5t2 27.5v204q48-3 82.5-11.5T507 656q58-45 58-156 0-96-32-143-30-45-98-70l-142-55q-18-7-29.5-13T247 207t-6-16-1-33V0H47v101zm235 55h283V0H282v156z"/><glyph glyph-name="three" unicode="3" horiz-adv-x="610" d="M51 672q118 24 226 24 23 0 34-1V540q-24 3-65 3-25 0-71-2L51 529v143zm308-465q0 22-3.5 34.5T343 261q-15 10-67 10H166v153h110q26 0 41 2t23 8 10.5 16.5T353 483v209q108-11 156-54.5T557 515q0-73-28.5-110T438 353v-4q65-15 93-47 32-38 32-118 0-84-40-127Q477 8 359-4v211zM157-.5Q86 7 47 16v143q121-14 216-14 22 0 54 2V-7q-10-1-34-1-55 0-126 7.5z"/><glyph glyph-name="four" unicode="4" horiz-adv-x="654" d="M30 269l224 419h218L161 133H30v136zm319-136H209l86 153h55l75 137h120V286h84V133h-84V0H349v133z"/><glyph glyph-name="five" unicode="5" horiz-adv-x="628" d="M377 215q0 26-3.5 39.5T359 275t-30 9.5-55 2.5q-66 0-140-6-47-4-61-5v412h169V434l33 3q69 3 98 3 119 0 168-57 22-26 31-63.5t9-89.5q0-59-9-99t-31-68-62.5-44.5T377-4v219zm-93 473h246V533H284v155zM166.5-1Q107 6 65 16v143q115-13 200-13 47 0 70 2V-7q-16-1-48-1-61 0-120.5 7z"/><glyph glyph-name="six" unicode="6" horiz-adv-x="662" d="M521 534q-103 9-134 9-36 0-58-2.5T293 530v165q15 1 46 1 61 0 125.5-7T577 672V529zM232.5-4Q190 0 160 11q-34 12-55.5 36T71 109q-24 73-24 235 0 96 9 158.5T87 604q22 40 61 60t103 27V222q0-29 4.5-44t14.5-23q9-7 22.5-8.5T334 145h25q8 0 20 2V-7q-6-1-18-1h-19q-67 0-109.5 4zM421 215q0 25-4 39.5T404 276t-24.5 9-45.5 2q-24 0-41-3v135q44 21 106 21 58 0 96-6.5t64-26.5q28-22 42-64t14-109q0-62-9-104t-29-70q-22-28-60-44T421-5v220z"/><glyph glyph-name="seven" unicode="7" horiz-adv-x="576" d="M31 688h515V547l-6-14H31v155zm283-195h208L308 0H89z"/><glyph glyph-name="eight" unicode="8" horiz-adv-x="676" d="M104 43q-31 24-44 58.5T47 184q0 80 32 118 28 32 93 47v4q-62 15-90.5 52T53 515q0 82 44 122 50 45 160 55V483q0-25 2.5-37.5T271 427q8-6 23-8.5t44-2.5 44 2.5 24 8.5q8 6 10.5 18.5T419 483q0 24-2.5 37T406 540t-23 9-45 2h-21q-8 0-18-2v146q6 1 19 1h20q160 0 225-46 32-23 46-55.5t14-79.5q0-73-28.5-110T504 353v-4q65-15 93-47 32-38 32-118 0-41-9.5-72.5T588 57Q540 7 425-4v211q0 25-4 39.5T408 268t-24.5 9-45.5 2-45.5-2-24.5-9-13-21.5-4-39.5q0-24 3.5-37.5T268 149q9-7 25-9.5t45-2.5h25q8 0 20 2V-7q-7-1-22-1h-23Q170-8 104 43z"/><glyph glyph-name="nine" unicode="9" horiz-adv-x="662" d="M411 466q0 29-4.5 44.5T392 534q-9 7-21.5 8t-42.5 1h-25q-8 0-20-2v154q6 1 18 1h19q99 0 152.5-10.5T557 642q32-35 45-104.5T615 344q0-97-8.5-158.5T576 85q-22-40-61.5-60.5T411-3v469zM167 255q-38 7-63 27-28 22-42.5 63.5T47 454q0 62 9 104.5T86 629t58 43.5 97 20.5V473q0-25 4-39t13-21 25-9.5 45-2.5q25 0 41 3V269q-44-21-106-21-58 0-96 7zM218-1.5Q142 5 85 16v143q48-5 105.5-9.5T275 145q36 0 58 2.5t36 10.5V-7q-75-1-151 5.5z"/><glyph glyph-name="colon" unicode=":" horiz-adv-x="330" d="M64 510h202V347H64v163zm0-347h202V0H64v163z"/><glyph glyph-name="semicolon" unicode=";" horiz-adv-x="330" d="M64 510h202V347H64v163zm0-594q24 0 38.5 3.5T124-69t9.5 20 2.5 34V0H64v163h202V40q0-63-6.5-98.5T233-115q-21-22-60.5-32T64-157v73z"/><glyph glyph-name="less" unicode="&lt;" horiz-adv-x="541" d="M323 97l-52 19q-25 9-32 11l-42 15-109 39-17 6v132l400 142V327l-235-74 235-74V45z"/><glyph glyph-name="equal" unicode="=" horiz-adv-x="540" d="M70 420h400V286H70v134zm0-200h400V86H70v134z"/><glyph glyph-name="greater" unicode="&gt;" horiz-adv-x="541" d="M70 179l235 74-235 74v134l400-142V187l-19-7-44-15q-6-3-12-4.5t-11-3.5q-8-3-18.5-6.5T343 142q-10-4-45-16l-28-10-52-19L70 45v134z"/><glyph glyph-name="question" unicode="?" horiz-adv-x="521" d="M131 311q0 64 26 92 11 11 24.5 17t37.5 14q16 5 27.5 10t16.5 11 6.5 14 1.5 22v205q45-1 80-8.5t61-26.5q59-44 59-151 0-81-26-118-11-16-27-25.5T379 349l-50-17q-12-4-17-7t-7-9q-3-7-3-18-1-8-1-33v-19H131v65zM35 675q48 10 117 16l77 4V542q-5 1-16 1h-20q-43 0-105-6l-53-6v144zm81-512h202V0H116v163z"/><glyph glyph-name="at" unicode="@" horiz-adv-x="944" d="M74 466q4 58 16 98 13 42 39 68t71 40q42 14 106.5 19t165.5 5q100 0 164.5-5T744 672q45-14 70.5-40t39.5-68q12-39 16-96t4-154h-77q0 86-3 135.5T782 532q-10 35-30 54t-56 28q-33 8-83 10.5T472 627t-141-2.5-83-10.5q-36-9-56.5-28T161 532q-9-32-11.5-80.5T147 314H70q0 94 4 152zm443-121q0 22-2 31t-10 14q-10 5-30 6-13 1-57 1-13 0-49-2l-29-1-48-2v111q88 15 180 15 74 0 116-10t63-33q19-21 25-53t6-87V144h62q18 0 27 3t15 14q6 12 9 39 2 34 2 74h77q-1-73-9-114-8-40-24-59.5T798 78q-25-3-63-3H517v270zM296 102q-29 32-29 101 0 40 6.5 65.5T295 309t41.5 21.5T406 337q28 0 74-2v-77h-35q-19-1-19-16-1-5-1-22 0-11 1-19t5-12q6-6 14-7 12-2 27-2h8V95q-19-16-40.5-20.5T387 70q-62 0-91 32zm10.5-205Q242-98 200-84q-45 14-71 40T90 25q-12 39-16 97t-4 152h77q0-89 2.5-137.5T161 56q10-35 30.5-54T248-26q33-8 83-10.5T472-39h52q43 0 115 2 32 0 43 1v-70q-54-2-91-2H472q-101 0-165.5 5z"/><glyph glyph-name="A" unicode="A" horiz-adv-x="687" d="M221 688h17l79-274L202 0H2zm225-566H279l42 154h80L283 688h183L685 0H481z"/><glyph glyph-name="B" unicode="B" horiz-adv-x="670" d="M65 688h200V0H65v688zm242-535h41q28 0 42.5 1.5T412 162t9.5 17 2.5 32q0 22-2.5 33t-9.5 17q-12 10-64 10h-41v153h35q28 0 42.5 1.5T406 433t9.5 16.5T418 479q0 20-2.5 30.5T406 526t-21.5 7.5T342 535h-35v153h114q201 0 201-173 0-73-28.5-110T503 353v-4q65-15 93-47 32-38 32-118 0-92-49-138T422 0H307v153z"/><glyph glyph-name="C" unicode="C" horiz-adv-x="568" d="M293 695q8 1 25 1h26q67 0 131-10 33-5 51-10V533q-15 1-50 5-47 5-82 5-39 0-62.5-2.5T293 532v163zM185.5 9.5Q127 27 97 68q-29 39-39.5 103.5T47 344q0 95 7.5 154T82 597q21 41 61.5 63.5T251 691V344q0-56 2-108 2-40 15.5-60t42.5-25q28-6 83-6 57 0 97 5 16 1 39 5V10Q481-1 419-5q-34-3-75-3Q244-8 185.5 9.5z"/><glyph glyph-name="D" unicode="D" horiz-adv-x="680" d="M65 688h200V0H65v688zm242-535h8q49 0 69.5 4.5T415 179q11 18 12 57 2 50 2 108 0 57-2 109-2 39-12.5 57T381 532q-23 3-66 3h-8v153h8q80 0 133.5-7t88.5-22q34-15 54-41t29-65q8-35 10.5-82.5T633 344q0-80-2.5-127T620 135q-9-39-29-65t-54-41q-35-15-88.5-22T315 0h-8v153z"/><glyph glyph-name="E" unicode="E" horiz-adv-x="616" d="M65 688h200V0H65v688zm242 0h254V535H307v153zm0-264h207V271H307v153zm0-271h254V0H307v153z"/><glyph glyph-name="F" unicode="F" horiz-adv-x="576" d="M65 688h200V0H65v688zm242 0h234V535H307v153zm0-284h197V251H307v153z"/><glyph glyph-name="G" unicode="G" horiz-adv-x="660" d="M293 694q40 2 66 2 90 0 165-12 38-4 73-12V529q-42 4-63 7-17 1-55 5-38 2-50 2-61 0-89.5-2.5T293 528v166zM199.5 7Q140 22 107 60T60.5 165 47 344q0 95 9 156t31 100q23 40 62 61t102 29V344q0-71 4-108.5t15-57.5q12-21 34.5-29t64.5-8V-8h-10Q259-8 199.5 7zM411 264h-71v145h260V17Q553 6 483 0q-34-5-72-6v270z"/><glyph glyph-name="H" unicode="H" horiz-adv-x="716" d="M65 688h200V0H65v688zm386-423H307v160h144v263h200V0H451v265z"/><glyph glyph-name="I" unicode="I" horiz-adv-x="330" d="M65 688h200V0H65v688z"/><glyph glyph-name="J" unicode="J" horiz-adv-x="425" d="M20 145q54 0 83 3t42.5 15.5T161 200q2 32 2 66v422h200V334q0-96-3-147t-13-85q-11-37-32.5-57.5T255 14q-35-9-87.5-11.5T20 0v145z"/><glyph glyph-name="K" unicode="K" horiz-adv-x="683" d="M65 688h200V0H65v688zm242-447v215l158 232h218L446 364 686 0H462z"/><glyph glyph-name="L" unicode="L" horiz-adv-x="541" d="M65 688h200V0H65v688zm242-527h214V0H307v161z"/><glyph glyph-name="M" unicode="M" horiz-adv-x="885" d="M65 658v30h184L537 76 504 0H374zm565-369h-4l-67-162-86 184 157 377h190V0H630v289zM65 559l184-392V0H65v559z"/><glyph glyph-name="N" unicode="N" horiz-adv-x="716" d="M65 660v28h200L651 29V0H452zm396-223v251h190V112zM65 577l190-325V0H65v577z"/><glyph glyph-name="O" unicode="O" horiz-adv-x="698" d="M447 344q0 87-1 114-2 41-11 59.5T406 540q-20 3-57 3-43 0-56-4v156q9 1 27 1h29q112 0 173.5-17.5T612 621q26-37 32.5-97t6.5-180q0-105-4.5-161.5T624 89q-20-42-61.5-64T447-4v348zM139 24q-33 16-52 43t-28 67q-8 35-10 80.5T47 344q0 105 4.5 161T74 599q20 41 61 63t116 30V344q0-59 2-113 2-41 10.5-60t28.5-22q17-4 57-4 41 0 56 3V-7q-9-1-27-1h-29Q203-8 139 24z"/><glyph glyph-name="P" unicode="P" horiz-adv-x="645" d="M65 688h200V0H65v688zm242-321h24q32 0 47.5 2.5T403 381q9 8 11.5 23.5T417 451t-2.5 46.5T403 522q-9 8-25 10.5t-47 2.5h-24v153h83q74 0 120.5-14.5T581 629q23-28 31-70.5t8-107.5q0-62-7.5-103T583 279q-25-32-71.5-48.5T390 214h-83v153z"/><glyph glyph-name="Q" unicode="Q" horiz-adv-x="698" d="M447-2v346q0 87-1 114-2 41-11 59.5T406 540q-20 3-57 3-43 0-56-4v156q9 1 27 1h29q112 0 173.5-17.5T612 621q26-37 32.5-97t6.5-180q0-109-8.5-171.5T604 69l132-178v-6H512zM139 24q-33 16-52 43t-28 67q-8 35-10 80.5T47 344q0 105 4.5 161T74 599q20 41 61 63t116 30V344q0-59 2-113 2-41 10.5-60t28.5-22q17-4 57-4 41 0 56 3V-6q-38-2-56-2-146 0-210 32z"/><glyph glyph-name="R" unicode="R" horiz-adv-x="674" d="M65 688h200V0H65v688zm282-454h-40v153h34q31 0 47 2.5t25 9.5q8 7 11 21t3 41-3 41.5-11 21.5-23.5 9-48.5 2h-34v153h103q71 0 115-14t68-43q22-27 29.5-67t7.5-103q0-81-15-125-21-56-74-79L645 0H435z"/><glyph glyph-name="S" unicode="S" horiz-adv-x="612" d="M423 541q-46 2-74 2-36 0-68-2v155h25q82 0 170-11 28-4 63-11V530q-33 4-116 11zm-49-338q0 21-3 30.5t-10 13-24 5.5l-123 15q-109 12-147 71-17 25-23 61t-6 88q0 111 57 160 46 40 144 47V493q0-13 1-22t4-14q3-6 10-8.5t21-3.5l138-17q43-6 70-15t46-28q45-47 45-167 0-127-56-178-25-23-60.5-33.5T374-7v210zM135 1Q84 6 58 11v146q59-5 135-10 48-2 68-2 54 0 71 3V-8h-11Q221-8 135 1z"/><glyph glyph-name="T" unicode="T" horiz-adv-x="581" d="M9 688h563V528H9v160zm181-200h200V0H190v488z"/><glyph glyph-name="U" unicode="U" horiz-adv-x="690" d="M183 9q-57 17-84 55-25 35-31 89t-6 161v374h200V274q0-37 2-71 2-27 9-39t24-15q15-4 48-4h23q8 0 18 2V-7q-7-1-20-1h-21Q240-8 183 9zm245 679h200V314q0-98-4-148t-22-84q-20-39-61-60T428-5v693z"/><glyph glyph-name="V" unicode="V" horiz-adv-x="663" d="M200 29q-13 40-23 78l-32 110q-16 54-25 81-8 30-13 45L5 688h204L396 0H209zm157 276l101 383h200L556 343l-37-126q-18-58-33-110-10-38-23-78l-9-29h-14z"/><glyph glyph-name="W" unicode="W" horiz-adv-x="996" d="M166 29q-7 28-18 78l-27 110-30 126-81 345h199L351 0H173zm157 315l75 344h205L767 0H596l-8 33-21 87-30 127q-19 77-36 151h-6l-34-151-11-51q-5-21-9.5-40t-8.5-36l-20-87-8-33h-11zm404 6l60 338h199l-82-345-30-126q-19-77-26-110l-19-78-7-29h-12z"/><glyph glyph-name="X" unicode="X" horiz-adv-x="678" d="M9 688h227L673 0H445zm366-140l76 140h219L480 382zM197 312l104-165L224 0H5z"/><glyph glyph-name="Y" unicode="Y" horiz-adv-x="633" d="M216 227l-9 20-26 51-25 53q-4 7-10 21l-41 85L-5 688h204l217-462V0H216v227zm129 248l93 213h200l-78-162-33-68-63-131-25-52z"/><glyph glyph-name="Z" unicode="Z" horiz-adv-x="618" d="M51 688h527V546l-8-11H51v153zM40 147l258 348h242L172 0H40v147zm298 6h240V0H224z"/><glyph glyph-name="bracketleft" unicode="[" horiz-adv-x="399" d="M65 743h289V630l-119-4V315H65v428zm0-468h170V-33l119-4v-113H65v425z"/><glyph glyph-name="backslash" unicode="\" horiz-adv-x="429" d="M-11 743h161L440-55H280z"/><glyph glyph-name="bracketright" unicode="]" horiz-adv-x="399" d="M164 626l-119 4v113h289V315H164v311zM45-37l119 4v308h170v-425H45v113z"/><glyph glyph-name="asciicircum" unicode="^" horiz-adv-x="426" d="M147 749h132q19-41 22-48 19-43 49-104l71-153H287l-74 185-74-185H5z"/><glyph glyph-name="underscore" unicode="_" horiz-adv-x="400" d="M0-57h400v-133H0v133z"/><glyph glyph-name="grave" unicode="`" horiz-adv-x="311" d="M20 738v5h183l88-142v-5H155z"/><glyph glyph-name="a" unicode="a" horiz-adv-x="558" d="M318 316q0 26-2 37t-12 16q-9 5-34 7-15 1-65 1-48 0-89-4l-53-3v130q94 18 203 18 84 0 131.5-12t71.5-38q21-24 27.5-61t6.5-103V0H318v316zM68 31.5Q35 70 35 148q0 48 7 77.5T66 272q17 18 47 25.5t79 7.5l84-2v-89h-10q-23 0-30-1-20-1-21-19-1-6-1-25 0-15 1.5-23t5.5-13q5-7 15-8 14-2 30-2h10V21Q254 4 229.5-1.5T170-7Q101-7 68 31.5z"/><glyph glyph-name="b" unicode="b" horiz-adv-x="578" d="M57 743h185V0H57v743zM328.5-1Q304 5 284 20v127h11q22 0 31.5 2.5T341 161q5 11 6 32 1 15 1 62t-1 62q-1 22-5.5 32T326 361q-14 2-31 2h-11v127q20 16 43 21.5t59 5.5q80 0 115-58 35-60 35-206 0-147-35-205-18-29-46.5-42T386-7q-33 0-57.5 6z"/><glyph glyph-name="c" unicode="c" horiz-adv-x="465" d="M388 373q-25 4-72 4-31 0-44-4v145q71-1 147-18V370zM141 11Q95 30 73 67q-20 32-25.5 75T42 254q0 63 5 105t21 74q19 37 57.5 57.5T230 516V255q0-44 2.5-66t10.5-34q9-12 25.5-17t47.5-5q53 0 73 3l34 4V10Q349-8 265-8q-78 0-124 19z"/><glyph glyph-name="d" unicode="d" horiz-adv-x="578" d="M336 743h185V0H336v743zM123.5 6Q95 19 78 48q-19 30-27.5 80T42 253q0 147 36 206 34 58 114 58 36 0 59-5.5t43-21.5V363h-11q-22 0-31.5-2.5T237 349q-5-11-6-32-1-15-1-62t1-62q1-21 6-31.5t16-12.5q14-2 30-2h11V20Q274 5 249.5-1T192-7q-40 0-68.5 13z"/><glyph glyph-name="e" unicode="e" horiz-adv-x="557" d="M268 305h70q0 56-11 72-6 9-16 11.5t-29 2.5h-14v127h14q86 0 132.5-14t68.5-46q20-28 24.5-72t4.5-132v-40H268v91zM157.5 7.5Q105 23 79 57q-23 30-30 74.5T42 254q0 72 5 114.5T68 441q18 33 55.5 51.5T226 516V214q0-34 3-48.5t14-21.5q12-8 37-9 32-2 68-2 64 0 93 3l51 4V11Q452-1 382-5q-34-3-80-3-92 0-144.5 15.5z"/><glyph glyph-name="f" unicode="f" horiz-adv-x="437" d="M18 510h94v11q0 85 12 129t44 64q30 19 83 24t168 5V615q-52 0-68-1-24-1-36.5-7T300 589q-3-12-3-34v-45h122V369H18v141zm94-181h185V0H112v329z"/><glyph glyph-name="g" unicode="g" horiz-adv-x="578" d="M124 16.5Q96 30 78 60q-36 58-36 202 0 145 36 201 18 28 46 41t68 13q34 0 58-6t44-22V363h-11q-22 0-31.5-2.5T237 350q-5-11-6-31-1-14-1-59t1-59q1-21 6-30.5t16-11.5q14-2 30-2h11V30q-20-16-43-21.5T192 3q-40 0-68 13.5zM139-200l-60 6v129h134q36 0 70 2 25 2 36.5 9.5T334-28q2 24 2 51v487h185V56q0-78-7-122.5T484-141q-26-33-79.5-49T259-206q-50 0-120 6z"/><glyph glyph-name="h" unicode="h" horiz-adv-x="588" d="M57 743h185V0H57v743zm289-502q0 53-1 70-2 28-5 37-4 10-14 12.5t-32 2.5h-10v122q40 32 102 32 90 0 121-55 14-24 19-58.5t5-84.5V0H346v241z"/><glyph glyph-name="i" unicode="i" horiz-adv-x="299" d="M57 743h185V599H57v144zm0-233h185V0H57v510z"/><glyph glyph-name="j" unicode="j" horiz-adv-x="299" d="M57 743h185V599H57v144zM-25-69q29 0 46 3 16 3 24 9t10 16q2 12 2 23v528h185V37q0-85-10.5-130.5T193-162t-77-30-141-7v130z"/><glyph glyph-name="k" unicode="k" horiz-adv-x="576" d="M57 743h185V0H57v743zm227-597v212l87 152h195L416 268 569 0H367z"/><glyph glyph-name="l" unicode="l" horiz-adv-x="299" d="M57 743h185V0H57v743z"/><glyph glyph-name="m" unicode="m" horiz-adv-x="857" d="M336 311q0 24-5 37-4 10-12.5 12.5T289 363h-5v125q39 29 108 29 31 0 54-7.5t39-26.5q36-44 36-164V0H336v311zm279 0q0 24-5 37-4 10-12.5 12.5T568 363h-5q-2 26-6 54-8 40-17 58 42 42 120 42 85 0 116-55 14-24 19-58.5t5-84.5V0H615v311zM57 510h185V0H57v510z"/><glyph glyph-name="n" unicode="n" horiz-adv-x="588" d="M346 241q0 53-1 70-2 28-5 37-4 10-14 12.5t-32 2.5h-10v125q39 29 102 29 90 0 121-55 14-24 19-58.5t5-84.5V0H346v241zM57 510h185V0H57v510z"/><glyph glyph-name="o" unicode="o" horiz-adv-x="572" d="M342 254q0 51-1 68-1 24-6 36.5T319 374q-12 3-33 3h-14v141h14q87 0 136-13.5t73-44.5q22-28 28.5-74.5T530 254q0-79-4.5-122.5T504 60q-19-31-57-46.5T342-6v260zM150 5q-49 13-73 44-22 28-28.5 74T42 254q0 78 5 122t22 73q18 32 56 47.5T230 516V254q0-51 1-67 1-24 6-36t17-15q10-3 32-3h14V-8h-14Q199-8 150 5z"/><glyph glyph-name="p" unicode="p" horiz-adv-x="578" d="M327-1.5Q304 4 284 20v127h11q22 0 31.5 2.5T341 161q5 11 6 32 1 15 1 62t-1 62q-1 22-5.5 32T326 361q-14 2-31 2h-11v127q20 15 44.5 21t57.5 6q40 0 68.5-13t46.5-42q35-58 35-205 0-146-35-206Q466-7 386-7q-36 0-59 5.5zM57 510h185v-709H57v709z"/><glyph glyph-name="q" unicode="q" horiz-adv-x="578" d="M78 51q-36 59-36 206 0 75 8.5 125T78 462q17 29 45.5 42t68.5 13q33 0 57.5-6t44.5-21V363h-11q-22 0-31.5-2.5T237 349q-5-11-6-32-1-15-1-62t1-62q1-21 6-31.5t16-12.5q14-2 30-2h11V20Q274 4 251-1.5T192-7Q112-7 78 51zm258 459h185v-709H336v709z"/><glyph glyph-name="r" unicode="r" horiz-adv-x="425" d="M284 481q21 20 49.5 28.5T404 518V351q-45 0-73.5-6T284 324v157zM57 510h185V0H57v510z"/><glyph glyph-name="s" unicode="s" horiz-adv-x="498" d="M383 376q-62 6-100 6h-33v136q71 0 135-10l50-9V371q-19 1-52 5zm-93-221q0 15-5 19t-21 6l-108 15q-40 6-64.5 19T55 249q-12 19-16 46t-4 67q0 82 49 120 41 30 124 35V360q0-15 4-19.5t25-7.5l120-16q26-3 45-10.5t32-22.5q29-32 29-123 0-96-49-134Q371-5 290-7v162zM108 2l-57 9v128q40-4 108-8 38-2 54-2h35V-8Q168-7 108 2z"/><glyph glyph-name="t" unicode="t" horiz-adv-x="427" d="M18 510h94v148h185V510h112V369H18v141zm94-181h185V0H112v329z"/><glyph glyph-name="u" unicode="u" horiz-adv-x="586" d="M79 48q-14 24-19 58.5T55 191v319h185V269q0-53 1-70 2-25 6-36t13-13.5 32-2.5h10V22Q263-7 200-7 110-7 79 48zm265 462h185V0H344v510z"/><glyph glyph-name="v" unicode="v" horiz-adv-x="551" d="M10 510h189L336 0H159zm297-240l52 240h182L392 0h-12z"/><glyph glyph-name="w" unicode="w" horiz-adv-x="846" d="M14 510h181L316 0H151zm277-225l62 225h149L650 0H487l-59 227h-10L370 0h-11zm321-2l41 227h179L705 0h-11z"/><glyph glyph-name="x" unicode="x" horiz-adv-x="566" d="M13 510h202L559 0H357zm307-80l42 80h190L415 289zM150 231l95-141-48-90H7z"/><glyph glyph-name="y" unicode="y" horiz-adv-x="588" d="M81 58q-14 24-19 58.5T57 201v309h185V279q0-53 1-70 2-26 6-36 4-11 13-13.5t32-2.5h10V33Q264 3 202 3 112 3 81 58zm68-258l-58 6v129h134q36 0 70 2 24 2 35.5 9.5T344-28q2 24 2 51v487h185V56q0-80-6.5-124T495-141q-26-33-79-49t-145-16q-52 0-122 6z"/><glyph glyph-name="z" unicode="z" horiz-adv-x="534" d="M45 133l212 236H57v141h430V377L149 0H45v133zm286 8h158V0H205z"/><glyph glyph-name="braceleft" unicode="{" horiz-adv-x="381" d="M22 335q47 6 66 36 14 24 14 68v109q0 85 68 147 29 28 68 48h123q-48-44-75-108-14-33-14-67V445q0-94-75-130H22v20zm149.5-439Q144-78 123-42t-21 87v105q0 44-14 69-20 31-66 37v19h176q74-36 74-127V25q0-62 44-123 19-27 45-52H238q-39 20-66.5 46z"/><glyph glyph-name="bar" unicode="|" horiz-adv-x="305" d="M70 743h165v-904H70v904z"/><glyph glyph-name="braceright" unicode="}" horiz-adv-x="381" d="M109 445v123q0 60-45 123-20 30-44 52h123q39-20 66.5-46t48.5-62q21-37 21-87V439q0-44 15-68 18-31 65-36v-20H184q-75 36-75 130zM95-42q14 33 14 67v123q0 91 74 127h176v-19q-47-5-65-37-15-25-15-69V45q0-85-68-147-29-28-68-48H20q47 45 75 108z"/><glyph glyph-name="asciitilde" unicode="~" horiz-adv-x="497" d="M49 292q2 24 11 42 18 40 87 40 39 0 105-14l46-9q23-5 36-5 16 0 19.5 8t3.5 32h93q0-45-2-69t-10-42q-20-41-88-41-39 0-105 14 4-1-46 10-19 4-36 4-16 0-19.5-7.5T140 222H47q0 46 2 70z"/><glyph glyph-name="uni00A0" horiz-adv-x="260"/><glyph glyph-name="exclamdown" unicode="¡" horiz-adv-x="343" d="M70 510h202V347H70v163zM60-163l2 28 4 53 7 69q4 50 7 76l20 201h143l20-201 8-76 6-69 5-53 1-28v-15H60v15z"/><glyph glyph-name="cent" unicode="¢" horiz-adv-x="469" d="M190 74q-51 9-80.5 33T65 169q-13 32-16.5 71.5T45 342q0 61 3.5 101.5T65 516q15 37 44.5 61t80.5 35v84h47V-8h-47v82zm200 393q-25 4-68 4-30 0-43-4v229h47v-80q46-4 94-16V464zM279 218q17-3 43-3 51 0 70 3l32 4V86q-52-13-98-17V-8h-47v226z"/><glyph glyph-name="sterling" unicode="£" horiz-adv-x="609" d="M516 538q-42 5-73 5-62 0-86-9v161q5 1 17 1h19q63 0 121-10 32-6 46-10V533q-17 1-44 5zM40 429h75q0 66 9.5 112.5T156 619q23 32 61 49.5t98 23.5V429h169V280H40v149zm0-276h74v87h201v-87h256V0H40v153z"/><glyph glyph-name="currency" unicode="¤" horiz-adv-x="681" d="M288.5 220.5Q295 205 312 202t51-3V72h-24q-77 0-127 11L130 0 38 93l69 69q-6 18-8 28-7 30-8.5 59.5T89 344q0 66 3.5 108t14.5 72l-70 71 93 94 87-87q37 8 61 10V344q0-28 2-74 2-34 8.5-49.5zm297.5 17q-3-41.5-14-71.5l72-72-94-95-86 87q-25-7-64-10v268q0 37-1 48v26q0 33-8 49t-25 19-51 3v126h24q80 0 129-10l84 84 92-93-72-72q11-30 14-72t3-108q0-65-3-106.5z"/><glyph glyph-name="yen" unicode="¥" horiz-adv-x="633" d="M41 447h82l-39 87q-39 84-69 154h204l96-268h7l96 268h200L509 447h82v-97H41v97zm175-234H41v97h550v-97H416V0H216v213z"/><glyph glyph-name="brokenbar" unicode="¦" horiz-adv-x="305" d="M70 743h165V390H70v353zm0-551h165v-353H70v353z"/><glyph glyph-name="section" unicode="§" horiz-adv-x="689" d="M524 540q-17 0-63 2-21 1-65 1h-40v153q70 0 151-9l21-3q8-1 17-2t18-3V538q-13 0-39 2zm-51-293q-2 20-10 28t-27 14l-203 59h-2l-2 1q-11 0-13-27L44 371q10 30 29.5 47t55.5 29q-5 26-5 78 0 94 55 134 44 31 135 36V519q0-11 1.5-15t9.5-7 21-7l194-60q32-10 50.5-19.5T623 385q31-39 31-131 0-33-3-59zM375 6q0 14-4 17t-29 12L148 95q-32 10-50.5 19.5T65 141q-31 37-31 130v33q0 10 2 28l179-52q2-21 10-30t28-14l203-59 2-1h2q10 0 13 30l171-50q-9-31-28.5-48.5T559 78q6-33 6-78 0-94-54-134-24-18-57-26t-79-10V6zM181-163q-35 5-55 9v141q41-4 102-4 20-1 65-1h40v-153q-80 0-152 8z"/><glyph glyph-name="dieresis" unicode="¨" horiz-adv-x="401" d="M20 730h153V611H20v119zm208 0h153V611H228v119z"/><glyph glyph-name="copyright" unicode="©" horiz-adv-x="754" d="M84 547q9 62 37 94 29 33 86.5 44T377 696q75 0 123-4.5t80-15.5q33-13 52.5-35.5T663 581q10-34 13-84t3-133h-73q0 69-2.5 112t-8.5 71q-7 29-21.5 45T534 616q-22 7-55.5 9T377 627q-67 0-100.5-2t-56.5-9q-26-8-40-24t-21-45q-7-27-9-68.5T148 364H75q0 121 9 183zm382-100q-12 1-21 2-8 1-20 1h-21q-6 0-16-2v84h10q34 0 68-6l27-5v-76q-15 1-27 2zM316 166q-30 10-47 33-16 21-21.5 55.5T242 344q0 50 4 81t15 52q11 22 32.5 34.5T351 529V344q0-44 1-58 1-21 8-31.5t22-13.5 43-3q24 0 50 2l20 3v-77q-18-4-28-5-32-5-69-5-52 0-82 10zM208 3.5Q150 15 121 48q-28 32-37 93.5T75 324h73q0-73 2-114.5t9-68.5q7-29 21-45t40-24q23-7 56.5-9T377 61t101 2 56 9q25 8 39.5 24t21.5 45q6 28 8.5 70.5T606 324h73q0-121-9-182.5T633 48q-29-33-87-44.5T377-8 208 3.5z"/><glyph glyph-name="ordfeminine" unicode="ª" horiz-adv-x="422" d="M242 548q0 19-1.5 27t-8.5 12q-5 3-25 5-11 1-48 1-10 0-40-2l-25-1-39-2v95q65 13 149 13 59 0 94.5-9.5T352 658q16-17 20.5-44.5T377 539V317H242v231zM59 339.5Q35 367 35 425q0 36 5.5 58.5T58 518t34 17 58 5q17 0 55-2v-64q-17 0-22-1-16-2-16-13-1-5-1-19 0-16 2-22t10-9 27-3v-78q-16-10-32-13.5t-39-3.5q-51 0-75 27.5z"/><glyph glyph-name="guillemotleft" unicode="«" horiz-adv-x="515" d="M14 304l132 206h121L166 304 267 99H146zm203 0l132 206h121L369 304 470 99H349z"/><glyph glyph-name="logicalnot" unicode="¬" horiz-adv-x="540" d="M335 186H70v134h399V53H335v133z"/><glyph glyph-name="uni00AD" unicode="­" horiz-adv-x="379" d="M47 359h285V210H47v149z"/><glyph glyph-name="registered" unicode="®" horiz-adv-x="754" d="M84 547q9 62 37 94 29 33 86.5 44T377 696q75 0 123-4.5t80-15.5q33-13 52.5-35.5T663 581q10-34 13-84t3-133h-73q0 69-2.5 112t-8.5 71q-7 29-21.5 45T534 616q-22 7-55.5 9T377 627q-67 0-100.5-2t-56.5-9q-26-8-40-24t-21-45q-7-27-9-68.5T148 364H75q0 121 9 183zm145-20h107V160H229v367zm150-242h-6v81q23 0 33 2.5t13 10.5 3 27q0 14-1.5 22t-6.5 11q-8 6-41 6v82h41q72 0 96-30 11-15 15.5-37t4.5-54q0-44-9.5-70T483 297l55-137H426zM208 3.5Q150 15 121 48q-28 32-37 93.5T75 324h73q0-73 2-114.5t9-68.5q7-29 21-45t40-24q23-7 56.5-9T377 61t101 2 56 9q25 8 39.5 24t21.5 45q6 28 8.5 70.5T606 324h73q0-121-9-182.5T633 48q-29-33-87-44.5T377-8 208 3.5z"/><glyph glyph-name="macron" unicode="¯" horiz-adv-x="337" d="M26 742h285V593H26v149z"/><glyph glyph-name="degree" unicode="°" horiz-adv-x="399" d="M242 546q0 21-1 36.5t-4 23.5q-4 8-12.5 10.5T199 619v77q56 0 87-8.5t46-26.5q13-16 16.5-42t3.5-73q0-45-2.5-68T338 439q-11-18-34-28t-62-13v148zM113 405q-31 8-45 26-14 16-17.5 41.5T47 546q0 43 2.5 67T62 653q11 18 33 28t62 13V546q0-21 1-36.5t4-22.5q4-7 13-10t25-3v-77q-56 0-87 8z"/><glyph glyph-name="plusminus" unicode="±" horiz-adv-x="540" d="M203 317H70v134h133v133h134V451h133V317H337V184H203v133zM70 134h400V0H70v134z"/><glyph glyph-name="uni00B2" unicode="²" horiz-adv-x="367" d="M38 475q0 34 2.5 56.5T50 570q8 18 22 30.5t40 21.5l62 24q22 8 27.5 13.5T207 680v116q60-2 87-20 35-24 35-91 0-53-17.5-79.5T255 567l-75-23q-15-5-19-10t-4-19V414H38v61zm7 308q31 5 77 10l48 3v-97h-19q-35 0-70-5-24-4-36-5v94zm149-268h135V414H194v101z"/><glyph glyph-name="uni00B3" unicode="³" horiz-adv-x="381" d="M47 783q48 8 78 10l46 3v-97h-13q-47 0-75-4l-36-4v92zm164-251q0 20-6 25t-30 5h-67v81h67q22 0 27.5 4.5T208 671v124q67-5 95.5-30t28.5-72q0-35-13-55t-42-32v-4q29-9 44-29t15-57q0-50-25-75-28-28-100-34v125zM85 412q-25 4-40 7v92l42-4q32-4 77-4h10v-97q-41 0-89 6z"/><glyph glyph-name="acute" unicode="´" horiz-adv-x="311" d="M20 601l88 142h183v-5L156 596H20v5z"/><glyph glyph-name="uni00B5" unicode="µ" horiz-adv-x="586" d="M55 510h185V269q0-53 1-70 2-25 6-36t13-13.5 32-2.5h10V21Q278 2 240-3v-186H55v699zm289 0h185V0H344v510z"/><glyph glyph-name="paragraph" unicode="¶" horiz-adv-x="657" d="M286 222q-62 0-101.5 3T119 237q-27 9-42 25t-23 42q-7 24-9.5 59T42 454q0 86 6.5 128T77 647q23 24 70.5 32.5T286 688h120v-832H286v366zm186 466h120v-832H472v832z"/><glyph glyph-name="periodcentered" unicode="·" horiz-adv-x="330" d="M64 381h202V218H64v163z"/><glyph glyph-name="cedilla" unicode="¸" horiz-adv-x="247" d="M20-184L101 8h126V3l-34-192H20v5z"/><glyph glyph-name="uni00B9" unicode="¹" horiz-adv-x="264" d="M97 662l-67-25v99l110 52h79V414H97v248z"/><glyph glyph-name="ordmasculine" unicode="º" horiz-adv-x="440" d="M261 553q-1 18-5 27t-12 12q-12 2-24 2h-4v103h4q64 0 99.5-10t53.5-33q16-21 20.5-54.5T398 504q0-58-3.5-89T379 363q-14-23-42-34.5T261 314v239zM120.5 323Q85 333 68 355q-17 21-21.5 54T42 504q0 56 4 88t16 53q14 23 41 35t76 15V504q0-37 1-48 0-18 4-27t13-11q10-2 23-2h4V313h-4q-64 0-99.5 10z"/><glyph glyph-name="guillemotright" unicode="»" horiz-adv-x="515" d="M146 304L45 510h121l132-206L166 99H45zm203 0L248 510h121l132-206L369 99H248z"/><glyph glyph-name="onequarter" unicode="¼" horiz-adv-x="773" d="M97 562l-67-25v99l110 52h79V314H97v248zm427 126h117L192 0H75zM393 149l123 229h134L461 67h-68v82zm170-82h-61l59 97h16l48 73h58v-73h45V67h-45V0H563v67z"/><glyph glyph-name="onehalf" unicode="½" horiz-adv-x="811" d="M97 562l-67-25v99l110 52h79V314H97v248zm427 126h117L192 0H75zM475 61q0 34 2.5 56.5T487 156q8 18 22 30.5t40 21.5l62 24q23 9 28 14t5 20v116q60-2 87-20 35-25 35-91 0-53-17.5-79.5T692 153l-75-23q-15-5-19-10t-4-19V0H475v61zm7 308q31 5 77 10l48 3v-97h-19q-35 0-70-5-24-4-36-5v94zm149-268h135V0H631v101z"/><glyph glyph-name="threequarters" unicode="¾" horiz-adv-x="850" d="M47 683q33 6 78 10l46 3v-97h-13q-47 0-75-4l-36-4v92zm164-251q0 20-6 25t-30 5h-67v81h67q22 0 27.5 4.5T208 571v124q67-5 95.5-30t28.5-72q0-35-13-55t-42-32v-4q29-9 44-29t15-57q0-50-25-75-28-28-100-34v125zm390 256h117L269 0H152zM85 312q-25 4-40 7v92l42-4q32-4 77-4h10v-97q-41 0-89 6zm385-163l123 229h134L538 67h-68v82zm170-82h-61l59 97h16l48 73h58v-73h45V67h-45V0H640v67z"/><glyph glyph-name="questiondown" unicode="¿" horiz-adv-x="466" d="M203 510h202V347H203v163zm-33.5-687.5Q135-170 110-151 50-107 50 0q0 81 26 118 11 16 27 25.5t39 17.5l50 17q12 5 17 8t8 9l3 18v51h170v-65q0-65-26-91-11-11-24.5-17.5T302 76q-16-5-27.5-10T258 55t-6.5-14-1.5-22v-205q-46 1-80.5 8.5zM292-32q5-1 17-1h19q63 0 104 4l54 4v-144l-57-7q-78-9-137-10v154z"/><glyph glyph-name="Agrave" unicode="À" horiz-adv-x="687" d="M221 688h17l79-274L202 0H2zm225-566H279l42 154h80L283 688h183L685 0H481zM139 893v5h183l88-142v-5H274z"/><glyph glyph-name="Aacute" unicode="Á" horiz-adv-x="687" d="M221 688h17l79-274L202 0H2zm225-566H279l42 154h80L283 688h183L685 0H481zM270 756l88 142h183v-5L406 751H270v5z"/><glyph glyph-name="Acircumflex" unicode="Â" horiz-adv-x="687" d="M221 688h17l79-274L202 0H2zm225-566H279l42 154h80L283 688h183L685 0H481zM162 758l91 139h175l91-139v-8H396l-55 75-56-75H162v8z"/><glyph glyph-name="Atilde" unicode="Ã" horiz-adv-x="687" d="M221 688h17l79-274L202 0H2zm225-566H279l42 154h80L283 688h183L685 0H481zM140 821q2 24 11 42 10 20 30.5 30t56.5 10q47 0 105-14 14-3 25.5-5t20.5-4q23-5 36-5 16 0 19.5 8t3.5 32h93q0-45-2-69t-10-42q-19-41-88-41-47 0-105 14l-46 10q-19 4-36 4-16 0-19.5-7.5T231 751h-93q0 46 2 70z"/><glyph glyph-name="Adieresis" unicode="Ä" horiz-adv-x="687" d="M221 688h17l79-274L202 0H2zm225-566H279l42 154h80L283 688h183L685 0H481zM159 870h153V751H159v119zm208 0h153V751H367v119z"/><glyph glyph-name="Aring" unicode="Å" horiz-adv-x="687" d="M221 688h17l79-274L202 0H2zm225-566H279l42 154h80L283 688h183L685 0H481zm-52 750q0 17-1 25.5t-6 13.5-16 8q-14 2-32 2h-12v73h12q54 0 85-7.5t46-22.5q14-14 18-35t4-57q0-31-2.5-49.5T478 790q-10-15-30-24t-54-13v119zM255 758.5q-31 7.5-46 22.5-14 14-18 35t-4 56q0 31 2.5 49.5T201 954q10 15 30 24t54 13V872q0-17 1-25t6-13q5-6 16-8 14-2 31-2h13v-73h-13q-53 0-84 7.5z"/><glyph glyph-name="AE" unicode="Æ" horiz-adv-x="979" d="M296 688h273L654 0H459l-13 122H276l64 154h90l-25 250h-5L179 0H-20zm316 0h312V535H631zm33-264h232V271H664zm33-271h246V0H697z"/><glyph glyph-name="Ccedilla" unicode="Ç" horiz-adv-x="568" d="M394 543q-39 0-62.5-2.5T293 532v163q8 1 25 1h26q67 0 131-10 33-5 51-10V533q-15 1-50 5-47 5-82 5zm136-388V10Q481-1 419-5l-11-1-32-183H203v5L278-6q-70 5-113 22.5T97 68q-29 39-39.5 103.5T47 344q0 95 7.5 154T82 597q21 41 61.5 63.5T251 691V344q0-56 2-108 2-40 15.5-60t42.5-25q28-6 83-6 57 0 97 5 16 1 39 5z"/><glyph glyph-name="Egrave" unicode="È" horiz-adv-x="616" d="M65 688h200V0H65v688zm242 0h254V535H307v153zm0-264h207V271H307v153zm0-271h254V0H307v153zM120 893v5h183l88-142v-5H255z"/><glyph glyph-name="Eacute" unicode="É" horiz-adv-x="616" d="M65 688h200V0H65v688zm242 0h254V535H307v153zm0-264h207V271H307v153zm0-271h254V0H307v153zm-56 603l88 142h183v-5L387 751H251v5z"/><glyph glyph-name="Ecircumflex" unicode="Ê" horiz-adv-x="616" d="M65 688h200V0H65v688zm242 0h254V535H307v153zm0-264h207V271H307v153zm0-271h254V0H307v153zM143 758l91 139h175l91-139v-8H377l-55 75-56-75H143v8z"/><glyph glyph-name="Edieresis" unicode="Ë" horiz-adv-x="616" d="M65 688h200V0H65v688zm242 0h254V535H307v153zm0-264h207V271H307v153zm0-271h254V0H307v153zM140 870h153V751H140v119zm208 0h153V751H348v119z"/><glyph glyph-name="Igrave" unicode="Ì" horiz-adv-x="330" d="M65 688h200V0H65v688zM-37 893v5h183l88-142v-5H98z"/><glyph glyph-name="Iacute" unicode="Í" horiz-adv-x="330" d="M65 688h200V0H65v688zm29 68l88 142h183v-5L230 751H94v5z"/><glyph glyph-name="Icircumflex" unicode="Î" horiz-adv-x="330" d="M65 688h200V0H65v688zm-79 70l91 139h175l91-139v-8H220l-55 75-56-75H-14v8z"/><glyph glyph-name="Idieresis" unicode="Ï" horiz-adv-x="330" d="M65 688h200V0H65v688zm-82 182h153V751H-17v119zm208 0h153V751H191v119z"/><glyph glyph-name="Eth" unicode="Ð" horiz-adv-x="680" d="M265 273V0H65v273H-1v149h66v266h200V422h95V273h-95zm365.5 197.5Q633 423 633 344q0-80-2.5-127T620 135q-9-39-29-65t-54-41q-35-15-88.5-22T315 0h-8v153h8q49 0 69.5 4.5T415 179q11 18 12 57 2 50 2 108 0 57-2 109-2 39-12.5 57T381 532q-23 3-66 3h-8v153h8q80 0 133.5-7t88.5-22q34-15 54-41t29-65q8-35 10.5-82.5z"/><glyph glyph-name="Ntilde" unicode="Ñ" horiz-adv-x="716" d="M65 660v28h200L651 29V0H452zm396-223v251h190V112zM65 577l190-325V0H65v577zm94 244q2 24 11 42 10 20 30.5 30t56.5 10q47 0 105-14 14-3 25.5-5t20.5-4q23-5 36-5 16 0 19.5 8t3.5 32h93q0-45-2-69t-10-42q-19-41-88-41-47 0-105 14l-46 10q-19 4-36 4-16 0-19.5-7.5T250 751h-93q0 46 2 70z"/><glyph glyph-name="Ograve" unicode="Ò" horiz-adv-x="698" d="M447 344q0 87-1 114-2 41-11 59.5T406 540q-20 3-57 3-43 0-56-4v156q9 1 27 1h29q112 0 173.5-17.5T612 621q26-37 32.5-97t6.5-180q0-105-4.5-161.5T624 89q-20-42-61.5-64T447-4v348zM139 24q-33 16-52 43t-28 67q-8 35-10 80.5T47 344q0 105 4.5 161T74 599q20 41 61 63t116 30V344q0-59 2-113 2-41 10.5-60t28.5-22q17-4 57-4 41 0 56 3V-7q-9-1-27-1h-29Q203-8 139 24zm6 869v5h183l88-142v-5H280z"/><glyph glyph-name="Oacute" unicode="Ó" horiz-adv-x="698" d="M447 344q0 87-1 114-2 41-11 59.5T406 540q-20 3-57 3-43 0-56-4v156q9 1 27 1h29q112 0 173.5-17.5T612 621q26-37 32.5-97t6.5-180q0-105-4.5-161.5T624 89q-20-42-61.5-64T447-4v348zM139 24q-33 16-52 43t-28 67q-8 35-10 80.5T47 344q0 105 4.5 161T74 599q20 41 61 63t116 30V344q0-59 2-113 2-41 10.5-60t28.5-22q17-4 57-4 41 0 56 3V-7q-9-1-27-1h-29Q203-8 139 24zm137 732l88 142h183v-5L412 751H276v5z"/><glyph glyph-name="Ocircumflex" unicode="Ô" horiz-adv-x="698" d="M447 344q0 87-1 114-2 41-11 59.5T406 540q-20 3-57 3-43 0-56-4v156q9 1 27 1h29q112 0 173.5-17.5T612 621q26-37 32.5-97t6.5-180q0-105-4.5-161.5T624 89q-20-42-61.5-64T447-4v348zM139 24q-33 16-52 43t-28 67q-8 35-10 80.5T47 344q0 105 4.5 161T74 599q20 41 61 63t116 30V344q0-59 2-113 2-41 10.5-60t28.5-22q17-4 57-4 41 0 56 3V-7q-9-1-27-1h-29Q203-8 139 24zm29 734l91 139h175l91-139v-8H402l-55 75-56-75H168v8z"/><glyph glyph-name="Otilde" unicode="Õ" horiz-adv-x="698" d="M447 344q0 87-1 114-2 41-11 59.5T406 540q-20 3-57 3-43 0-56-4v156q9 1 27 1h29q112 0 173.5-17.5T612 621q26-37 32.5-97t6.5-180q0-105-4.5-161.5T624 89q-20-42-61.5-64T447-4v348zM139 24q-33 16-52 43t-28 67q-8 35-10 80.5T47 344q0 105 4.5 161T74 599q20 41 61 63t116 30V344q0-59 2-113 2-41 10.5-60t28.5-22q17-4 57-4 41 0 56 3V-7q-9-1-27-1h-29Q203-8 139 24zm7 797q2 24 11 42 10 20 30.5 30t56.5 10q47 0 105-14 14-3 25.5-5t20.5-4q23-5 36-5 16 0 19.5 8t3.5 32h93q0-45-2-69t-10-42q-19-41-88-41-47 0-105 14l-46 10q-19 4-36 4-16 0-19.5-7.5T237 751h-93q0 46 2 70z"/><glyph glyph-name="Odieresis" unicode="Ö" horiz-adv-x="698" d="M447 344q0 87-1 114-2 41-11 59.5T406 540q-20 3-57 3-43 0-56-4v156q9 1 27 1h29q112 0 173.5-17.5T612 621q26-37 32.5-97t6.5-180q0-105-4.5-161.5T624 89q-20-42-61.5-64T447-4v348zM139 24q-33 16-52 43t-28 67q-8 35-10 80.5T47 344q0 105 4.5 161T74 599q20 41 61 63t116 30V344q0-59 2-113 2-41 10.5-60t28.5-22q17-4 57-4 41 0 56 3V-7q-9-1-27-1h-29Q203-8 139 24zm26 846h153V751H165v119zm208 0h153V751H373v119z"/><glyph glyph-name="multiply" unicode="×" horiz-adv-x="518" d="M70 159l94 94-94 94 95 95 94-94 94 94 95-95-94-94 94-94-95-95-94 94-94-94z"/><glyph glyph-name="Oslash" unicode="Ø" horiz-adv-x="698" d="M612 621q26-37 32.5-97t6.5-180q0-105-4.5-161.5T624 89q-20-42-61.5-64T447-4v348q0 87-1 114-2 41-11 59.5T406 540q-20 3-57 3-43 0-56-4v156q9 1 27 1h29q66 0 114-6l28 51h161l-56-101q9-9 16-19zM349 145q41 0 56 3V-7q-9-1-27-1h-29q-62 0-109 6l-32-55H48l58 103q-33 30-47 88-8 35-10 80.5T47 344q0 105 4.5 161T74 599q20 41 61 63t116 30V344q0-59 2-113 2-41 10.5-60t28.5-22q17-4 57-4z"/><glyph glyph-name="Ugrave" unicode="Ù" horiz-adv-x="690" d="M183 9q-57 17-84 55-25 35-31 89t-6 161v374h200V274q0-37 2-71 2-27 9-39t24-15q15-4 48-4h23q8 0 18 2V-7q-7-1-20-1h-21Q240-8 183 9zm245 679h200V314q0-98-4-148t-22-84q-20-39-61-60T428-5v693zM144 893v5h183l88-142v-5H279z"/><glyph glyph-name="Uacute" unicode="Ú" horiz-adv-x="690" d="M183 9q-57 17-84 55-25 35-31 89t-6 161v374h200V274q0-37 2-71 2-27 9-39t24-15q15-4 48-4h23q8 0 18 2V-7q-7-1-20-1h-21Q240-8 183 9zm245 679h200V314q0-98-4-148t-22-84q-20-39-61-60T428-5v693zm-153 68l88 142h183v-5L411 751H275v5z"/><glyph glyph-name="Ucircumflex" unicode="Û" horiz-adv-x="690" d="M183 9q-57 17-84 55-25 35-31 89t-6 161v374h200V274q0-37 2-71 2-27 9-39t24-15q15-4 48-4h23q8 0 18 2V-7q-7-1-20-1h-21Q240-8 183 9zm245 679h200V314q0-98-4-148t-22-84q-20-39-61-60T428-5v693zm-261 70l91 139h175l91-139v-8H401l-55 75-56-75H167v8z"/><glyph glyph-name="Udieresis" unicode="Ü" horiz-adv-x="690" d="M183 9q-57 17-84 55-25 35-31 89t-6 161v374h200V274q0-37 2-71 2-27 9-39t24-15q15-4 48-4h23q8 0 18 2V-7q-7-1-20-1h-21Q240-8 183 9zm245 679h200V314q0-98-4-148t-22-84q-20-39-61-60T428-5v693zM164 870h153V751H164v119zm208 0h153V751H372v119z"/><glyph glyph-name="Yacute" unicode="Ý" horiz-adv-x="633" d="M216 227l-9 20-26 51-25 53q-4 7-10 21l-41 85L-5 688h204l217-462V0H216v227zm129 248l93 213h200l-78-162-33-68-63-131-25-52zm-89 281l88 142h183v-5L392 751H256v5z"/><glyph glyph-name="Thorn" unicode="Þ" horiz-adv-x="645" d="M65 688h200V0H65v688zm242-420h24q32 0 47.5 2.5T403 282q9 8 11.5 23.5T417 352t-2.5 46.5T403 423q-9 8-25 10.5t-47 2.5h-24v153h83q74 0 120.5-14.5T581 530q23-28 31-70.5t8-107.5q0-62-7.5-103T583 180q-25-32-71.5-48.5T390 115h-83v153z"/><glyph glyph-name="germandbls" unicode="ß" horiz-adv-x="595" d="M286 141h12q26 0 37.5 2t17.5 10q7 8 10 29 2 26 2 55 0 37-3 56t-10 28-21 11q-9 1-35 1h-10v141h10q23 0 34.5 2.5T348 486q5 7 6 18t1 38q0 45-11 57-6 6-16 8.5t-27 2.5q-13 0-16-1v141h16q137 0 195-52 26-24 37-58.5t11-81.5q0-66-28-101.5T428 410v-4q64-11 93-50 32-43 32-131 0-64-9-105t-33-67q-25-27-71.5-40T318 0h-32v141zM57 551q0 93 40 139 22 24 57.5 38t88.5 19V0H57v551z"/><glyph glyph-name="agrave" unicode="à" horiz-adv-x="558" d="M318 316q0 26-2 37t-12 16q-9 5-34 7-15 1-65 1-48 0-89-4l-53-3v130q94 18 203 18 84 0 131.5-12t71.5-38q21-24 27.5-61t6.5-103V0H318v316zM68 31.5Q35 70 35 148q0 48 7 77.5T66 272q17 18 47 25.5t79 7.5l84-2v-89h-10q-23 0-30-1-20-1-21-19-1-6-1-25 0-15 1.5-23t5.5-13q5-7 15-8 14-2 30-2h10V21Q254 4 229.5-1.5T170-7Q101-7 68 31.5zM92 738v5h183l88-142v-5H227z"/><glyph glyph-name="aacute" unicode="á" horiz-adv-x="558" d="M318 316q0 26-2 37t-12 16q-9 5-34 7-15 1-65 1-48 0-89-4l-53-3v130q94 18 203 18 84 0 131.5-12t71.5-38q21-24 27.5-61t6.5-103V0H318v316zM68 31.5Q35 70 35 148q0 48 7 77.5T66 272q17 18 47 25.5t79 7.5l84-2v-89h-10q-23 0-30-1-20-1-21-19-1-6-1-25 0-15 1.5-23t5.5-13q5-7 15-8 14-2 30-2h10V21Q254 4 229.5-1.5T170-7Q101-7 68 31.5zM205 601l88 142h183v-5L341 596H205v5z"/><glyph glyph-name="acircumflex" unicode="â" horiz-adv-x="558" d="M318 316q0 26-2 37t-12 16q-9 5-34 7-15 1-65 1-48 0-89-4l-53-3v130q94 18 203 18 84 0 131.5-12t71.5-38q21-24 27.5-61t6.5-103V0H318v316zM68 31.5Q35 70 35 148q0 48 7 77.5T66 272q17 18 47 25.5t79 7.5l84-2v-89h-10q-23 0-30-1-20-1-21-19-1-6-1-25 0-15 1.5-23t5.5-13q5-7 15-8 14-2 30-2h10V21Q254 4 229.5-1.5T170-7Q101-7 68 31.5zM105 604l91 139h175l91-139v-8H339l-56 75-55-75H105v8z"/><glyph glyph-name="atilde" unicode="ã" horiz-adv-x="558" d="M318 316q0 26-2 37t-12 16q-9 5-34 7-15 1-65 1-48 0-89-4l-53-3v130q94 18 203 18 84 0 131.5-12t71.5-38q21-24 27.5-61t6.5-103V0H318v316zM68 31.5Q35 70 35 148q0 48 7 77.5T66 272q17 18 47 25.5t79 7.5l84-2v-89h-10q-23 0-30-1-20-1-21-19-1-6-1-25 0-15 1.5-23t5.5-13q5-7 15-8 14-2 30-2h10V21Q254 4 229.5-1.5T170-7Q101-7 68 31.5zM85 649q2 24 11 42 10 20 30.5 30t56.5 10q47 0 105-14 14-3 25.5-5t20.5-4q23-5 36-5 16 0 19.5 8t3.5 32h93q0-45-2-69t-10-42q-19-41-88-41-47 0-105 14l-46 10q-19 4-36 4-16 0-19.5-7.5T176 579H83q0 46 2 70z"/><glyph glyph-name="adieresis" unicode="ä" horiz-adv-x="558" d="M318 316q0 26-2 37t-12 16q-9 5-34 7-15 1-65 1-48 0-89-4l-53-3v130q94 18 203 18 84 0 131.5-12t71.5-38q21-24 27.5-61t6.5-103V0H318v316zM68 31.5Q35 70 35 148q0 48 7 77.5T66 272q17 18 47 25.5t79 7.5l84-2v-89h-10q-23 0-30-1-20-1-21-19-1-6-1-25 0-15 1.5-23t5.5-13q5-7 15-8 14-2 30-2h10V21Q254 4 229.5-1.5T170-7Q101-7 68 31.5zM103 730h153V611H103v119zm208 0h153V611H311v119z"/><glyph glyph-name="aring" unicode="å" horiz-adv-x="558" d="M318 316q0 26-2 37t-12 16q-9 5-34 7-15 1-65 1-48 0-89-4l-53-3v130q94 18 203 18 84 0 131.5-12t71.5-38q21-24 27.5-61t6.5-103V0H318v316zM68 31.5Q35 70 35 148q0 48 7 77.5T66 272q17 18 47 25.5t79 7.5l84-2v-89h-10q-23 0-30-1-20-1-21-19-1-6-1-25 0-15 1.5-23t5.5-13q5-7 15-8 14-2 30-2h10V21Q254 4 229.5-1.5T170-7Q101-7 68 31.5zM338 713q0 17-1 25.5t-6 13.5-16 8q-14 2-32 2h-12v73h12q54 0 85-7.5t46-22.5q14-14 18-35t4-57q0-31-2.5-49.5T422 631q-10-15-30-24t-54-13v119zM199 599.5q-31 7.5-46 22.5-14 14-18 35t-4 56q0 31 2.5 49.5T145 795q10 15 30 24t54 13V713q0-17 1-25t6-13q5-6 16-8 14-2 31-2h13v-73h-13q-53 0-84 7.5z"/><glyph glyph-name="ae" unicode="æ" horiz-adv-x="834" d="M462.5 1Q416 10 386 28 354 7 318 0v316q0 26-2 37t-12 16q-9 5-34 7-15 1-65 1-48 0-89-4l-53-3v130q94 18 203 18 101 0 151-29 32 18 86 26V214q0-34 3-48.5t14-21.5q12-8 37-9 32-2 68-2 64 0 93 3l51 4V11Q729-1 659-5q-34-3-80-3-70 0-116.5 9zM545 305h70q0 56-11 72-6 9-16 11.5t-29 2.5h-14v127h14q86 0 132.5-14t68.5-46q20-28 24.5-72t4.5-132v-40H545v91zM133.5.5Q96 9 74 28 53 46 44 75t-9 73q0 48 7 77.5T66 272q17 18 47 25.5t79 7.5l84-2v-89h-10q-23 0-30-1-20-1-21-19-1-6-1-25 0-15 1.5-23t5.5-13q5-7 15-8 14-2 30-2h10V-6q-30-2-46-2-59 0-96.5 8.5z"/><glyph glyph-name="ccedilla" unicode="ç" horiz-adv-x="465" d="M316 377q-31 0-44-4v145q71-1 147-18V370l-31 3q-25 4-72 4zM423 10Q366-3 318-6l-32-183H113v5L190-2Q106 12 73 67q-20 32-25.5 75T42 254q0 63 5 105t21 74q19 37 57.5 57.5T230 516V255q0-44 2.5-66t10.5-34q9-12 25.5-17t47.5-5q53 0 73 3l34 4V10z"/><glyph glyph-name="egrave" unicode="è" horiz-adv-x="557" d="M268 305h70q0 56-11 72-6 9-16 11.5t-29 2.5h-14v127h14q86 0 132.5-14t68.5-46q20-28 24.5-72t4.5-132v-40H268v91zM157.5 7.5Q105 23 79 57q-23 30-30 74.5T42 254q0 72 5 114.5T68 441q18 33 55.5 51.5T226 516V214q0-34 3-48.5t14-21.5q12-8 37-9 32-2 68-2 64 0 93 3l51 4V11Q452-1 382-5q-34-3-80-3-92 0-144.5 15.5zM98 738v5h183l88-142v-5H233z"/><glyph glyph-name="eacute" unicode="é" horiz-adv-x="557" d="M268 305h70q0 56-11 72-6 9-16 11.5t-29 2.5h-14v127h14q86 0 132.5-14t68.5-46q20-28 24.5-72t4.5-132v-40H268v91zM157.5 7.5Q105 23 79 57q-23 30-30 74.5T42 254q0 72 5 114.5T68 441q18 33 55.5 51.5T226 516V214q0-34 3-48.5t14-21.5q12-8 37-9 32-2 68-2 64 0 93 3l51 4V11Q452-1 382-5q-34-3-80-3-92 0-144.5 15.5zM211 601l88 142h183v-5L347 596H211v5z"/><glyph glyph-name="ecircumflex" unicode="ê" horiz-adv-x="557" d="M268 305h70q0 56-11 72-6 9-16 11.5t-29 2.5h-14v127h14q86 0 132.5-14t68.5-46q20-28 24.5-72t4.5-132v-40H268v91zM157.5 7.5Q105 23 79 57q-23 30-30 74.5T42 254q0 72 5 114.5T68 441q18 33 55.5 51.5T226 516V214q0-34 3-48.5t14-21.5q12-8 37-9 32-2 68-2 64 0 93 3l51 4V11Q452-1 382-5q-34-3-80-3-92 0-144.5 15.5zM111 604l91 139h175l91-139v-8H345l-56 75-55-75H111v8z"/><glyph glyph-name="edieresis" unicode="ë" horiz-adv-x="557" d="M268 305h70q0 56-11 72-6 9-16 11.5t-29 2.5h-14v127h14q86 0 132.5-14t68.5-46q20-28 24.5-72t4.5-132v-40H268v91zM157.5 7.5Q105 23 79 57q-23 30-30 74.5T42 254q0 72 5 114.5T68 441q18 33 55.5 51.5T226 516V214q0-34 3-48.5t14-21.5q12-8 37-9 32-2 68-2 64 0 93 3l51 4V11Q452-1 382-5q-34-3-80-3-92 0-144.5 15.5zM109 730h153V611H109v119zm208 0h153V611H317v119z"/><glyph glyph-name="igrave" unicode="ì" horiz-adv-x="299" d="M57 510h185V0H57v510zM-43 738v5h183l88-142v-5H92z"/><glyph glyph-name="iacute" unicode="í" horiz-adv-x="299" d="M57 510h185V0H57v510zm13 91l88 142h183v-5L206 596H70v5z"/><glyph glyph-name="icircumflex" unicode="î" horiz-adv-x="299" d="M57 510h185V0H57v510zm-87 94l91 139h175l91-139v-8H204l-56 75-55-75H-30v8z"/><glyph glyph-name="idieresis" unicode="ï" horiz-adv-x="299" d="M57 510h185V0H57v510zm-89 220h153V611H-32v119zm208 0h153V611H176v119z"/><glyph glyph-name="eth" unicode="ð" horiz-adv-x="580" d="M342 254q0 51-1 68-1 24-6 36.5T319 374q-12 3-33 3h-14v137q22-2 39-6l2 3q-15 39-30 67l-132-18v104l66 9q-28 32-67 66v4h195q19-15 47-45l129 18V612l-61-9q34-63 52-148t18-201q0-79-4.5-122.5T504 60q-19-31-57-46.5T342-6v260zM150 5q-49 13-73 44-22 28-28.5 74T42 254q0 74 5.5 120T70 451q18 34 52.5 50.5T216 518h14V254q0-51 1-67 1-24 6-36t17-15q10-3 32-3h14V-8h-14Q199-8 150 5z"/><glyph glyph-name="ntilde" unicode="ñ" horiz-adv-x="588" d="M346 241q0 53-1 70-2 28-5 37-4 10-14 12.5t-32 2.5h-10v125q39 29 102 29 90 0 121-55 14-24 19-58.5t5-84.5V0H346v241zM57 510h185V0H57v510zm42 139q2 24 11 42 10 20 30.5 30t56.5 10q47 0 105-14 14-3 25.5-5t20.5-4q23-5 36-5 16 0 19.5 8t3.5 32h93q0-45-2-69t-10-42q-19-41-88-41-47 0-105 14l-46 10q-19 4-36 4-16 0-19.5-7.5T190 579H97q0 46 2 70z"/><glyph glyph-name="ograve" unicode="ò" horiz-adv-x="572" d="M342 254q0 51-1 68-1 24-6 36.5T319 374q-12 3-33 3h-14v141h14q87 0 136-13.5t73-44.5q22-28 28.5-74.5T530 254q0-79-4.5-122.5T504 60q-19-31-57-46.5T342-6v260zM150 5q-49 13-73 44-22 28-28.5 74T42 254q0 78 5 122t22 73q18 32 56 47.5T230 516V254q0-51 1-67 1-24 6-36t17-15q10-3 32-3h14V-8h-14Q199-8 150 5zM98 738v5h183l88-142v-5H233z"/><glyph glyph-name="oacute" unicode="ó" horiz-adv-x="572" d="M342 254q0 51-1 68-1 24-6 36.5T319 374q-12 3-33 3h-14v141h14q87 0 136-13.5t73-44.5q22-28 28.5-74.5T530 254q0-79-4.5-122.5T504 60q-19-31-57-46.5T342-6v260zM150 5q-49 13-73 44-22 28-28.5 74T42 254q0 78 5 122t22 73q18 32 56 47.5T230 516V254q0-51 1-67 1-24 6-36t17-15q10-3 32-3h14V-8h-14Q199-8 150 5zm61 596l88 142h183v-5L347 596H211v5z"/><glyph glyph-name="ocircumflex" unicode="ô" horiz-adv-x="572" d="M342 254q0 51-1 68-1 24-6 36.5T319 374q-12 3-33 3h-14v141h14q87 0 136-13.5t73-44.5q22-28 28.5-74.5T530 254q0-79-4.5-122.5T504 60q-19-31-57-46.5T342-6v260zM150 5q-49 13-73 44-22 28-28.5 74T42 254q0 78 5 122t22 73q18 32 56 47.5T230 516V254q0-51 1-67 1-24 6-36t17-15q10-3 32-3h14V-8h-14Q199-8 150 5zm-39 599l91 139h175l91-139v-8H345l-56 75-55-75H111v8z"/><glyph glyph-name="otilde" unicode="õ" horiz-adv-x="572" d="M342 254q0 51-1 68-1 24-6 36.5T319 374q-12 3-33 3h-14v141h14q87 0 136-13.5t73-44.5q22-28 28.5-74.5T530 254q0-79-4.5-122.5T504 60q-19-31-57-46.5T342-6v260zM150 5q-49 13-73 44-22 28-28.5 74T42 254q0 78 5 122t22 73q18 32 56 47.5T230 516V254q0-51 1-67 1-24 6-36t17-15q10-3 32-3h14V-8h-14Q199-8 150 5zM91 649q2 24 11 42 10 20 30.5 30t56.5 10q47 0 105-14 14-3 25.5-5t20.5-4q23-5 36-5 16 0 19.5 8t3.5 32h93q0-45-2-69t-10-42q-19-41-88-41-47 0-105 14l-46 10q-19 4-36 4-16 0-19.5-7.5T182 579H89q0 46 2 70z"/><glyph glyph-name="odieresis" unicode="ö" horiz-adv-x="572" d="M342 254q0 51-1 68-1 24-6 36.5T319 374q-12 3-33 3h-14v141h14q87 0 136-13.5t73-44.5q22-28 28.5-74.5T530 254q0-79-4.5-122.5T504 60q-19-31-57-46.5T342-6v260zM150 5q-49 13-73 44-22 28-28.5 74T42 254q0 78 5 122t22 73q18 32 56 47.5T230 516V254q0-51 1-67 1-24 6-36t17-15q10-3 32-3h14V-8h-14Q199-8 150 5zm-41 725h153V611H109v119zm208 0h153V611H317v119z"/><glyph glyph-name="divide" unicode="÷" horiz-adv-x="540" d="M203 490h134V380H203v110zM70 320h400V186H70v134zm133-194h134V16H203v110z"/><glyph glyph-name="oslash" unicode="ø" horiz-adv-x="572" d="M495 460q22-28 28.5-74.5T530 254q0-79-4.5-122.5T504 60q-19-31-57-46.5T342-6v260q0 51-1 68-1 24-6 36.5T319 374q-12 3-33 3h-14v141h14q36 0 52-1l33 60h161l-55-99q11-7 18-18zM286 133h14V-8h-14q-27 0-67 2l-31-54H28L84 41l-7 8q-22 28-28.5 74T42 254q0 78 5 122t22 73q18 32 56 47.5T230 516V254q0-51 1-67 1-24 6-36t17-15q10-3 32-3z"/><glyph glyph-name="ugrave" unicode="ù" horiz-adv-x="586" d="M79 48q-14 24-19 58.5T55 191v319h185V269q0-53 1-70 2-25 6-36t13-13.5 32-2.5h10V22Q263-7 200-7 110-7 79 48zm265 462h185V0H344v510zM102 738v5h183l88-142v-5H237z"/><glyph glyph-name="uacute" unicode="ú" horiz-adv-x="586" d="M79 48q-14 24-19 58.5T55 191v319h185V269q0-53 1-70 2-25 6-36t13-13.5 32-2.5h10V22Q263-7 200-7 110-7 79 48zm265 462h185V0H344v510zm-129 91l88 142h183v-5L351 596H215v5z"/><glyph glyph-name="ucircumflex" unicode="û" horiz-adv-x="586" d="M79 48q-14 24-19 58.5T55 191v319h185V269q0-53 1-70 2-25 6-36t13-13.5 32-2.5h10V22Q263-7 200-7 110-7 79 48zm265 462h185V0H344v510zm-229 94l91 139h175l91-139v-8H349l-56 75-55-75H115v8z"/><glyph glyph-name="udieresis" unicode="ü" horiz-adv-x="586" d="M79 48q-14 24-19 58.5T55 191v319h185V269q0-53 1-70 2-25 6-36t13-13.5 32-2.5h10V22Q263-7 200-7 110-7 79 48zm265 462h185V0H344v510zM113 730h153V611H113v119zm208 0h153V611H321v119z"/><glyph glyph-name="yacute" unicode="ý" horiz-adv-x="588" d="M81 58q-14 24-19 58.5T57 201v309h185V279q0-53 1-70 2-26 6-36 4-11 13-13.5t32-2.5h10V33Q264 3 202 3 112 3 81 58zm68-258l-58 6v129h134q36 0 70 2 24 2 35.5 9.5T344-28q2 24 2 51v487h185V56q0-80-6.5-124T495-141q-26-33-79-49t-145-16q-52 0-122 6zm72 801l88 142h183v-5L357 596H221v5z"/><glyph glyph-name="thorn" unicode="þ" horiz-adv-x="578" d="M57 743h185v-932H57v932zM327-1.5Q304 4 284 20v127h11q22 0 31.5 2.5T341 161q5 11 6 32 1 15 1 62t-1 62q-1 22-5.5 32T326 361q-14 2-31 2h-11v124q19 17 43 23.5t59 6.5q40 0 68.5-13t46.5-42q35-58 35-205 0-146-35-206Q466-7 386-7q-36 0-59 5.5z"/><glyph glyph-name="ydieresis" unicode="ÿ" horiz-adv-x="588" d="M81 58q-14 24-19 58.5T57 201v309h185V279q0-53 1-70 2-26 6-36 4-11 13-13.5t32-2.5h10V33Q264 3 202 3 112 3 81 58zm68-258l-58 6v129h134q36 0 70 2 24 2 35.5 9.5T344-28q2 24 2 51v487h185V56q0-80-6.5-124T495-141q-26-33-79-49t-145-16q-52 0-122 6zm-30 930h153V611H119v119zm208 0h153V611H327v119z"/><glyph glyph-name="Amacron" unicode="Ā" horiz-adv-x="687" d="M221 688h17l79-274L202 0H2zm225-566H279l42 154h80L283 688h183L685 0H481zM198 900h285V751H198v149z"/><glyph glyph-name="amacron" unicode="ā" horiz-adv-x="558" d="M318 316q0 26-2 37t-12 16q-9 5-34 7-15 1-65 1-48 0-89-4l-53-3v130q94 18 203 18 84 0 131.5-12t71.5-38q21-24 27.5-61t6.5-103V0H318v316zM68 31.5Q35 70 35 148q0 48 7 77.5T66 272q17 18 47 25.5t79 7.5l84-2v-89h-10q-23 0-30-1-20-1-21-19-1-6-1-25 0-15 1.5-23t5.5-13q5-7 15-8 14-2 30-2h10V21Q254 4 229.5-1.5T170-7Q101-7 68 31.5zM142 742h285V593H142v149z"/><glyph glyph-name="Abreve" unicode="Ă" horiz-adv-x="687" d="M221 688h17l79-274L202 0H2zm225-566H279l42 154h80L283 688h183L685 0H481zM259 761.5Q228 772 210 794q-16 19-22 45t-6 63h103q0-15 1-23.5t6-14.5q12-15 48-15t49 15q5 6 6 14.5t1 23.5h103q0-37-6-63t-22-45q-19-22-50-32.5T340 751t-81 10.5z"/><glyph glyph-name="abreve" unicode="ă" horiz-adv-x="558" d="M318 316q0 26-2 37t-12 16q-9 5-34 7-15 1-65 1-48 0-89-4l-53-3v130q94 18 203 18 84 0 131.5-12t71.5-38q21-24 27.5-61t6.5-103V0H318v316zM68 31.5Q35 70 35 148q0 48 7 77.5T66 272q17 18 47 25.5t79 7.5l84-2v-89h-10q-23 0-30-1-20-1-21-19-1-6-1-25 0-15 1.5-23t5.5-13q5-7 15-8 14-2 30-2h10V21Q254 4 229.5-1.5T170-7Q101-7 68 31.5zm135 571Q172 613 154 635q-16 19-22 45t-6 63h103q0-15 1-23.5t6-14.5q12-15 48-15t49 15q5 6 6 14.5t1 23.5h103q0-37-6-63t-22-45q-19-22-50-32.5T284 592t-81 10.5z"/><glyph glyph-name="Aogonek" unicode="Ą" horiz-adv-x="687" d="M317 414L202 0H2l219 688h17zm369-521v-89l-24-2q-30-2-51-2-72 0-105 26-28 22-28 62 0 24 15.5 55T533 0h-52l-35 122H279l42 154h80L283 688h183L685 0q-23-12-41-32-22-22-22-42 0-16 10-25t37-9h11q4 0 6 1z"/><glyph glyph-name="aogonek" unicode="ą" horiz-adv-x="558" d="M504-107v-89l-24-2q-30-2-51-2-73 0-105 26-28 22-28 62 0 24 15.5 55T351 0h-33v316q0 26-2 37t-12 16q-9 5-34 7-15 1-65 1-48 0-89-4l-53-3v130q94 18 203 18 84 0 131.5-12t71.5-38q21-24 27.5-61t6.5-103V0q-23-12-41-32-22-22-22-42 0-16 10-25t37-9h11q4 0 6 1zM113 297.5q30 7.5 79 7.5l84-2v-89h-10q-23 0-30-1-20-1-21-19-1-6-1-25 0-15 1.5-23t5.5-13q5-7 15-8 14-2 30-2h10V21Q254 4 229.5-1.5T170-7Q101-7 68 31.5T35 148q0 48 7 77.5T66 272q17 18 47 25.5z"/><glyph glyph-name="Cacute" unicode="Ć" horiz-adv-x="568" d="M293 695q8 1 25 1h26q67 0 131-10 33-5 51-10V533q-15 1-50 5-47 5-82 5-39 0-62.5-2.5T293 532v163zM185.5 9.5Q127 27 97 68q-29 39-39.5 103.5T47 344q0 95 7.5 154T82 597q21 41 61.5 63.5T251 691V344q0-56 2-108 2-40 15.5-60t42.5-25q28-6 83-6 57 0 97 5 16 1 39 5V10Q481-1 419-5q-34-3-75-3Q244-8 185.5 9.5zM241 756l88 142h183v-5L377 751H241v5z"/><glyph glyph-name="cacute" unicode="ć" horiz-adv-x="465" d="M388 373q-25 4-72 4-31 0-44-4v145q71-1 147-18V370zM141 11Q95 30 73 67q-20 32-25.5 75T42 254q0 63 5 105t21 74q19 37 57.5 57.5T230 516V255q0-44 2.5-66t10.5-34q9-12 25.5-17t47.5-5q53 0 73 3l34 4V10Q349-8 265-8q-78 0-124 19zm34 590l88 142h183v-5L311 596H175v5z"/><glyph glyph-name="Ccircumflex" unicode="Ĉ" horiz-adv-x="568" d="M293 695q8 1 25 1h26q67 0 131-10 33-5 51-10V533q-15 1-50 5-47 5-82 5-39 0-62.5-2.5T293 532v163zM185.5 9.5Q127 27 97 68q-29 39-39.5 103.5T47 344q0 95 7.5 154T82 597q21 41 61.5 63.5T251 691V344q0-56 2-108 2-40 15.5-60t42.5-25q28-6 83-6 57 0 97 5 16 1 39 5V10Q481-1 419-5q-34-3-75-3Q244-8 185.5 9.5zM133 758l91 139h175l91-139v-8H367l-55 75-56-75H133v8z"/><glyph glyph-name="ccircumflex" unicode="ĉ" horiz-adv-x="465" d="M388 373q-25 4-72 4-31 0-44-4v145q71-1 147-18V370zM141 11Q95 30 73 67q-20 32-25.5 75T42 254q0 63 5 105t21 74q19 37 57.5 57.5T230 516V255q0-44 2.5-66t10.5-34q9-12 25.5-17t47.5-5q53 0 73 3l34 4V10Q349-8 265-8q-78 0-124 19zM75 604l91 139h175l91-139v-8H309l-56 75-55-75H75v8z"/><glyph glyph-name="Cdotaccent" unicode="Ċ" horiz-adv-x="568" d="M293 695q8 1 25 1h26q67 0 131-10 33-5 51-10V533q-15 1-50 5-47 5-82 5-39 0-62.5-2.5T293 532v163zM185.5 9.5Q127 27 97 68q-29 39-39.5 103.5T47 344q0 95 7.5 154T82 597q21 41 61.5 63.5T251 691V344q0-56 2-108 2-40 15.5-60t42.5-25q28-6 83-6 57 0 97 5 16 1 39 5V10Q481-1 419-5q-34-3-75-3Q244-8 185.5 9.5zM234 870h153V751H234v119z"/><glyph glyph-name="cdotaccent" unicode="ċ" horiz-adv-x="465" d="M388 373q-25 4-72 4-31 0-44-4v145q71-1 147-18V370zM141 11Q95 30 73 67q-20 32-25.5 75T42 254q0 63 5 105t21 74q19 37 57.5 57.5T230 516V255q0-44 2.5-66t10.5-34q9-12 25.5-17t47.5-5q53 0 73 3l34 4V10Q349-8 265-8q-78 0-124 19zm35 719h153V611H176v119z"/><glyph glyph-name="Ccaron" unicode="Č" horiz-adv-x="568" d="M293 695q8 1 25 1h26q67 0 131-10 33-5 51-10V533q-15 1-50 5-47 5-82 5-39 0-62.5-2.5T293 532v163zM185.5 9.5Q127 27 97 68q-29 39-39.5 103.5T47 344q0 95 7.5 154T82 597q21 41 61.5 63.5T251 691V344q0-56 2-108 2-40 15.5-60t42.5-25q28-6 83-6 57 0 97 5 16 1 39 5V10Q481-1 419-5q-34-3-75-3Q244-8 185.5 9.5zM133 889v8h123l55-75 56 75h123v-8l-91-139H224z"/><glyph glyph-name="ccaron" unicode="č" horiz-adv-x="465" d="M388 373q-25 4-72 4-31 0-44-4v145q71-1 147-18V370zM141 11Q95 30 73 67q-20 32-25.5 75T42 254q0 63 5 105t21 74q19 37 57.5 57.5T230 516V255q0-44 2.5-66t10.5-34q9-12 25.5-17t47.5-5q53 0 73 3l34 4V10Q349-8 265-8q-78 0-124 19zM75 735v8h123l55-75 56 75h123v-8l-91-139H166z"/><glyph glyph-name="Dcaron" unicode="Ď" horiz-adv-x="680" d="M65 688h200V0H65v688zm242-535h8q49 0 69.5 4.5T415 179q11 18 12 57 2 50 2 108 0 57-2 109-2 39-12.5 57T381 532q-23 3-66 3h-8v153h8q80 0 133.5-7t88.5-22q34-15 54-41t29-65q8-35 10.5-82.5T633 344q0-80-2.5-127T620 135q-9-39-29-65t-54-41q-35-15-88.5-22T315 0h-8v153zM145 889v8h123l55-75 56 75h123v-8l-91-139H236z"/><glyph glyph-name="dcaron" unicode="ď" horiz-adv-x="690" d="M336 743h185V0H336v743zM123.5 6Q95 19 78 48q-19 30-27.5 80T42 253q0 147 36 206 34 58 114 58 36 0 59-5.5t43-21.5V363h-11q-22 0-31.5-2.5T237 349q-5-11-6-32-1-15-1-62t1-62q1-21 6-31.5t16-12.5q14-2 30-2h11V20Q274 5 249.5-1T192-7q-40 0-68.5 13zM564 527q21 0 33 3t19 10q6 7 8 17t2 30v13h-62v142h175V635q0-55-5.5-86T711 500q-19-20-53-28.5t-94-8.5v64z"/><glyph glyph-name="Dcroat" unicode="Đ" horiz-adv-x="680" d="M265 273V0H65v273H-1v149h66v266h200V422h95V273h-95zm365.5 197.5Q633 423 633 344q0-80-2.5-127T620 135q-9-39-29-65t-54-41q-35-15-88.5-22T315 0h-8v153h8q49 0 69.5 4.5T415 179q11 18 12 57 2 50 2 108 0 57-2 109-2 39-12.5 57T381 532q-23 3-66 3h-8v153h8q80 0 133.5-7t88.5-22q34-15 54-41t29-65q8-35 10.5-82.5z"/><glyph glyph-name="dcroat" unicode="đ" horiz-adv-x="578" d="M576 538h-55V0H336v538H215v149h121v56h185v-56h55V538zm-384-21q36 0 59-5.5t43-21.5V363h-11q-22 0-31.5-2.5T237 349q-5-11-6-32-1-15-1-62t1-62q1-21 6-31.5t16-12.5q14-2 30-2h11V20Q274 5 249.5-1T192-7q-40 0-68.5 13T78 48q-19 30-27.5 80T42 253q0 147 36 206 34 58 114 58z"/><glyph glyph-name="Emacron" unicode="Ē" horiz-adv-x="616" d="M65 688h200V0H65v688zm242 0h254V535H307v153zm0-264h207V271H307v153zm0-271h254V0H307v153zM179 900h285V751H179v149z"/><glyph glyph-name="emacron" unicode="ē" horiz-adv-x="557" d="M268 305h70q0 56-11 72-6 9-16 11.5t-29 2.5h-14v127h14q86 0 132.5-14t68.5-46q20-28 24.5-72t4.5-132v-40H268v91zM157.5 7.5Q105 23 79 57q-23 30-30 74.5T42 254q0 72 5 114.5T68 441q18 33 55.5 51.5T226 516V214q0-34 3-48.5t14-21.5q12-8 37-9 32-2 68-2 64 0 93 3l51 4V11Q452-1 382-5q-34-3-80-3-92 0-144.5 15.5zM148 742h285V593H148v149z"/><glyph glyph-name="Ebreve" unicode="Ĕ" horiz-adv-x="616" d="M65 688h200V0H65v688zm242 0h254V535H307v153zm0-264h207V271H307v153zm0-271h254V0H307v153zm-67 608.5Q209 772 191 794q-16 19-22 45t-6 63h103q0-15 1-23.5t6-14.5q12-15 48-15t49 15q5 6 6 14.5t1 23.5h103q0-37-6-63t-22-45q-19-22-50-32.5T321 751t-81 10.5z"/><glyph glyph-name="ebreve" unicode="ĕ" horiz-adv-x="557" d="M268 305h70q0 56-11 72-6 9-16 11.5t-29 2.5h-14v127h14q86 0 132.5-14t68.5-46q20-28 24.5-72t4.5-132v-40H268v91zM157.5 7.5Q105 23 79 57q-23 30-30 74.5T42 254q0 72 5 114.5T68 441q18 33 55.5 51.5T226 516V214q0-34 3-48.5t14-21.5q12-8 37-9 32-2 68-2 64 0 93 3l51 4V11Q452-1 382-5q-34-3-80-3-92 0-144.5 15.5zm51.5 595Q178 613 160 635q-16 19-22 45t-6 63h103q0-15 1-23.5t6-14.5q12-15 48-15t49 15q5 6 6 14.5t1 23.5h103q0-37-6-63t-22-45q-19-22-50-32.5T290 592t-81 10.5z"/><glyph glyph-name="Edotaccent" unicode="Ė" horiz-adv-x="616" d="M65 688h200V0H65v688zm242 0h254V535H307v153zm0-264h207V271H307v153zm0-271h254V0H307v153zm-63 717h153V751H244v119z"/><glyph glyph-name="edotaccent" unicode="ė" horiz-adv-x="557" d="M268 305h70q0 56-11 72-6 9-16 11.5t-29 2.5h-14v127h14q86 0 132.5-14t68.5-46q20-28 24.5-72t4.5-132v-40H268v91zM157.5 7.5Q105 23 79 57q-23 30-30 74.5T42 254q0 72 5 114.5T68 441q18 33 55.5 51.5T226 516V214q0-34 3-48.5t14-21.5q12-8 37-9 32-2 68-2 64 0 93 3l51 4V11Q452-1 382-5q-34-3-80-3-92 0-144.5 15.5zM212 730h153V611H212v119z"/><glyph glyph-name="Eogonek" unicode="Ę" horiz-adv-x="616" d="M65 688h200V0H65v688zm496-153H307v153h254V535zm-47-264H307v153h207V271zm48-378v-89l-24-2q-30-2-51-2-72 0-105 26-28 22-28 62 0 24 15.5 55T409 0H307v153h254V0q-23-12-41-32-22-22-22-42 0-16 10-25t37-9h11q4 0 6 1z"/><glyph glyph-name="eogonek" unicode="ę" horiz-adv-x="557" d="M507.5 386q4.5-44 4.5-132v-40H268v91h70q0 56-11 72-6 9-16 11.5t-29 2.5h-14v127h14q86 0 132.5-14t68.5-46q20-28 24.5-72zM487-97q4 0 6 1v-89l-24-2q-30-2-51-2-73 0-105 26-28 22-28 62 0 20 10.5 44.5T324-8h-22Q210-8 157.5 7.5T79 57q-23 30-30 74.5T42 254q0 72 5 114.5T68 441q18 33 55.5 51.5T226 516V214q0-34 3-48.5t14-21.5q12-8 37-9 32-2 68-2 64 0 93 3l51 4V11q-23-12-41-32-22-22-22-42 0-16 10-25t37-9h11z"/><glyph glyph-name="Ecaron" unicode="Ě" horiz-adv-x="616" d="M65 688h200V0H65v688zm242 0h254V535H307v153zm0-264h207V271H307v153zm0-271h254V0H307v153zM143 889v8h123l55-75 56 75h123v-8l-91-139H234z"/><glyph glyph-name="ecaron" unicode="ě" horiz-adv-x="557" d="M268 305h70q0 56-11 72-6 9-16 11.5t-29 2.5h-14v127h14q86 0 132.5-14t68.5-46q20-28 24.5-72t4.5-132v-40H268v91zM157.5 7.5Q105 23 79 57q-23 30-30 74.5T42 254q0 72 5 114.5T68 441q18 33 55.5 51.5T226 516V214q0-34 3-48.5t14-21.5q12-8 37-9 32-2 68-2 64 0 93 3l51 4V11Q452-1 382-5q-34-3-80-3-92 0-144.5 15.5zM111 735v8h123l55-75 56 75h123v-8l-91-139H202z"/><glyph glyph-name="Gcircumflex" unicode="Ĝ" horiz-adv-x="660" d="M293 694q40 2 66 2 90 0 165-12 38-4 73-12V529q-42 4-63 7-17 1-55 5-38 2-50 2-61 0-89.5-2.5T293 528v166zM199.5 7Q140 22 107 60T60.5 165 47 344q0 95 9 156t31 100q23 40 62 61t102 29V344q0-71 4-108.5t15-57.5q12-21 34.5-29t64.5-8V-8h-10Q259-8 199.5 7zM411 264h-71v145h260V17Q553 6 483 0q-34-5-72-6v270zM177 758l91 139h175l91-139v-8H411l-55 75-56-75H177v8z"/><glyph glyph-name="gcircumflex" unicode="ĝ" horiz-adv-x="578" d="M124 16.5Q96 30 78 60q-36 58-36 202 0 145 36 201 18 28 46 41t68 13q34 0 58-6t44-22V363h-11q-22 0-31.5-2.5T237 350q-5-11-6-31-1-14-1-59t1-59q1-21 6-30.5t16-11.5q14-2 30-2h11V30q-20-16-43-21.5T192 3q-40 0-68 13.5zM139-200l-60 6v129h134q36 0 70 2 25 2 36.5 9.5T334-28q2 24 2 51v487h185V56q0-78-7-122.5T484-141q-26-33-79.5-49T259-206q-50 0-120 6zm-27 804l91 139h175l91-139v-8H346l-56 75-55-75H112v8z"/><glyph glyph-name="Gbreve" unicode="Ğ" horiz-adv-x="660" d="M293 694q40 2 66 2 90 0 165-12 38-4 73-12V529q-42 4-63 7-17 1-55 5-38 2-50 2-61 0-89.5-2.5T293 528v166zM199.5 7Q140 22 107 60T60.5 165 47 344q0 95 9 156t31 100q23 40 62 61t102 29V344q0-71 4-108.5t15-57.5q12-21 34.5-29t64.5-8V-8h-10Q259-8 199.5 7zM411 264h-71v145h260V17Q553 6 483 0q-34-5-72-6v270zM274 761.5Q243 772 225 794q-16 19-22 45t-6 63h103q0-15 1-23.5t6-14.5q12-15 48-15t49 15q5 6 6 14.5t1 23.5h103q0-37-6-63t-22-45q-19-22-50-32.5T355 751t-81 10.5z"/><glyph glyph-name="gbreve" unicode="ğ" horiz-adv-x="578" d="M124 16.5Q96 30 78 60q-36 58-36 202 0 145 36 201 18 28 46 41t68 13q34 0 58-6t44-22V363h-11q-22 0-31.5-2.5T237 350q-5-11-6-31-1-14-1-59t1-59q1-21 6-30.5t16-11.5q14-2 30-2h11V30q-20-16-43-21.5T192 3q-40 0-68 13.5zM139-200l-60 6v129h134q36 0 70 2 25 2 36.5 9.5T334-28q2 24 2 51v487h185V56q0-78-7-122.5T484-141q-26-33-79.5-49T259-206q-50 0-120 6zm71 802.5Q179 613 161 635q-16 19-22 45t-6 63h103q0-15 1-23.5t6-14.5q12-15 48-15t49 15q5 6 6 14.5t1 23.5h103q0-37-6-63t-22-45q-19-22-50-32.5T291 592t-81 10.5z"/><glyph glyph-name="Gdotaccent" unicode="Ġ" horiz-adv-x="660" d="M293 694q40 2 66 2 90 0 165-12 38-4 73-12V529q-42 4-63 7-17 1-55 5-38 2-50 2-61 0-89.5-2.5T293 528v166zM199.5 7Q140 22 107 60T60.5 165 47 344q0 95 9 156t31 100q23 40 62 61t102 29V344q0-71 4-108.5t15-57.5q12-21 34.5-29t64.5-8V-8h-10Q259-8 199.5 7zM411 264h-71v145h260V17Q553 6 483 0q-34-5-72-6v270zM278 870h153V751H278v119z"/><glyph glyph-name="gdotaccent" unicode="ġ" horiz-adv-x="578" d="M124 16.5Q96 30 78 60q-36 58-36 202 0 145 36 201 18 28 46 41t68 13q34 0 58-6t44-22V363h-11q-22 0-31.5-2.5T237 350q-5-11-6-31-1-14-1-59t1-59q1-21 6-30.5t16-11.5q14-2 30-2h11V30q-20-16-43-21.5T192 3q-40 0-68 13.5zM139-200l-60 6v129h134q36 0 70 2 25 2 36.5 9.5T334-28q2 24 2 51v487h185V56q0-78-7-122.5T484-141q-26-33-79.5-49T259-206q-50 0-120 6zm74 930h153V611H213v119z"/><glyph glyph-name="uni0122" unicode="Ģ" horiz-adv-x="660" d="M293 694q40 2 66 2 90 0 165-12 38-4 73-12V529q-42 4-63 7-17 1-55 5-38 2-50 2-61 0-89.5-2.5T293 528v166zM199.5 7Q140 22 107 60T60.5 165 47 344q0 95 9 156t31 100q23 40 62 61t102 29V344q0-71 4-108.5t15-57.5q12-21 34.5-29t64.5-8V-8h-10Q259-8 199.5 7zM411 264h-71v145h260V17Q553 6 483 0q-34-5-72-6v270zM260-288q40 0 52 13 6 7 8.5 18t2.5 29v13h-63v137h176v-102q0-54-6-85.5T407-315q-18-19-52.5-27.5T260-351v63z"/><glyph glyph-name="uni0123" unicode="ģ" horiz-adv-x="578" d="M124 16.5Q96 30 78 60q-36 58-36 202 0 145 36 201 18 28 46 41t68 13q34 0 58-6t44-22V363h-11q-22 0-31.5-2.5T237 350q-5-11-6-31-1-14-1-59t1-59q1-21 6-30.5t16-11.5q14-2 30-2h11V30q-20-16-43-21.5T192 3q-40 0-68 13.5zM139-200l-60 6v129h134q36 0 70 2 25 2 36.5 9.5T334-28q2 24 2 51v487h185V56q0-78-7-122.5T484-141q-26-33-79.5-49T259-206q-50 0-120 6zm62 898q0 54 6 85.5t23 49.5q18 19 52.5 27.5T377 869v-63q-40 0-52-13-6-7-8.5-18t-2.5-29v-13h63V596H201v102z"/><glyph glyph-name="Hcircumflex" unicode="Ĥ" horiz-adv-x="716" d="M65 688h200V0H65v688zm386-423H307v160h144v263h200V0H451v265zM178 758l91 139h175l91-139v-8H412l-55 75-56-75H178v8z"/><glyph glyph-name="hcircumflex" unicode="ĥ" horiz-adv-x="588" d="M57 743h185V0H57v743zm289-502q0 53-1 70-2 28-5 37-4 10-14 12.5t-32 2.5h-10v122q40 32 102 32 90 0 121-55 14-24 19-58.5t5-84.5V0H346v241zM-35 820l91 139h175l91-139v-8H199l-55 75-56-75H-35v8z"/><glyph glyph-name="Hbar" unicode="Ħ" horiz-adv-x="716" d="M690 477h-39V0H451v265H307v160h144v52H265V0H65v477H29v149h36v62h200v-62h186v62h200v-62h39V477z"/><glyph glyph-name="hbar" unicode="ħ" horiz-adv-x="588" d="M242 543V0H57v543H-4v149h61v51h185v-51h115V543H242zm284-139.5q5-34.5 5-84.5V0H346v241q0 53-1 70-2 28-5 37-4 10-14 12.5t-32 2.5h-10v122q40 32 102 32 90 0 121-55 14-24 19-58.5z"/><glyph glyph-name="Itilde" unicode="Ĩ" horiz-adv-x="330" d="M65 688h200V0H65v688zM-36 821q2 24 11 42 10 20 30.5 30T62 903q47 0 105-14 14-3 25.5-5t20.5-4q23-5 36-5 16 0 19.5 8t3.5 32h93q0-45-2-69t-10-42q-19-41-88-41-47 0-105 14l-46 10q-19 4-36 4-16 0-19.5-7.5T55 751h-93q0 46 2 70z"/><glyph glyph-name="itilde" unicode="ĩ" horiz-adv-x="299" d="M57 510h185V0H57v510zM-50 649q2 24 11 42 10 20 30.5 30T48 731q47 0 105-14 14-3 25.5-5t20.5-4q23-5 36-5 16 0 19.5 8t3.5 32h93q0-45-2-69t-10-42q-19-41-88-41-47 0-105 14l-46 10q-19 4-36 4-16 0-19.5-7.5T41 579h-93q0 46 2 70z"/><glyph glyph-name="Imacron" unicode="Ī" horiz-adv-x="330" d="M65 688h200V0H65v688zM22 900h285V751H22v149z"/><glyph glyph-name="imacron" unicode="ī" horiz-adv-x="299" d="M57 510h185V0H57v510zM7 742h285V593H7v149z"/><glyph glyph-name="Ibreve" unicode="Ĭ" horiz-adv-x="330" d="M65 688h200V0H65v688zm18 73.5Q52 772 34 794q-16 19-22 45t-6 63h103q0-15 1-23.5t6-14.5q12-15 48-15t49 15q5 6 6 14.5t1 23.5h103q0-37-6-63t-22-45q-19-22-50-32.5T164 751t-81 10.5z"/><glyph glyph-name="ibreve" unicode="ĭ" horiz-adv-x="299" d="M57 510h185V0H57v510zm11 92.5Q37 613 19 635 3 654-3 680t-6 63H94q0-15 1-23.5t6-14.5q12-15 48-15t49 15q5 6 6 14.5t1 23.5h103q0-37-6-63t-22-45q-19-22-50-32.5T149 592t-81 10.5z"/><glyph glyph-name="Iogonek" unicode="Į" horiz-adv-x="330" d="M266-107v-89l-24-2q-30-2-51-2-73 0-105 26-28 22-28 62 0 24 15.5 55T113 0H65v688h200V0q-23-12-41-32-22-22-22-42 0-16 10-25t37-9h11q4 0 6 1z"/><glyph glyph-name="iogonek" unicode="į" horiz-adv-x="299" d="M242 599H57v144h185V599zm1-706v-89l-24-2q-30-2-51-2-72 0-105 26-28 22-28 62 0 24 15.5 55T90 0H57v510h185V0q-23-12-41-32-22-22-22-42 0-16 10-25t37-9h11q4 0 6 1z"/><glyph glyph-name="Idotaccent" unicode="İ" horiz-adv-x="330" d="M65 688h200V0H65v688zm22 182h153V751H87v119z"/><glyph glyph-name="dotlessi" unicode="ı" horiz-adv-x="299" d="M57 510h185V0H57v510z"/><glyph glyph-name="IJ" unicode="Ĳ" horiz-adv-x="755" d="M65 688h200V0H65v688zm285-543q54 0 83 3t42.5 15.5T491 200q2 32 2 66v422h200V334q0-96-3-147t-13-85q-11-37-32.5-57.5T585 14q-35-9-87.5-11.5T350 0v145z"/><glyph glyph-name="ij" unicode="ĳ" horiz-adv-x="598" d="M57 743h185V599H57v144zm0-233h185V0H57v510zm299 233h185V599H356v144zM274-69q29 0 46 3 16 3 24 9t10 16q2 12 2 23v528h185V37q0-85-10.5-130.5T492-162t-77-30-141-7v130z"/><glyph glyph-name="Jcircumflex" unicode="Ĵ" horiz-adv-x="425" d="M20 145q54 0 83 3t42.5 15.5T161 200q2 32 2 66v422h200V334q0-96-3-147t-13-85q-11-37-32.5-57.5T255 14q-35-9-87.5-11.5T20 0v145zm63 613l91 139h175l91-139v-8H317l-55 75-56-75H83v8z"/><glyph glyph-name="jcircumflex" unicode="ĵ" horiz-adv-x="299" d="M-25-69q29 0 46 3 16 3 24 9t10 16q2 12 2 23v528h185V37q0-85-10.5-130.5T193-162t-77-30-141-7v130zm-8 673l91 139h175l91-139v-8H201l-56 75-55-75H-33v8z"/><glyph glyph-name="uni0136" unicode="Ķ" horiz-adv-x="683" d="M65 688h200V0H65v688zm242-447v215l158 232h218L446 364 686 0H462zm-50-529q40 0 52 13 6 7 8.5 18t2.5 29v13h-63v137h176v-102q0-54-6-85.5T404-315q-18-19-52.5-27.5T257-351v63z"/><glyph glyph-name="uni0137" unicode="ķ" horiz-adv-x="576" d="M57 743h185V0H57v743zm227-597v212l87 152h195L416 268 569 0H367zm-81-434q40 0 52 13 6 7 8.5 18t2.5 29v13h-63v137h176v-102q0-54-6-85.5T350-315q-18-19-52.5-27.5T203-351v63z"/><glyph glyph-name="kgreenlandic" unicode="ĸ" horiz-adv-x="576" d="M57 510h185V0H57v510zm227-364v212l87 152h195L416 268 569 0H367z"/><glyph glyph-name="Lacute" unicode="Ĺ" horiz-adv-x="541" d="M65 688h200V0H65v688zm242-527h214V0H307v161zM93 756l88 142h183v-5L229 751H93v5z"/><glyph glyph-name="lacute" unicode="ĺ" horiz-adv-x="299" d="M57 743h185V0H57v743zm22 75l88 142h183v-5L215 813H79v5z"/><glyph glyph-name="uni013B" unicode="Ļ" horiz-adv-x="541" d="M65 688h200V0H65v688zm242-527h214V0H307v161zM198-288q40 0 52 13 6 7 8.5 18t2.5 29v13h-63v137h176v-102q0-54-6-85.5T345-315q-18-19-52.5-27.5T198-351v63z"/><glyph glyph-name="uni013C" unicode="ļ" horiz-adv-x="299" d="M57 743h185V0H57v743zm3-1031q40 0 52 13 6 7 8.5 18t2.5 29v13H60v137h176v-102q0-54-6-85.5T207-315q-18-19-52.5-27.5T60-351v63z"/><glyph glyph-name="Lcaron" unicode="Ľ" horiz-adv-x="541" d="M65 688h200V0H65v688zm242-527h214V0H307v161zm41 311q21 0 33 3t19 10q6 7 8 17t2 30v13h-62v142h175V580q0-55-5.5-86T495 445q-19-20-53-28.5t-94-8.5v64z"/><glyph glyph-name="lcaron" unicode="ľ" horiz-adv-x="410" d="M57 743h185V0H57v743zm210-214q21 0 33 3t19 10q6 7 8 17t2 30v13h-62v142h175V637q0-55-5.5-86T414 502q-19-20-53-28.5t-94-8.5v64z"/><glyph glyph-name="Ldot" unicode="Ŀ" horiz-adv-x="541" d="M65 688h200V0H65v688zm242-527h214V0H307v161zm14 314h202V312H321v163z"/><glyph glyph-name="ldot" unicode="ŀ" horiz-adv-x="449" d="M57 743h185V0H57v743zm215-305h202V275H272v163z"/><glyph glyph-name="Lslash" unicode="Ł" horiz-adv-x="541" d="M265 358V0H65v247l-73-40v149l73 40v292h200V507l88 49V407zm256-197V0H307v161h214z"/><glyph glyph-name="lslash" unicode="ł" horiz-adv-x="299" d="M328 394l-86-48V0H57v244l-90-50v149l90 50v350h185V495l86 48V394z"/><glyph glyph-name="Nacute" unicode="Ń" horiz-adv-x="716" d="M65 660v28h200L651 29V0H452zm396-223v251h190V112zM65 577l190-325V0H65v577zm224 179l88 142h183v-5L425 751H289v5z"/><glyph glyph-name="nacute" unicode="ń" horiz-adv-x="588" d="M346 241q0 53-1 70-2 28-5 37-4 10-14 12.5t-32 2.5h-10v125q39 29 102 29 90 0 121-55 14-24 19-58.5t5-84.5V0H346v241zM57 510h185V0H57v510zm162 91l88 142h183v-5L355 596H219v5z"/><glyph glyph-name="uni0145" unicode="Ņ" horiz-adv-x="716" d="M65 660v28h200L651 29V0H452zm396-223v251h190V112zM65 577l190-325V0H65v577zm204-865q40 0 52 13 6 7 8.5 18t2.5 29v13h-63v137h176v-102q0-54-6-85.5T416-315q-18-19-52.5-27.5T269-351v63z"/><glyph glyph-name="uni0146" unicode="ņ" horiz-adv-x="588" d="M346 241q0 53-1 70-2 28-5 37-4 10-14 12.5t-32 2.5h-10v125q39 29 102 29 90 0 121-55 14-24 19-58.5t5-84.5V0H346v241zM57 510h185V0H57v510zm147-798q40 0 52 13 6 7 8.5 18t2.5 29v13h-63v137h176v-102q0-54-6-85.5T351-315q-18-19-52.5-27.5T204-351v63z"/><glyph glyph-name="Ncaron" unicode="Ň" horiz-adv-x="716" d="M65 660v28h200L651 29V0H452zm396-223v251h190V112zM65 577l190-325V0H65v577zm116 312v8h123l55-75 56 75h123v-8l-91-139H272z"/><glyph glyph-name="ncaron" unicode="ň" horiz-adv-x="588" d="M346 241q0 53-1 70-2 28-5 37-4 10-14 12.5t-32 2.5h-10v125q39 29 102 29 90 0 121-55 14-24 19-58.5t5-84.5V0H346v241zM57 510h185V0H57v510zm62 225v8h123l55-75 56 75h123v-8l-91-139H210z"/><glyph glyph-name="napostrophe" unicode="ŉ" horiz-adv-x="600" d="M23 604q42 0 55 14 6 7 8.5 18t2.5 31v13H23v148h184V717q0-56-6-89t-24-52q-19-21-55-29.5T23 538v66zm323-363q0 53-1 70-2 28-5 37-4 10-14 12.5t-32 2.5h-10v125q39 29 102 29 90 0 121-55 14-24 19-58.5t5-84.5V0H346v241zM57 510h185V0H57v510z"/><glyph glyph-name="Eng" unicode="Ŋ" horiz-adv-x="716" d="M265 688L651 29V0q-1-62-12-101t-37-61q-28-22-82-29.5T372-199v130q27 0 44 3 16 3 24 9t10 16q2 12 2 23V0L65 660v28h200zm386 0V112L461 437v251h190zM65 577l190-325V0H65v577z"/><glyph glyph-name="eng" unicode="ŋ" horiz-adv-x="588" d="M264-69q30 0 46 3t24 9 10 16q2 12 2 23v259q0 53-1 70-2 28-5 37-4 10-14 12.5t-32 2.5h-10v125q39 29 102 29 90 0 121-55 14-24 19-58.5t5-84.5V0q-2-66-13-104t-36-58q-28-23-77-30t-141-7v130zM57 510h185V0H57v510z"/><glyph glyph-name="Omacron" unicode="Ō" horiz-adv-x="698" d="M447 344q0 87-1 114-2 41-11 59.5T406 540q-20 3-57 3-43 0-56-4v156q9 1 27 1h29q112 0 173.5-17.5T612 621q26-37 32.5-97t6.5-180q0-105-4.5-161.5T624 89q-20-42-61.5-64T447-4v348zM139 24q-33 16-52 43t-28 67q-8 35-10 80.5T47 344q0 105 4.5 161T74 599q20 41 61 63t116 30V344q0-59 2-113 2-41 10.5-60t28.5-22q17-4 57-4 41 0 56 3V-7q-9-1-27-1h-29Q203-8 139 24zm65 876h285V751H204v149z"/><glyph glyph-name="omacron" unicode="ō" horiz-adv-x="572" d="M342 254q0 51-1 68-1 24-6 36.5T319 374q-12 3-33 3h-14v141h14q87 0 136-13.5t73-44.5q22-28 28.5-74.5T530 254q0-79-4.5-122.5T504 60q-19-31-57-46.5T342-6v260zM150 5q-49 13-73 44-22 28-28.5 74T42 254q0 78 5 122t22 73q18 32 56 47.5T230 516V254q0-51 1-67 1-24 6-36t17-15q10-3 32-3h14V-8h-14Q199-8 150 5zm-2 737h285V593H148v149z"/><glyph glyph-name="Obreve" unicode="Ŏ" horiz-adv-x="698" d="M447 344q0 87-1 114-2 41-11 59.5T406 540q-20 3-57 3-43 0-56-4v156q9 1 27 1h29q112 0 173.5-17.5T612 621q26-37 32.5-97t6.5-180q0-105-4.5-161.5T624 89q-20-42-61.5-64T447-4v348zM139 24q-33 16-52 43t-28 67q-8 35-10 80.5T47 344q0 105 4.5 161T74 599q20 41 61 63t116 30V344q0-59 2-113 2-41 10.5-60t28.5-22q17-4 57-4 41 0 56 3V-7q-9-1-27-1h-29Q203-8 139 24zm126 737.5Q234 772 216 794q-16 19-22 45t-6 63h103q0-15 1-23.5t6-14.5q12-15 48-15t49 15q5 6 6 14.5t1 23.5h103q0-37-6-63t-22-45q-19-22-50-32.5T346 751t-81 10.5z"/><glyph glyph-name="obreve" unicode="ŏ" horiz-adv-x="572" d="M342 254q0 51-1 68-1 24-6 36.5T319 374q-12 3-33 3h-14v141h14q87 0 136-13.5t73-44.5q22-28 28.5-74.5T530 254q0-79-4.5-122.5T504 60q-19-31-57-46.5T342-6v260zM150 5q-49 13-73 44-22 28-28.5 74T42 254q0 78 5 122t22 73q18 32 56 47.5T230 516V254q0-51 1-67 1-24 6-36t17-15q10-3 32-3h14V-8h-14Q199-8 150 5zm59 597.5Q178 613 160 635q-16 19-22 45t-6 63h103q0-15 1-23.5t6-14.5q12-15 48-15t49 15q5 6 6 14.5t1 23.5h103q0-37-6-63t-22-45q-19-22-50-32.5T290 592t-81 10.5z"/><glyph glyph-name="Ohungarumlaut" unicode="Ő" horiz-adv-x="698" d="M447 344q0 87-1 114-2 41-11 59.5T406 540q-20 3-57 3-43 0-56-4v156q9 1 27 1h29q112 0 173.5-17.5T612 621q26-37 32.5-97t6.5-180q0-105-4.5-161.5T624 89q-20-42-61.5-64T447-4v348zM139 24q-33 16-52 43t-28 67q-8 35-10 80.5T47 344q0 105 4.5 161T74 599q20 41 61 63t116 30V344q0-59 2-113 2-41 10.5-60t28.5-22q17-4 57-4 41 0 56 3V-7q-9-1-27-1h-29Q203-8 139 24zm58 731l71 115h149v-4L307 751H197v4zm190 0l72 115h148v-4L498 751H387v4z"/><glyph glyph-name="ohungarumlaut" unicode="ő" horiz-adv-x="572" d="M342 254q0 51-1 68-1 24-6 36.5T319 374q-12 3-33 3h-14v141h14q87 0 136-13.5t73-44.5q22-28 28.5-74.5T530 254q0-79-4.5-122.5T504 60q-19-31-57-46.5T342-6v260zM150 5q-49 13-73 44-22 28-28.5 74T42 254q0 78 5 122t22 73q18 32 56 47.5T230 516V254q0-51 1-67 1-24 6-36t17-15q10-3 32-3h14V-8h-14Q199-8 150 5zm-9 610l71 115h149v-4L251 611H141v4zm190 0l72 115h148v-4L442 611H331v4z"/><glyph glyph-name="OE" unicode="Œ" horiz-adv-x="1031" d="M447 344q0 83-1 109-2 39-11 57t-29 22q-20 3-57 3-39 0-56-4v156q9 1 27 1h29q111 0 173-17t90-57q26-36 32.5-94t6.5-176q0-103-4.5-157.5T624 95q-20-41-61.5-62.5T447 4v340zm211 285.5Q639 666 602 688h374V535H686q-9 58-28 94.5zM176.5 17Q115 34 87 74q-26 36-33 95t-7 175q0 103 4.5 157.5T74 593q19 40 60.5 61.5T251 684V344q0-58 2-108 2-40 10.5-58t28.5-21q17-4 57-4 41 0 56 3V1q-5-1-17-1h-39Q238 0 176.5 17zM693 306v79q0 26-1 39h237V271H692q1 11 1 35zM658.5 58Q677 94 686 153h290V0H602q38 22 56.5 58z"/><glyph glyph-name="oe" unicode="œ" horiz-adv-x="861" d="M445 23Q406 1 342-5v259q0 51-1 68-1 24-6 36.5T319 374q-12 3-33 3h-14v141h14q103 0 155-30 38 19 89 26V214q0-34 3-48.5t14-21.5q12-8 37-9 32-2 68-2 64 0 93 3l51 4V11Q756-1 686-5q-35-3-80-3-101 0-161 31zm127 282h70q0 56-11 72-6 9-16 11.5t-29 2.5h-14v127h14q86 0 132.5-14t68.5-46q20-28 24.5-72t4.5-132v-40H572v91zM150 5q-49 13-73 44-22 28-28.5 74T42 254q0 78 5 122t22 73q18 32 56 47.5T230 516V254q0-51 1-67 1-24 6-36t17-15q10-3 32-3h14V-8h-14Q199-8 150 5z"/><glyph glyph-name="Racute" unicode="Ŕ" horiz-adv-x="674" d="M65 688h200V0H65v688zm282-454h-40v153h34q31 0 47 2.5t25 9.5q8 7 11 21t3 41-3 41.5-11 21.5-23.5 9-48.5 2h-34v153h103q71 0 115-14t68-43q22-27 29.5-67t7.5-103q0-81-15-125-21-56-74-79L645 0H435zm-87 522l88 142h183v-5L396 751H260v5z"/><glyph glyph-name="racute" unicode="ŕ" horiz-adv-x="425" d="M284 481q21 20 49.5 28.5T404 518V351q-45 0-73.5-6T284 324v157zM57 510h185V0H57v510zm80 91l88 142h183v-5L273 596H137v5z"/><glyph glyph-name="uni0156" unicode="Ŗ" horiz-adv-x="674" d="M65 688h200V0H65v688zm282-454h-40v153h34q31 0 47 2.5t25 9.5q8 7 11 21t3 41-3 41.5-11 21.5-23.5 9-48.5 2h-34v153h103q71 0 115-14t68-43q22-27 29.5-67t7.5-103q0-81-15-125-21-56-74-79L645 0H435zM247-288q40 0 52 13 6 7 8.5 18t2.5 29v13h-63v137h176v-102q0-54-6-85.5T394-315q-18-19-52.5-27.5T247-351v63z"/><glyph glyph-name="uni0157" unicode="ŗ" horiz-adv-x="425" d="M284 481q21 20 49.5 28.5T404 518V351q-45 0-73.5-6T284 324v157zM57 510h185V0H57v510zm2-798q40 0 52 13 6 7 8.5 18t2.5 29v13H59v137h176v-102q0-54-6-85.5T206-315q-18-19-52.5-27.5T59-351v63z"/><glyph glyph-name="Rcaron" unicode="Ř" horiz-adv-x="674" d="M65 688h200V0H65v688zm282-454h-40v153h34q31 0 47 2.5t25 9.5q8 7 11 21t3 41-3 41.5-11 21.5-23.5 9-48.5 2h-34v153h103q71 0 115-14t68-43q22-27 29.5-67t7.5-103q0-81-15-125-21-56-74-79L645 0H435zM152 889v8h123l55-75 56 75h123v-8l-91-139H243z"/><glyph glyph-name="rcaron" unicode="ř" horiz-adv-x="425" d="M284 481q21 20 49.5 28.5T404 518V351q-45 0-73.5-6T284 324v157zM57 510h185V0H57v510zM37 735v8h123l55-75 56 75h123v-8l-91-139H128z"/><glyph glyph-name="Sacute" unicode="Ś" horiz-adv-x="612" d="M423 541q-46 2-74 2-36 0-68-2v155h25q82 0 170-11 28-4 63-11V530q-33 4-116 11zm-49-338q0 21-3 30.5t-10 13-24 5.5l-123 15q-109 12-147 71-17 25-23 61t-6 88q0 111 57 160 46 40 144 47V493q0-13 1-22t4-14q3-6 10-8.5t21-3.5l138-17q43-6 70-15t46-28q45-47 45-167 0-127-56-178-25-23-60.5-33.5T374-7v210zM135 1Q84 6 58 11v146q59-5 135-10 48-2 68-2 54 0 71 3V-8h-11Q221-8 135 1zm105 755l88 142h183v-5L376 751H240v5z"/><glyph glyph-name="sacute" unicode="ś" horiz-adv-x="498" d="M383 376q-62 6-100 6h-33v136q71 0 135-10l50-9V371q-19 1-52 5zm-93-221q0 15-5 19t-21 6l-108 15q-40 6-64.5 19T55 249q-12 19-16 46t-4 67q0 82 49 120 41 30 124 35V360q0-15 4-19.5t25-7.5l120-16q26-3 45-10.5t32-22.5q29-32 29-123 0-96-49-134Q371-5 290-7v162zM108 2l-57 9v128q40-4 108-8 38-2 54-2h35V-8Q168-7 108 2zm58 599l88 142h183v-5L302 596H166v5z"/><glyph glyph-name="Scircumflex" unicode="Ŝ" horiz-adv-x="612" d="M423 541q-46 2-74 2-36 0-68-2v155h25q82 0 170-11 28-4 63-11V530q-33 4-116 11zm-49-338q0 21-3 30.5t-10 13-24 5.5l-123 15q-109 12-147 71-17 25-23 61t-6 88q0 111 57 160 46 40 144 47V493q0-13 1-22t4-14q3-6 10-8.5t21-3.5l138-17q43-6 70-15t46-28q45-47 45-167 0-127-56-178-25-23-60.5-33.5T374-7v210zM135 1Q84 6 58 11v146q59-5 135-10 48-2 68-2 54 0 71 3V-8h-11Q221-8 135 1zm-3 757l91 139h175l91-139v-8H366l-55 75-56-75H132v8z"/><glyph glyph-name="scircumflex" unicode="ŝ" horiz-adv-x="498" d="M383 376q-62 6-100 6h-33v136q71 0 135-10l50-9V371q-19 1-52 5zm-93-221q0 15-5 19t-21 6l-108 15q-40 6-64.5 19T55 249q-12 19-16 46t-4 67q0 82 49 120 41 30 124 35V360q0-15 4-19.5t25-7.5l120-16q26-3 45-10.5t32-22.5q29-32 29-123 0-96-49-134Q371-5 290-7v162zM108 2l-57 9v128q40-4 108-8 38-2 54-2h35V-8Q168-7 108 2zM66 604l91 139h175l91-139v-8H300l-56 75-55-75H66v8z"/><glyph glyph-name="Scedilla" unicode="Ş" horiz-adv-x="612" d="M423 541q-46 2-74 2-36 0-68-2v155h25q82 0 170-11 28-4 63-11V530q-33 4-116 11zm-49-338q0 21-3 30.5t-10 13-24 5.5l-123 15q-109 12-147 71-17 25-23 61t-6 88q0 111 57 160 46 40 144 47V493q0-13 1-22t4-14q3-6 10-8.5t21-3.5l138-17q43-6 70-15t46-28q45-47 45-167 0-127-56-178-25-23-60.5-33.5T374-7v210zM135 1Q84 6 58 11v146q59-5 135-10 48-2 68-2 54 0 71 3V-8h-11Q221-8 135 1zm58-230l81 192h126v-5l-34-192H193v5z"/><glyph glyph-name="scedilla" unicode="ş" horiz-adv-x="498" d="M383 376q-62 6-100 6h-33v136q71 0 135-10l50-9V371q-19 1-52 5zm-93-221q0 15-5 19t-21 6l-108 15q-40 6-64.5 19T55 249q-12 19-16 46t-4 67q0 82 49 120 41 30 124 35V360q0-15 4-19.5t25-7.5l120-16q26-3 45-10.5t32-22.5q29-32 29-123 0-96-49-134Q371-5 290-7v162zM108 2l-57 9v128q40-4 108-8 38-2 54-2h35V-8Q168-7 108 2zm9-226l81 192h126v-5l-34-192H117v5z"/><glyph glyph-name="Scaron" unicode="Š" horiz-adv-x="612" d="M423 541q-46 2-74 2-36 0-68-2v155h25q82 0 170-11 28-4 63-11V530q-33 4-116 11zm-49-338q0 21-3 30.5t-10 13-24 5.5l-123 15q-109 12-147 71-17 25-23 61t-6 88q0 111 57 160 46 40 144 47V493q0-13 1-22t4-14q3-6 10-8.5t21-3.5l138-17q43-6 70-15t46-28q45-47 45-167 0-127-56-178-25-23-60.5-33.5T374-7v210zM135 1Q84 6 58 11v146q59-5 135-10 48-2 68-2 54 0 71 3V-8h-11Q221-8 135 1zm-3 888v8h123l55-75 56 75h123v-8l-91-139H223z"/><glyph glyph-name="scaron" unicode="š" horiz-adv-x="498" d="M383 376q-62 6-100 6h-33v136q71 0 135-10l50-9V371q-19 1-52 5zm-93-221q0 15-5 19t-21 6l-108 15q-40 6-64.5 19T55 249q-12 19-16 46t-4 67q0 82 49 120 41 30 124 35V360q0-15 4-19.5t25-7.5l120-16q26-3 45-10.5t32-22.5q29-32 29-123 0-96-49-134Q371-5 290-7v162zM108 2l-57 9v128q40-4 108-8 38-2 54-2h35V-8Q168-7 108 2zM66 735v8h123l55-75 56 75h123v-8l-91-139H157z"/><glyph glyph-name="uni0162" unicode="Ţ" horiz-adv-x="581" d="M9 688h563V528H9v160zm181-200h200V0H190v488zm-47-712l81 192h126v-5l-34-192H143v5z"/><glyph glyph-name="uni0163" unicode="ţ" horiz-adv-x="427" d="M18 510h94v148h185V510h112V369H18v141zm94-181h185V0H112v329zM66-224l81 192h126v-5l-34-192H66v5z"/><glyph glyph-name="Tcaron" unicode="Ť" horiz-adv-x="581" d="M9 688h563V528H9v160zm181-200h200V0H190v488zm-78 401v8h123l55-75 56 75h123v-8l-91-139H203z"/><glyph glyph-name="tcaron" unicode="ť" horiz-adv-x="427" d="M18 510h94v148h185V510h112V369H18v141zm94-181h185V0H112v329zm244 260q21 0 33 3t19 10q6 7 8 17t2 30v13h-62v142h175V697q0-55-5.5-86T503 562q-19-20-53-28.5t-94-8.5v64z"/><glyph glyph-name="Tbar" unicode="Ŧ" horiz-adv-x="581" d="M572 688V528H9v160h563zM390 367h80V218h-80V0H190v218h-81v149h81v121h200V367z"/><glyph glyph-name="tbar" unicode="ŧ" horiz-adv-x="427" d="M409 510V369H18v141h94v148h185V510h112zM297 264h89V115h-89V0H112v115H25v149h87v65h185v-65z"/><glyph glyph-name="Utilde" unicode="Ũ" horiz-adv-x="690" d="M183 9q-57 17-84 55-25 35-31 89t-6 161v374h200V274q0-37 2-71 2-27 9-39t24-15q15-4 48-4h23q8 0 18 2V-7q-7-1-20-1h-21Q240-8 183 9zm245 679h200V314q0-98-4-148t-22-84q-20-39-61-60T428-5v693zM145 821q2 24 11 42 10 20 30.5 30t56.5 10q47 0 105-14 14-3 25.5-5t20.5-4q23-5 36-5 16 0 19.5 8t3.5 32h93q0-45-2-69t-10-42q-19-41-88-41-47 0-105 14l-46 10q-19 4-36 4-16 0-19.5-7.5T236 751h-93q0 46 2 70z"/><glyph glyph-name="utilde" unicode="ũ" horiz-adv-x="586" d="M79 48q-14 24-19 58.5T55 191v319h185V269q0-53 1-70 2-25 6-36t13-13.5 32-2.5h10V22Q263-7 200-7 110-7 79 48zm265 462h185V0H344v510zM95 649q2 24 11 42 10 20 30.5 30t56.5 10q47 0 105-14 14-3 25.5-5t20.5-4q23-5 36-5 16 0 19.5 8t3.5 32h93q0-45-2-69t-10-42q-19-41-88-41-47 0-105 14l-46 10q-19 4-36 4-16 0-19.5-7.5T186 579H93q0 46 2 70z"/><glyph glyph-name="Umacron" unicode="Ū" horiz-adv-x="690" d="M183 9q-57 17-84 55-25 35-31 89t-6 161v374h200V274q0-37 2-71 2-27 9-39t24-15q15-4 48-4h23q8 0 18 2V-7q-7-1-20-1h-21Q240-8 183 9zm245 679h200V314q0-98-4-148t-22-84q-20-39-61-60T428-5v693zM203 900h285V751H203v149z"/><glyph glyph-name="umacron" unicode="ū" horiz-adv-x="586" d="M79 48q-14 24-19 58.5T55 191v319h185V269q0-53 1-70 2-25 6-36t13-13.5 32-2.5h10V22Q263-7 200-7 110-7 79 48zm265 462h185V0H344v510zM152 742h285V593H152v149z"/><glyph glyph-name="Ubreve" unicode="Ŭ" horiz-adv-x="690" d="M183 9q-57 17-84 55-25 35-31 89t-6 161v374h200V274q0-37 2-71 2-27 9-39t24-15q15-4 48-4h23q8 0 18 2V-7q-7-1-20-1h-21Q240-8 183 9zm245 679h200V314q0-98-4-148t-22-84q-20-39-61-60T428-5v693zm-164 73.5Q233 772 215 794q-16 19-22 45t-6 63h103q0-15 1-23.5t6-14.5q12-15 48-15t49 15q5 6 6 14.5t1 23.5h103q0-37-6-63t-22-45q-19-22-50-32.5T345 751t-81 10.5z"/><glyph glyph-name="ubreve" unicode="ŭ" horiz-adv-x="586" d="M79 48q-14 24-19 58.5T55 191v319h185V269q0-53 1-70 2-25 6-36t13-13.5 32-2.5h10V22Q263-7 200-7 110-7 79 48zm265 462h185V0H344v510zm-131 92.5Q182 613 164 635q-16 19-22 45t-6 63h103q0-15 1-23.5t6-14.5q12-15 48-15t49 15q5 6 6 14.5t1 23.5h103q0-37-6-63t-22-45q-19-22-50-32.5T294 592t-81 10.5z"/><glyph glyph-name="Uring" unicode="Ů" horiz-adv-x="690" d="M183 9q-57 17-84 55-25 35-31 89t-6 161v374h200V274q0-37 2-71 2-27 9-39t24-15q15-4 48-4h23q8 0 18 2V-7q-7-1-20-1h-21Q240-8 183 9zm245 679h200V314q0-98-4-148t-22-84q-20-39-61-60T428-5v693zm-29 184q0 17-1 25.5t-6 13.5-16 8q-14 2-32 2h-12v73h12q54 0 85-7.5t46-22.5q14-14 18-35t4-57q0-31-2.5-49.5T483 790q-10-15-30-24t-54-13v119zM260 758.5q-31 7.5-46 22.5-14 14-18 35t-4 56q0 31 2.5 49.5T206 954q10 15 30 24t54 13V872q0-17 1-25t6-13q5-6 16-8 14-2 31-2h13v-73h-13q-53 0-84 7.5z"/><glyph glyph-name="uring" unicode="ů" horiz-adv-x="586" d="M79 48q-14 24-19 58.5T55 191v319h185V269q0-53 1-70 2-25 6-36t13-13.5 32-2.5h10V22Q263-7 200-7 110-7 79 48zm265 462h185V0H344v510zm4 203q0 17-1 25.5t-6 13.5-16 8q-14 2-32 2h-12v73h12q54 0 85-7.5t46-22.5q14-14 18-35t4-57q0-31-2.5-49.5T432 631q-10-15-30-24t-54-13v119zM209 599.5q-31 7.5-46 22.5-14 14-18 35t-4 56q0 31 2.5 49.5T155 795q10 15 30 24t54 13V713q0-17 1-25t6-13q5-6 16-8 14-2 31-2h13v-73h-13q-53 0-84 7.5z"/><glyph glyph-name="Uhungarumlaut" unicode="Ű" horiz-adv-x="690" d="M183 9q-57 17-84 55-25 35-31 89t-6 161v374h200V274q0-37 2-71 2-27 9-39t24-15q15-4 48-4h23q8 0 18 2V-7q-7-1-20-1h-21Q240-8 183 9zm245 679h200V314q0-98-4-148t-22-84q-20-39-61-60T428-5v693zm-232 67l71 115h149v-4L306 751H196v4zm190 0l72 115h148v-4L497 751H386v4z"/><glyph glyph-name="uhungarumlaut" unicode="ű" horiz-adv-x="586" d="M79 48q-14 24-19 58.5T55 191v319h185V269q0-53 1-70 2-25 6-36t13-13.5 32-2.5h10V22Q263-7 200-7 110-7 79 48zm265 462h185V0H344v510zM145 615l71 115h149v-4L255 611H145v4zm190 0l72 115h148v-4L446 611H335v4z"/><glyph glyph-name="Uogonek" unicode="Ų" horiz-adv-x="690" d="M62 688h200V-5q-72 6-113 27T88 82q-18 34-22 84t-4 148v374zm566 0V314q0-107-6-161t-31-89q-23-32-63-48-37-13-60.5-37T444-70q0-16 10-25t37-9h11q4 0 6 1v-89l-24-2q-30-2-51-2-72 0-105 26-28 22-28 62 0 22 12.5 49T345-8h-21q-13 0-20 1v154q10-2 18-2h23q33 0 48 4 17 3 24 15t9 39q2 34 2 71v414h200z"/><glyph glyph-name="uogonek" unicode="ų" horiz-adv-x="586" d="M260 149.5q9-2.5 32-2.5h10V22Q263-7 200-7 110-7 79 48q-14 24-19 58.5T55 191v319h185V269q0-53 1-70 2-25 6-36t13-13.5zM530-107v-89l-24-2q-30-2-51-2-72 0-105 26-28 22-28 62 0 24 15.5 55T377 0h-33v510h185V0q-23-12-41-32-22-22-22-42 0-16 10-25t37-9h11q4 0 6 1z"/><glyph glyph-name="Wcircumflex" unicode="Ŵ" horiz-adv-x="996" d="M166 29q-7 28-18 78l-27 110-30 126-81 345h199L351 0H173zm157 315l75 344h205L767 0H596l-8 33-21 87-30 127q-19 77-36 151h-6l-34-151-11-51q-5-21-9.5-40t-8.5-36l-20-87-8-33h-11zm404 6l60 338h199l-82-345-30-126q-19-77-26-110l-19-78-7-29h-12zM317 758l91 139h175l91-139v-8H551l-55 75-56-75H317v8z"/><glyph glyph-name="wcircumflex" unicode="ŵ" horiz-adv-x="846" d="M14 510h181L316 0H151zm277-225l62 225h149L650 0H487l-59 227h-10L370 0h-11zm321-2l41 227h179L705 0h-11zM242 604l91 139h175l91-139v-8H476l-56 75-55-75H242v8z"/><glyph glyph-name="Ycircumflex" unicode="Ŷ" horiz-adv-x="633" d="M216 227l-9 20-26 51-25 53q-4 7-10 21l-41 85L-5 688h204l217-462V0H216v227zm129 248l93 213h200l-78-162-33-68-63-131-25-52zM148 758l91 139h175l91-139v-8H382l-55 75-56-75H148v8z"/><glyph glyph-name="ycircumflex" unicode="ŷ" horiz-adv-x="588" d="M81 58q-14 24-19 58.5T57 201v309h185V279q0-53 1-70 2-26 6-36 4-11 13-13.5t32-2.5h10V33Q264 3 202 3 112 3 81 58zm68-258l-58 6v129h134q36 0 70 2 24 2 35.5 9.5T344-28q2 24 2 51v487h185V56q0-80-6.5-124T495-141q-26-33-79-49t-145-16q-52 0-122 6zm-28 804l91 139h175l91-139v-8H355l-56 75-55-75H121v8z"/><glyph glyph-name="Ydieresis" unicode="Ÿ" horiz-adv-x="633" d="M216 227l-9 20-26 51-25 53q-4 7-10 21l-41 85L-5 688h204l217-462V0H216v227zm129 248l93 213h200l-78-162-33-68-63-131-25-52zM145 870h153V751H145v119zm208 0h153V751H353v119z"/><glyph glyph-name="Zacute" unicode="Ź" horiz-adv-x="618" d="M51 688h527V546l-8-11H51v153zM40 147l258 348h242L172 0H40v147zm298 6h240V0H224zm-91 603l88 142h183v-5L383 751H247v5z"/><glyph glyph-name="zacute" unicode="ź" horiz-adv-x="534" d="M45 133l212 236H57v141h430V377L149 0H45v133zm286 8h158V0H205zM186 601l88 142h183v-5L322 596H186v5z"/><glyph glyph-name="Zdotaccent" unicode="Ż" horiz-adv-x="618" d="M51 688h527V546l-8-11H51v153zM40 147l258 348h242L172 0H40v147zm298 6h240V0H224zm-98 717h153V751H240v119z"/><glyph glyph-name="zdotaccent" unicode="ż" horiz-adv-x="534" d="M45 133l212 236H57v141h430V377L149 0H45v133zm286 8h158V0H205zM187 730h153V611H187v119z"/><glyph glyph-name="Zcaron" unicode="Ž" horiz-adv-x="618" d="M51 688h527V546l-8-11H51v153zM40 147l258 348h242L172 0H40v147zm298 6h240V0H224zM139 889v8h123l55-75 56 75h123v-8l-91-139H230z"/><glyph glyph-name="zcaron" unicode="ž" horiz-adv-x="534" d="M45 133l212 236H57v141h430V377L149 0H45v133zm286 8h158V0H205zM86 735v8h123l55-75 56 75h123v-8l-91-139H177z"/><glyph glyph-name="longs" unicode="ſ" horiz-adv-x="437" d="M18 510h94v11q0 85 12 129t44 64q30 19 83 24t168 5V615q-52 0-68-1-24-1-36.5-7T300 589q-3-12-3-34V369H18v141zm94-181h185V0H112v329z"/><glyph glyph-name="uni018F" unicode="Ə" horiz-adv-x="698" d="M644.5 524q6.5-60 6.5-180 0-105-4.5-161.5T624 89q-20-42-61.5-64T447-4v348q0 87-1 114-1 40-10.5 58.5T406 540q-27 6-137 8-106 0-194-8v137q75 19 234 19h40q112 0 173.5-17.5T612 621q26-37 32.5-97zM407 227H253q2-39 11-57t28-21q17-4 57-4 41 0 56 3V-7q-9-1-27-1h-29Q203-8 139 24q-33 16-52 43t-28 67q-8 35-10 84.5T47 354h360V227z"/><glyph glyph-name="florin" unicode="ƒ" horiz-adv-x="545" d="M85 510h94l6 30q10 51 22.5 85t29.5 56 41 34.5 60 18.5q32 5 74 6.5t123 1.5l-27-128q-52 0-68-1-24-1-37.5-7T384 588q-7-14-11-34l-9-44h122l-30-141H55zM-65-69q51 0 68 1 24 1 37 7t19 18q7 18 10 34l71 338h186L257 5q-16-77-36.5-116.5T164-170q-34-18-88.5-22.5T-92-197z"/><glyph glyph-name="uni019D" unicode="Ɲ" horiz-adv-x="716" d="M65 660v28h200L651 29V0H452zm396-223v251h190V112zM-15-69q27 0 44 3 16 3 24 9t10 16q2 12 2 23v595l190-325V37q0-85-10.5-130.5T206-162q-28-22-78-29.5T-15-199v130z"/><glyph glyph-name="Ohorn" unicode="Ơ" horiz-adv-x="698" d="M697 741q0-37-6-63t-22-45q-18-21-46-31 18-37 23-94t5-164q0-105-4.5-161.5T624 89q-20-42-61.5-64T447-4v348q0 87-1 114-2 41-11 59.5T406 540q-20 3-57 3-43 0-56-4v156q9 1 27 1h29q73 0 129-8h60q36 0 49 15 5 6 6 14.5t1 23.5h103zM349 145q41 0 56 3V-7q-9-1-27-1h-29Q203-8 139 24q-33 16-52 43t-28 67q-8 35-10 80.5T47 344q0 105 4.5 161T74 599q20 41 61 63t116 30V344q0-59 2-113 2-41 10.5-60t28.5-22q17-4 57-4z"/><glyph glyph-name="ohorn" unicode="ơ" horiz-adv-x="572" d="M603 563q0-37-6-63t-22-45q-22-25-59-35 8-28 11-67t3-99q0-79-4.5-122.5T504 60q-19-31-57-46.5T342-6v260q0 51-1 68-1 24-6 36.5T319 374q-12 3-33 3h-14v141h14q63 0 111-8h47q36 0 49 15 5 6 6 14.5t1 23.5h103zM286 133h14V-8h-14Q199-8 150 5T77 49q-22 28-28.5 74T42 254q0 78 5 122t22 73q18 32 56 47.5T230 516V254q0-51 1-67 1-24 6-36t17-15q10-3 32-3z"/><glyph glyph-name="Uhorn" unicode="Ư" horiz-adv-x="690" d="M784 741q0-37-6-63t-22-45q-19-22-49.5-32.5T628 590V314q0-98-4-148t-22-84q-20-39-61-60T428-5v693h197q36 0 49 15 5 6 6 14.5t1 23.5h103zM368 145q8 0 18 2V-7q-7-1-20-1h-21Q240-8 183 9T99 64q-25 35-31 89t-6 161v374h200V274q0-37 2-71 2-27 9-39t24-15q15-4 48-4h23z"/><glyph glyph-name="uhorn" unicode="ư" horiz-adv-x="586" d="M697 563q0-37-6-63t-22-45q-19-22-50-32.5T538 412h-9V0H344v510h194q36 0 49 15 5 6 6 14.5t1 23.5h103zM260 149.5q9-2.5 32-2.5h10V22Q263-7 200-7 110-7 79 48q-14 24-19 58.5T55 191v319h185V269q0-53 1-70 2-25 6-36t13-13.5z"/><glyph glyph-name="uni01C4" unicode="Ǆ" horiz-adv-x="1298" d="M65 688h200V0H65v688zm242-535h8q49 0 69.5 4.5T415 179q11 18 12 57 2 50 2 108 0 57-2 109-2 39-12.5 57T381 532q-23 3-66 3h-8v153h8q80 0 133.5-7t88.5-22q34-15 54-41t29-65q8-35 10.5-82.5T633 344q0-80-2.5-127T620 135q-9-39-29-65t-54-41q-35-15-88.5-22T315 0h-8v153zm424 535h527V546l-8-11H731v153zm-11-541l258 348h242L852 0H720v147zm298 6h240V0H904zM819 889v8h123l55-75 56 75h123v-8l-91-139H910z"/><glyph glyph-name="uni01C5" unicode="ǅ" horiz-adv-x="1214" d="M65 688h200V0H65v688zm242-535h8q49 0 69.5 4.5T415 179q11 18 12 57 2 50 2 108 0 57-2 109-2 39-12.5 57T381 532q-23 3-66 3h-8v153h8q80 0 133.5-7t88.5-22q34-15 54-41t29-65q8-35 10.5-82.5T633 344q0-80-2.5-127T620 135q-9-39-29-65t-54-41q-35-15-88.5-22T315 0h-8v153zm418-20l212 236H737v141h430V377L829 0H725v133zm286 8h158V0H885zM766 735v8h123l55-75 56 75h123v-8l-91-139H857z"/><glyph glyph-name="uni01C6" unicode="ǆ" horiz-adv-x="1112" d="M336 743h185V0H336v743zM123.5 6Q95 19 78 48q-19 30-27.5 80T42 253q0 147 36 206 34 58 114 58 36 0 59-5.5t43-21.5V363h-11q-22 0-31.5-2.5T237 349q-5-11-6-32-1-15-1-62t1-62q1-21 6-31.5t16-12.5q14-2 30-2h11V20Q274 5 249.5-1T192-7q-40 0-68.5 13zM623 133l212 236H635v141h430V377L727 0H623v133zm286 8h158V0H783zM664 735v8h123l55-75 56 75h123v-8l-91-139H755z"/><glyph glyph-name="uni01C7" unicode="Ǉ" horiz-adv-x="966" d="M65 688h200V0H65v688zm242-527h214V0H307v161zm254-16q54 0 83 3t42.5 15.5T702 200q2 32 2 66v422h200V334q0-96-3-147t-13-85q-11-37-32.5-57.5T796 14q-35-9-87.5-11.5T561 0v145z"/><glyph glyph-name="uni01C8" unicode="ǈ" horiz-adv-x="840" d="M65 688h200V0H65v688zm242-527h214V0H307v161zm291 582h185V599H598v144zM516-69q29 0 46 3 16 3 24 9t10 16q2 12 2 23v528h185V37q0-85-10.5-130.5T734-162t-77-30-141-7v130z"/><glyph glyph-name="uni01C9" unicode="ǉ" horiz-adv-x="598" d="M57 743h185V0H57v743zm299 0h185V599H356v144zM274-69q29 0 46 3 16 3 24 9t10 16q2 12 2 23v528h185V37q0-85-10.5-130.5T492-162t-77-30-141-7v130z"/><glyph glyph-name="uni01CA" unicode="Ǌ" horiz-adv-x="1141" d="M65 660v28h200L651 29V0H452zm396-223v251h190V112zM65 577l190-325V0H65v577zm671-432q54 0 83 3t42.5 15.5T877 200q2 32 2 66v422h200V334q0-96-3-147t-13-85q-11-37-32.5-57.5T971 14q-35-9-87.5-11.5T736 0v145z"/><glyph glyph-name="uni01CB" unicode="ǋ" horiz-adv-x="1015" d="M65 660v28h200L651 29V0H452zm396-223v251h190V112zM65 577l190-325V0H65v577zm708 166h185V599H773v144zM691-69q29 0 46 3 16 3 24 9t10 16q2 12 2 23v528h185V37q0-85-10.5-130.5T909-162t-77-30-141-7v130z"/><glyph glyph-name="uni01CC" unicode="ǌ" horiz-adv-x="887" d="M346 241q0 53-1 70-2 28-5 37-4 10-14 12.5t-32 2.5h-10v125q39 29 102 29 90 0 121-55 14-24 19-58.5t5-84.5V0H346v241zM57 510h185V0H57v510zm588 233h185V599H645v144zM563-69q29 0 46 3 16 3 24 9t10 16q2 12 2 23v528h185V37q0-85-10.5-130.5T781-162t-77-30-141-7v130z"/><glyph glyph-name="uni01CD" unicode="Ǎ" horiz-adv-x="687" d="M221 688h17l79-274L202 0H2zm225-566H279l42 154h80L283 688h183L685 0H481zM162 889v8h123l55-75 56 75h123v-8l-91-139H253z"/><glyph glyph-name="uni01CE" unicode="ǎ" horiz-adv-x="558" d="M318 316q0 26-2 37t-12 16q-9 5-34 7-15 1-65 1-48 0-89-4l-53-3v130q94 18 203 18 84 0 131.5-12t71.5-38q21-24 27.5-61t6.5-103V0H318v316zM68 31.5Q35 70 35 148q0 48 7 77.5T66 272q17 18 47 25.5t79 7.5l84-2v-89h-10q-23 0-30-1-20-1-21-19-1-6-1-25 0-15 1.5-23t5.5-13q5-7 15-8 14-2 30-2h10V21Q254 4 229.5-1.5T170-7Q101-7 68 31.5zM105 735v8h123l55-75 56 75h123v-8l-91-139H196z"/><glyph glyph-name="uni01CF" unicode="Ǐ" horiz-adv-x="330" d="M65 688h200V0H65v688zm-79 201v8h123l55-75 56 75h123v-8l-91-139H77z"/><glyph glyph-name="uni01D0" unicode="ǐ" horiz-adv-x="299" d="M57 510h185V0H57v510zm-87 225v8H93l55-75 56 75h123v-8l-91-139H61z"/><glyph glyph-name="uni01D1" unicode="Ǒ" horiz-adv-x="698" d="M447 344q0 87-1 114-2 41-11 59.5T406 540q-20 3-57 3-43 0-56-4v156q9 1 27 1h29q112 0 173.5-17.5T612 621q26-37 32.5-97t6.5-180q0-105-4.5-161.5T624 89q-20-42-61.5-64T447-4v348zM139 24q-33 16-52 43t-28 67q-8 35-10 80.5T47 344q0 105 4.5 161T74 599q20 41 61 63t116 30V344q0-59 2-113 2-41 10.5-60t28.5-22q17-4 57-4 41 0 56 3V-7q-9-1-27-1h-29Q203-8 139 24zm29 865v8h123l55-75 56 75h123v-8l-91-139H259z"/><glyph glyph-name="uni01D2" unicode="ǒ" horiz-adv-x="572" d="M342 254q0 51-1 68-1 24-6 36.5T319 374q-12 3-33 3h-14v141h14q87 0 136-13.5t73-44.5q22-28 28.5-74.5T530 254q0-79-4.5-122.5T504 60q-19-31-57-46.5T342-6v260zM150 5q-49 13-73 44-22 28-28.5 74T42 254q0 78 5 122t22 73q18 32 56 47.5T230 516V254q0-51 1-67 1-24 6-36t17-15q10-3 32-3h14V-8h-14Q199-8 150 5zm-39 730v8h123l55-75 56 75h123v-8l-91-139H202z"/><glyph glyph-name="uni01D3" unicode="Ǔ" horiz-adv-x="690" d="M183 9q-57 17-84 55-25 35-31 89t-6 161v374h200V274q0-37 2-71 2-27 9-39t24-15q15-4 48-4h23q8 0 18 2V-7q-7-1-20-1h-21Q240-8 183 9zm245 679h200V314q0-98-4-148t-22-84q-20-39-61-60T428-5v693zM167 889v8h123l55-75 56 75h123v-8l-91-139H258z"/><glyph glyph-name="uni01D4" unicode="ǔ" horiz-adv-x="586" d="M79 48q-14 24-19 58.5T55 191v319h185V269q0-53 1-70 2-25 6-36t13-13.5 32-2.5h10V22Q263-7 200-7 110-7 79 48zm265 462h185V0H344v510zM115 735v8h123l55-75 56 75h123v-8l-91-139H206z"/><glyph glyph-name="uni01D5" unicode="Ǖ" horiz-adv-x="690" d="M183 9q-57 17-84 55-25 35-31 89t-6 161v374h200V274q0-37 2-71 2-27 9-39t24-15q15-4 48-4h23q8 0 18 2V-7q-7-1-20-1h-21Q240-8 183 9zm245 679h200V314q0-98-4-148t-22-84q-20-39-61-60T428-5v693zm-264 346h361V915H164v119zm0-164h153V751H164v119zm208 0h153V751H372v119z"/><glyph glyph-name="uni01D6" unicode="ǖ" horiz-adv-x="586" d="M79 48q-14 24-19 58.5T55 191v319h185V269q0-53 1-70 2-25 6-36t13-13.5 32-2.5h10V22Q263-7 200-7 110-7 79 48zm265 462h185V0H344v510zM113 894h361V775H113v119zm0-164h153V611H113v119zm208 0h153V611H321v119z"/><glyph glyph-name="uni01D7" unicode="Ǘ" horiz-adv-x="690" d="M183 9q-57 17-84 55-25 35-31 89t-6 161v374h200V274q0-37 2-71 2-27 9-39t24-15q15-4 48-4h23q8 0 18 2V-7q-7-1-20-1h-21Q240-8 183 9zm245 679h200V314q0-98-4-148t-22-84q-20-39-61-60T428-5v693zM273 930l75 122h178v-5L399 925H273v5zm-109-60h153V751H164v119zm208 0h153V751H372v119z"/><glyph glyph-name="uni01D8" unicode="ǘ" horiz-adv-x="586" d="M79 48q-14 24-19 58.5T55 191v319h185V269q0-53 1-70 2-25 6-36t13-13.5 32-2.5h10V22Q263-7 200-7 110-7 79 48zm265 462h185V0H344v510zM222 790l75 122h178v-5L348 785H222v5zm-109-60h153V611H113v119zm208 0h153V611H321v119z"/><glyph glyph-name="uni01D9" unicode="Ǚ" horiz-adv-x="690" d="M183 9q-57 17-84 55-25 35-31 89t-6 161v374h200V274q0-37 2-71 2-27 9-39t24-15q15-4 48-4h23q8 0 18 2V-7q-7-1-20-1h-21Q240-8 183 9zm245 679h200V314q0-98-4-148t-22-84q-20-39-61-60T428-5v693zm-262 357v8h128l51-55 50 55h128v-8l-91-119H257zm-2-175h153V751H164v119zm208 0h153V751H372v119z"/><glyph glyph-name="uni01DA" unicode="ǚ" horiz-adv-x="586" d="M79 48q-14 24-19 58.5T55 191v319h185V269q0-53 1-70 2-25 6-36t13-13.5 32-2.5h10V22Q263-7 200-7 110-7 79 48zm265 462h185V0H344v510zM115 905v8h128l51-55 50 55h128v-8l-91-119H206zm-2-175h153V611H113v119zm208 0h153V611H321v119z"/><glyph glyph-name="uni01DB" unicode="Ǜ" horiz-adv-x="690" d="M183 9q-57 17-84 55-25 35-31 89t-6 161v374h200V274q0-37 2-71 2-27 9-39t24-15q15-4 48-4h23q8 0 18 2V-7q-7-1-20-1h-21Q240-8 183 9zm245 679h200V314q0-98-4-148t-22-84q-20-39-61-60T428-5v693zm-264 359v5h178l75-122v-5H291zm1-177h153V751H165v119zm208 0h153V751H373v119z"/><glyph glyph-name="uni01DC" unicode="ǜ" horiz-adv-x="586" d="M79 48q-14 24-19 58.5T55 191v319h185V269q0-53 1-70 2-25 6-36t13-13.5 32-2.5h10V22Q263-7 200-7 110-7 79 48zm265 462h185V0H344v510zM113 907v5h178l75-122v-5H240zm1-177h153V611H114v119zm208 0h153V611H322v119z"/><glyph glyph-name="Gcaron" unicode="Ǧ" horiz-adv-x="660" d="M293 694q40 2 66 2 90 0 165-12 38-4 73-12V529q-42 4-63 7-17 1-55 5-38 2-50 2-61 0-89.5-2.5T293 528v166zM199.5 7Q140 22 107 60T60.5 165 47 344q0 95 9 156t31 100q23 40 62 61t102 29V344q0-71 4-108.5t15-57.5q12-21 34.5-29t64.5-8V-8h-10Q259-8 199.5 7zM411 264h-71v145h260V17Q553 6 483 0q-34-5-72-6v270zM177 889v8h123l55-75 56 75h123v-8l-91-139H268z"/><glyph glyph-name="gcaron" unicode="ǧ" horiz-adv-x="578" d="M124 16.5Q96 30 78 60q-36 58-36 202 0 145 36 201 18 28 46 41t68 13q34 0 58-6t44-22V363h-11q-22 0-31.5-2.5T237 350q-5-11-6-31-1-14-1-59t1-59q1-21 6-30.5t16-11.5q14-2 30-2h11V30q-20-16-43-21.5T192 3q-40 0-68 13.5zM139-200l-60 6v129h134q36 0 70 2 25 2 36.5 9.5T334-28q2 24 2 51v487h185V56q0-78-7-122.5T484-141q-26-33-79.5-49T259-206q-50 0-120 6zm-27 935v8h123l55-75 56 75h123v-8l-91-139H203z"/><glyph glyph-name="uni01EA" unicode="Ǫ" horiz-adv-x="698" d="M349 543q-38 0-57-3-20-4-29-22.5T252 458q-1-27-1-114V-4q-74 7-115.5 29T74 89q-18 37-22.5 93.5T47 344q0 120 6.5 180T86 621q28 40 89.5 57.5T349 696h29q18 0 27-1V539q-13 4-56 4zm297.5-38q4.5-56 4.5-161 0-84-2-129.5T639 134q-9-40-28-67t-52-43q-14-7-32-13-38-13-60.5-35T444-70q0-16 10-25t37-9h11q4 0 6 1v-89l-24-2q-30-2-51-2-72 0-105 26-28 22-28 62 0 22 12.5 49T345-8h-25q-18 0-27 1v155q15-3 56-3 40 0 57 4 20 3 28.5 22t10.5 60q2 54 2 113v348q75-8 116-30t61-63q18-38 22.5-94z"/><glyph glyph-name="uni01EB" unicode="ǫ" horiz-adv-x="572" d="M230-6q-67 4-105 19.5T68 60q-17 28-21.5 71.5T42 254q0 85 6.5 131.5T77 460q24 31 73 44.5T286 518h14V377h-14q-21 0-33-3-11-3-16-15.5t-6-36.5q-1-17-1-68V-6zm295 382q5-44 5-122 0-85-6.5-131T495 49q-17-22-47-35-77-38-77-84 0-16 10-25t37-9h11q4 0 6 1v-89l-24-2q-30-2-51-2-72 0-105 26-28 22-28 62 0 22 12.5 49T272-7v140h14q22 0 32 3 12 3 17 15t6 36q1 16 1 67v262q67-4 105-19.5t56-47.5q17-29 22-73z"/><glyph glyph-name="Aringacute" unicode="Ǻ" horiz-adv-x="687" d="M221 688h17l79-274L202 0H2zm225-566H279l42 154h80L283 688h183L685 0H481zm-180 919l75 122h178v-5l-127-122H266v5zm128-169q0 17-1 25.5t-6 13.5-16 8q-14 2-32 2h-12v73h12q54 0 85-7.5t46-22.5q14-14 18-35t4-57q0-31-2.5-49.5T478 790q-10-15-30-24t-54-13v119zM255 758.5q-31 7.5-46 22.5-14 14-18 35t-4 56q0 31 2.5 49.5T201 954q10 15 30 24t54 13V872q0-17 1-25t6-13q5-6 16-8 14-2 31-2h13v-73h-13q-53 0-84 7.5z"/><glyph glyph-name="aringacute" unicode="ǻ" horiz-adv-x="558" d="M318 316q0 26-2 37t-12 16q-9 5-34 7-15 1-65 1-48 0-89-4l-53-3v130q94 18 203 18 84 0 131.5-12t71.5-38q21-24 27.5-61t6.5-103V0H318v316zM68 31.5Q35 70 35 148q0 48 7 77.5T66 272q17 18 47 25.5t79 7.5l84-2v-89h-10q-23 0-30-1-20-1-21-19-1-6-1-25 0-15 1.5-23t5.5-13q5-7 15-8 14-2 30-2h10V21Q254 4 229.5-1.5T170-7Q101-7 68 31.5zM210 882l75 122h178v-5L336 877H210v5zm128-169q0 17-1 25.5t-6 13.5-16 8q-14 2-32 2h-12v73h12q54 0 85-7.5t46-22.5q14-14 18-35t4-57q0-31-2.5-49.5T422 631q-10-15-30-24t-54-13v119zM199 599.5q-31 7.5-46 22.5-14 14-18 35t-4 56q0 31 2.5 49.5T145 795q10 15 30 24t54 13V713q0-17 1-25t6-13q5-6 16-8 14-2 31-2h13v-73h-13q-53 0-84 7.5z"/><glyph glyph-name="AEacute" unicode="Ǽ" horiz-adv-x="979" d="M296 688h273L654 0H459l-13 122H276l64 154h90l-25 250h-5L179 0H-20zm316 0h312V535H631zm33-264h232V271H664zm33-271h246V0H697zM551 756l88 142h183v-5L687 751H551v5z"/><glyph glyph-name="aeacute" unicode="ǽ" horiz-adv-x="834" d="M462.5 1Q416 10 386 28 354 7 318 0v316q0 26-2 37t-12 16q-9 5-34 7-15 1-65 1-48 0-89-4l-53-3v130q94 18 203 18 101 0 151-29 32 18 86 26V214q0-34 3-48.5t14-21.5q12-8 37-9 32-2 68-2 64 0 93 3l51 4V11Q729-1 659-5q-34-3-80-3-70 0-116.5 9zM545 305h70q0 56-11 72-6 9-16 11.5t-29 2.5h-14v127h14q86 0 132.5-14t68.5-46q20-28 24.5-72t4.5-132v-40H545v91zM133.5.5Q96 9 74 28 53 46 44 75t-9 73q0 48 7 77.5T66 272q17 18 47 25.5t79 7.5l84-2v-89h-10q-23 0-30-1-20-1-21-19-1-6-1-25 0-15 1.5-23t5.5-13q5-7 15-8 14-2 30-2h10V-6q-30-2-46-2-59 0-96.5 8.5zM336 601l88 142h183v-5L472 596H336v5z"/><glyph glyph-name="Oslashacute" unicode="Ǿ" horiz-adv-x="698" d="M612 621q26-37 32.5-97t6.5-180q0-105-4.5-161.5T624 89q-20-42-61.5-64T447-4v348q0 87-1 114-2 41-11 59.5T406 540q-20 3-57 3-43 0-56-4v156q9 1 27 1h29q66 0 114-6l28 51h161l-56-101q9-9 16-19zM349 145q41 0 56 3V-7q-9-1-27-1h-29q-62 0-109 6l-32-55H48l58 103q-33 30-47 88-8 35-10 80.5T47 344q0 105 4.5 161T74 599q20 41 61 63t116 30V344q0-59 2-113 2-41 10.5-60t28.5-22q17-4 57-4zm-73 611l88 142h183v-5L412 751H276v5z"/><glyph glyph-name="oslashacute" unicode="ǿ" horiz-adv-x="572" d="M495 460q22-28 28.5-74.5T530 254q0-79-4.5-122.5T504 60q-19-31-57-46.5T342-6v260q0 51-1 68-1 24-6 36.5T319 374q-12 3-33 3h-14v141h14q36 0 52-1l33 60h161l-55-99q11-7 18-18zM286 133h14V-8h-14q-27 0-67 2l-31-54H28L84 41l-7 8q-22 28-28.5 74T42 254q0 78 5 122t22 73q18 32 56 47.5T230 516V254q0-51 1-67 1-24 6-36t17-15q10-3 32-3zm-75 468l88 142h183v-5L347 596H211v5z"/><glyph glyph-name="uni0200" unicode="Ȁ" horiz-adv-x="687" d="M221 688h17l79-274L202 0H2zm225-566H279l42 154h80L283 688h183L685 0H481zM79 866v4h148l72-115v-4H188zm190 0v4h149l71-115v-4H379z"/><glyph glyph-name="uni0201" unicode="ȁ" horiz-adv-x="558" d="M318 316q0 26-2 37t-12 16q-9 5-34 7-15 1-65 1-48 0-89-4l-53-3v130q94 18 203 18 84 0 131.5-12t71.5-38q21-24 27.5-61t6.5-103V0H318v316zM68 31.5Q35 70 35 148q0 48 7 77.5T66 272q17 18 47 25.5t79 7.5l84-2v-89h-10q-23 0-30-1-20-1-21-19-1-6-1-25 0-15 1.5-23t5.5-13q5-7 15-8 14-2 30-2h10V21Q254 4 229.5-1.5T170-7Q101-7 68 31.5zM23 726v4h148l72-115v-4H132zm190 0v4h149l71-115v-4H323z"/><glyph glyph-name="uni0202" unicode="Ȃ" horiz-adv-x="687" d="M221 688h17l79-274L202 0H2zm225-566H279l42 154h80L283 688h183L685 0H481zM188 814q6 26 22 45 19 22 50 32.5t81 10.5 81-10.5 49-32.5q16-19 22-45t6-63H396q0 15-1 23.5t-6 14.5q-12 15-48 15t-49-15q-5-6-6-14.5t-1-23.5H182q0 37 6 63z"/><glyph glyph-name="uni0203" unicode="ȃ" horiz-adv-x="558" d="M318 316q0 26-2 37t-12 16q-9 5-34 7-15 1-65 1-48 0-89-4l-53-3v130q94 18 203 18 84 0 131.5-12t71.5-38q21-24 27.5-61t6.5-103V0H318v316zM68 31.5Q35 70 35 148q0 48 7 77.5T66 272q17 18 47 25.5t79 7.5l84-2v-89h-10q-23 0-30-1-20-1-21-19-1-6-1-25 0-15 1.5-23t5.5-13q5-7 15-8 14-2 30-2h10V21Q254 4 229.5-1.5T170-7Q101-7 68 31.5zM132 655q6 26 22 45 19 22 50 32.5t81 10.5 81-10.5 49-32.5q16-19 22-45t6-63H340q0 15-1 23.5t-6 14.5q-12 15-48 15t-49-15q-5-6-6-14.5t-1-23.5H126q0 37 6 63z"/><glyph glyph-name="uni0204" unicode="Ȅ" horiz-adv-x="616" d="M65 688h200V0H65v688zm242 0h254V535H307v153zm0-264h207V271H307v153zm0-271h254V0H307v153zM60 866v4h148l72-115v-4H169zm190 0v4h149l71-115v-4H360z"/><glyph glyph-name="uni0205" unicode="ȅ" horiz-adv-x="557" d="M268 305h70q0 56-11 72-6 9-16 11.5t-29 2.5h-14v127h14q86 0 132.5-14t68.5-46q20-28 24.5-72t4.5-132v-40H268v91zM157.5 7.5Q105 23 79 57q-23 30-30 74.5T42 254q0 72 5 114.5T68 441q18 33 55.5 51.5T226 516V214q0-34 3-48.5t14-21.5q12-8 37-9 32-2 68-2 64 0 93 3l51 4V11Q452-1 382-5q-34-3-80-3-92 0-144.5 15.5zM29 726v4h148l72-115v-4H138zm190 0v4h149l71-115v-4H329z"/><glyph glyph-name="uni0206" unicode="Ȇ" horiz-adv-x="616" d="M65 688h200V0H65v688zm242 0h254V535H307v153zm0-264h207V271H307v153zm0-271h254V0H307v153zM169 814q6 26 22 45 19 22 50 32.5t81 10.5 81-10.5 49-32.5q16-19 22-45t6-63H377q0 15-1 23.5t-6 14.5q-12 15-48 15t-49-15q-5-6-6-14.5t-1-23.5H163q0 37 6 63z"/><glyph glyph-name="uni0207" unicode="ȇ" horiz-adv-x="557" d="M268 305h70q0 56-11 72-6 9-16 11.5t-29 2.5h-14v127h14q86 0 132.5-14t68.5-46q20-28 24.5-72t4.5-132v-40H268v91zM157.5 7.5Q105 23 79 57q-23 30-30 74.5T42 254q0 72 5 114.5T68 441q18 33 55.5 51.5T226 516V214q0-34 3-48.5t14-21.5q12-8 37-9 32-2 68-2 64 0 93 3l51 4V11Q452-1 382-5q-34-3-80-3-92 0-144.5 15.5zM138 655q6 26 22 45 19 22 50 32.5t81 10.5 81-10.5 49-32.5q16-19 22-45t6-63H346q0 15-1 23.5t-6 14.5q-12 15-48 15t-49-15q-5-6-6-14.5t-1-23.5H132q0 37 6 63z"/><glyph glyph-name="uni0208" unicode="Ȉ" horiz-adv-x="330" d="M65 688h200V0H65v688zM-97 866v4H51l72-115v-4H12zm190 0v4h149l71-115v-4H203z"/><glyph glyph-name="uni0209" unicode="ȉ" horiz-adv-x="299" d="M57 510h185V0H57v510zm-169 216v4H36l72-115v-4H-3zm190 0v4h149l71-115v-4H188z"/><glyph glyph-name="uni020A" unicode="Ȋ" horiz-adv-x="330" d="M65 688h200V0H65v688zM12 814q6 26 22 45 19 22 50 32.5t81 10.5 81-10.5 49-32.5q16-19 22-45t6-63H220q0 15-1 23.5t-6 14.5q-12 15-48 15t-49-15q-5-6-6-14.5t-1-23.5H6q0 37 6 63z"/><glyph glyph-name="uni020B" unicode="ȋ" horiz-adv-x="299" d="M57 510h185V0H57v510zM-3 655q6 26 22 45 19 22 50 32.5t81 10.5 81-10.5 49-32.5q16-19 22-45t6-63H205q0 15-1 23.5t-6 14.5q-12 15-48 15t-49-15q-5-6-6-14.5T94 592H-9q0 37 6 63z"/><glyph glyph-name="uni020C" unicode="Ȍ" horiz-adv-x="698" d="M447 344q0 87-1 114-2 41-11 59.5T406 540q-20 3-57 3-43 0-56-4v156q9 1 27 1h29q112 0 173.5-17.5T612 621q26-37 32.5-97t6.5-180q0-105-4.5-161.5T624 89q-20-42-61.5-64T447-4v348zM139 24q-33 16-52 43t-28 67q-8 35-10 80.5T47 344q0 105 4.5 161T74 599q20 41 61 63t116 30V344q0-59 2-113 2-41 10.5-60t28.5-22q17-4 57-4 41 0 56 3V-7q-9-1-27-1h-29Q203-8 139 24zM85 866v4h148l72-115v-4H194zm190 0v4h149l71-115v-4H385z"/><glyph glyph-name="uni020D" unicode="ȍ" horiz-adv-x="572" d="M342 254q0 51-1 68-1 24-6 36.5T319 374q-12 3-33 3h-14v141h14q87 0 136-13.5t73-44.5q22-28 28.5-74.5T530 254q0-79-4.5-122.5T504 60q-19-31-57-46.5T342-6v260zM150 5q-49 13-73 44-22 28-28.5 74T42 254q0 78 5 122t22 73q18 32 56 47.5T230 516V254q0-51 1-67 1-24 6-36t17-15q10-3 32-3h14V-8h-14Q199-8 150 5zM29 726v4h148l72-115v-4H138zm190 0v4h149l71-115v-4H329z"/><glyph glyph-name="uni020E" unicode="Ȏ" horiz-adv-x="698" d="M447 344q0 87-1 114-2 41-11 59.5T406 540q-20 3-57 3-43 0-56-4v156q9 1 27 1h29q112 0 173.5-17.5T612 621q26-37 32.5-97t6.5-180q0-105-4.5-161.5T624 89q-20-42-61.5-64T447-4v348zM139 24q-33 16-52 43t-28 67q-8 35-10 80.5T47 344q0 105 4.5 161T74 599q20 41 61 63t116 30V344q0-59 2-113 2-41 10.5-60t28.5-22q17-4 57-4 41 0 56 3V-7q-9-1-27-1h-29Q203-8 139 24zm55 790q6 26 22 45 19 22 50 32.5t81 10.5 81-10.5 49-32.5q16-19 22-45t6-63H402q0 15-1 23.5t-6 14.5q-12 15-48 15t-49-15q-5-6-6-14.5t-1-23.5H188q0 37 6 63z"/><glyph glyph-name="uni020F" unicode="ȏ" horiz-adv-x="572" d="M342 254q0 51-1 68-1 24-6 36.5T319 374q-12 3-33 3h-14v141h14q87 0 136-13.5t73-44.5q22-28 28.5-74.5T530 254q0-79-4.5-122.5T504 60q-19-31-57-46.5T342-6v260zM150 5q-49 13-73 44-22 28-28.5 74T42 254q0 78 5 122t22 73q18 32 56 47.5T230 516V254q0-51 1-67 1-24 6-36t17-15q10-3 32-3h14V-8h-14Q199-8 150 5zm-12 650q6 26 22 45 19 22 50 32.5t81 10.5 81-10.5 49-32.5q16-19 22-45t6-63H346q0 15-1 23.5t-6 14.5q-12 15-48 15t-49-15q-5-6-6-14.5t-1-23.5H132q0 37 6 63z"/><glyph glyph-name="uni0210" unicode="Ȑ" horiz-adv-x="674" d="M65 688h200V0H65v688zm282-454h-40v153h34q31 0 47 2.5t25 9.5q8 7 11 21t3 41-3 41.5-11 21.5-23.5 9-48.5 2h-34v153h103q71 0 115-14t68-43q22-27 29.5-67t7.5-103q0-81-15-125-21-56-74-79L645 0H435zM69 866v4h148l72-115v-4H178zm190 0v4h149l71-115v-4H369z"/><glyph glyph-name="uni0211" unicode="ȑ" horiz-adv-x="425" d="M284 481q21 20 49.5 28.5T404 518V351q-45 0-73.5-6T284 324v157zM57 510h185V0H57v510zM-45 726v4h148l72-115v-4H64zm190 0v4h149l71-115v-4H255z"/><glyph glyph-name="uni0212" unicode="Ȓ" horiz-adv-x="674" d="M65 688h200V0H65v688zm282-454h-40v153h34q31 0 47 2.5t25 9.5q8 7 11 21t3 41-3 41.5-11 21.5-23.5 9-48.5 2h-34v153h103q71 0 115-14t68-43q22-27 29.5-67t7.5-103q0-81-15-125-21-56-74-79L645 0H435zM178 814q6 26 22 45 19 22 50 32.5t81 10.5 81-10.5 49-32.5q16-19 22-45t6-63H386q0 15-1 23.5t-6 14.5q-12 15-48 15t-49-15q-5-6-6-14.5t-1-23.5H172q0 37 6 63z"/><glyph glyph-name="uni0213" unicode="ȓ" horiz-adv-x="425" d="M284 481q21 20 49.5 28.5T404 518V351q-45 0-73.5-6T284 324v157zM57 510h185V0H57v510zm7 145q6 26 22 45 19 22 50 32.5t81 10.5 81-10.5 49-32.5q16-19 22-45t6-63H272q0 15-1 23.5t-6 14.5q-12 15-48 15t-49-15q-5-6-6-14.5t-1-23.5H58q0 37 6 63z"/><glyph glyph-name="uni0214" unicode="Ȕ" horiz-adv-x="690" d="M183 9q-57 17-84 55-25 35-31 89t-6 161v374h200V274q0-37 2-71 2-27 9-39t24-15q15-4 48-4h23q8 0 18 2V-7q-7-1-20-1h-21Q240-8 183 9zm245 679h200V314q0-98-4-148t-22-84q-20-39-61-60T428-5v693zM84 866v4h148l72-115v-4H193zm190 0v4h149l71-115v-4H384z"/><glyph glyph-name="uni0215" unicode="ȕ" horiz-adv-x="586" d="M79 48q-14 24-19 58.5T55 191v319h185V269q0-53 1-70 2-25 6-36t13-13.5 32-2.5h10V22Q263-7 200-7 110-7 79 48zm265 462h185V0H344v510zM33 726v4h148l72-115v-4H142zm190 0v4h149l71-115v-4H333z"/><glyph glyph-name="uni0216" unicode="Ȗ" horiz-adv-x="690" d="M183 9q-57 17-84 55-25 35-31 89t-6 161v374h200V274q0-37 2-71 2-27 9-39t24-15q15-4 48-4h23q8 0 18 2V-7q-7-1-20-1h-21Q240-8 183 9zm245 679h200V314q0-98-4-148t-22-84q-20-39-61-60T428-5v693zM193 814q6 26 22 45 19 22 50 32.5t81 10.5 81-10.5 49-32.5q16-19 22-45t6-63H401q0 15-1 23.5t-6 14.5q-12 15-48 15t-49-15q-5-6-6-14.5t-1-23.5H187q0 37 6 63z"/><glyph glyph-name="uni0217" unicode="ȗ" horiz-adv-x="586" d="M79 48q-14 24-19 58.5T55 191v319h185V269q0-53 1-70 2-25 6-36t13-13.5 32-2.5h10V22Q263-7 200-7 110-7 79 48zm265 462h185V0H344v510zM142 655q6 26 22 45 19 22 50 32.5t81 10.5 81-10.5 49-32.5q16-19 22-45t6-63H350q0 15-1 23.5t-6 14.5q-12 15-48 15t-49-15q-5-6-6-14.5t-1-23.5H136q0 37 6 63z"/><glyph glyph-name="uni0218" unicode="Ș" horiz-adv-x="612" d="M423 541q-46 2-74 2-36 0-68-2v155h25q82 0 170-11 28-4 63-11V530q-33 4-116 11zm-49-338q0 21-3 30.5t-10 13-24 5.5l-123 15q-109 12-147 71-17 25-23 61t-6 88q0 111 57 160 46 40 144 47V493q0-13 1-22t4-14q3-6 10-8.5t21-3.5l138-17q43-6 70-15t46-28q45-47 45-167 0-127-56-178-25-23-60.5-33.5T374-7v210zM135 1Q84 6 58 11v146q59-5 135-10 48-2 68-2 54 0 71 3V-8h-11Q221-8 135 1zm69-289q40 0 52 13 6 7 8.5 18t2.5 29v13h-63v137h176v-102q0-54-6-85.5T351-315q-18-19-52.5-27.5T204-351v63z"/><glyph glyph-name="uni0219" unicode="ș" horiz-adv-x="498" d="M383 376q-62 6-100 6h-33v136q71 0 135-10l50-9V371q-19 1-52 5zm-93-221q0 15-5 19t-21 6l-108 15q-40 6-64.5 19T55 249q-12 19-16 46t-4 67q0 82 49 120 41 30 124 35V360q0-15 4-19.5t25-7.5l120-16q26-3 45-10.5t32-22.5q29-32 29-123 0-96-49-134Q371-5 290-7v162zM108 2l-57 9v128q40-4 108-8 38-2 54-2h35V-8Q168-7 108 2zm47-290q40 0 52 13 6 7 8.5 18t2.5 29v13h-63v137h176v-102q0-54-6-85.5T302-315q-18-19-52.5-27.5T155-351v63z"/><glyph glyph-name="uni021A" unicode="Ț" horiz-adv-x="581" d="M9 688h563V528H9v160zm181-200h200V0H190v488zm13-776q40 0 52 13 6 7 8.5 18t2.5 29v13h-63v137h176v-102q0-54-6-85.5T350-315q-18-19-52.5-27.5T203-351v63z"/><glyph glyph-name="uni021B" unicode="ț" horiz-adv-x="427" d="M18 510h94v148h185V510h112V369H18v141zm94-181h185V0H112v329zm7-617q40 0 52 13 6 7 8.5 18t2.5 29v13h-63v137h176v-102q0-54-6-85.5T266-315q-18-19-52.5-27.5T119-351v63z"/><glyph glyph-name="uni022A" unicode="Ȫ" horiz-adv-x="698" d="M447 344q0 87-1 114-2 41-11 59.5T406 540q-20 3-57 3-43 0-56-4v156q9 1 27 1h29q112 0 173.5-17.5T612 621q26-37 32.5-97t6.5-180q0-105-4.5-161.5T624 89q-20-42-61.5-64T447-4v348zM139 24q-33 16-52 43t-28 67q-8 35-10 80.5T47 344q0 105 4.5 161T74 599q20 41 61 63t116 30V344q0-59 2-113 2-41 10.5-60t28.5-22q17-4 57-4 41 0 56 3V-7q-9-1-27-1h-29Q203-8 139 24zm26 1010h361V915H165v119zm0-164h153V751H165v119zm208 0h153V751H373v119z"/><glyph glyph-name="uni022B" unicode="ȫ" horiz-adv-x="572" d="M342 254q0 51-1 68-1 24-6 36.5T319 374q-12 3-33 3h-14v141h14q87 0 136-13.5t73-44.5q22-28 28.5-74.5T530 254q0-79-4.5-122.5T504 60q-19-31-57-46.5T342-6v260zM150 5q-49 13-73 44-22 28-28.5 74T42 254q0 78 5 122t22 73q18 32 56 47.5T230 516V254q0-51 1-67 1-24 6-36t17-15q10-3 32-3h14V-8h-14Q199-8 150 5zm-41 889h361V775H109v119zm0-164h153V611H109v119zm208 0h153V611H317v119z"/><glyph glyph-name="uni022C" unicode="Ȭ" horiz-adv-x="698" d="M447 344q0 87-1 114-2 41-11 59.5T406 540q-20 3-57 3-43 0-56-4v156q9 1 27 1h29q112 0 173.5-17.5T612 621q26-37 32.5-97t6.5-180q0-105-4.5-161.5T624 89q-20-42-61.5-64T447-4v348zM139 24q-33 16-52 43t-28 67q-8 35-10 80.5T47 344q0 105 4.5 161T74 599q20 41 61 63t116 30V344q0-59 2-113 2-41 10.5-60t28.5-22q17-4 57-4 41 0 56 3V-7q-9-1-27-1h-29Q203-8 139 24zm26 1053h361V958H165v119zm-19-256q2 24 11 42 10 20 30.5 30t56.5 10q47 0 105-14 14-3 25.5-5t20.5-4q23-5 36-5 16 0 19.5 8t3.5 32h93q0-45-2-69t-10-42q-19-41-88-41-47 0-105 14l-46 10q-19 4-36 4-16 0-19.5-7.5T237 751h-93q0 46 2 70z"/><glyph glyph-name="uni022D" unicode="ȭ" horiz-adv-x="572" d="M342 254q0 51-1 68-1 24-6 36.5T319 374q-12 3-33 3h-14v141h14q87 0 136-13.5t73-44.5q22-28 28.5-74.5T530 254q0-79-4.5-122.5T504 60q-19-31-57-46.5T342-6v260zM150 5q-49 13-73 44-22 28-28.5 74T42 254q0 78 5 122t22 73q18 32 56 47.5T230 516V254q0-51 1-67 1-24 6-36t17-15q10-3 32-3h14V-8h-14Q199-8 150 5zm-40 900h361V786H110v119zM91 649q2 24 11 42 10 20 30.5 30t56.5 10q47 0 105-14 14-3 25.5-5t20.5-4q23-5 36-5 16 0 19.5 8t3.5 32h93q0-45-2-69t-10-42q-19-41-88-41-47 0-105 14l-46 10q-19 4-36 4-16 0-19.5-7.5T182 579H89q0 46 2 70z"/><glyph glyph-name="uni0230" unicode="Ȱ" horiz-adv-x="698" d="M447 344q0 87-1 114-2 41-11 59.5T406 540q-20 3-57 3-43 0-56-4v156q9 1 27 1h29q112 0 173.5-17.5T612 621q26-37 32.5-97t6.5-180q0-105-4.5-161.5T624 89q-20-42-61.5-64T447-4v348zM139 24q-33 16-52 43t-28 67q-8 35-10 80.5T47 344q0 105 4.5 161T74 599q20 41 61 63t116 30V344q0-59 2-113 2-41 10.5-60t28.5-22q17-4 57-4 41 0 56 3V-7q-9-1-27-1h-29Q203-8 139 24zm26 1010h361V915H165v119zm105-164h153V751H270v119z"/><glyph glyph-name="uni0231" unicode="ȱ" horiz-adv-x="572" d="M342 254q0 51-1 68-1 24-6 36.5T319 374q-12 3-33 3h-14v141h14q87 0 136-13.5t73-44.5q22-28 28.5-74.5T530 254q0-79-4.5-122.5T504 60q-19-31-57-46.5T342-6v260zM150 5q-49 13-73 44-22 28-28.5 74T42 254q0 78 5 122t22 73q18 32 56 47.5T230 516V254q0-51 1-67 1-24 6-36t17-15q10-3 32-3h14V-8h-14Q199-8 150 5zm-41 889h361V775H109v119zm105-164h153V611H214v119z"/><glyph glyph-name="uni0232" unicode="Ȳ" horiz-adv-x="633" d="M216 227l-9 20-26 51-25 53q-4 7-10 21l-41 85L-5 688h204l217-462V0H216v227zm129 248l93 213h200l-78-162-33-68-63-131-25-52zM184 900h285V751H184v149z"/><glyph glyph-name="uni0233" unicode="ȳ" horiz-adv-x="588" d="M81 58q-14 24-19 58.5T57 201v309h185V279q0-53 1-70 2-26 6-36 4-11 13-13.5t32-2.5h10V33Q264 3 202 3 112 3 81 58zm68-258l-58 6v129h134q36 0 70 2 24 2 35.5 9.5T344-28q2 24 2 51v487h185V56q0-80-6.5-124T495-141q-26-33-79-49t-145-16q-52 0-122 6zm9 942h285V593H158v149z"/><glyph glyph-name="uni0237" unicode="ȷ" horiz-adv-x="299" d="M-25-69q29 0 46 3 16 3 24 9t10 16q2 12 2 23v528h185V37q0-85-10.5-130.5T193-162t-77-30-141-7v130z"/><glyph glyph-name="uni0259" unicode="ə" horiz-adv-x="557" d="M399.5 502.5Q452 487 478 453q23-30 30-74.5t7-122.5q0-72-5-114.5T489 69q-18-33-55.5-51.5T331-6v302q0 34-3 48.5T314 366q-12 8-37 9-32 2-68 2-64 0-93-3l-51-4v129q40 12 110 16 34 3 80 3 92 0 144.5-15.5zM289 205h-70q0-55 11-72 6-9 16-11.5t29-2.5h14V-8h-14Q189-8 142.5 6T74 52q-20 28-24.5 72T45 256v40h244v-91z"/><glyph glyph-name="uni0272" unicode="ɲ" horiz-adv-x="588" d="M346 241q0 53-1 70-2 28-5 37-4 10-14 12.5t-32 2.5h-10v125q39 29 102 29 90 0 121-55 14-24 19-58.5t5-84.5V0H346v241zM-25-69q29 0 46 3 16 3 24 9t10 16q2 12 2 23v528h185V37q0-85-10.5-130.5T193-162t-77-30-141-7v130z"/><glyph glyph-name="uni02B9" unicode="ʹ" horiz-adv-x="194" d="M0 530l18 215 8 49 168-30-9-48-57-208z"/><glyph glyph-name="uni02BA" unicode="ʺ" horiz-adv-x="432" d="M155 537l37 213 12 48 165-45-13-47-75-202zm-218-7l18 215 8 49 168-30-9-48-57-208z"/><glyph glyph-name="uni02BC" unicode="ʼ" horiz-adv-x="184" d="M0 604q42 0 55 14 6 7 8.5 18t2.5 31v13H0v148h184V717q0-56-6-89t-24-52q-19-21-55-29.5T0 538v66z"/><glyph glyph-name="circumflex" unicode="ˆ" horiz-adv-x="377" d="M10 604l91 139h175l91-139v-8H244l-56 75-55-75H10v8z"/><glyph glyph-name="caron" unicode="ˇ" horiz-adv-x="377" d="M10 735v8h123l55-75 56 75h123v-8l-91-139H101z"/><glyph glyph-name="uni02C9" unicode="ˉ" horiz-adv-x="285" d="M0 742h285V593H0v149z"/><glyph glyph-name="breve" unicode="˘" horiz-adv-x="337" d="M87 602.5Q56 613 38 635q-16 19-22 45t-6 63h103q0-15 1-23.5t6-14.5q12-15 48-15t49 15q5 6 6 14.5t1 23.5h103q0-37-6-63t-22-45q-19-22-50-32.5T168 592t-81 10.5z"/><glyph glyph-name="dotaccent" unicode="˙" horiz-adv-x="193" d="M20 730h153V611H20v119z"/><glyph glyph-name="ring" unicode="˚" horiz-adv-x="311" d="M210 713q0 17-1 25.5t-6 13.5-16 8q-14 2-32 2h-12v73h12q54 0 85-7.5t46-22.5q14-14 18-35t4-57q0-31-2.5-49.5T294 631q-10-15-30-24t-54-13v119zM71 599.5Q40 607 25 622q-14 14-18 35t-4 56q0 31 2.5 49.5T17 795q10 15 30 24t54 13V713q0-17 1-25t6-13q5-6 16-8 14-2 31-2h13v-73h-13q-53 0-84 7.5z"/><glyph glyph-name="ogonek" unicode="˛" horiz-adv-x="247" d="M44-170q-28 22-28 62 0 28 20 63.5T84 17L223 4q-23-12-41-32-22-22-22-42 0-16 10-25t37-9h11q4 0 6 1v-89l-24-2q-30-2-51-2-73 0-105 26z"/><glyph glyph-name="tilde" unicode="˜" horiz-adv-x="443" d="M22 649q2 24 11 42 10 20 30.5 30t56.5 10q47 0 105-14 14-3 25.5-5t20.5-4q23-5 36-5 16 0 19.5 8t3.5 32h93q0-45-2-69t-10-42q-19-41-88-41-47 0-105 14l-46 10q-19 4-36 4-16 0-19.5-7.5T113 579H20q0 46 2 70z"/><glyph glyph-name="hungarumlaut" unicode="˝" horiz-adv-x="450" d="M20 615l71 115h149v-4L130 611H20v4zm190 0l72 115h148v-4L321 611H210v4z"/><glyph glyph-name="gravecomb" unicode="̀" d="M-291 738v5h183l88-142v-5h-136z"/><glyph glyph-name="acutecomb" unicode="́" d="M-300 601l88 142h183v-5l-135-142h-136v5z"/><glyph glyph-name="uni0302" unicode="̂" d="M-367 604l91 139h175l91-139v-8h-123l-56 75-55-75h-123v8z"/><glyph glyph-name="tildecomb" unicode="̃" d="M-421 649q2 24 11 42 10 20 30.5 30t56.5 10q47 0 105-14 14-3 25.5-5t20.5-4q23-5 36-5 16 0 19.5 8t3.5 32h93q0-45-2-69t-10-42q-19-41-88-41-47 0-105 14l-46 10q-19 4-36 4-16 0-19.5-7.5T-330 579h-93q0 46 2 70z"/><glyph glyph-name="uni0304" unicode="̄" d="M-311 742h285V593h-285v149z"/><glyph glyph-name="uni0306" unicode="̆" d="M-250 602.5q-31 10.5-49 32.5-16 19-22 45t-6 63h103q0-15 1-23.5t6-14.5q12-15 48-15t49 15q5 6 6 14.5t1 23.5h103q0-37-6-63t-22-45q-19-22-50-32.5t-81-10.5-81 10.5z"/><glyph glyph-name="uni0307" unicode="̇" d="M-173 730h153V611h-153v119z"/><glyph glyph-name="uni0308" unicode="̈" d="M-381 730h153V611h-153v119zm208 0h153V611h-153v119z"/><glyph glyph-name="hookabovecomb" unicode="̉" d="M-177 613q0 18 7 26.5t32 28.5q12 9 16 15.5t4 20.5q0 16-6 23t-20.5 9-46.5 2v98q80 2 114-9 57-18 57-92 0-32-3-48t-10-27q-6-8-16.5-17T-64 631q-1-1-6.5-5.5t-8.5-10-3-11.5v-34h-95v43z"/><glyph glyph-name="uni030A" unicode="̊" d="M-101 713q0 17-1 25.5t-6 13.5-16 8q-14 2-32 2h-12v73h12q54 0 85-7.5t46-22.5q14-14 18-35t4-57q0-31-2.5-49.5T-17 631q-10-15-30-24t-54-13v119zm-139-113.5q-31 7.5-46 22.5-14 14-18 35t-4 56q0 31 2.5 49.5T-294 795q10 15 30 24t54 13V713q0-17 1-25t6-13q5-6 16-8 14-2 31-2h13v-73h-13q-53 0-84 7.5z"/><glyph glyph-name="uni030B" unicode="̋" d="M-430 615l71 115h149v-4l-110-115h-110v4zm190 0l72 115h148v-4l-109-115h-111v4z"/><glyph glyph-name="uni030C" unicode="̌" d="M-367 735v8h123l55-75 56 75h123v-8l-91-139h-175z"/><glyph glyph-name="uni030F" unicode="̏" d="M-430 726v4h148l72-115v-4h-111zm190 0v4h149l71-115v-4h-110z"/><glyph glyph-name="uni0311" unicode="̑" d="M-321 655q6 26 22 45 19 22 50 32.5t81 10.5 81-10.5 49-32.5q16-19 22-45t6-63h-103q0 15-1 23.5t-6 14.5q-12 15-48 15t-49-15q-5-6-6-14.5t-1-23.5h-103q0 37 6 63z"/><glyph glyph-name="uni0312" unicode="̒" d="M-196 698q0 54 6 85.5t23 49.5q18 19 52.5 27.5T-20 869v-63q-40 0-52-13-6-7-8.5-18t-2.5-29v-13h63V596h-176v102z"/><glyph glyph-name="uni0313" unicode="̓" d="M-196 659q40 0 52 13 6 7 8.5 18t2.5 29v13h-63v137h176V767q0-54-6-85.5T-49 632q-18-19-52.5-27.5T-196 596v63z"/><glyph glyph-name="uni031B" unicode="̛" d="M-266 510h67q36 0 49 15 5 6 6 14.5t1 23.5h103q0-37-6-63t-22-45q-19-22-50-32.5t-81-10.5h-67v98z"/><glyph glyph-name="dotbelowcomb" unicode="̣" d="M-186-79h153v-119h-153v119z"/><glyph glyph-name="uni0324" unicode="̤" d="M-381-77h153v-119h-153v119zm208 0h153v-119h-153v119z"/><glyph glyph-name="uni0326" unicode="̦" d="M-196-288q40 0 52 13 6 7 8.5 18t2.5 29v13h-63v137h176v-102q0-54-6-85.5T-49-315q-18-19-52.5-27.5T-196-351v63z"/><glyph glyph-name="uni0327" unicode="̧" d="M-227-184l81 192h126V3l-34-192h-173v5z"/><glyph glyph-name="uni0328" unicode="̨" d="M-203-170q-28 22-28 62 0 28 20 63.5t48 61.5L-24 4Q-47-8-65-28q-22-22-22-42 0-16 10-25t37-9h11q4 0 6 1v-89l-24-2q-30-2-51-2-73 0-105 26z"/><glyph glyph-name="uni032E" unicode="̮" d="M-250-217.5q-31 10.5-49 32.5-16 19-22 45t-6 63h103q0-15 1-23.5t6-14.5q12-15 48-15t49 15q5 6 6 14.5t1 23.5h103q0-37-6-63t-22-45q-19-22-50-32.5t-81-10.5-81 10.5z"/><glyph glyph-name="uni0331" unicode="̱" d="M-305-78h285v-149h-285v149z"/><glyph glyph-name="uni0335" unicode="̵" d="M-427 380h361V231h-361v149z"/><glyph glyph-name="uni0336" unicode="̶" d="M-677 380h661V231h-661v149z"/><glyph glyph-name="uni0337" unicode="̷" d="M-411 280l361 200V331l-361-200v149z"/><glyph glyph-name="uni0338" unicode="̸" d="M-258 693h161l-57-103h-160zm-286-535h162l-59-102h-160z"/><glyph glyph-name="uni0394" unicode="Δ" horiz-adv-x="687" d="M221 688h17l79-274L202 0H2zm66-534h149L283 688h183L685 0H245z"/><glyph glyph-name="uni03A9" unicode="Ω" horiz-adv-x="698" d="M393 148q16 4 26 14t16 31q12 45 12 171 0 71-2 101.5T435 513q-9 17-28.5 23.5T349 543q-40 0-56-6v157q34 2 56 2 103 0 163.5-17.5T604 622q29-35 38-90.5t9-147.5q0-101-36.5-166T514 124v-7l121 37h16V0H393v148zm-346 6h16l121-37v7q-65 29-101 93.5T47 384q0 80 6.5 131T80 601q21 38 62 60t109 30V364q0-126 12-171 6-21 16-31t26-14V0H47v154z"/><glyph glyph-name="uni03BC" unicode="μ" horiz-adv-x="586" d="M55 510h185V269q0-53 1-70 2-25 6-36t13-13.5 32-2.5h10V21Q278 2 240-3v-186H55v699zm289 0h185V0H344v510z"/><glyph glyph-name="pi" unicode="π" horiz-adv-x="590" d="M57 510h476V369H57v141zm0-181h185V0H57v329zm291 0h185V0H348v329z"/><glyph glyph-name="uni1E24" unicode="Ḥ" horiz-adv-x="716" d="M65 688h200V0H65v688zm386-423H307v160h144v263h200V0H451v265zM280-79h153v-119H280v119z"/><glyph glyph-name="uni1E25" unicode="ḥ" horiz-adv-x="588" d="M57 743h185V0H57v743zm289-502q0 53-1 70-2 28-5 37-4 10-14 12.5t-32 2.5h-10v122q40 32 102 32 90 0 121-55 14-24 19-58.5t5-84.5V0H346v241zM216-79h153v-119H216v119z"/><glyph glyph-name="uni1E62" unicode="Ṣ" horiz-adv-x="612" d="M423 541q-46 2-74 2-36 0-68-2v155h25q82 0 170-11 28-4 63-11V530q-33 4-116 11zm-49-338q0 21-3 30.5t-10 13-24 5.5l-123 15q-109 12-147 71-17 25-23 61t-6 88q0 111 57 160 46 40 144 47V493q0-13 1-22t4-14q3-6 10-8.5t21-3.5l138-17q43-6 70-15t46-28q45-47 45-167 0-127-56-178-25-23-60.5-33.5T374-7v210zM135 1Q84 6 58 11v146q59-5 135-10 48-2 68-2 54 0 71 3V-8h-11Q221-8 135 1zm79-80h153v-119H214v119z"/><glyph glyph-name="uni1E6C" unicode="Ṭ" horiz-adv-x="581" d="M9 688h563V528H9v160zm181-200h200V0H190v488zm23-567h153v-119H213v119z"/><glyph glyph-name="uni1E6D" unicode="ṭ" horiz-adv-x="427" d="M18 510h94v148h185V510h112V369H18v141zm94-181h185V0H112v329zm17-408h153v-119H129v119z"/><glyph glyph-name="Wgrave" unicode="Ẁ" horiz-adv-x="996" d="M166 29q-7 28-18 78l-27 110-30 126-81 345h199L351 0H173zm157 315l75 344h205L767 0H596l-8 33-21 87-30 127q-19 77-36 151h-6l-34-151-11-51q-5-21-9.5-40t-8.5-36l-20-87-8-33h-11zm404 6l60 338h199l-82-345-30-126q-19-77-26-110l-19-78-7-29h-12zM294 893v5h183l88-142v-5H429z"/><glyph glyph-name="wgrave" unicode="ẁ" horiz-adv-x="846" d="M14 510h181L316 0H151zm277-225l62 225h149L650 0H487l-59 227h-10L370 0h-11zm321-2l41 227h179L705 0h-11zM229 738v5h183l88-142v-5H364z"/><glyph glyph-name="Wacute" unicode="Ẃ" horiz-adv-x="996" d="M166 29q-7 28-18 78l-27 110-30 126-81 345h199L351 0H173zm157 315l75 344h205L767 0H596l-8 33-21 87-30 127q-19 77-36 151h-6l-34-151-11-51q-5-21-9.5-40t-8.5-36l-20-87-8-33h-11zm404 6l60 338h199l-82-345-30-126q-19-77-26-110l-19-78-7-29h-12zM425 756l88 142h183v-5L561 751H425v5z"/><glyph glyph-name="wacute" unicode="ẃ" horiz-adv-x="846" d="M14 510h181L316 0H151zm277-225l62 225h149L650 0H487l-59 227h-10L370 0h-11zm321-2l41 227h179L705 0h-11zM342 601l88 142h183v-5L478 596H342v5z"/><glyph glyph-name="Wdieresis" unicode="Ẅ" horiz-adv-x="996" d="M166 29q-7 28-18 78l-27 110-30 126-81 345h199L351 0H173zm157 315l75 344h205L767 0H596l-8 33-21 87-30 127q-19 77-36 151h-6l-34-151-11-51q-5-21-9.5-40t-8.5-36l-20-87-8-33h-11zm404 6l60 338h199l-82-345-30-126q-19-77-26-110l-19-78-7-29h-12zM314 870h153V751H314v119zm208 0h153V751H522v119z"/><glyph glyph-name="wdieresis" unicode="ẅ" horiz-adv-x="846" d="M14 510h181L316 0H151zm277-225l62 225h149L650 0H487l-59 227h-10L370 0h-11zm321-2l41 227h179L705 0h-11zM240 730h153V611H240v119zm208 0h153V611H448v119z"/><glyph glyph-name="uni1E9E" unicode="ẞ" horiz-adv-x="770" d="M59 328q0 157 20.5 231.5t83 105.5T359 696q82 0 181-12L414 542h-19q-67 0-92.5-13.5t-32-53.5-6.5-147V0H59v328zm461-122q0 30-6.5 43.5t-23 18T440 272h-92v131l243 275 101-17V531L555 377q60-6 97-26t55.5-60T726 184q0-88-45.5-134.5T520-6v212zM393-1.5Q353 5 324 14v144q62-12 105-12 37 0 50 2V-8h-14q-32 0-72 6.5z"/><glyph glyph-name="uni1EA0" unicode="Ạ" horiz-adv-x="687" d="M221 688h17l79-274L202 0H2zm225-566H279l42 154h80L283 688h183L685 0H481zM266-79h153v-119H266v119z"/><glyph glyph-name="uni1EA1" unicode="ạ" horiz-adv-x="558" d="M318 316q0 26-2 37t-12 16q-9 5-34 7-15 1-65 1-48 0-89-4l-53-3v130q94 18 203 18 84 0 131.5-12t71.5-38q21-24 27.5-61t6.5-103V0H318v316zM68 31.5Q35 70 35 148q0 48 7 77.5T66 272q17 18 47 25.5t79 7.5l84-2v-89h-10q-23 0-30-1-20-1-21-19-1-6-1-25 0-15 1.5-23t5.5-13q5-7 15-8 14-2 30-2h10V21Q254 4 229.5-1.5T170-7Q101-7 68 31.5zM191-79h153v-119H191v119z"/><glyph glyph-name="uni1EA2" unicode="Ả" horiz-adv-x="687" d="M221 688h17l79-274L202 0H2zm225-566H279l42 154h80L283 688h183L685 0H481zM310 794q0 18 7 26.5t32 28.5q12 9 16 15.5t4 20.5q0 16-6 23t-20.5 9-46.5 2v98q80 2 114-9 57-18 57-92 0-32-3-48t-10-27q-6-8-16.5-17T423 812q-1-1-6.5-5.5t-8.5-10-3-11.5v-34h-95v43z"/><glyph glyph-name="uni1EA3" unicode="ả" horiz-adv-x="558" d="M318 316q0 26-2 37t-12 16q-9 5-34 7-15 1-65 1-48 0-89-4l-53-3v130q94 18 203 18 84 0 131.5-12t71.5-38q21-24 27.5-61t6.5-103V0H318v316zM68 31.5Q35 70 35 148q0 48 7 77.5T66 272q17 18 47 25.5t79 7.5l84-2v-89h-10q-23 0-30-1-20-1-21-19-1-6-1-25 0-15 1.5-23t5.5-13q5-7 15-8 14-2 30-2h10V21Q254 4 229.5-1.5T170-7Q101-7 68 31.5zM254 613q0 18 7 26.5t32 28.5q12 9 16 15.5t4 20.5q0 16-6 23t-20.5 9-46.5 2v98q80 2 114-9 57-18 57-92 0-32-3-48t-10-27q-6-8-16.5-17T367 631q-1-1-6.5-5.5t-8.5-10-3-11.5v-34h-95v43z"/><glyph glyph-name="uni1EA4" unicode="Ấ" horiz-adv-x="687" d="M221 688h17l79-274L202 0H2zm225-566H279l42 154h80L283 688h183L685 0H481zM267 916l75 122h178v-5L393 911H267v5zM161 758l91 119h175l91-119v-8H390l-51 55-50-55H161v8z"/><glyph glyph-name="uni1EA5" unicode="ấ" horiz-adv-x="558" d="M318 316q0 26-2 37t-12 16q-9 5-34 7-15 1-65 1-48 0-89-4l-53-3v130q94 18 203 18 84 0 131.5-12t71.5-38q21-24 27.5-61t6.5-103V0H318v316zM68 31.5Q35 70 35 148q0 48 7 77.5T66 272q17 18 47 25.5t79 7.5l84-2v-89h-10q-23 0-30-1-20-1-21-19-1-6-1-25 0-15 1.5-23t5.5-13q5-7 15-8 14-2 30-2h10V21Q254 4 229.5-1.5T170-7Q101-7 68 31.5zM211 762l75 122h178v-5L337 757H211v5zM105 604l91 119h175l91-119v-8H334l-51 55-50-55H105v8z"/><glyph glyph-name="uni1EA6" unicode="Ầ" horiz-adv-x="687" d="M221 688h17l79-274L202 0H2zm225-566H279l42 154h80L283 688h183L685 0H481zm-286 911v5h178l75-122v-5H287zm2-275l91 119h175l91-119v-8H391l-50 55-51-55H162v8z"/><glyph glyph-name="uni1EA7" unicode="ầ" horiz-adv-x="558" d="M318 316q0 26-2 37t-12 16q-9 5-34 7-15 1-65 1-48 0-89-4l-53-3v130q94 18 203 18 84 0 131.5-12t71.5-38q21-24 27.5-61t6.5-103V0H318v316zM68 31.5Q35 70 35 148q0 48 7 77.5T66 272q17 18 47 25.5t79 7.5l84-2v-89h-10q-23 0-30-1-20-1-21-19-1-6-1-25 0-15 1.5-23t5.5-13q5-7 15-8 14-2 30-2h10V21Q254 4 229.5-1.5T170-7Q101-7 68 31.5zM104 879v5h178l75-122v-5H231zm2-275l91 119h175l91-119v-8H335l-50 55-51-55H106v8z"/><glyph glyph-name="uni1EA8" unicode="Ẩ" horiz-adv-x="687" d="M221 688h17l79-274L202 0H2zm225-566H279l42 154h80L283 688h183L685 0H481zM301 945q0 13 4.5 20t13.5 14 13 10q9 8 12 12.5t3 15.5q0 15-10.5 18.5T290 1039v72q62 2 90-7 23-7 34-22.5t11-44.5q0-38-10-55-3-6-11.5-12.5T390 959t-9.5-9-4.5-12v-27h-75v34zM162 758l91 119h175l91-119v-8H391l-50 55-51-55H162v8z"/><glyph glyph-name="uni1EA9" unicode="ẩ" horiz-adv-x="558" d="M318 316q0 26-2 37t-12 16q-9 5-34 7-15 1-65 1-48 0-89-4l-53-3v130q94 18 203 18 84 0 131.5-12t71.5-38q21-24 27.5-61t6.5-103V0H318v316zM68 31.5Q35 70 35 148q0 48 7 77.5T66 272q17 18 47 25.5t79 7.5l84-2v-89h-10q-23 0-30-1-20-1-21-19-1-6-1-25 0-15 1.5-23t5.5-13q5-7 15-8 14-2 30-2h10V21Q254 4 229.5-1.5T170-7Q101-7 68 31.5zM245 791q0 13 4.5 20t13.5 14 13 10q9 8 12 12.5t3 15.5q0 15-10.5 18.5T234 885v72q62 2 90-7 23-7 34-22.5t11-44.5q0-38-10-55-3-6-11.5-12.5T334 805t-9.5-9-4.5-12v-27h-75v34zM106 604l91 119h175l91-119v-8H335l-50 55-51-55H106v8z"/><glyph glyph-name="uni1EAA" unicode="Ẫ" horiz-adv-x="687" d="M221 688h17l79-274L202 0H2zm225-566H279l42 154h80L283 688h183L685 0H481zM185.5 976.5Q187 997 194 1011q15 33 72 33 31 0 80-11-7 1 31-8 16-4 30-4 13 0 16 6.5t3 26.5h77q0-37-1.5-57t-8.5-35q-15-34-73-34-19 0-39.5 3.5T340 940q-9 2-16 4t-15 4q-22 4-30 4-13 0-16-6.5t-3-26.5h-76q0 37 1.5 57.5zM161 758l91 119h175l91-119v-8H390l-51 55-50-55H161v8z"/><glyph glyph-name="uni1EAB" unicode="ẫ" horiz-adv-x="558" d="M318 316q0 26-2 37t-12 16q-9 5-34 7-15 1-65 1-48 0-89-4l-53-3v130q94 18 203 18 84 0 131.5-12t71.5-38q21-24 27.5-61t6.5-103V0H318v316zM68 31.5Q35 70 35 148q0 48 7 77.5T66 272q17 18 47 25.5t79 7.5l84-2v-89h-10q-23 0-30-1-20-1-21-19-1-6-1-25 0-15 1.5-23t5.5-13q5-7 15-8 14-2 30-2h10V21Q254 4 229.5-1.5T170-7Q101-7 68 31.5zm61.5 791Q131 843 138 857q15 33 72 33 30 0 80-11-7 2 31-8 16-4 30-4 13 0 16 6.5t3 26.5h77q0-37-1.5-57t-8.5-35q-15-34-73-34-19 0-39.5 3.5T284 786q-9 2-16 4t-15 4q-22 4-30 4-13 0-16-6.5t-3-26.5h-76q0 37 1.5 57.5zM105 604l91 119h175l91-119v-8H334l-51 55-50-55H105v8z"/><glyph glyph-name="uni1EAC" unicode="Ậ" horiz-adv-x="687" d="M221 688h17l79-274L202 0H2zm225-566H279l42 154h80L283 688h183L685 0H481zM266-79h153v-119H266v119zM162 758l91 139h175l91-139v-8H396l-55 75-56-75H162v8z"/><glyph glyph-name="uni1EAD" unicode="ậ" horiz-adv-x="558" d="M318 316q0 26-2 37t-12 16q-9 5-34 7-15 1-65 1-48 0-89-4l-53-3v130q94 18 203 18 84 0 131.5-12t71.5-38q21-24 27.5-61t6.5-103V0H318v316zM68 31.5Q35 70 35 148q0 48 7 77.5T66 272q17 18 47 25.5t79 7.5l84-2v-89h-10q-23 0-30-1-20-1-21-19-1-6-1-25 0-15 1.5-23t5.5-13q5-7 15-8 14-2 30-2h10V21Q254 4 229.5-1.5T170-7Q101-7 68 31.5zM191-79h153v-119H191v119zm-86 683l91 139h175l91-139v-8H339l-56 75-55-75H105v8z"/><glyph glyph-name="uni1EAE" unicode="Ắ" horiz-adv-x="687" d="M221 688h17l79-274L202 0H2zm225-566H279l42 154h80L283 688h183L685 0H481zM267 941l75 122h178v-5L393 936H267v5zm-8-179.5Q228 772 210 794q-16 19-22 45t-6 63h103q0-15 1-23.5t6-14.5q12-15 48-15t49 15q5 6 6 14.5t1 23.5h103q0-37-6-63t-22-45q-19-22-50-32.5T340 751t-81 10.5z"/><glyph glyph-name="uni1EAF" unicode="ắ" horiz-adv-x="558" d="M318 316q0 26-2 37t-12 16q-9 5-34 7-15 1-65 1-48 0-89-4l-53-3v130q94 18 203 18 84 0 131.5-12t71.5-38q21-24 27.5-61t6.5-103V0H318v316zM68 31.5Q35 70 35 148q0 48 7 77.5T66 272q17 18 47 25.5t79 7.5l84-2v-89h-10q-23 0-30-1-20-1-21-19-1-6-1-25 0-15 1.5-23t5.5-13q5-7 15-8 14-2 30-2h10V21Q254 4 229.5-1.5T170-7Q101-7 68 31.5zM211 782l75 122h178v-5L337 777H211v5zm-8-179.5Q172 613 154 635q-16 19-22 45t-6 63h103q0-15 1-23.5t6-14.5q12-15 48-15t49 15q5 6 6 14.5t1 23.5h103q0-37-6-63t-22-45q-19-22-50-32.5T284 592t-81 10.5z"/><glyph glyph-name="uni1EB0" unicode="Ằ" horiz-adv-x="687" d="M221 688h17l79-274L202 0H2zm225-566H279l42 154h80L283 688h183L685 0H481zm-286 936v5h178l75-122v-5H287zm99-296.5Q228 772 209 794q-16 19-22 45t-6 63h103q0-15 1-23.5t6-14.5q13-15 49-15t48 15q5 6 6 14.5t1 23.5h103q0-37-6-63t-22-45q-18-22-49-32.5T340 751t-81 10.5z"/><glyph glyph-name="uni1EB1" unicode="ằ" horiz-adv-x="558" d="M318 316q0 26-2 37t-12 16q-9 5-34 7-15 1-65 1-48 0-89-4l-53-3v130q94 18 203 18 84 0 131.5-12t71.5-38q21-24 27.5-61t6.5-103V0H318v316zM68 31.5Q35 70 35 148q0 48 7 77.5T66 272q17 18 47 25.5t79 7.5l84-2v-89h-10q-23 0-30-1-20-1-21-19-1-6-1-25 0-15 1.5-23t5.5-13q5-7 15-8 14-2 30-2h10V21Q254 4 229.5-1.5T170-7Q101-7 68 31.5zM104 899v5h178l75-122v-5H231zm99-296.5Q172 613 153 635q-16 19-22 45t-6 63h103q0-15 1-23.5t6-14.5q13-15 49-15t48 15q5 6 6 14.5t1 23.5h103q0-37-6-63t-22-45q-18-22-49-32.5T284 592t-81 10.5z"/><glyph glyph-name="uni1EB2" unicode="Ẳ" horiz-adv-x="687" d="M221 688h17l79-274L202 0H2zm225-566H279l42 154h80L283 688h183L685 0H481zM301 959q0 13 4.5 20t13.5 14 13 10q9 8 12 12.5t3 15.5q0 15-10.5 18.5T290 1053v72q62 2 90-7 23-7 34-22.5t11-44.5q0-38-10-55-3-6-11.5-12.5T390 973t-9.5-9-4.5-12v-27h-75v34zm-42-197.5Q228 772 210 794q-16 19-22 45t-6 63h103q0-15 1-23.5t6-14.5q12-15 48-15t49 15q5 6 6 14.5t1 23.5h103q0-37-6-63t-22-45q-19-22-50-32.5T340 751t-81 10.5z"/><glyph glyph-name="uni1EB3" unicode="ẳ" horiz-adv-x="558" d="M318 316q0 26-2 37t-12 16q-9 5-34 7-15 1-65 1-48 0-89-4l-53-3v130q94 18 203 18 84 0 131.5-12t71.5-38q21-24 27.5-61t6.5-103V0H318v316zM68 31.5Q35 70 35 148q0 48 7 77.5T66 272q17 18 47 25.5t79 7.5l84-2v-89h-10q-23 0-30-1-20-1-21-19-1-6-1-25 0-15 1.5-23t5.5-13q5-7 15-8 14-2 30-2h10V21Q254 4 229.5-1.5T170-7Q101-7 68 31.5zM245 800q0 13 4.5 20t13.5 14 13 10q9 8 12 12.5t3 15.5q0 15-10.5 18.5T234 894v72q62 2 90-7 23-7 34-22.5t11-44.5q0-38-10-55-3-6-11.5-12.5T334 814t-9.5-9-4.5-12v-27h-75v34zm-42-197.5Q172 613 154 635q-16 19-22 45t-6 63h103q0-15 1-23.5t6-14.5q12-15 48-15t49 15q5 6 6 14.5t1 23.5h103q0-37-6-63t-22-45q-19-22-50-32.5T284 592t-81 10.5z"/><glyph glyph-name="uni1EB4" unicode="Ẵ" horiz-adv-x="687" d="M221 688h17l79-274L202 0H2zm225-566H279l42 154h80L283 688h183L685 0H481zm-262.5 888.5q1.5 20.5 8.5 34.5 15 33 72 33 30 0 80-11-7 2 31-8 16-4 30-4 13 0 16 6.5t3 26.5h77q0-37-1.5-57t-8.5-35q-15-34-73-34-19 0-39.5 3.5T338 974q-9 2-16 4t-15 4q-22 4-30 4-13 0-16-6.5t-3-26.5h-76q0 37 1.5 57.5zm75.5-249Q228 772 210 794q-16 19-22 45t-6 63h103q0-15 1-23.5t6-14.5q12-15 48-15t49 15q5 6 6 14.5t1 23.5h103q0-37-6-63t-22-45q-19-22-50-32.5T340 751t-81 10.5z"/><glyph glyph-name="uni1EB5" unicode="ẵ" horiz-adv-x="558" d="M318 316q0 26-2 37t-12 16q-9 5-34 7-15 1-65 1-48 0-89-4l-53-3v130q94 18 203 18 84 0 131.5-12t71.5-38q21-24 27.5-61t6.5-103V0H318v316zM68 31.5Q35 70 35 148q0 48 7 77.5T66 272q17 18 47 25.5t79 7.5l84-2v-89h-10q-23 0-30-1-20-1-21-19-1-6-1-25 0-15 1.5-23t5.5-13q5-7 15-8 14-2 30-2h10V21Q254 4 229.5-1.5T170-7Q101-7 68 31.5zm59.5 820Q129 872 136 886q15 33 72 33 30 0 80-11-7 2 31-8 16-4 30-4 13 0 16 6.5t3 26.5h77q0-37-1.5-57t-8.5-35q-15-34-73-34-19 0-39.5 3.5T282 815q-9 2-16 4t-15 4q-22 4-30 4-13 0-16-6.5t-3-26.5h-76q0 37 1.5 57.5zm75.5-249Q172 613 154 635q-16 19-22 45t-6 63h103q0-15 1-23.5t6-14.5q12-15 48-15t49 15q5 6 6 14.5t1 23.5h103q0-37-6-63t-22-45q-19-22-50-32.5T284 592t-81 10.5z"/><glyph glyph-name="uni1EB6" unicode="Ặ" horiz-adv-x="687" d="M221 688h17l79-274L202 0H2zm225-566H279l42 154h80L283 688h183L685 0H481zM266-79h153v-119H266v119zm-7 840.5Q228 772 210 794q-16 19-22 45t-6 63h103q0-15 1-23.5t6-14.5q12-15 48-15t49 15q5 6 6 14.5t1 23.5h103q0-37-6-63t-22-45q-19-22-50-32.5T340 751t-81 10.5z"/><glyph glyph-name="uni1EB7" unicode="ặ" horiz-adv-x="558" d="M318 316q0 26-2 37t-12 16q-9 5-34 7-15 1-65 1-48 0-89-4l-53-3v130q94 18 203 18 84 0 131.5-12t71.5-38q21-24 27.5-61t6.5-103V0H318v316zM68 31.5Q35 70 35 148q0 48 7 77.5T66 272q17 18 47 25.5t79 7.5l84-2v-89h-10q-23 0-30-1-20-1-21-19-1-6-1-25 0-15 1.5-23t5.5-13q5-7 15-8 14-2 30-2h10V21Q254 4 229.5-1.5T170-7Q101-7 68 31.5zM191-79h153v-119H191v119zm12 681.5Q172 613 154 635q-16 19-22 45t-6 63h103q0-15 1-23.5t6-14.5q12-15 48-15t49 15q5 6 6 14.5t1 23.5h103q0-37-6-63t-22-45q-19-22-50-32.5T284 592t-81 10.5z"/><glyph glyph-name="uni1EB8" unicode="Ẹ" horiz-adv-x="616" d="M65 688h200V0H65v688zm242 0h254V535H307v153zm0-264h207V271H307v153zm0-271h254V0H307v153zM245-79h153v-119H245v119z"/><glyph glyph-name="uni1EB9" unicode="ẹ" horiz-adv-x="557" d="M268 305h70q0 56-11 72-6 9-16 11.5t-29 2.5h-14v127h14q86 0 132.5-14t68.5-46q20-28 24.5-72t4.5-132v-40H268v91zM157.5 7.5Q105 23 79 57q-23 30-30 74.5T42 254q0 72 5 114.5T68 441q18 33 55.5 51.5T226 516V214q0-34 3-48.5t14-21.5q12-8 37-9 32-2 68-2 64 0 93 3l51 4V11Q452-1 382-5q-34-3-80-3-92 0-144.5 15.5zM207-79h153v-119H207v119z"/><glyph glyph-name="uni1EBA" unicode="Ẻ" horiz-adv-x="616" d="M65 688h200V0H65v688zm242 0h254V535H307v153zm0-264h207V271H307v153zm0-271h254V0H307v153zm-16 641q0 18 7 26.5t32 28.5q12 9 16 15.5t4 20.5q0 16-6 23t-20.5 9-46.5 2v98q80 2 114-9 57-18 57-92 0-32-3-48t-10-27q-6-8-16.5-17T404 812q-1-1-6.5-5.5t-8.5-10-3-11.5v-34h-95v43z"/><glyph glyph-name="uni1EBB" unicode="ẻ" horiz-adv-x="557" d="M268 305h70q0 56-11 72-6 9-16 11.5t-29 2.5h-14v127h14q86 0 132.5-14t68.5-46q20-28 24.5-72t4.5-132v-40H268v91zM157.5 7.5Q105 23 79 57q-23 30-30 74.5T42 254q0 72 5 114.5T68 441q18 33 55.5 51.5T226 516V214q0-34 3-48.5t14-21.5q12-8 37-9 32-2 68-2 64 0 93 3l51 4V11Q452-1 382-5q-34-3-80-3-92 0-144.5 15.5zM260 613q0 18 7 26.5t32 28.5q12 9 16 15.5t4 20.5q0 16-6 23t-20.5 9-46.5 2v98q80 2 114-9 57-18 57-92 0-32-3-48t-10-27q-6-8-16.5-17T373 631q-1-1-6.5-5.5t-8.5-10-3-11.5v-34h-95v43z"/><glyph glyph-name="uni1EBC" unicode="Ẽ" horiz-adv-x="616" d="M65 688h200V0H65v688zm242 0h254V535H307v153zm0-264h207V271H307v153zm0-271h254V0H307v153zM121 821q2 24 11 42 10 20 30.5 30t56.5 10q47 0 105-14 14-3 25.5-5t20.5-4q23-5 36-5 16 0 19.5 8t3.5 32h93q0-45-2-69t-10-42q-19-41-88-41-47 0-105 14l-46 10q-19 4-36 4-16 0-19.5-7.5T212 751h-93q0 46 2 70z"/><glyph glyph-name="uni1EBD" unicode="ẽ" horiz-adv-x="557" d="M268 305h70q0 56-11 72-6 9-16 11.5t-29 2.5h-14v127h14q86 0 132.5-14t68.5-46q20-28 24.5-72t4.5-132v-40H268v91zM157.5 7.5Q105 23 79 57q-23 30-30 74.5T42 254q0 72 5 114.5T68 441q18 33 55.5 51.5T226 516V214q0-34 3-48.5t14-21.5q12-8 37-9 32-2 68-2 64 0 93 3l51 4V11Q452-1 382-5q-34-3-80-3-92 0-144.5 15.5zM91 649q2 24 11 42 10 20 30.5 30t56.5 10q47 0 105-14 14-3 25.5-5t20.5-4q23-5 36-5 16 0 19.5 8t3.5 32h93q0-45-2-69t-10-42q-19-41-88-41-47 0-105 14l-46 10q-19 4-36 4-16 0-19.5-7.5T182 579H89q0 46 2 70z"/><glyph glyph-name="uni1EBE" unicode="Ế" horiz-adv-x="616" d="M65 688h200V0H65v688zm242 0h254V535H307v153zm0-264h207V271H307v153zm0-271h254V0H307v153zm-59 763l75 122h178v-5L374 911H248v5zM142 758l91 119h175l91-119v-8H371l-51 55-50-55H142v8z"/><glyph glyph-name="uni1EBF" unicode="ế" horiz-adv-x="557" d="M268 305h70q0 56-11 72-6 9-16 11.5t-29 2.5h-14v127h14q86 0 132.5-14t68.5-46q20-28 24.5-72t4.5-132v-40H268v91zM157.5 7.5Q105 23 79 57q-23 30-30 74.5T42 254q0 72 5 114.5T68 441q18 33 55.5 51.5T226 516V214q0-34 3-48.5t14-21.5q12-8 37-9 32-2 68-2 64 0 93 3l51 4V11Q452-1 382-5q-34-3-80-3-92 0-144.5 15.5zM217 762l75 122h178v-5L343 757H217v5zM111 604l91 119h175l91-119v-8H340l-51 55-50-55H111v8z"/><glyph glyph-name="uni1EC0" unicode="Ề" horiz-adv-x="616" d="M65 688h200V0H65v688zm242 0h254V535H307v153zm0-264h207V271H307v153zm0-271h254V0H307v153zm-166 880v5h178l75-122v-5H268zm2-275l91 119h175l91-119v-8H372l-50 55-51-55H143v8z"/><glyph glyph-name="uni1EC1" unicode="ề" horiz-adv-x="557" d="M268 305h70q0 56-11 72-6 9-16 11.5t-29 2.5h-14v127h14q86 0 132.5-14t68.5-46q20-28 24.5-72t4.5-132v-40H268v91zM157.5 7.5Q105 23 79 57q-23 30-30 74.5T42 254q0 72 5 114.5T68 441q18 33 55.5 51.5T226 516V214q0-34 3-48.5t14-21.5q12-8 37-9 32-2 68-2 64 0 93 3l51 4V11Q452-1 382-5q-34-3-80-3-92 0-144.5 15.5zM110 879v5h178l75-122v-5H237zm2-275l91 119h175l91-119v-8H341l-50 55-51-55H112v8z"/><glyph glyph-name="uni1EC2" unicode="Ể" horiz-adv-x="616" d="M65 688h200V0H65v688zm242 0h254V535H307v153zm0-264h207V271H307v153zm0-271h254V0H307v153zm-25 792q0 13 4.5 20t13.5 14 13 10q9 8 12 12.5t3 15.5q0 15-10.5 18.5T271 1039v72q62 2 90-7 23-7 34-22.5t11-44.5q0-38-10-55-3-6-11.5-12.5T371 959t-9.5-9-4.5-12v-27h-75v34zM143 758l91 119h175l91-119v-8H372l-50 55-51-55H143v8z"/><glyph glyph-name="uni1EC3" unicode="ể" horiz-adv-x="557" d="M268 305h70q0 56-11 72-6 9-16 11.5t-29 2.5h-14v127h14q86 0 132.5-14t68.5-46q20-28 24.5-72t4.5-132v-40H268v91zM157.5 7.5Q105 23 79 57q-23 30-30 74.5T42 254q0 72 5 114.5T68 441q18 33 55.5 51.5T226 516V214q0-34 3-48.5t14-21.5q12-8 37-9 32-2 68-2 64 0 93 3l51 4V11Q452-1 382-5q-34-3-80-3-92 0-144.5 15.5zM251 791q0 13 4.5 20t13.5 14 13 10q9 8 12 12.5t3 15.5q0 15-10.5 18.5T240 885v72q62 2 90-7 23-7 34-22.5t11-44.5q0-38-10-55-3-6-11.5-12.5T340 805t-9.5-9-4.5-12v-27h-75v34zM112 604l91 119h175l91-119v-8H341l-50 55-51-55H112v8z"/><glyph glyph-name="uni1EC4" unicode="Ễ" horiz-adv-x="616" d="M65 688h200V0H65v688zm242 0h254V535H307v153zm0-264h207V271H307v153zm0-271h254V0H307v153zM166.5 976.5Q168 997 175 1011q15 33 72 33 31 0 80-11-7 1 31-8 16-4 30-4 13 0 16 6.5t3 26.5h77q0-37-1.5-57t-8.5-35q-15-34-73-34-19 0-39.5 3.5T321 940q-9 2-16 4t-15 4q-22 4-30 4-13 0-16-6.5t-3-26.5h-76q0 37 1.5 57.5zM142 758l91 119h175l91-119v-8H371l-51 55-50-55H142v8z"/><glyph glyph-name="uni1EC5" unicode="ễ" horiz-adv-x="557" d="M268 305h70q0 56-11 72-6 9-16 11.5t-29 2.5h-14v127h14q86 0 132.5-14t68.5-46q20-28 24.5-72t4.5-132v-40H268v91zM157.5 7.5Q105 23 79 57q-23 30-30 74.5T42 254q0 72 5 114.5T68 441q18 33 55.5 51.5T226 516V214q0-34 3-48.5t14-21.5q12-8 37-9 32-2 68-2 64 0 93 3l51 4V11Q452-1 382-5q-34-3-80-3-92 0-144.5 15.5zm-22 815Q137 843 144 857q15 33 72 33 30 0 80-11-7 2 31-8 16-4 30-4 13 0 16 6.5t3 26.5h77q0-37-1.5-57t-8.5-35q-15-34-73-34-19 0-39.5 3.5T290 786q-9 2-16 4t-15 4q-22 4-30 4-13 0-16-6.5t-3-26.5h-76q0 37 1.5 57.5zM111 604l91 119h175l91-119v-8H340l-51 55-50-55H111v8z"/><glyph glyph-name="uni1EC6" unicode="Ệ" horiz-adv-x="616" d="M65 688h200V0H65v688zm242 0h254V535H307v153zm0-264h207V271H307v153zm0-271h254V0H307v153zM245-79h153v-119H245v119zM143 758l91 139h175l91-139v-8H377l-55 75-56-75H143v8z"/><glyph glyph-name="uni1EC7" unicode="ệ" horiz-adv-x="557" d="M268 305h70q0 56-11 72-6 9-16 11.5t-29 2.5h-14v127h14q86 0 132.5-14t68.5-46q20-28 24.5-72t4.5-132v-40H268v91zM157.5 7.5Q105 23 79 57q-23 30-30 74.5T42 254q0 72 5 114.5T68 441q18 33 55.5 51.5T226 516V214q0-34 3-48.5t14-21.5q12-8 37-9 32-2 68-2 64 0 93 3l51 4V11Q452-1 382-5q-34-3-80-3-92 0-144.5 15.5zM207-79h153v-119H207v119zm-96 683l91 139h175l91-139v-8H345l-56 75-55-75H111v8z"/><glyph glyph-name="uni1EC8" unicode="Ỉ" horiz-adv-x="330" d="M65 688h200V0H65v688zm69 106q0 18 7 26.5t32 28.5q12 9 16 15.5t4 20.5q0 16-6 23t-20.5 9-46.5 2v98q80 2 114-9 57-18 57-92 0-32-3-48t-10-27q-6-8-16.5-17T247 812q-1-1-6.5-5.5t-8.5-10-3-11.5v-34h-95v43z"/><glyph glyph-name="uni1EC9" unicode="ỉ" horiz-adv-x="299" d="M57 510h185V0H57v510zm62 103q0 18 7 26.5t32 28.5q12 9 16 15.5t4 20.5q0 16-6 23t-20.5 9-46.5 2v98q80 2 114-9 57-18 57-92 0-32-3-48t-10-27q-6-8-16.5-17T232 631q-1-1-6.5-5.5t-8.5-10-3-11.5v-34h-95v43z"/><glyph glyph-name="uni1ECA" unicode="Ị" horiz-adv-x="330" d="M65 688h200V0H65v688zM91-79h153v-119H91v119z"/><glyph glyph-name="uni1ECB" unicode="ị" horiz-adv-x="299" d="M57 743h185V599H57v144zm0-233h185V0H57v510zM73-79h153v-119H73v119z"/><glyph glyph-name="uni1ECC" unicode="Ọ" horiz-adv-x="698" d="M447 344q0 87-1 114-2 41-11 59.5T406 540q-20 3-57 3-43 0-56-4v156q9 1 27 1h29q112 0 173.5-17.5T612 621q26-37 32.5-97t6.5-180q0-105-4.5-161.5T624 89q-20-42-61.5-64T447-4v348zM139 24q-33 16-52 43t-28 67q-8 35-10 80.5T47 344q0 105 4.5 161T74 599q20 41 61 63t116 30V344q0-59 2-113 2-41 10.5-60t28.5-22q17-4 57-4 41 0 56 3V-7q-9-1-27-1h-29Q203-8 139 24zM276-79h153v-119H276v119z"/><glyph glyph-name="uni1ECD" unicode="ọ" horiz-adv-x="572" d="M342 254q0 51-1 68-1 24-6 36.5T319 374q-12 3-33 3h-14v141h14q87 0 136-13.5t73-44.5q22-28 28.5-74.5T530 254q0-79-4.5-122.5T504 60q-19-31-57-46.5T342-6v260zM150 5q-49 13-73 44-22 28-28.5 74T42 254q0 78 5 122t22 73q18 32 56 47.5T230 516V254q0-51 1-67 1-24 6-36t17-15q10-3 32-3h14V-8h-14Q199-8 150 5zm60-84h153v-119H210v119z"/><glyph glyph-name="uni1ECE" unicode="Ỏ" horiz-adv-x="698" d="M447 344q0 87-1 114-2 41-11 59.5T406 540q-20 3-57 3-43 0-56-4v156q9 1 27 1h29q112 0 173.5-17.5T612 621q26-37 32.5-97t6.5-180q0-105-4.5-161.5T624 89q-20-42-61.5-64T447-4v348zM139 24q-33 16-52 43t-28 67q-8 35-10 80.5T47 344q0 105 4.5 161T74 599q20 41 61 63t116 30V344q0-59 2-113 2-41 10.5-60t28.5-22q17-4 57-4 41 0 56 3V-7q-9-1-27-1h-29Q203-8 139 24zm177 770q0 18 7 26.5t32 28.5q12 9 16 15.5t4 20.5q0 16-6 23t-20.5 9-46.5 2v98q80 2 114-9 57-18 57-92 0-32-3-48t-10-27q-6-8-16.5-17T429 812q-1-1-6.5-5.5t-8.5-10-3-11.5v-34h-95v43z"/><glyph glyph-name="uni1ECF" unicode="ỏ" horiz-adv-x="572" d="M342 254q0 51-1 68-1 24-6 36.5T319 374q-12 3-33 3h-14v141h14q87 0 136-13.5t73-44.5q22-28 28.5-74.5T530 254q0-79-4.5-122.5T504 60q-19-31-57-46.5T342-6v260zM150 5q-49 13-73 44-22 28-28.5 74T42 254q0 78 5 122t22 73q18 32 56 47.5T230 516V254q0-51 1-67 1-24 6-36t17-15q10-3 32-3h14V-8h-14Q199-8 150 5zm110 608q0 18 7 26.5t32 28.5q12 9 16 15.5t4 20.5q0 16-6 23t-20.5 9-46.5 2v98q80 2 114-9 57-18 57-92 0-32-3-48t-10-27q-6-8-16.5-17T373 631q-1-1-6.5-5.5t-8.5-10-3-11.5v-34h-95v43z"/><glyph glyph-name="uni1ED0" unicode="Ố" horiz-adv-x="698" d="M447 344q0 87-1 114-2 41-11 59.5T406 540q-20 3-57 3-43 0-56-4v156q9 1 27 1h29q112 0 173.5-17.5T612 621q26-37 32.5-97t6.5-180q0-105-4.5-161.5T624 89q-20-42-61.5-64T447-4v348zM139 24q-33 16-52 43t-28 67q-8 35-10 80.5T47 344q0 105 4.5 161T74 599q20 41 61 63t116 30V344q0-59 2-113 2-41 10.5-60t28.5-22q17-4 57-4 41 0 56 3V-7q-9-1-27-1h-29Q203-8 139 24zm134 892l75 122h178v-5L399 911H273v5zM167 758l91 119h175l91-119v-8H396l-51 55-50-55H167v8z"/><glyph glyph-name="uni1ED1" unicode="ố" horiz-adv-x="572" d="M342 254q0 51-1 68-1 24-6 36.5T319 374q-12 3-33 3h-14v141h14q87 0 136-13.5t73-44.5q22-28 28.5-74.5T530 254q0-79-4.5-122.5T504 60q-19-31-57-46.5T342-6v260zM150 5q-49 13-73 44-22 28-28.5 74T42 254q0 78 5 122t22 73q18 32 56 47.5T230 516V254q0-51 1-67 1-24 6-36t17-15q10-3 32-3h14V-8h-14Q199-8 150 5zm67 757l75 122h178v-5L343 757H217v5zM111 604l91 119h175l91-119v-8H340l-51 55-50-55H111v8z"/><glyph glyph-name="uni1ED2" unicode="Ồ" horiz-adv-x="698" d="M447 344q0 87-1 114-2 41-11 59.5T406 540q-20 3-57 3-43 0-56-4v156q9 1 27 1h29q112 0 173.5-17.5T612 621q26-37 32.5-97t6.5-180q0-105-4.5-161.5T624 89q-20-42-61.5-64T447-4v348zM139 24q-33 16-52 43t-28 67q-8 35-10 80.5T47 344q0 105 4.5 161T74 599q20 41 61 63t116 30V344q0-59 2-113 2-41 10.5-60t28.5-22q17-4 57-4 41 0 56 3V-7q-9-1-27-1h-29Q203-8 139 24zm27 1009v5h178l75-122v-5H293zm2-275l91 119h175l91-119v-8H397l-50 55-51-55H168v8z"/><glyph glyph-name="uni1ED3" unicode="ồ" horiz-adv-x="572" d="M342 254q0 51-1 68-1 24-6 36.5T319 374q-12 3-33 3h-14v141h14q87 0 136-13.5t73-44.5q22-28 28.5-74.5T530 254q0-79-4.5-122.5T504 60q-19-31-57-46.5T342-6v260zM150 5q-49 13-73 44-22 28-28.5 74T42 254q0 78 5 122t22 73q18 32 56 47.5T230 516V254q0-51 1-67 1-24 6-36t17-15q10-3 32-3h14V-8h-14Q199-8 150 5zm-40 874v5h178l75-122v-5H237zm2-275l91 119h175l91-119v-8H341l-50 55-51-55H112v8z"/><glyph glyph-name="uni1ED4" unicode="Ổ" horiz-adv-x="698" d="M447 344q0 87-1 114-2 41-11 59.5T406 540q-20 3-57 3-43 0-56-4v156q9 1 27 1h29q112 0 173.5-17.5T612 621q26-37 32.5-97t6.5-180q0-105-4.5-161.5T624 89q-20-42-61.5-64T447-4v348zM139 24q-33 16-52 43t-28 67q-8 35-10 80.5T47 344q0 105 4.5 161T74 599q20 41 61 63t116 30V344q0-59 2-113 2-41 10.5-60t28.5-22q17-4 57-4 41 0 56 3V-7q-9-1-27-1h-29Q203-8 139 24zm168 921q0 13 4.5 20t13.5 14 13 10q9 8 12 12.5t3 15.5q0 15-10.5 18.5T296 1039v72q62 2 90-7 23-7 34-22.5t11-44.5q0-38-10-55-3-6-11.5-12.5T396 959t-9.5-9-4.5-12v-27h-75v34zM168 758l91 119h175l91-119v-8H397l-50 55-51-55H168v8z"/><glyph glyph-name="uni1ED5" unicode="ổ" horiz-adv-x="572" d="M342 254q0 51-1 68-1 24-6 36.5T319 374q-12 3-33 3h-14v141h14q87 0 136-13.5t73-44.5q22-28 28.5-74.5T530 254q0-79-4.5-122.5T504 60q-19-31-57-46.5T342-6v260zM150 5q-49 13-73 44-22 28-28.5 74T42 254q0 78 5 122t22 73q18 32 56 47.5T230 516V254q0-51 1-67 1-24 6-36t17-15q10-3 32-3h14V-8h-14Q199-8 150 5zm101 786q0 13 4.5 20t13.5 14 13 10q9 8 12 12.5t3 15.5q0 15-10.5 18.5T240 885v72q62 2 90-7 23-7 34-22.5t11-44.5q0-38-10-55-3-6-11.5-12.5T340 805t-9.5-9-4.5-12v-27h-75v34zM112 604l91 119h175l91-119v-8H341l-50 55-51-55H112v8z"/><glyph glyph-name="uni1ED6" unicode="Ỗ" horiz-adv-x="698" d="M447 344q0 87-1 114-2 41-11 59.5T406 540q-20 3-57 3-43 0-56-4v156q9 1 27 1h29q112 0 173.5-17.5T612 621q26-37 32.5-97t6.5-180q0-105-4.5-161.5T624 89q-20-42-61.5-64T447-4v348zM139 24q-33 16-52 43t-28 67q-8 35-10 80.5T47 344q0 105 4.5 161T74 599q20 41 61 63t116 30V344q0-59 2-113 2-41 10.5-60t28.5-22q17-4 57-4 41 0 56 3V-7q-9-1-27-1h-29Q203-8 139 24zm52.5 952.5Q193 997 200 1011q15 33 72 33 31 0 80-11-7 1 31-8 16-4 30-4 13 0 16 6.5t3 26.5h77q0-37-1.5-57t-8.5-35q-15-34-73-34-19 0-39.5 3.5T346 940q-9 2-16 4t-15 4q-22 4-30 4-13 0-16-6.5t-3-26.5h-76q0 37 1.5 57.5zM167 758l91 119h175l91-119v-8H396l-51 55-50-55H167v8z"/><glyph glyph-name="uni1ED7" unicode="ỗ" horiz-adv-x="572" d="M342 254q0 51-1 68-1 24-6 36.5T319 374q-12 3-33 3h-14v141h14q87 0 136-13.5t73-44.5q22-28 28.5-74.5T530 254q0-79-4.5-122.5T504 60q-19-31-57-46.5T342-6v260zM150 5q-49 13-73 44-22 28-28.5 74T42 254q0 78 5 122t22 73q18 32 56 47.5T230 516V254q0-51 1-67 1-24 6-36t17-15q10-3 32-3h14V-8h-14Q199-8 150 5zm-14.5 817.5Q137 843 144 857q15 33 72 33 30 0 80-11-7 2 31-8 16-4 30-4 13 0 16 6.5t3 26.5h77q0-37-1.5-57t-8.5-35q-15-34-73-34-19 0-39.5 3.5T290 786q-9 2-16 4t-15 4q-22 4-30 4-13 0-16-6.5t-3-26.5h-76q0 37 1.5 57.5zM111 604l91 119h175l91-119v-8H340l-51 55-50-55H111v8z"/><glyph glyph-name="uni1ED8" unicode="Ộ" horiz-adv-x="698" d="M447 344q0 87-1 114-2 41-11 59.5T406 540q-20 3-57 3-43 0-56-4v156q9 1 27 1h29q112 0 173.5-17.5T612 621q26-37 32.5-97t6.5-180q0-105-4.5-161.5T624 89q-20-42-61.5-64T447-4v348zM139 24q-33 16-52 43t-28 67q-8 35-10 80.5T47 344q0 105 4.5 161T74 599q20 41 61 63t116 30V344q0-59 2-113 2-41 10.5-60t28.5-22q17-4 57-4 41 0 56 3V-7q-9-1-27-1h-29Q203-8 139 24zM276-79h153v-119H276v119zM168 758l91 139h175l91-139v-8H402l-55 75-56-75H168v8z"/><glyph glyph-name="uni1ED9" unicode="ộ" horiz-adv-x="572" d="M342 254q0 51-1 68-1 24-6 36.5T319 374q-12 3-33 3h-14v141h14q87 0 136-13.5t73-44.5q22-28 28.5-74.5T530 254q0-79-4.5-122.5T504 60q-19-31-57-46.5T342-6v260zM150 5q-49 13-73 44-22 28-28.5 74T42 254q0 78 5 122t22 73q18 32 56 47.5T230 516V254q0-51 1-67 1-24 6-36t17-15q10-3 32-3h14V-8h-14Q199-8 150 5zm60-84h153v-119H210v119zm-99 683l91 139h175l91-139v-8H345l-56 75-55-75H111v8z"/><glyph glyph-name="uni1EDA" unicode="Ớ" horiz-adv-x="698" d="M697 741q0-37-6-63t-22-45q-18-21-46-31 18-37 23-94t5-164q0-105-4.5-161.5T624 89q-20-42-61.5-64T447-4v348q0 87-1 114-2 41-11 59.5T406 540q-20 3-57 3-43 0-56-4v156q9 1 27 1h29q73 0 129-8h60q36 0 49 15 5 6 6 14.5t1 23.5h103zM349 145q41 0 56 3V-7q-9-1-27-1h-29Q203-8 139 24q-33 16-52 43t-28 67q-8 35-10 80.5T47 344q0 105 4.5 161T74 599q20 41 61 63t116 30V344q0-59 2-113 2-41 10.5-60t28.5-22q17-4 57-4zm-73 611l88 142h183v-5L412 751H276v5z"/><glyph glyph-name="uni1EDB" unicode="ớ" horiz-adv-x="572" d="M603 563q0-37-6-63t-22-45q-22-25-59-35 8-28 11-67t3-99q0-79-4.5-122.5T504 60q-19-31-57-46.5T342-6v260q0 51-1 68-1 24-6 36.5T319 374q-12 3-33 3h-14v141h14q63 0 111-8h47q36 0 49 15 5 6 6 14.5t1 23.5h103zM286 133h14V-8h-14Q199-8 150 5T77 49q-22 28-28.5 74T42 254q0 78 5 122t22 73q18 32 56 47.5T230 516V254q0-51 1-67 1-24 6-36t17-15q10-3 32-3zm-75 468l88 142h183v-5L347 596H211v5z"/><glyph glyph-name="uni1EDC" unicode="Ờ" horiz-adv-x="698" d="M697 741q0-37-6-63t-22-45q-18-21-46-31 18-37 23-94t5-164q0-105-4.5-161.5T624 89q-20-42-61.5-64T447-4v348q0 87-1 114-2 41-11 59.5T406 540q-20 3-57 3-43 0-56-4v156q9 1 27 1h29q73 0 129-8h60q36 0 49 15 5 6 6 14.5t1 23.5h103zM349 145q41 0 56 3V-7q-9-1-27-1h-29Q203-8 139 24q-33 16-52 43t-28 67q-8 35-10 80.5T47 344q0 105 4.5 161T74 599q20 41 61 63t116 30V344q0-59 2-113 2-41 10.5-60t28.5-22q17-4 57-4zM145 893v5h183l88-142v-5H280z"/><glyph glyph-name="uni1EDD" unicode="ờ" horiz-adv-x="572" d="M603 563q0-37-6-63t-22-45q-22-25-59-35 8-28 11-67t3-99q0-79-4.5-122.5T504 60q-19-31-57-46.5T342-6v260q0 51-1 68-1 24-6 36.5T319 374q-12 3-33 3h-14v141h14q63 0 111-8h47q36 0 49 15 5 6 6 14.5t1 23.5h103zM286 133h14V-8h-14Q199-8 150 5T77 49q-22 28-28.5 74T42 254q0 78 5 122t22 73q18 32 56 47.5T230 516V254q0-51 1-67 1-24 6-36t17-15q10-3 32-3zM98 738v5h183l88-142v-5H233z"/><glyph glyph-name="uni1EDE" unicode="Ở" horiz-adv-x="698" d="M697 741q0-37-6-63t-22-45q-18-21-46-31 18-37 23-94t5-164q0-105-4.5-161.5T624 89q-20-42-61.5-64T447-4v348q0 87-1 114-2 41-11 59.5T406 540q-20 3-57 3-43 0-56-4v156q9 1 27 1h29q73 0 129-8h60q36 0 49 15 5 6 6 14.5t1 23.5h103zM349 145q41 0 56 3V-7q-9-1-27-1h-29Q203-8 139 24q-33 16-52 43t-28 67q-8 35-10 80.5T47 344q0 105 4.5 161T74 599q20 41 61 63t116 30V344q0-59 2-113 2-41 10.5-60t28.5-22q17-4 57-4zm-33 649q0 18 7 26.5t32 28.5q12 9 16 15.5t4 20.5q0 16-6 23t-20.5 9-46.5 2v98q80 2 114-9 57-18 57-92 0-32-3-48t-10-27q-6-8-16.5-17T429 812q-1-1-6.5-5.5t-8.5-10-3-11.5v-34h-95v43z"/><glyph glyph-name="uni1EDF" unicode="ở" horiz-adv-x="572" d="M603 563q0-37-6-63t-22-45q-22-25-59-35 8-28 11-67t3-99q0-79-4.5-122.5T504 60q-19-31-57-46.5T342-6v260q0 51-1 68-1 24-6 36.5T319 374q-12 3-33 3h-14v141h14q63 0 111-8h47q36 0 49 15 5 6 6 14.5t1 23.5h103zM286 133h14V-8h-14Q199-8 150 5T77 49q-22 28-28.5 74T42 254q0 78 5 122t22 73q18 32 56 47.5T230 516V254q0-51 1-67 1-24 6-36t17-15q10-3 32-3zm-26 480q0 18 7 26.5t32 28.5q12 9 16 15.5t4 20.5q0 16-6 23t-20.5 9-46.5 2v98q80 2 114-9 57-18 57-92 0-32-3-48t-10-27q-6-8-16.5-17T373 631q-1-1-6.5-5.5t-8.5-10-3-11.5v-34h-95v43z"/><glyph glyph-name="uni1EE0" unicode="Ỡ" horiz-adv-x="698" d="M697 741q0-37-6-63t-22-45q-18-21-46-31 18-37 23-94t5-164q0-105-4.5-161.5T624 89q-20-42-61.5-64T447-4v348q0 87-1 114-2 41-11 59.5T406 540q-20 3-57 3-43 0-56-4v156q9 1 27 1h29q73 0 129-8h60q36 0 49 15 5 6 6 14.5t1 23.5h103zM349 145q41 0 56 3V-7q-9-1-27-1h-29Q203-8 139 24q-33 16-52 43t-28 67q-8 35-10 80.5T47 344q0 105 4.5 161T74 599q20 41 61 63t116 30V344q0-59 2-113 2-41 10.5-60t28.5-22q17-4 57-4zM146 821q2 24 11 42 10 20 30.5 30t56.5 10q47 0 105-14 14-3 25.5-5t20.5-4q23-5 36-5 16 0 19.5 8t3.5 32h93q0-45-2-69t-10-42q-19-41-88-41-47 0-105 14l-46 10q-19 4-36 4-16 0-19.5-7.5T237 751h-93q0 46 2 70z"/><glyph glyph-name="uni1EE1" unicode="ỡ" horiz-adv-x="572" d="M603 563q0-37-6-63t-22-45q-22-25-59-35 8-28 11-67t3-99q0-79-4.5-122.5T504 60q-19-31-57-46.5T342-6v260q0 51-1 68-1 24-6 36.5T319 374q-12 3-33 3h-14v141h14q63 0 111-8h47q36 0 49 15 5 6 6 14.5t1 23.5h103zM286 133h14V-8h-14Q199-8 150 5T77 49q-22 28-28.5 74T42 254q0 78 5 122t22 73q18 32 56 47.5T230 516V254q0-51 1-67 1-24 6-36t17-15q10-3 32-3zM91 649q2 24 11 42 10 20 30.5 30t56.5 10q47 0 105-14 14-3 25.5-5t20.5-4q23-5 36-5 16 0 19.5 8t3.5 32h93q0-45-2-69t-10-42q-19-41-88-41-47 0-105 14l-46 10q-19 4-36 4-16 0-19.5-7.5T182 579H89q0 46 2 70z"/><glyph glyph-name="uni1EE2" unicode="Ợ" horiz-adv-x="698" d="M697 741q0-37-6-63t-22-45q-18-21-46-31 18-37 23-94t5-164q0-105-4.5-161.5T624 89q-20-42-61.5-64T447-4v348q0 87-1 114-2 41-11 59.5T406 540q-20 3-57 3-43 0-56-4v156q9 1 27 1h29q73 0 129-8h60q36 0 49 15 5 6 6 14.5t1 23.5h103zM349 145q41 0 56 3V-7q-9-1-27-1h-29Q203-8 139 24q-33 16-52 43t-28 67q-8 35-10 80.5T47 344q0 105 4.5 161T74 599q20 41 61 63t116 30V344q0-59 2-113 2-41 10.5-60t28.5-22q17-4 57-4zM276-79h153v-119H276v119z"/><glyph glyph-name="uni1EE3" unicode="ợ" horiz-adv-x="572" d="M603 563q0-37-6-63t-22-45q-22-25-59-35 8-28 11-67t3-99q0-79-4.5-122.5T504 60q-19-31-57-46.5T342-6v260q0 51-1 68-1 24-6 36.5T319 374q-12 3-33 3h-14v141h14q63 0 111-8h47q36 0 49 15 5 6 6 14.5t1 23.5h103zM286 133h14V-8h-14Q199-8 150 5T77 49q-22 28-28.5 74T42 254q0 78 5 122t22 73q18 32 56 47.5T230 516V254q0-51 1-67 1-24 6-36t17-15q10-3 32-3zM210-79h153v-119H210v119z"/><glyph glyph-name="uni1EE4" unicode="Ụ" horiz-adv-x="690" d="M183 9q-57 17-84 55-25 35-31 89t-6 161v374h200V274q0-37 2-71 2-27 9-39t24-15q15-4 48-4h23q8 0 18 2V-7q-7-1-20-1h-21Q240-8 183 9zm245 679h200V314q0-98-4-148t-22-84q-20-39-61-60T428-5v693zM276-79h153v-119H276v119z"/><glyph glyph-name="uni1EE5" unicode="ụ" horiz-adv-x="586" d="M79 48q-14 24-19 58.5T55 191v319h185V269q0-53 1-70 2-25 6-36t13-13.5 32-2.5h10V22Q263-7 200-7 110-7 79 48zm265 462h185V0H344v510zM220-79h153v-119H220v119z"/><glyph glyph-name="uni1EE6" unicode="Ủ" horiz-adv-x="690" d="M183 9q-57 17-84 55-25 35-31 89t-6 161v374h200V274q0-37 2-71 2-27 9-39t24-15q15-4 48-4h23q8 0 18 2V-7q-7-1-20-1h-21Q240-8 183 9zm245 679h200V314q0-98-4-148t-22-84q-20-39-61-60T428-5v693zM315 794q0 18 7 26.5t32 28.5q12 9 16 15.5t4 20.5q0 16-6 23t-20.5 9-46.5 2v98q80 2 114-9 57-18 57-92 0-32-3-48t-10-27q-6-8-16.5-17T428 812q-1-1-6.5-5.5t-8.5-10-3-11.5v-34h-95v43z"/><glyph glyph-name="uni1EE7" unicode="ủ" horiz-adv-x="586" d="M79 48q-14 24-19 58.5T55 191v319h185V269q0-53 1-70 2-25 6-36t13-13.5 32-2.5h10V22Q263-7 200-7 110-7 79 48zm265 462h185V0H344v510zm-80 103q0 18 7 26.5t32 28.5q12 9 16 15.5t4 20.5q0 16-6 23t-20.5 9-46.5 2v98q80 2 114-9 57-18 57-92 0-32-3-48t-10-27q-6-8-16.5-17T377 631q-1-1-6.5-5.5t-8.5-10-3-11.5v-34h-95v43z"/><glyph glyph-name="uni1EE8" unicode="Ứ" horiz-adv-x="690" d="M784 741q0-37-6-63t-22-45q-19-22-49.5-32.5T628 590V314q0-98-4-148t-22-84q-20-39-61-60T428-5v693h197q36 0 49 15 5 6 6 14.5t1 23.5h103zM368 145q8 0 18 2V-7q-7-1-20-1h-21Q240-8 183 9T99 64q-25 35-31 89t-6 161v374h200V274q0-37 2-71 2-27 9-39t24-15q15-4 48-4h23zm-93 611l88 142h183v-5L411 751H275v5z"/><glyph glyph-name="uni1EE9" unicode="ứ" horiz-adv-x="586" d="M697 563q0-37-6-63t-22-45q-19-22-50-32.5T538 412h-9V0H344v510h194q36 0 49 15 5 6 6 14.5t1 23.5h103zM260 149.5q9-2.5 32-2.5h10V22Q263-7 200-7 110-7 79 48q-14 24-19 58.5T55 191v319h185V269q0-53 1-70 2-25 6-36t13-13.5zM215 601l88 142h183v-5L351 596H215v5z"/><glyph glyph-name="uni1EEA" unicode="Ừ" horiz-adv-x="690" d="M784 741q0-37-6-63t-22-45q-19-22-49.5-32.5T628 590V314q0-98-4-148t-22-84q-20-39-61-60T428-5v693h197q36 0 49 15 5 6 6 14.5t1 23.5h103zM368 145q8 0 18 2V-7q-7-1-20-1h-21Q240-8 183 9T99 64q-25 35-31 89t-6 161v374h200V274q0-37 2-71 2-27 9-39t24-15q15-4 48-4h23zM144 893v5h183l88-142v-5H279z"/><glyph glyph-name="uni1EEB" unicode="ừ" horiz-adv-x="586" d="M697 563q0-37-6-63t-22-45q-19-22-50-32.5T538 412h-9V0H344v510h194q36 0 49 15 5 6 6 14.5t1 23.5h103zM260 149.5q9-2.5 32-2.5h10V22Q263-7 200-7 110-7 79 48q-14 24-19 58.5T55 191v319h185V269q0-53 1-70 2-25 6-36t13-13.5zM102 738v5h183l88-142v-5H237z"/><glyph glyph-name="uni1EEC" unicode="Ử" horiz-adv-x="690" d="M784 741q0-37-6-63t-22-45q-19-22-49.5-32.5T628 590V314q0-98-4-148t-22-84q-20-39-61-60T428-5v693h197q36 0 49 15 5 6 6 14.5t1 23.5h103zM368 145q8 0 18 2V-7q-7-1-20-1h-21Q240-8 183 9T99 64q-25 35-31 89t-6 161v374h200V274q0-37 2-71 2-27 9-39t24-15q15-4 48-4h23zm-53 649q0 18 7 26.5t32 28.5q12 9 16 15.5t4 20.5q0 16-6 23t-20.5 9-46.5 2v98q80 2 114-9 57-18 57-92 0-32-3-48t-10-27q-6-8-16.5-17T428 812q-1-1-6.5-5.5t-8.5-10-3-11.5v-34h-95v43z"/><glyph glyph-name="uni1EED" unicode="ử" horiz-adv-x="586" d="M697 563q0-37-6-63t-22-45q-19-22-50-32.5T538 412h-9V0H344v510h194q36 0 49 15 5 6 6 14.5t1 23.5h103zM260 149.5q9-2.5 32-2.5h10V22Q263-7 200-7 110-7 79 48q-14 24-19 58.5T55 191v319h185V269q0-53 1-70 2-25 6-36t13-13.5zm4 463.5q0 18 7 26.5t32 28.5q12 9 16 15.5t4 20.5q0 16-6 23t-20.5 9-46.5 2v98q80 2 114-9 57-18 57-92 0-32-3-48t-10-27q-6-8-16.5-17T377 631q-1-1-6.5-5.5t-8.5-10-3-11.5v-34h-95v43z"/><glyph glyph-name="uni1EEE" unicode="Ữ" horiz-adv-x="690" d="M784 741q0-37-6-63t-22-45q-19-22-49.5-32.5T628 590V314q0-98-4-148t-22-84q-20-39-61-60T428-5v693h197q36 0 49 15 5 6 6 14.5t1 23.5h103zM368 145q8 0 18 2V-7q-7-1-20-1h-21Q240-8 183 9T99 64q-25 35-31 89t-6 161v374h200V274q0-37 2-71 2-27 9-39t24-15q15-4 48-4h23zM145 821q2 24 11 42 10 20 30.5 30t56.5 10q47 0 105-14 14-3 25.5-5t20.5-4q23-5 36-5 16 0 19.5 8t3.5 32h93q0-45-2-69t-10-42q-19-41-88-41-47 0-105 14l-46 10q-19 4-36 4-16 0-19.5-7.5T236 751h-93q0 46 2 70z"/><glyph glyph-name="uni1EEF" unicode="ữ" horiz-adv-x="586" d="M697 563q0-37-6-63t-22-45q-19-22-50-32.5T538 412h-9V0H344v510h194q36 0 49 15 5 6 6 14.5t1 23.5h103zM260 149.5q9-2.5 32-2.5h10V22Q263-7 200-7 110-7 79 48q-14 24-19 58.5T55 191v319h185V269q0-53 1-70 2-25 6-36t13-13.5zM95 649q2 24 11 42 10 20 30.5 30t56.5 10q47 0 105-14 14-3 25.5-5t20.5-4q23-5 36-5 16 0 19.5 8t3.5 32h93q0-45-2-69t-10-42q-19-41-88-41-47 0-105 14l-46 10q-19 4-36 4-16 0-19.5-7.5T186 579H93q0 46 2 70z"/><glyph glyph-name="uni1EF0" unicode="Ự" horiz-adv-x="690" d="M784 741q0-37-6-63t-22-45q-19-22-49.5-32.5T628 590V314q0-98-4-148t-22-84q-20-39-61-60T428-5v693h197q36 0 49 15 5 6 6 14.5t1 23.5h103zM368 145q8 0 18 2V-7q-7-1-20-1h-21Q240-8 183 9T99 64q-25 35-31 89t-6 161v374h200V274q0-37 2-71 2-27 9-39t24-15q15-4 48-4h23zM276-79h153v-119H276v119z"/><glyph glyph-name="uni1EF1" unicode="ự" horiz-adv-x="586" d="M697 563q0-37-6-63t-22-45q-19-22-50-32.5T538 412h-9V0H344v510h194q36 0 49 15 5 6 6 14.5t1 23.5h103zM260 149.5q9-2.5 32-2.5h10V22Q263-7 200-7 110-7 79 48q-14 24-19 58.5T55 191v319h185V269q0-53 1-70 2-25 6-36t13-13.5zM220-79h153v-119H220v119z"/><glyph glyph-name="Ygrave" unicode="Ỳ" horiz-adv-x="633" d="M216 227l-9 20-26 51-25 53q-4 7-10 21l-41 85L-5 688h204l217-462V0H216v227zm129 248l93 213h200l-78-162-33-68-63-131-25-52zM125 893v5h183l88-142v-5H260z"/><glyph glyph-name="ygrave" unicode="ỳ" horiz-adv-x="588" d="M81 58q-14 24-19 58.5T57 201v309h185V279q0-53 1-70 2-26 6-36 4-11 13-13.5t32-2.5h10V33Q264 3 202 3 112 3 81 58zm68-258l-58 6v129h134q36 0 70 2 24 2 35.5 9.5T344-28q2 24 2 51v487h185V56q0-80-6.5-124T495-141q-26-33-79-49t-145-16q-52 0-122 6zm-41 938v5h183l88-142v-5H243z"/><glyph glyph-name="uni1EF4" unicode="Ỵ" horiz-adv-x="633" d="M216 227l-9 20-26 51-25 53q-4 7-10 21l-41 85L-5 688h204l217-462V0H216v227zm129 248l93 213h200l-78-162-33-68-63-131-25-52zM235-79h153v-119H235v119z"/><glyph glyph-name="uni1EF5" unicode="ỵ" horiz-adv-x="588" d="M81 58q-14 24-19 58.5T57 201v309h185V279q0-53 1-70 2-26 6-36 4-11 13-13.5t32-2.5h10V33Q264 3 202 3 112 3 81 58zm68-258l-58 6v129h134q36 0 70 2 24 2 35.5 9.5T344-28q2 24 2 51v487h185V56q0-80-6.5-124T495-141q-26-33-79-49t-145-16q-52 0-122 6zm80-35h153v-119H229v119z"/><glyph glyph-name="uni1EF6" unicode="Ỷ" horiz-adv-x="633" d="M216 227l-9 20-26 51-25 53q-4 7-10 21l-41 85L-5 688h204l217-462V0H216v227zm129 248l93 213h200l-78-162-33-68-63-131-25-52zm-49 319q0 18 7 26.5t32 28.5q12 9 16 15.5t4 20.5q0 16-6 23t-20.5 9-46.5 2v98q80 2 114-9 57-18 57-92 0-32-3-48t-10-27q-6-8-16.5-17T409 812q-1-1-6.5-5.5t-8.5-10-3-11.5v-34h-95v43z"/><glyph glyph-name="uni1EF7" unicode="ỷ" horiz-adv-x="588" d="M81 58q-14 24-19 58.5T57 201v309h185V279q0-53 1-70 2-26 6-36 4-11 13-13.5t32-2.5h10V33Q264 3 202 3 112 3 81 58zm68-258l-58 6v129h134q36 0 70 2 24 2 35.5 9.5T344-28q2 24 2 51v487h185V56q0-80-6.5-124T495-141q-26-33-79-49t-145-16q-52 0-122 6zm121 813q0 18 7 26.5t32 28.5q12 9 16 15.5t4 20.5q0 16-6 23t-20.5 9-46.5 2v98q80 2 114-9 57-18 57-92 0-32-3-48t-10-27q-6-8-16.5-17T383 631q-1-1-6.5-5.5t-8.5-10-3-11.5v-34h-95v43z"/><glyph glyph-name="uni1EF8" unicode="Ỹ" horiz-adv-x="633" d="M216 227l-9 20-26 51-25 53q-4 7-10 21l-41 85L-5 688h204l217-462V0H216v227zm129 248l93 213h200l-78-162-33-68-63-131-25-52zM126 821q2 24 11 42 10 20 30.5 30t56.5 10q47 0 105-14 14-3 25.5-5t20.5-4q23-5 36-5 16 0 19.5 8t3.5 32h93q0-45-2-69t-10-42q-19-41-88-41-47 0-105 14l-46 10q-19 4-36 4-16 0-19.5-7.5T217 751h-93q0 46 2 70z"/><glyph glyph-name="uni1EF9" unicode="ỹ" horiz-adv-x="588" d="M81 58q-14 24-19 58.5T57 201v309h185V279q0-53 1-70 2-26 6-36 4-11 13-13.5t32-2.5h10V33Q264 3 202 3 112 3 81 58zm68-258l-58 6v129h134q36 0 70 2 24 2 35.5 9.5T344-28q2 24 2 51v487h185V56q0-80-6.5-124T495-141q-26-33-79-49t-145-16q-52 0-122 6zm-48 849q2 24 11 42 10 20 30.5 30t56.5 10q47 0 105-14 14-3 25.5-5t20.5-4q23-5 36-5 16 0 19.5 8t3.5 32h93q0-45-2-69t-10-42q-19-41-88-41-47 0-105 14l-46 10q-19 4-36 4-16 0-19.5-7.5T192 579H99q0 46 2 70z"/><glyph glyph-name="uni2009" horiz-adv-x="160"/><glyph glyph-name="uni2010" unicode="‐" horiz-adv-x="600" d="M47 359h285V210H47v149z"/><glyph glyph-name="uni2011" unicode="‑" horiz-adv-x="379" d="M47 359h285V210H47v149z"/><glyph glyph-name="endash" unicode="–" horiz-adv-x="480" d="M40 371h400V238H40v133z"/><glyph glyph-name="emdash" unicode="—" horiz-adv-x="880" d="M40 371h800V238H40v133z"/><glyph glyph-name="quoteleft" unicode="‘" horiz-adv-x="320" d="M65 503q0 59 6.5 92.5T96 649q19 21 57 30t102 9v-69q-46 0-60-14-7-7-9.5-19.5T183 553v-13h72V387H65v116z"/><glyph glyph-name="quoteright" unicode="’" horiz-adv-x="320" d="M65 456q45 0 60 15 7 7 9.5 19t2.5 32v13H65v153h190V572q0-60-6-93t-24-53q-19-21-57-30t-103-9v69z"/><glyph glyph-name="quotesinglbase" unicode="‚" horiz-adv-x="320" d="M65-79q45 0 60 15 7 7 9.5 19t2.5 32V0H65v153h190V37q0-60-6-93t-24-53q-19-21-57-30t-103-9v69z"/><glyph glyph-name="quotedblleft" unicode="“" horiz-adv-x="565" d="M65 503q0 59 6.5 92.5T96 649q19 21 57 30t102 9v-69q-46 0-60-14-7-7-9.5-19.5T183 553v-13h72V387H65v116zm245 0q0 59 6.5 92.5T341 649q19 21 57 30t102 9v-69q-46 0-60-14-7-7-9.5-19.5T428 553v-13h72V387H310v116z"/><glyph glyph-name="quotedblright" unicode="”" horiz-adv-x="565" d="M65 456q45 0 60 15 7 7 9.5 19t2.5 32v13H65v153h190V572q0-60-6-93t-24-53q-19-21-57-30t-103-9v69zm245 0q45 0 60 15 7 7 9.5 19t2.5 32v13h-72v153h190V572q0-60-6-93t-24-53q-19-21-57-30t-103-9v69z"/><glyph glyph-name="quotedblbase" unicode="„" horiz-adv-x="565" d="M65-79q45 0 60 15 7 7 9.5 19t2.5 32V0H65v153h190V37q0-60-6-93t-24-53q-19-21-57-30t-103-9v69zm245 0q45 0 60 15 7 7 9.5 19t2.5 32V0h-72v153h190V37q0-60-6-93t-24-53q-19-21-57-30t-103-9v69z"/><glyph glyph-name="dagger" unicode="†" horiz-adv-x="540" d="M70 422v114l133 10 10 142h114l10-142 133-10V422l-133-10H203zm134-50h132L327 0H213z"/><glyph glyph-name="daggerdbl" unicode="‡" horiz-adv-x="540" d="M70 422v114l133 10 10 142h114l10-142 133-10V422l-133-10H203zm133-280L70 152v114l133 10v96h134v-96l133-10V152l-133-10L327 0H213z"/><glyph glyph-name="bullet" unicode="•" horiz-adv-x="403" d="M129.5 222Q105 227 93 239t-15 34-3 69q0 48 3 71t15 35q12 13 36 17.5t71 4.5q48 0 73.5-4.5T311 448q11-12 14-35t3-71q0-47-3-69t-14-34q-12-12-38-17t-73-5q-46 0-70.5 5z"/><glyph glyph-name="ellipsis" unicode="…" horiz-adv-x="990" d="M64 163h202V0H64v163zm330 0h202V0H394v163zm330 0h202V0H724v163z"/><glyph glyph-name="perthousand" unicode="‰" horiz-adv-x="1050" d="M220 583q-2 21-5 28-4 8-11 10.5t-23 2.5v72q50 0 77.5-8.5T299 660q12-18 15-47t3-85q0-49-2.5-76.5T304 406q-9-20-29-31t-55-14v222zM105.5 368.5Q78 377 65 397q-12 18-15 47t-3 84q0 49 2.5 77T60 651q9 20 28.5 30t55.5 13V528q0-42 1-55 0-21 4-29 3-8 10-10t24-2v-72q-50 0-77.5 8.5zM543 688h117L199 0H82zm56-473q-2 21-5 28-4 8-11 10.5t-23 2.5v72q50 0 77.5-8.5T678 292q12-18 15-47t3-85q0-49-2.5-76.5T683 38q-9-20-29-31T599-7v222zm308 0q-2 21-5 28-4 8-11 10.5t-23 2.5v72q50 0 77.5-8.5T986 292q12-18 15-47t3-85q0-49-2.5-76.5T991 38q-9-20-29-31T907-7v222zM484.5.5Q457 9 444 29q-12 18-15 47t-3 84q0 49 2.5 77t10.5 46q9 20 28.5 30t55.5 13V160q0-42 1-55 0-21 4-29 3-8 10-10t24-2V-8Q512-8 484.5.5zm308 0Q765 9 752 29q-12 18-15 47t-3 84q0 49 2.5 77t10.5 46q9 20 28.5 30t55.5 13V160q0-42 1-55 0-21 4-29 3-8 10-10t24-2V-8Q820-8 792.5.5z"/><glyph glyph-name="minute" unicode="′" horiz-adv-x="300" d="M0 450l18 215 8 49 168-30-9-48-57-208z"/><glyph glyph-name="second" unicode="″" horiz-adv-x="530" d="M155 447l37 213 12 48 165-45-13-47-75-202zm-218-7l18 215 8 49 168-30-9-48-57-208z"/><glyph glyph-name="guilsinglleft" unicode="‹" horiz-adv-x="312" d="M14 304l132 206h121L166 304 267 99H146z"/><glyph glyph-name="guilsinglright" unicode="›" horiz-adv-x="312" d="M146 304L45 510h121l132-206L166 99H45z"/><glyph glyph-name="fraction" unicode="⁄" horiz-adv-x="446" d="M389 688h117L57 0H-60z"/><glyph glyph-name="uni2052" unicode="⁒" horiz-adv-x="612" d="M373 763h161L243-35H83zM50 725h202V562H50v163zm310-562h202V0H360v163z"/><glyph glyph-name="uni2070" unicode="⁰" horiz-adv-x="376" d="M229 599q0 57-2 77t-9.5 25-29.5 5h-3v87h3q76 0 107.5-13t41.5-51 10-130q0-84-7.5-122t-32-54-78.5-18v194zM80.5 417q-31.5 13-41 51T30 599q0 84 7.5 121.5t31.5 53 79 18.5V599q0-59 2-79t9.5-25 28.5-5h4v-86h-4q-76 0-107.5 13z"/><glyph glyph-name="uni2074" unicode="⁴" horiz-adv-x="370" d="M19 556l120 232h125L90 480H19v76zm178-76h-65l49 86h20l36 76h74v-76h44v-86h-44v-72H197v72z"/><glyph glyph-name="uni2075" unicode="⁵" horiz-adv-x="359" d="M213 529q0 17-4.5 25T192 564.5t-38 2.5q-54 0-109-5v226h100V648q30 3 67 3 67 0 92.5-28.5T330 535q0-63-24.5-93T213 406v123zm-31 259h120v-87H182v87zM41 416v80q72-6 113-6 23 0 31 1v-87h-15q-62 0-129 12z"/><glyph glyph-name="uni2076" unicode="⁶" horiz-adv-x="378" d="M222 706q-18 0-38-2v89h17q25 0 61-3t66-9v-82q-77 7-106 7zM93.5 416.5Q60 429 43 470q-13 32-13 128 0 81 14 120 11 32 36 49.5t67 22.5V530q0-20 4.5-29t13-11 28.5-2h11v-84h-7q-70 0-103.5 12.5zM241 527q0 26-8.5 33t-39.5 7h-9v79q18 5 45 5 64 0 93.5-23t29.5-91q0-64-23.5-94T241 406v121z"/><glyph glyph-name="uni2077" unicode="⁷" horiz-adv-x="328" d="M19 788h289v-87H19v87zm151-124h119L179 408H51z"/><glyph glyph-name="uni2078" unicode="⁸" horiz-adv-x="388" d="M64 430q-35 26-35 80 0 43 17 63t53 28v3q-34 7-50.5 28T32 693q0 45 26.5 69t90.5 29V673q0-17 3-24.5t12-10 30-2.5q30 0 37.5 6t7.5 31-7.5 31.5T194 711h-8v82h8q90 0 125.5-24t35.5-76q0-40-16-61t-50-28v-3q36-8 53-28t17-63q0-47-25.5-72.5T242 406v118q0 26-8.5 33t-39.5 7-39.5-7-8.5-33q0-25 9-31.5t39-6.5h12v-82h-12q-95 0-130 26z"/><glyph glyph-name="uni2079" unicode="⁹" horiz-adv-x="378" d="M231 667q0 20-4.5 29t-13 11-28.5 2h-11v84h7q70 0 103.5-12.5T335 727q13-32 13-128 0-81-14-120-11-32-36-49.5T231 407v260zM55.5 569Q26 592 26 660q0 64 23.5 94t87.5 37V670q0-26 8.5-33t39.5-7h9v-79q-18-5-45-5-64 0-93.5 23zM116 407q-36 3-66 9v82q77-7 106-7 18 0 38 2v-89h-17q-25 0-61 3z"/><glyph glyph-name="uni207F" unicode="ⁿ" horiz-adv-x="481" d="M284 439q0 41-1 54 0 4-1 13.5t-3 14.5q-4 8-11.5 10t-23.5 2h-8v106q17 10 44 16t50 6q68 0 93-42 11-19 14.5-44.5T441 509V264H284v175zM50 656h157V264H50v392z"/><glyph glyph-name="uni2080" unicode="₀" horiz-adv-x="376" d="M229-1q0 57-2 77t-9.5 25-29.5 5h-3v87h3q76 0 107.5-13t41.5-51T347-1q0-84-7.5-122t-32-54-78.5-18V-1zM80.5-183q-31.5 13-41 51T30-1q0 84 7.5 121.5t31.5 53 79 18.5V-1q0-59 2-79t9.5-25 28.5-5h4v-86h-4q-76 0-107.5 13z"/><glyph glyph-name="uni2081" unicode="₁" horiz-adv-x="264" d="M97 62L30 37v99l110 52h79v-374H97V62z"/><glyph glyph-name="uni2082" unicode="₂" horiz-adv-x="367" d="M38-125q0 34 2.5 56.5T50-30Q58-12 72 .5T112 22l62 24q22 8 27.5 13.5T207 80v116q60-2 87-20 35-24 35-91 0-53-17.5-79.5T255-33l-75-23q-15-5-19-10t-4-19v-101H38v61zm7 308q31 5 77 10l48 3V99h-19q-35 0-70-5-24-4-36-5v94zM194-85h135v-101H194v101z"/><glyph glyph-name="uni2083" unicode="₃" horiz-adv-x="381" d="M47 183q48 8 78 10l46 3V99h-13q-47 0-75-4l-36-4v92zM211-68q0 20-6 25t-30 5h-67v81h67q22 0 27.5 4.5T208 71v124q67-5 95.5-30T332 93q0-35-13-55T277 6V2q29-9 44-29t15-57q0-50-25-75-28-28-100-34v125zM85-188q-25 4-40 7v92l42-4q32-4 77-4h10v-97q-41 0-89 6z"/><glyph glyph-name="uni2084" unicode="₄" horiz-adv-x="370" d="M19-44l120 232h125L90-120H19v76zm178-76h-65l49 86h20l36 76h74v-76h44v-86h-44v-72H197v72z"/><glyph glyph-name="uni2085" unicode="₅" horiz-adv-x="359" d="M213-71q0 17-4.5 25T192-35.5 154-33q-54 0-109-5v226h100V48q30 3 67 3 67 0 92.5-28.5T330-65q0-63-24.5-93T213-194v123zm-31 259h120v-87H182v87zM41-184v80q72-6 113-6 23 0 31 1v-87h-15q-62 0-129 12z"/><glyph glyph-name="uni2086" unicode="₆" horiz-adv-x="378" d="M222 106q-18 0-38-2v89h17q25 0 61-3t66-9V99q-77 7-106 7zM93.5-183.5Q60-171 43-130 30-98 30-2q0 81 14 120 11 32 36 49.5t67 22.5V-70q0-20 4.5-29t13-11 28.5-2h11v-84h-7q-70 0-103.5 12.5zM241-73q0 26-8.5 33T193-33h-9v79q18 5 45 5 64 0 93.5-23T352-63q0-64-23.5-94T241-194v121z"/><glyph glyph-name="uni2087" unicode="₇" horiz-adv-x="328" d="M19 188h289v-87H19v87zM170 64h119L179-192H51z"/><glyph glyph-name="uni2088" unicode="₈" horiz-adv-x="388" d="M64-170q-35 26-35 80 0 43 17 63T99 1v3q-34 7-50.5 28T32 93q0 45 26.5 69t90.5 29V73q0-17 3-24.5t12-10 30-2.5q30 0 37.5 6t7.5 31-7.5 31.5T194 111h-8v82h8q90 0 125.5-24T355 93q0-40-16-61T289 4V1q36-8 53-28t17-63q0-47-25.5-72.5T242-194v118q0 26-8.5 33T194-36t-39.5-7-8.5-33q0-25 9-31.5t39-6.5h12v-82h-12q-95 0-130 26z"/><glyph glyph-name="uni2089" unicode="₉" horiz-adv-x="378" d="M231 67q0 20-4.5 29t-13 11-28.5 2h-11v84h7q70 0 103.5-12.5T335 127q13-32 13-128 0-81-14-120-11-32-36-49.5T231-193V67zM55.5-31Q26-8 26 60q0 64 23.5 94t87.5 37V70q0-26 8.5-33t39.5-7h9v-79q-18-5-45-5-64 0-93.5 23zM116-193q-36 3-66 9v82q77-7 106-7 18 0 38 2v-89h-17q-25 0-61 3z"/><glyph glyph-name="uni2099" unicode="ₙ" horiz-adv-x="481" d="M284 10q0 41-1 54 0 4-1 13.5T279 92q-4 8-11.5 10t-23.5 2h-8v106q17 10 44 16t50 6q68 0 93-42 11-19 14.5-44.5T441 80v-245H284V10zM50 227h157v-392H50v392z"/><glyph glyph-name="colonmonetary" unicode="₡" horiz-adv-x="482" d="M72-7L99 95q-32 29-43 84T45 333q0 109 13.5 165.5t55 85T241 617l21 79h48L120-8H73zm264 499q-29 0-42-1l55 205h47l-21-81q23-2 38-6.5t20-5.5V486q-68 6-97 6zM159-7l70 262q2-36 12.5-53t31.5-22.5 63-5.5q51 0 101 8V62q-69-13-141-13-33 0-73 5L206-8h-47v1z"/><glyph glyph-name="franc" unicode="₣" horiz-adv-x="576" d="M65 688h200V0H65v101H0v63h65v524zm476 0V535H307v153h234zM307 404h197V251H307v153zm0-240h157v-63H307v63z"/><glyph glyph-name="lira" unicode="₤" horiz-adv-x="608" d="M41 462h76q4 87 29.5 137.5T230 673t162 23q42 0 89-5t77-13V533q-76 9-117 9-39 0-59.5-3T350 528q-13-9-19.5-25t-8.5-41h160v-96H41v96zm0-308h74v74H41v97h441v-97H321v-74h248V0H41v154z"/><glyph glyph-name="uni20A6" unicode="₦" horiz-adv-x="736" d="M275 688L661 29V0H462L75 660v28h200zm451-226v-96H512l-41 71v251h190V462h65zm-716 0h65v115l123-211H10v96zm255-210V0H75v225H10v96h215zm461-27h-65V112L539 321h187v-96z"/><glyph glyph-name="peseta" unicode="₧" horiz-adv-x="704" d="M699 509V400H5v109h75v179h200V509h149q-3 15-11 23-9 8-25 10.5t-47 2.5h-24v143h83q74 0 120.5-14.5T596 629q17-22 26-51t11-69h66zM80 356h200V0H80v356zm242 0h307q-6-44-31-77-25-32-71.5-48.5T405 214h-83v142z"/><glyph glyph-name="uni20A9" unicode="₩" horiz-adv-x="1006" d="M5 462h63L15 688h199l67-322H5v96zm603 226L772 0H601l-8 33-21 87-30 127q-19 77-36 151h-6l-34-151-11-51q-5-21-9.5-40t-8.5-36l-20-87-8-33h-11l-70 344 75 344h205zm393-226v-96H735l57 322h199l-32-134q-6-22-22-92h64zM356 0H178l-7 29q-7 28-18 78l-27 110-2 8H5v96h285zm645 225H881l-2-8q-19-77-26-110l-19-78-7-29h-12l-76 321h262v-96z"/><glyph glyph-name="dong" unicode="₫" horiz-adv-x="578" d="M576 687V538h-55V0H336v538H215v149h121v56h185v-56h55zM123.5 6Q95 19 78 48q-19 30-27.5 80T42 253q0 147 36 206 34 58 114 58 36 0 59-5.5t43-21.5V363h-11q-22 0-31.5-2.5T237 349q-5-11-6-32-1-15-1-62t1-62q1-21 6-31.5t16-12.5q14-2 30-2h11V20Q274 5 249.5-1T192-7q-40 0-68.5 13zM61-62h461v-87H61v87z"/><glyph glyph-name="Euro" unicode="€" horiz-adv-x="607" d="M30 462h70q6 68 22.5 112t48.5 71q33 27 85.5 39T388 696q66 0 128-10 31-5 49-10V533q-19 1-48 5-45 5-79 5-40 0-63.5-2.5T337 530q-15-9-23-24.5T303 462h213v-97H30v97zM256 4.5Q204 17 171 44q-32 27-48.5 71T100 228H30v97h486v-97H302q3-28 11-44.5t23-24.5q14-8 37-11t65-3q53 0 93 5 15 1 38 5V10Q521-1 461-5q-34-3-73-3-80 0-132 12.5z"/><glyph glyph-name="uni20AD" unicode="₭" horiz-adv-x="683" d="M65 688h200V0H65v290H5v119h60v279zM686 0H462L307 241v215l158 232h218L479 409h187V290H495z"/><glyph glyph-name="uni20B1" unicode="₱" horiz-adv-x="704" d="M80 688h200V476H5v96h75v116zm619-116v-96H432q-1 33-14 46-9 8-25 10.5t-47 2.5h-24v153h83q74 0 120.5-14.5T596 629q19-23 28-57h75zM280 0H80v335H5v96h275V0zm419 335h-74q-10-35-27-56-25-32-71.5-48.5T405 214h-83v153h24q32 0 47.5 2.5T418 381q7 7 10 18t4 32h267v-96z"/><glyph glyph-name="uni20B2" unicode="₲" horiz-adv-x="620" d="M249 75q-85 6-128 33.5T63 190 48 344q0 98 17 153t60 82.5T249 614v82h48V468q-21-4-31-16t-12.5-35.5T251 344q0-55 3.5-79t13-33 30.5-10V-8h-49v83zm123 396h-32v225h47v-81q81-6 154-21V458q-115 13-169 13zm-33-248q21 1 25.5 9.5T369 273v16h-56v104h255V283q0-78-10-118t-48.5-63T387 74V-8h-48v231z"/><glyph glyph-name="uni20B5" unicode="₵" horiz-adv-x="469" d="M271 468l32 115 30 113h48l-23-85q41-6 62-12V466q-42 7-102 7-32 0-47-5zm153-249V86q-91-18-158-18-30 0-54 3L191-8h-47l-1 1 23 86q-50 14-76 46t-35.5 83T45 341q0 105 17.5 162t57.5 82 114 29V404q0-98 5-135t21-47.5 59-10.5q45 0 105 8z"/><glyph glyph-name="uni20B9" unicode="₹" horiz-adv-x="608" d="M491 592q10-24 11-45h90v-96H16v96h286q-1 24-13 34-8 7-23.5 9t-48.5 2H16v96h576v-96H491zm-36-306.5Q429 264 387 257L521 0H311L183 234v153h319q-3-27-11-51-10-29-36-50.5z"/><glyph glyph-name="uni20BA" unicode="₺" horiz-adv-x="604" d="M267 455L10 306v58l65 37v287h200V516l116 67v-57l-116-67zm8-111V0H75v229l-65-38v58l381 219v-57zm309-93q0-60-10-104.5T537 70q-31-36-83.5-54T317-2v164q59 0 82 26 8 10 10 24.5t2 38.5h173z"/><glyph glyph-name="uni20BC" unicode="₼" horiz-adv-x="698" d="M642 453.5q9-55.5 9-147.5V0H447v286q0 71-2 101.5T435 435q-7 15-22 21.5t-42 7.5V151h-48v545h48v-78q93-2 148.5-20t84.5-54q29-35 38-90.5zM142 583q41 22 109 30V0H47v306q0 80 6.5 131T80 523q21 38 62 60z"/><glyph glyph-name="uni20BD" unicode="₽" horiz-adv-x="645" d="M65 688h200V214H0v63h65v411zm547-129.5q8-42.5 8-107.5 0-62-7.5-103T583 279q-25-32-71.5-48.5T390 214h-83v153h24q32 0 47.5 2.5T403 381q9 8 11.5 23.5T417 451t-2.5 46.5T403 522q-9 8-25 10.5t-47 2.5h-24v153h83q74 0 120.5-14.5T581 629q23-28 31-70.5zM265 0H65v101H0v63h265V0zm42 164h157v-63H307v63z"/><glyph glyph-name="uni2113" unicode="ℓ" horiz-adv-x="631" d="M530 396.5Q484 320 381 260l-39-22v170q30 23 41.5 49.5T395 521q0 39-2 57t-11.5 28-30.5 10h-8v140q119-1 176-41.5T576 572q0-99-46-175.5zM482 128l8-121Q443 0 375-4.5T271-9q-73 0-112 39t-41 101l-50-22-43 128q62 30 93 46v294q0 82 39.5 128T302 754l-1-524v-36q0-34 9-50t40-16h132z"/><glyph glyph-name="uni2116" unicode="№" horiz-adv-x="1118" d="M65 660v28h200L631 29V0H432zm376-203v231h190V112zM65 577l190-345V0H65v577zm869-157q-1 18-5 27t-12 12q-12 2-24 2h-4v103h4q64 0 99.5-10t53.5-33q16-21 20.5-54.5t4.5-95.5q0-58-3.5-89t-15.5-52q-14-23-42-34.5T934 181v239zM793.5 190Q758 200 741 222q-17 21-21.5 54t-4.5 95q0 56 4 88t16 53q14 23 41 35t76 15V371q0-37 1-48 0-18 4-27t13-11q10-2 23-2h4V180h-4q-64 0-99.5 10zM728 130h335V1H728v129z"/><glyph glyph-name="uni2117" unicode="℗" horiz-adv-x="754" d="M84 547q9 62 37 94 29 33 86.5 44T377 696q75 0 123-4.5t80-15.5q33-13 52.5-35.5T663 581q10-34 13-84t3-133h-73q0 69-2.5 112t-8.5 71q-7 29-21.5 45T534 616q-22 7-55.5 9T377 627q-67 0-100.5-2t-56.5-9q-26-8-40-24t-21-45q-7-27-9-68.5T148 364H75q0 121 9 183zm157-20h107V160H241v367zm144-171q23 0 33 3t13 11.5 3 30.5q0 32-8 38t-41 6v82h41q72 0 96-30 11-15 15.5-37.5T542 401q0-44-8.5-69T509 294q-15-12-36.5-15.5T416 275h-31v81zM208 3.5Q150 15 121 48q-28 32-37 93.5T75 324h73q0-73 2-114.5t9-68.5q7-29 21-45t40-24q23-7 56.5-9T377 61t101 2 56 9q25 8 39.5 24t21.5 45q6 28 8.5 70.5T606 324h73q0-121-9-182.5T633 48q-29-33-87-44.5T377-8 208 3.5z"/><glyph glyph-name="trademark" unicode="™" horiz-adv-x="820" d="M65 688h279v-84H65v84zm316-13v13h91l143-267-17-33h-64zm281-161h-4l-32-71-43 81 78 164h94V388h-93v126zM381 632l91-171v-73h-91v244zm-226-48h99V388h-99v196z"/><glyph glyph-name="uni2126" unicode="Ω" horiz-adv-x="698" d="M393 148q16 4 26 14t16 31q12 45 12 171 0 71-2 101.5T435 513q-9 17-28.5 23.5T349 543q-40 0-56-6v157q34 2 56 2 103 0 163.5-17.5T604 622q29-35 38-90.5t9-147.5q0-101-36.5-166T514 124v-7l121 37h16V0H393v148zm-346 6h16l121-37v7q-65 29-101 93.5T47 384q0 80 6.5 131T80 601q21 38 62 60t109 30V364q0-126 12-171 6-21 16-31t26-14V0H47v154z"/><glyph glyph-name="estimated" unicode="℮" horiz-adv-x="645" d="M575 296v-44H263v44h166v102q0 46-27 63.5T325 479q-38 0-62-8v47q30 6 62 6 63 0 117.5-25.5t90-77T574 296h1zM432 53q41 21 86 74l22-22Q455-12 325-12q-73 0-130.5 31t-91 91.5T70 256q0 92 38.5 155T214 502l-1-388q0-82 118-82 60 0 101 21z"/><glyph glyph-name="partialdiff" unicode="∂" horiz-adv-x="572" d="M342 254q0 51-1 68-1 24-6 36.5T319 374q-12 3-33 3h-14v137q22-2 39-6l2 3q-25 72-65.5 126T150 739v4h195q44-38 77-80.5t57-96.5q51-121 51-312 0-79-4.5-122.5T504 60q-19-31-57-46.5T342-6v260zM150 5q-49 13-73 44-22 28-28.5 74T42 254q0 74 5.5 120T70 451q18 34 52.5 50.5T216 518h14V254q0-51 1-67 1-24 6-36t17-15q10-3 32-3h14V-8h-14Q199-8 150 5z"/><glyph glyph-name="emptyset" unicode="∅" horiz-adv-x="681" d="M572 524q11-30 14-72t3-108q0-72-4-116.5T567 153q-31-66-167-77v268q0 37-1 48v26q0 33-8 49t-25 19-51 3v126h24q80 0 129-10l84 84 92-93zM288.5 220.5Q295 205 312 202t51-3V72h-24q-77 0-127 11L130 0 38 93l69 69q-6 18-8 28-7 30-8.5 59.5T89 344q0 72 4 116t18 75q28 62 167 77V344q0-28 2-74 2-34 8.5-49.5z"/><glyph glyph-name="uni2206" unicode="∆" horiz-adv-x="687" d="M221 688h17l79-274L202 0H2zm66-534h149L283 688h183L685 0H245z"/><glyph glyph-name="product" unicode="∏" horiz-adv-x="716" d="M65 688h586V535H65v153zm0-193h200v-684H65v684zm386 0h200v-684H451v684z"/><glyph glyph-name="summation" unicode="∑" horiz-adv-x="716" d="M65 539v149h586V535l-582-1zm0-579l266 289-225 245h234l225-245-403-438H65v149zm295 4h291v-153H219z"/><glyph glyph-name="minus" unicode="−" horiz-adv-x="540" d="M70 320h400V186H70v134z"/><glyph glyph-name="uni2215" unicode="∕" horiz-adv-x="446" d="M389 688h117L57 0H-60z"/><glyph glyph-name="uni2219" unicode="∙" horiz-adv-x="530" d="M164 381h202V218H164v163z"/><glyph glyph-name="radical" unicode="√" horiz-adv-x="774" d="M398 119l165 651h164L503-93zm-272 87l-61-26-34 87 201 91 230-464H281z"/><glyph glyph-name="infinity" unicode="∞" horiz-adv-x="1037" d="M167 47.5Q121 62 94 91q-26 27-37 67.5T46 256q0 30 3 57h141q-10-20-10-57 0-54 24-75 23-22 90-22t108 31q16 12 26.5 27.5T450 256q-12 23-22.5 39T402 323q-40 30-108 30H57q18 64 69 93 57 33 158 33 92 0 152-37 52-32 83-86 31 54 84 86 61 37 152 37 71 0 116.5-14.5T945 421q25-27 35.5-67.5T991 256q0-31-3-57H847q10 19 10 57 0 54-22 76-24 21-90 21-68 0-108-30-16-12-27-28.5T589 256q10-22 21-38t27-28q41-31 108-31h235q-17-64-67-94-55-32-158-32-88 0-152 37-52 30-84 86-32-56-83-86-62-37-152-37-71 0-117 14.5z"/><glyph glyph-name="integral" unicode="∫" horiz-adv-x="469" d="M40-62q78 0 100 6 13 3 18 11t5 24v11l-1 8-40 476q-3 33-3 60 0 60 15.5 92.5T186 675q33 14 86 17.5t157 3.5V568q-77 0-99-6-13-4-18.5-12.5T306 526v-8q0-7 1-10l40-476q3-33 3-60 0-60-15.5-92.5T283-168q-34-14-87-18t-156-4v128z"/><glyph glyph-name="approxequal" unicode="≈" horiz-adv-x="497" d="M49 335q2 24 11 42 18 40 87 40 39 0 105-14l46-9q23-5 36-5 16 0 19.5 8t3.5 32h93q0-45-2-69t-10-42q-20-41-88-41-39 0-105 14 4-1-46 10-19 4-36 4-16 0-19.5-7.5T140 265H47q0 46 2 70zm0-187q2 24 11 42 18 40 87 40 39 0 105-14l46-9q23-5 36-5 16 0 19.5 8t3.5 32h93q0-45-2-69t-10-42q-20-41-88-41-39 0-105 14 4-1-46 10-19 4-36 4-16 0-19.5-7.5T140 78H47q0 46 2 70z"/><glyph glyph-name="notequal" unicode="≠" horiz-adv-x="540" d="M131 86H70v134h123l31 66H70v134h217l42 90h113l-42-90h70V286H337l-31-66h164V86H244L204 0H91z"/><glyph glyph-name="lessequal" unicode="≤" horiz-adv-x="541" d="M322 226l-52 19q-25 9-32 11l-42 15-109 39-17 6v132l400 142V456l-235-74 235-74V174zM70 134h400V0H70v134z"/><glyph glyph-name="greaterequal" unicode="≥" horiz-adv-x="541" d="M70 308l236 74-236 74v134l401-142V316l-19-7-44-15q-6-3-12-4.5t-11-3.5q-8-3-18.5-6.5T344 271q-10-4-45-16l-28-10-201-71v134zm0-174h401V0H70v134z"/><glyph glyph-name="lozenge" unicode="◊" horiz-adv-x="540" d="M293 160l88 184-166 344h122l26-54 27-55q10-21 32-63l86-172-61-123q-16-34-25-51l-26-51q-31-65-42-85zM32 344l153 309 61-127-87-182L324 0H203z"/><glyph glyph-name="uni27E8" unicode="⟨" horiz-adv-x="513" d="M55 274l282 406h121L207 274l251-405H337z"/><glyph glyph-name="uni27E9" unicode="⟩" horiz-adv-x="513" d="M55-131l251 405L55 680h121l282-406-282-405H55z"/><glyph glyph-name="uniE0FF" unicode="" horiz-adv-x="600"/><glyph glyph-name="uniEFFD" unicode="" horiz-adv-x="600"/><glyph glyph-name="uniF000" unicode="" horiz-adv-x="600"/><glyph glyph-name="uniF8FF" unicode="" horiz-adv-x="841" d="M72 698h697V0H72v698zm432-549q37 14 63 39 51 50 51 128v66q0 37-13 70.5T567 510q-26 25-63 39t-82 14q-90 0-145-53-25-25-39-58t-14-70v-66q0-77 53-128 55-53 145-53 45 0 82 14zm-126 98.5Q360 265 360 290v118q0 25 18 42.5t44 17.5 43.5-17.5T483 408V290q0-25-17.5-42.5T422 230t-44 17.5z"/><glyph glyph-name="uniFEFF"/><glyph glyph-name="Yacute.loclGUA" horiz-adv-x="633" d="M216 227l-9 20-26 51-25 53q-4 7-10 21l-41 85L-5 688h204l217-462V0H216v227zm129 248l93 213h200l-78-162-33-68-63-131-25-52zm-89 281l88 142h183v-5L392 751H256v5z"/><glyph glyph-name="Ycircumflex.loclGUA" horiz-adv-x="633" d="M216 227l-9 20-26 51-25 53q-4 7-10 21l-41 85L-5 688h204l217-462V0H216v227zm129 248l93 213h200l-78-162-33-68-63-131-25-52zM148 758l91 139h175l91-139v-8H382l-55 75-56-75H148v8z"/><glyph glyph-name="Ydieresis.loclGUA" horiz-adv-x="633" d="M216 227l-9 20-26 51-25 53q-4 7-10 21l-41 85L-5 688h204l217-462V0H216v227zm129 248l93 213h200l-78-162-33-68-63-131-25-52zM145 870h153V751H145v119zm208 0h153V751H353v119z"/><glyph glyph-name="Ygrave.loclGUA" horiz-adv-x="633" d="M216 227l-9 20-26 51-25 53q-4 7-10 21l-41 85L-5 688h204l217-462V0H216v227zm129 248l93 213h200l-78-162-33-68-63-131-25-52zM125 893v5h183l88-142v-5H260z"/><glyph glyph-name="uni0232.loclGUA" horiz-adv-x="633" d="M216 227l-9 20-26 51-25 53q-4 7-10 21l-41 85L-5 688h204l217-462V0H216v227zm129 248l93 213h200l-78-162-33-68-63-131-25-52zM184 900h285V751H184v149z"/><glyph glyph-name="uni1EF8.loclGUA" horiz-adv-x="633" d="M216 227l-9 20-26 51-25 53q-4 7-10 21l-41 85L-5 688h204l217-462V0H216v227zm129 248l93 213h200l-78-162-33-68-63-131-25-52zM126 821q2 24 11 42 10 20 30.5 30t56.5 10q47 0 105-14 14-3 25.5-5t20.5-4q23-5 36-5 16 0 19.5 8t3.5 32h93q0-45-2-69t-10-42q-19-41-88-41-47 0-105 14l-46 10q-19 4-36 4-16 0-19.5-7.5T217 751h-93q0 46 2 70z"/><glyph glyph-name="Cacute.loclPLK" horiz-adv-x="568" d="M293 695q8 1 25 1h26q67 0 131-10 33-5 51-10V533q-15 1-50 5-47 5-82 5-39 0-62.5-2.5T293 532v163zM185.5 9.5Q127 27 97 68q-29 39-39.5 103.5T47 344q0 95 7.5 154T82 597q21 41 61.5 63.5T251 691V344q0-56 2-108 2-40 15.5-60t42.5-25q28-6 83-6 57 0 97 5 16 1 39 5V10Q481-1 419-5q-34-3-75-3Q244-8 185.5 9.5zM261 756l33 174h172v-5l-76-174H261v5z"/><glyph glyph-name="Nacute.loclPLK" horiz-adv-x="716" d="M65 660v28h200L651 29V0H452zm396-223v251h190V112zM65 577l190-325V0H65v577zm224 179l88 142h183v-5L425 751H289v5z"/><glyph glyph-name="Oacute.loclPLK" horiz-adv-x="698" d="M447 344q0 87-1 114-2 41-11 59.5T406 540q-20 3-57 3-43 0-56-4v156q9 1 27 1h29q112 0 173.5-17.5T612 621q26-37 32.5-97t6.5-180q0-105-4.5-161.5T624 89q-20-42-61.5-64T447-4v348zM139 24q-33 16-52 43t-28 67q-8 35-10 80.5T47 344q0 105 4.5 161T74 599q20 41 61 63t116 30V344q0-59 2-113 2-41 10.5-60t28.5-22q17-4 57-4 41 0 56 3V-7q-9-1-27-1h-29Q203-8 139 24zm157 732l33 174h172v-5l-76-174H296v5z"/><glyph glyph-name="Sacute.loclPLK" horiz-adv-x="612" d="M423 541q-46 2-74 2-36 0-68-2v155h25q82 0 170-11 28-4 63-11V530q-33 4-116 11zm-49-338q0 21-3 30.5t-10 13-24 5.5l-123 15q-109 12-147 71-17 25-23 61t-6 88q0 111 57 160 46 40 144 47V493q0-13 1-22t4-14q3-6 10-8.5t21-3.5l138-17q43-6 70-15t46-28q45-47 45-167 0-127-56-178-25-23-60.5-33.5T374-7v210zM135 1Q84 6 58 11v146q59-5 135-10 48-2 68-2 54 0 71 3V-8h-11Q221-8 135 1zm125 755l33 174h172v-5l-76-174H260v5z"/><glyph glyph-name="Zacute.loclPLK" horiz-adv-x="618" d="M51 688h527V546l-8-11H51v153zM40 147l258 348h242L172 0H40v147zm298 6h240V0H224zm-91 603l88 142h183v-5L383 751H247v5z"/><glyph glyph-name="i.loclTRK" horiz-adv-x="299" d="M57 510h185V0H57v510zm14 220h153V611H71v119z"/><glyph glyph-name="yacute.loclGUA" horiz-adv-x="588" d="M81 58q-14 24-19 58.5T57 201v309h185V279q0-53 1-70 2-26 6-36 4-11 13-13.5t32-2.5h10V33Q264 3 202 3 112 3 81 58zm68-258l-58 6v129h134q36 0 70 2 24 2 35.5 9.5T344-28q2 24 2 51v487h185V56q0-80-6.5-124T495-141q-26-33-79-49t-145-16q-52 0-122 6zm72 801l88 142h183v-5L357 596H221v5z"/><glyph glyph-name="ycircumflex.loclGUA" horiz-adv-x="588" d="M81 58q-14 24-19 58.5T57 201v309h185V279q0-53 1-70 2-26 6-36 4-11 13-13.5t32-2.5h10V33Q264 3 202 3 112 3 81 58zm68-258l-58 6v129h134q36 0 70 2 24 2 35.5 9.5T344-28q2 24 2 51v487h185V56q0-80-6.5-124T495-141q-26-33-79-49t-145-16q-52 0-122 6zm-28 804l91 139h175l91-139v-8H355l-56 75-55-75H121v8z"/><glyph glyph-name="ydieresis.loclGUA" horiz-adv-x="588" d="M81 58q-14 24-19 58.5T57 201v309h185V279q0-53 1-70 2-26 6-36 4-11 13-13.5t32-2.5h10V33Q264 3 202 3 112 3 81 58zm68-258l-58 6v129h134q36 0 70 2 24 2 35.5 9.5T344-28q2 24 2 51v487h185V56q0-80-6.5-124T495-141q-26-33-79-49t-145-16q-52 0-122 6zm-30 930h153V611H119v119zm208 0h153V611H327v119z"/><glyph glyph-name="ygrave.loclGUA" horiz-adv-x="588" d="M81 58q-14 24-19 58.5T57 201v309h185V279q0-53 1-70 2-26 6-36 4-11 13-13.5t32-2.5h10V33Q264 3 202 3 112 3 81 58zm68-258l-58 6v129h134q36 0 70 2 24 2 35.5 9.5T344-28q2 24 2 51v487h185V56q0-80-6.5-124T495-141q-26-33-79-49t-145-16q-52 0-122 6zm-41 938v5h183l88-142v-5H243z"/><glyph glyph-name="uni0233.loclGUA" horiz-adv-x="588" d="M81 58q-14 24-19 58.5T57 201v309h185V279q0-53 1-70 2-26 6-36 4-11 13-13.5t32-2.5h10V33Q264 3 202 3 112 3 81 58zm68-258l-58 6v129h134q36 0 70 2 24 2 35.5 9.5T344-28q2 24 2 51v487h185V56q0-80-6.5-124T495-141q-26-33-79-49t-145-16q-52 0-122 6zm9 942h285V593H158v149z"/><glyph glyph-name="uni1EF9.loclGUA" horiz-adv-x="588" d="M81 58q-14 24-19 58.5T57 201v309h185V279q0-53 1-70 2-26 6-36 4-11 13-13.5t32-2.5h10V33Q264 3 202 3 112 3 81 58zm68-258l-58 6v129h134q36 0 70 2 24 2 35.5 9.5T344-28q2 24 2 51v487h185V56q0-80-6.5-124T495-141q-26-33-79-49t-145-16q-52 0-122 6zm-48 849q2 24 11 42 10 20 30.5 30t56.5 10q47 0 105-14 14-3 25.5-5t20.5-4q23-5 36-5 16 0 19.5 8t3.5 32h93q0-45-2-69t-10-42q-19-41-88-41-47 0-105 14l-46 10q-19 4-36 4-16 0-19.5-7.5T192 579H99q0 46 2 70z"/><glyph glyph-name="cacute.loclPLK" horiz-adv-x="465" d="M388 373q-25 4-72 4-31 0-44-4v145q71-1 147-18V370zM141 11Q95 30 73 67q-20 32-25.5 75T42 254q0 63 5 105t21 74q19 37 57.5 57.5T230 516V255q0-44 2.5-66t10.5-34q9-12 25.5-17t47.5-5q53 0 73 3l34 4V10Q349-8 265-8q-78 0-124 19zm63 590l33 174h172v-5l-76-174H204v5z"/><glyph glyph-name="nacute.loclPLK" horiz-adv-x="588" d="M346 241q0 53-1 70-2 28-5 37-4 10-14 12.5t-32 2.5h-10v125q39 29 102 29 90 0 121-55 14-24 19-58.5t5-84.5V0H346v241zM57 510h185V0H57v510zm191 91l33 174h172v-5l-76-174H248v5z"/><glyph glyph-name="oacute.loclPLK" horiz-adv-x="572" d="M342 254q0 51-1 68-1 24-6 36.5T319 374q-12 3-33 3h-14v141h14q87 0 136-13.5t73-44.5q22-28 28.5-74.5T530 254q0-79-4.5-122.5T504 60q-19-31-57-46.5T342-6v260zM150 5q-49 13-73 44-22 28-28.5 74T42 254q0 78 5 122t22 73q18 32 56 47.5T230 516V254q0-51 1-67 1-24 6-36t17-15q10-3 32-3h14V-8h-14Q199-8 150 5zm61 596l88 142h183v-5L347 596H211v5z"/><glyph glyph-name="sacute.loclPLK" horiz-adv-x="498" d="M383 376q-62 6-100 6h-33v136q71 0 135-10l50-9V371q-19 1-52 5zm-93-221q0 15-5 19t-21 6l-108 15q-40 6-64.5 19T55 249q-12 19-16 46t-4 67q0 82 49 120 41 30 124 35V360q0-15 4-19.5t25-7.5l120-16q26-3 45-10.5t32-22.5q29-32 29-123 0-96-49-134Q371-5 290-7v162zM108 2l-57 9v128q40-4 108-8 38-2 54-2h35V-8Q168-7 108 2zm87 599l33 174h172v-5l-76-174H195v5z"/><glyph glyph-name="zacute.loclPLK" horiz-adv-x="534" d="M45 133l212 236H57v141h430V377L149 0H45v133zm286 8h158V0H205zM215 601l33 174h172v-5l-76-174H215v5z"/><glyph glyph-name="zero.lf" horiz-adv-x="660" d="M409 344q0 87-1 114-2 42-8 59-7 17-21.5 21.5T330 543q-15 0-37-2v154q6 1 18 1h19q105 0 162-17.5t84-57.5q25-37 31-97t6-180q0-108-4.5-164T586 86q-20-42-61.5-63.5T409-5v349zM168.5 9.5Q111 27 84 68q-25 37-31 96t-6 180q0 108 4.5 164T74 602q20 42 61.5 63.5T251 693V344q0-86 1-113 2-40 9-60 7-17 21-21.5t48-4.5h20q7 0 17 2V-7q-6-1-18-1h-19Q226-8 168.5 9.5z"/><glyph glyph-name="one.lf" horiz-adv-x="402" d="M137 487L10 439v156l194 93h133V0H137v487z"/><glyph glyph-name="two.lf" horiz-adv-x="614" d="M61 671q127 28 262 25V540q-19 3-79 3-49 0-121-8l-62-8v144zM47 101q0 65 4 105t17 69q14 31 39.5 53.5T177 369l117 47q22 9 38 16.5t22 14.5q7 7 9 16.5t2 27.5v204q48-3 82.5-11.5T507 656q58-45 58-156 0-96-32-143-30-45-98-70l-142-55q-18-7-29.5-13T247 207t-6-16-1-33V0H47v101zm235 55h283V0H282v156z"/><glyph glyph-name="three.lf" horiz-adv-x="610" d="M51 672q118 24 226 24 23 0 34-1V540q-24 3-65 3-25 0-71-2L51 529v143zm308-465q0 22-3.5 34.5T343 261q-15 10-67 10H166v153h110q26 0 41 2t23 8 10.5 16.5T353 483v209q108-11 156-54.5T557 515q0-73-28.5-110T438 353v-4q65-15 93-47 32-38 32-118 0-84-40-127Q477 8 359-4v211zM157-.5Q86 7 47 16v143q121-14 216-14 22 0 54 2V-7q-10-1-34-1-55 0-126 7.5z"/><glyph glyph-name="four.lf" horiz-adv-x="654" d="M30 269l224 419h218L161 133H30v136zm319-136H209l86 153h55l75 137h120V286h84V133h-84V0H349v133z"/><glyph glyph-name="five.lf" horiz-adv-x="628" d="M377 215q0 26-3.5 39.5T359 275t-30 9.5-55 2.5q-66 0-140-6-47-4-61-5v412h169V434l33 3q69 3 98 3 119 0 168-57 22-26 31-63.5t9-89.5q0-59-9-99t-31-68-62.5-44.5T377-4v219zm-93 473h246V533H284v155zM166.5-1Q107 6 65 16v143q115-13 200-13 47 0 70 2V-7q-16-1-48-1-61 0-120.5 7z"/><glyph glyph-name="six.lf" horiz-adv-x="662" d="M521 534q-103 9-134 9-36 0-58-2.5T293 530v165q15 1 46 1 61 0 125.5-7T577 672V529zM232.5-4Q190 0 160 11q-34 12-55.5 36T71 109q-24 73-24 235 0 96 9 158.5T87 604q22 40 61 60t103 27V222q0-29 4.5-44t14.5-23q9-7 22.5-8.5T334 145h25q8 0 20 2V-7q-6-1-18-1h-19q-67 0-109.5 4zM421 215q0 25-4 39.5T404 276t-24.5 9-45.5 2q-24 0-41-3v135q44 21 106 21 58 0 96-6.5t64-26.5q28-22 42-64t14-109q0-62-9-104t-29-70q-22-28-60-44T421-5v220z"/><glyph glyph-name="seven.lf" horiz-adv-x="576" d="M31 688h515V547l-6-14H31v155zm283-195h208L308 0H89z"/><glyph glyph-name="eight.lf" horiz-adv-x="676" d="M104 43q-31 24-44 58.5T47 184q0 80 32 118 28 32 93 47v4q-62 15-90.5 52T53 515q0 82 44 122 50 45 160 55V483q0-25 2.5-37.5T271 427q8-6 23-8.5t44-2.5 44 2.5 24 8.5q8 6 10.5 18.5T419 483q0 24-2.5 37T406 540t-23 9-45 2h-21q-8 0-18-2v146q6 1 19 1h20q160 0 225-46 32-23 46-55.5t14-79.5q0-73-28.5-110T504 353v-4q65-15 93-47 32-38 32-118 0-41-9.5-72.5T588 57Q540 7 425-4v211q0 25-4 39.5T408 268t-24.5 9-45.5 2-45.5-2-24.5-9-13-21.5-4-39.5q0-24 3.5-37.5T268 149q9-7 25-9.5t45-2.5h25q8 0 20 2V-7q-7-1-22-1h-23Q170-8 104 43z"/><glyph glyph-name="nine.lf" horiz-adv-x="662" d="M411 466q0 29-4.5 44.5T392 534q-9 7-21.5 8t-42.5 1h-25q-8 0-20-2v154q6 1 18 1h19q99 0 152.5-10.5T557 642q32-35 45-104.5T615 344q0-97-8.5-158.5T576 85q-22-40-61.5-60.5T411-3v469zM167 255q-38 7-63 27-28 22-42.5 63.5T47 454q0 62 9 104.5T86 629t58 43.5 97 20.5V473q0-25 4-39t13-21 25-9.5 45-2.5q25 0 41 3V269q-44-21-106-21-58 0-96 7zM218-1.5Q142 5 85 16v143q48-5 105.5-9.5T275 145q36 0 58 2.5t36 10.5V-7q-75-1-151 5.5z"/><glyph glyph-name="zero.osf" horiz-adv-x="660" d="M409 233q0 26-1 53-2 42-8 59-7 17-21.5 21.5T330 371q-15 0-37-2v154q6 1 18 1h19q105 0 162-17.5t84-57.5q23-35 30-85t7-106q0-115-27-172-20-42-61.5-63.5T409-5v238zM168.5 9.5Q111 27 84 68q-24 35-30.5 84T47 258q0 115 27 172 20 42 61.5 63.5T251 521V282q0-24 1-51 2-40 9-60 7-17 21-21.5t48-4.5h20q7 0 17 2V-7q-6-1-18-1h-19Q226-8 168.5 9.5z"/><glyph glyph-name="one.osf" horiz-adv-x="402" d="M137 315L10 267v156q42 21 111.5 54.5T204 516h133V0H137v315z"/><glyph glyph-name="two.osf" horiz-adv-x="584" d="M61 499q125 25 232 25V368q-12 2-25 2.5t-34 .5q-22 0-47-2t-34-3l-30-3q-24-2-62-8v144zM47 85q0 81 28.5 127.5T177 291l87 37q7 3 23 10t24.5 11.5T324 359q7 7 9 16.5t2 27.5v120q99 0 149.5-33.5T535 392q0-53-12-86.5T483.5 249 405 207l-132-49q-16-6-23-14t-8.5-23.5T240 68V0H47v85zm235 40h243V0H282v125z"/><glyph glyph-name="three.osf" horiz-adv-x="570" d="M51 500q51 11 110.5 17.5T271 523V368q-24 3-45 3-25 0-71-2-26-2-41.5-4T89 362l-38-5v143zM319 55q0 22-3.5 34.5T303 109q-15 10-67 10h-90v153h90q26 0 41 2t23 8 10.5 16.5T313 331v189q108-11 156-54.5T517 343q0-65-28-96t-91-46v-4q65-15 93-47 18-21 25-40t7-58q0-84-40-127-46-49-164-61V55zM137.5-134.5Q96-129 47-116V27q87-14 170-14 22 0 60 2v-154q-7-1-20-1h-21q-57 0-98.5 5.5z"/><glyph glyph-name="four.osf" horiz-adv-x="614" d="M30 136l204 419h218L161 0H30v136zM309 0H209l81 153h25l70 137h120V153h84V0h-84v-133H309V0z"/></font>
</defs>
</svg>
