<?xml version="1.0" standalone="no"?>
<!DOCTYPE svg PUBLIC "-//W3C//DTD SVG 1.1//EN" "http://www.w3.org/Graphics/SVG/1.1/DTD/svg11.dtd" >
<svg xmlns="http://www.w3.org/2000/svg" xmlns:xlink="http://www.w3.org/1999/xlink" version="1.1">
<metadata>
Created by FontForge 20170731 at Thu Sep 26 23:09:26 2019
 By Aleksey,,,
Copyright 2015 Google Inc. All Rights Reserved.
</metadata>
<defs>
<font id="NotoSansMono-Regular" horiz-adv-x="600" >
  <font-face 
    font-family="Noto Sans Mono"
    font-weight="400"
    font-stretch="normal"
    units-per-em="1000"
    panose-1="2 11 5 9 4 5 4 2 2 4"
    ascent="800"
    descent="-200"
    x-height="536"
    cap-height="714"
    bbox="-616 -389 1800 1229"
    underline-thickness="50"
    underline-position="-175"
    unicode-range="U+000D-1F67F"
  />
<missing-glyph horiz-adv-x="364" 
d="M33 0v666h265v-666h-265zM66 33h199v600h-199v-600z" />
    <glyph glyph-name=".notdef" horiz-adv-x="364" 
d="M33 0v666h265v-666h-265zM66 33h199v600h-199v-600z" />
    <glyph glyph-name=".null" horiz-adv-x="0" 
 />
    <glyph glyph-name="nonmarkingreturn" horiz-adv-x="333" 
 />
    <glyph glyph-name="NULL" horiz-adv-x="0" 
 />
    <glyph glyph-name="CR" unicode="&#xd;" 
 />
    <glyph glyph-name="space" unicode=" " 
 />
    <glyph glyph-name="exclam" unicode="!" 
d="M262 202l-16 512h109l-16 -512h-77zM300 -10q-26 0 -44 16t-18 52q0 38 18 53t44 15t44 -15t18 -53q0 -36 -18 -52t-44 -16z" />
    <glyph glyph-name="quotedbl" unicode="&#x22;" 
d="M365 456l-20 258h95l-20 -258h-55zM180 456l-20 258h95l-20 -258h-55z" />
    <glyph glyph-name="numbersign" unicode="#" 
d="M101 0l38 209h-119v67h132l32 160h-127v66h139l40 212h72l-40 -212h124l40 212h69l-40 -212h119v-66h-132l-31 -160h129v-67h-142l-41 -209h-71l41 209h-123l-39 -209h-70zM223 276h123l31 160h-123z" />
    <glyph glyph-name="dollar" unicode="$" 
d="M263 -58v92q-50 1 -95.5 9.5t-77.5 23.5v85q34 -16 80.5 -28t92.5 -13v217q-91 29 -137 70t-46 117q0 75 49.5 120t133.5 51v73h64v-72q50 -1 90 -11.5t76 -25.5l-27 -74q-32 13 -67 22.5t-72 12.5v-216q64 -19 107 -40.5t64.5 -55t21.5 -87.5q0 -70 -50.5 -116.5
t-142.5 -57.5v-96h-64zM263 417v192q-50 -4 -73.5 -29.5t-23.5 -64.5q0 -38 21 -60.5t76 -37.5zM327 116q56 7 81.5 32.5t25.5 65.5q0 38 -22.5 57.5t-84.5 35.5v-191z" />
    <glyph glyph-name="percent" unicode="%" 
d="M142 383q-61 0 -101.5 44.5t-40.5 125.5t38.5 125t105.5 44q61 0 101.5 -44t40.5 -125t-39 -125.5t-105 -44.5zM83 0l356 714h77l-356 -714h-77zM143 441q34 0 51 27t17 85q0 59 -17 84.5t-51 25.5t-51.5 -25.5t-17.5 -84.5q0 -58 17.5 -85t51.5 -27zM456 -9
q-61 0 -101.5 44.5t-40.5 125.5t38.5 125t105.5 44q61 0 101.5 -44t40.5 -125t-39 -125.5t-105 -44.5zM457 49q34 0 51 27t17 85q0 59 -17 84.5t-51 25.5t-51.5 -25.5t-17.5 -84.5q0 -58 17.5 -85t51.5 -27z" />
    <glyph glyph-name="ampersand" unicode="&#x26;" 
d="M224 -10q-89 0 -137 53t-48 133q0 51 18 90t47.5 70t65.5 58q-28 40 -49.5 86.5t-21.5 97.5q0 66 40 106.5t110 40.5t110 -40.5t40 -104.5q0 -44 -18 -79.5t-46.5 -65t-59.5 -54.5l140 -174q19 35 31.5 71.5t17.5 70.5h83q-10 -57 -30 -110.5t-48 -98.5l112 -140h-107
l-58 74q-39 -39 -87 -61.5t-105 -22.5zM181 576q0 -34 14 -70.5t35 -66.5q32 25 60 60t28 81q0 36 -19 56t-50 20t-49.5 -21t-18.5 -59zM125 181q0 -48 29 -81t80 -33q39 0 72.5 19.5t61.5 50.5l-152 196q-36 -30 -63.5 -66t-27.5 -86z" />
    <glyph glyph-name="quotesingle" unicode="'" 
d="M272 456l-20 258h95l-20 -258h-55z" />
    <glyph glyph-name="parenleft" unicode="(" 
d="M347 -158q-76 88 -111.5 199.5t-35.5 232.5q0 122 35.5 235.5t111.5 204.5h83q-70 -94 -105.5 -207t-35.5 -232q0 -116 35.5 -227.5t104.5 -205.5h-82z" />
    <glyph glyph-name="parenright" unicode=")" 
d="M253 714q76 -88 111.5 -199.5t35.5 -232.5q0 -122 -35.5 -235.5t-111.5 -204.5h-83q70 94 105.5 207t35.5 232q0 116 -35.5 227.5t-104.5 205.5h82z" />
    <glyph glyph-name="asterisk" unicode="*" 
d="M381 334l-81 155l-80 -154l-74 47l106 134l-162 21l14 75l170 -43l-14 177h79l-12 -177l171 47l15 -82l-161 -20l106 -133z" />
    <glyph glyph-name="plus" unicode="+" 
d="M265 121v196h-185v71h185v197h72v-197h183v-71h-183v-196h-72z" />
    <glyph glyph-name="comma" unicode="," 
d="M211 -140q16 65 31 138.5t23 130.5h107l8 -12q-15 -58 -41.5 -127.5t-53.5 -129.5h-74z" />
    <glyph glyph-name="hyphen" unicode="-" 
d="M150 230v80h300v-80h-300z" />
    <glyph glyph-name="period" unicode="." 
d="M300 -10q-26 0 -44 16t-18 52q0 38 18 53t44 15t44 -15t18 -53q0 -36 -18 -52t-44 -16z" />
    <glyph glyph-name="slash" unicode="/" 
d="M120 0l274 714h86l-274 -714h-86z" />
    <glyph glyph-name="zero" unicode="0" 
d="M299 -10q-125 0 -182 97.5t-57 270.5q0 116 24 197.5t76.5 125t138.5 43.5q126 0 183.5 -96t57.5 -270q0 -115 -24 -197.5t-77 -126.5t-140 -44zM144 358q0 -44 3.5 -82.5t10.5 -69.5l237 401q-37 38 -96 38q-81 0 -118 -70.5t-37 -216.5zM299 69q82 0 121 70.5t39 218.5
q0 104 -20 170l-243 -410q37 -49 103 -49z" />
    <glyph glyph-name="one" unicode="1" 
d="M133 0v60l150 10v376q0 42 1.5 92.5t2.5 83.5q-16 -9 -29 -15t-39 -19l-83 -43l-39 68l199 101h73v-644l151 -10v-60h-387z" />
    <glyph glyph-name="two" unicode="2" 
d="M70 0v76l190 187q74 74 115.5 134t41.5 127q0 64 -35 92.5t-89 28.5q-47 0 -88.5 -19t-77.5 -48l-50 62q41 35 95 59.5t124 24.5q96 0 153.5 -51t57.5 -146q0 -81 -43 -150.5t-120 -143.5l-153 -149v-4h354v-80h-475z" />
    <glyph glyph-name="three" unicode="3" 
d="M261 -10q-43 0 -93 8.5t-94 30.5v85q44 -22 95 -33.5t98 -11.5q87 0 127 37t40 97q0 68 -47.5 97t-133.5 29h-74v80h74q77 0 118 36t41 94q0 50 -31.5 78t-92.5 28q-51 0 -93.5 -17.5t-72.5 -37.5l-45 61q38 30 93 51.5t124 21.5q104 0 156.5 -50t52.5 -127
q0 -72 -41 -116t-108 -55v-3q171 -23 171 -175q0 -60 -28 -107t-86 -74t-150 -27z" />
    <glyph glyph-name="four" unicode="4" 
d="M360 0v160h-310v74l294 484h102v-481h104v-77h-104v-160h-86zM137 237h223v178q0 37 1 77t2.5 76t2.5 58h-4q-7 -19 -20.5 -45t-23.5 -43z" />
    <glyph glyph-name="five" unicode="5" 
d="M257 -10q-47 0 -95 10t-82 29v85q34 -22 78 -33.5t91 -11.5q84 0 131 35.5t47 109.5q0 75 -46.5 113t-124.5 38q-28 0 -60 -4.5t-57 -10.5l-44 28l27 336h356v-80h-279l-19 -206q21 5 51.5 7.5t53.5 2.5q65 0 118 -24t84.5 -72.5t31.5 -121.5q0 -105 -68.5 -167.5
t-193.5 -62.5z" />
    <glyph glyph-name="six" unicode="6" 
d="M308 -10q-114 0 -181 79t-67 239q0 77 13.5 151t49.5 134t101 95.5t168 35.5q20 0 46.5 -2t42.5 -7v-79q-17 6 -40 9t-46 3q-72 0 -119 -22.5t-74 -61.5t-39 -90.5t-14 -109.5h6q20 38 61.5 63t105.5 25q100 0 159 -58t59 -164q0 -112 -62.5 -176t-169.5 -64zM307 65
q65 0 106 38.5t41 126.5q0 74 -36.5 113t-107.5 39q-48 0 -84.5 -20t-56.5 -51t-20 -64q0 -43 17.5 -85t53 -69.5t87.5 -27.5z" />
    <glyph glyph-name="seven" unicode="7" 
d="M174 0l275 634h-389v80h480v-71l-271 -643h-95z" />
    <glyph glyph-name="eight" unicode="8" 
d="M295 -10q-103 0 -165 50.5t-62 138.5q0 51 20 87.5t53 63t73 44.5q-49 29 -86 72.5t-37 107.5q0 56 29 94t77 57t104 19t103 -19t75.5 -57t28.5 -94q0 -66 -38.5 -107.5t-96.5 -68.5q44 -22 80 -49.5t57 -63.5t21 -85q0 -55 -29 -98t-81.5 -67.5t-125.5 -24.5zM301 414
q50 22 85 52.5t35 82.5q0 49 -33 74.5t-89 25.5q-55 0 -88 -25t-33 -75q0 -37 18 -62t46 -42t59 -31zM298 63q71 0 108.5 34.5t37.5 87.5t-39 85.5t-118 69.5q-61 -27 -96 -65t-35 -95q0 -51 34 -84t108 -33z" />
    <glyph glyph-name="nine" unicode="9" 
d="M217 -10q-23 0 -47 2.5t-41 6.5v79q35 -12 84 -12q68 0 113 22.5t71.5 62t39 90.5t14.5 109h-6q-20 -37 -62.5 -62.5t-104.5 -25.5q-100 0 -159 58.5t-59 167.5t63 172.5t171 63.5q74 0 129 -34.5t86 -107.5t31 -191q0 -54 -8 -110.5t-28.5 -108.5t-57 -93t-93 -65
t-136.5 -24zM287 332q47 0 84 18.5t58.5 51.5t21.5 75q0 26 -9.5 55.5t-28.5 56t-49 43.5t-71 17q-67 0 -107 -40t-40 -122q0 -81 37.5 -118t103.5 -37z" />
    <glyph glyph-name="colon" unicode=":" 
d="M301 410q-26 0 -44 16t-18 52q0 38 18 53t44 15t43.5 -15t17.5 -53q0 -36 -17.5 -52t-43.5 -16zM300 -10q-26 0 -44 16t-18 52q0 38 18 53t44 15t43.5 -15t17.5 -53q0 -36 -17.5 -52t-43.5 -16z" />
    <glyph glyph-name="semicolon" unicode=";" 
d="M323 410q-26 0 -44 16t-18 52q0 38 18 53t44 15t44 -15t18 -53q0 -36 -18 -52t-44 -16zM211 -140q16 65 31 138.5t23 130.5h107l8 -12q-15 -58 -41.5 -127.5t-53.5 -129.5h-74z" />
    <glyph glyph-name="less" unicode="&#x3c;" 
d="M510 116v78l-326 157l326 179v78l-420 -235v-50z" />
    <glyph glyph-name="equal" unicode="=" 
d="M70 407v80h460v-80h-460zM70 217v80h460v-80h-460z" />
    <glyph glyph-name="greater" unicode="&#x3e;" 
d="M90 116v78l326 157l-326 179v78l420 -235v-50z" />
    <glyph glyph-name="question" unicode="?" 
d="M230 202v18q0 38 9 66t31.5 53.5t60.5 52.5q34 24 54.5 45t30 46t9.5 62q0 44 -32.5 72.5t-94.5 28.5q-52 0 -93.5 -12.5t-82.5 -31.5l-32 75q41 18 88.5 32.5t114.5 14.5q101 0 159 -47.5t58 -127.5q0 -47 -12 -81t-36.5 -61.5t-63.5 -56.5t-58.5 -49.5t-25.5 -40.5
t-6 -49v-9h-78zM273 -10q-26 0 -44 16t-18 52q0 38 18 53t44 15t44 -15t18 -53q0 -36 -18 -52t-44 -16z" />
    <glyph glyph-name="at" unicode="@" 
d="M324 -89q-100 0 -169 47t-104.5 133.5t-35.5 202.5q0 123 35 217.5t102.5 148.5t166.5 54q81 0 140.5 -43t92.5 -123t33 -191q0 -46 -6.5 -90t-20 -80t-36 -57.5t-55.5 -21.5q-34 0 -53 27t-24 61h-2q-14 -37 -42 -62.5t-70 -25.5q-61 0 -94 52t-33 136q0 66 21 116.5
t59.5 79t91.5 28.5q36 0 71 -7.5t54 -15.5l-11 -203q-1 -8 -1 -18.5v-18.5q0 -52 11 -69t24 -17q18 0 29 25.5t15.5 68t4.5 93.5q0 139 -55.5 214.5t-144.5 75.5q-76 0 -128.5 -44t-79 -122.5t-26.5 -184.5q0 -148 61 -233.5t182 -85.5q50 0 92 11t77 27v-65
q-36 -18 -77 -29t-95 -11zM289 171q37 0 52 42.5t19 109.5l7 124q-10 4 -23 7t-27 3q-33 0 -52.5 -24t-28.5 -61t-9 -78q0 -65 17 -94t45 -29z" />
    <glyph glyph-name="A" unicode="A" 
d="M20 0l232 717h95l233 -717h-92l-68 219h-241l-68 -219h-91zM270 512l-66 -213h191l-66 213q-5 17 -14 48t-16 62q-6 -31 -15 -62t-14 -48z" />
    <glyph glyph-name="B" unicode="B" 
d="M95 0v714h192q110 0 174 -39.5t64 -135.5q0 -70 -34 -110t-94 -50v-5q41 -7 74.5 -25t53.5 -52t20 -90q0 -97 -61 -152t-167 -55h-222zM180 412h115q75 0 107 28.5t32 86.5q0 59 -34.5 84t-119.5 25h-100v-224zM180 78h121q86 0 119 36t33 93q0 58 -34.5 92.5
t-123.5 34.5h-115v-256z" />
    <glyph glyph-name="C" unicode="C" 
d="M365 -10q-105 0 -171 47t-97 129.5t-31 190.5q0 113 35.5 195.5t103 127t164.5 44.5q52 0 97.5 -11t83.5 -31l-34 -73q-31 17 -70.5 26t-76.5 9q-102 0 -156.5 -74t-54.5 -213q0 -133 49 -208.5t160 -75.5q34 0 73.5 7.5t78.5 23.5v-85q-40 -15 -76.5 -22t-77.5 -7z" />
    <glyph glyph-name="D" unicode="D" 
d="M70 0v714h173q95 0 165 -40t108.5 -117.5t38.5 -192.5q0 -181 -87.5 -272.5t-244.5 -91.5h-153zM160 78h54q128 0 188.5 72t60.5 211q0 142 -61.5 208.5t-168.5 66.5h-73v-558z" />
    <glyph glyph-name="E" unicode="E" 
d="M95 0v714h420v-80h-330v-221h311v-80h-311v-253h330v-80h-420z" />
    <glyph glyph-name="F" unicode="F" 
d="M95 0v714h420v-80h-330v-252h311v-80h-311v-302h-90z" />
    <glyph glyph-name="G" unicode="G" 
d="M340 -10q-146 0 -220.5 91t-74.5 265q0 179 78 278.5t229 99.5q51 0 92 -11t78 -31l-32 -75q-25 16 -59 26t-77 10q-109 0 -163 -76.5t-54 -216.5q0 -80 19.5 -143.5t65 -100t122.5 -36.5q32 0 56 5t43 10v212h-130v80h217v-350q-37 -15 -85.5 -26t-104.5 -11z" />
    <glyph glyph-name="H" unicode="H" 
d="M70 0v714h90v-301h280v301h90v-714h-90v333h-280v-333h-90z" />
    <glyph glyph-name="I" unicode="I" 
d="M110 0v62l144 13v564l-144 13v62h380v-62l-146 -13v-564l146 -13v-62h-380z" />
    <glyph glyph-name="J" unicode="J" 
d="M252 -10q-38 0 -81 8t-71 21v85q23 -10 64 -20.5t81 -10.5q59 0 94.5 35.5t35.5 120.5v485h90v-497q0 -109 -54 -168t-159 -59z" />
    <glyph glyph-name="K" unicode="K" 
d="M70 0v714h90v-384q17 27 35 55t39 56l204 273h103l-239 -323l248 -391h-103l-206 330l-81 -93v-237h-90z" />
    <glyph glyph-name="L" unicode="L" 
d="M115 0v714h90v-631h310v-83h-400z" />
    <glyph glyph-name="M" unicode="M" 
d="M50 0v714h129l119 -419h3l119 419h130v-714h-85v387q0 59 2.5 121.5t9.5 115.5h-4l-132 -446h-83l-133 447h-4q5 -29 8 -70.5t4.5 -85.5t1.5 -82v-387h-85z" />
    <glyph glyph-name="N" unicode="N" 
d="M70 0v714h119l260 -595h3q-5 59 -7 107.5t-2 109.5v378h87v-714h-109l-273 622h-4q5 -56 9 -112t4 -112v-398h-87z" />
    <glyph glyph-name="O" unicode="O" 
d="M299 -10q-89 0 -145 46t-82.5 129t-26.5 192q0 110 26.5 193t83 129.5t145.5 46.5t145.5 -46t83 -128.5t26.5 -192.5q0 -111 -27 -194t-83.5 -129t-145.5 -46zM301 70q90 0 126 76.5t36 211.5q0 136 -36 212t-125 76q-91 0 -128 -77t-37 -211q0 -135 37 -211.5t127 -76.5
z" />
    <glyph glyph-name="P" unicode="P" 
d="M95 0v714h204q128 0 187 -54.5t59 -154.5q0 -59 -24.5 -112t-81 -85.5t-153.5 -32.5h-101v-275h-90zM185 353h91q89 0 133 34t44 113q0 74 -39.5 105t-122.5 31h-106v-283z" />
    <glyph glyph-name="Q" unicode="Q" 
d="M299 -10q-89 0 -145 46t-82.5 129t-26.5 192q0 110 26.5 193t83 129.5t145.5 46.5t145.5 -46t83 -128.5t26.5 -192.5q0 -117 -30 -203t-93 -129l109 -207h-100l-88 175q-25 -5 -54 -5zM301 70q90 0 126 76.5t36 211.5q0 136 -36 212t-125 76q-91 0 -128 -77t-37 -211
q0 -135 37 -211.5t127 -76.5z" />
    <glyph glyph-name="R" unicode="R" 
d="M95 0v714h167q251 0 251 -200q0 -56 -18 -94.5t-48.5 -63t-68.5 -38.5l191 -318h-100l-172 292h-112v-292h-90zM185 370h74q88 0 124.5 34.5t36.5 101.5q0 71 -38.5 100.5t-124.5 29.5h-72v-266z" />
    <glyph glyph-name="S" unicode="S" 
d="M281 -10q-57 0 -110.5 10.5t-85.5 26.5v83q37 -16 90 -29.5t108 -13.5q154 0 154 125q0 34 -14 54t-49.5 38.5t-99.5 46.5q-42 19 -82 42t-65.5 61t-25.5 100q0 92 61 141t167 49q54 0 102 -11.5t84 -28.5l-29 -75q-34 16 -76 25.5t-83 9.5q-58 0 -96 -25t-38 -87
q0 -35 14.5 -57t46.5 -38.5t82 -38.5q57 -24 100.5 -48.5t68 -60.5t24.5 -98q0 -95 -62.5 -148t-185.5 -53z" />
    <glyph glyph-name="T" unicode="T" 
d="M255 0v634h-210v80h510v-80h-210v-634h-90z" />
    <glyph glyph-name="U" unicode="U" 
d="M298 -10q-82 0 -132.5 32.5t-73 92t-22.5 139.5v460h90v-455q0 -56 12.5 -99t43 -66.5t84.5 -23.5q57 0 87.5 25t41.5 68.5t11 96.5v454h90v-462q0 -74 -22 -133.5t-73 -94t-137 -34.5z" />
    <glyph glyph-name="V" unicode="V" 
d="M255 0l-230 714h94l139 -464q14 -44 24.5 -85.5t18.5 -77.5h3q8 35 18.5 77.5t23.5 88.5l134 461h95l-226 -714h-94z" />
    <glyph glyph-name="W" unicode="W" 
d="M105 0l-80 714h83q8 -79 15.5 -157.5t14.5 -157.5q4 -38 7.5 -83t6.5 -88t5 -77.5t2 -52.5h2q4 23 11.5 59.5t16 76t15.5 70.5l54 232h86l56 -234q9 -34 17.5 -73t16 -73.5t10.5 -57.5h2q1 24 3.5 71t6.5 108t9 125q7 78 13.5 156t13.5 156h83l-72 -714h-97l-79 328
q-10 45 -16.5 77.5t-8.5 44.5h-2q-1 -12 -6.5 -44t-16.5 -78l-76 -328h-96z" />
    <glyph glyph-name="X" unicode="X" 
d="M35 0l223 369l-208 345h97l153 -273l155 273h95l-207 -346l222 -368h-93l-171 296l-170 -296h-96z" />
    <glyph glyph-name="Y" unicode="Y" 
d="M257 0v278l-222 436h99l167 -361l168 361h96l-222 -436v-278h-86z" />
    <glyph glyph-name="Z" unicode="Z" 
d="M95 0v71l317 565h-297v78h390v-71l-313 -563h313v-80h-410z" />
    <glyph glyph-name="bracketleft" unicode="[" 
d="M240 -158v872h225v-72h-139v-728h139v-72h-225z" />
    <glyph glyph-name="backslash" unicode="\" 
d="M480 0l-274 714h-86l274 -714h86z" />
    <glyph glyph-name="bracketright" unicode="]" 
d="M360 724v-872h-225v72h139v728h-139v72h225z" />
    <glyph glyph-name="asciicircum" unicode="^" 
d="M50 267l214 452h50l236 -452h-78l-182 359l-162 -359h-78z" />
    <glyph glyph-name="underscore" unicode="_" 
d="M0 -154v80h600v-80h-600z" />
    <glyph glyph-name="grave" unicode="`" 
d="M331 606q-23 18 -52 46.5t-53.5 57t-36.5 46.5v10h105q11 -22 27.5 -49.5t35 -53.5t33.5 -45v-12h-59z" />
    <glyph glyph-name="a" unicode="a" 
d="M246 -10q-79 0 -127.5 39t-48.5 118q0 87 62.5 130t180.5 46l115 3v22q0 72 -36 98.5t-97 26.5q-43 0 -82 -11t-74 -31l-31 68q38 19 84.5 33t107.5 14q101 0 155.5 -45.5t54.5 -141.5v-359h-72l-10 74h-4q-33 -42 -76 -63t-102 -21zM261 63q45 0 83 16.5t61 50t23 84.5
v48l-96 -3q-96 -3 -136.5 -31t-40.5 -78q0 -46 29 -66.5t77 -20.5z" />
    <glyph glyph-name="b" unicode="b" 
d="M329 -10q-59 0 -99.5 23.5t-63.5 54.5h-6l-8 -68h-72v760h87v-184q0 -28 -0.5 -55t-3.5 -55h4q21 32 61 56t101 24q97 0 156.5 -70t59.5 -207q0 -138 -60 -208.5t-156 -70.5zM312 63q73 0 107 53t34 153q0 98 -34 151t-108 53q-69 0 -106.5 -52.5t-37.5 -149.5
q0 -101 35.5 -154.5t109.5 -53.5z" />
    <glyph glyph-name="c" unicode="c" 
d="M338 -10q-118 0 -185.5 64.5t-67.5 209.5q0 103 33.5 165t93 89.5t135.5 27.5q47 0 85.5 -9.5t72.5 -27.5l-27 -73q-32 17 -62 24.5t-65 7.5q-92 0 -133 -50.5t-41 -151.5q0 -107 43 -153t128 -46q44 0 83 9.5t68 22.5v-79q-30 -14 -74 -22t-87 -8z" />
    <glyph glyph-name="d" unicode="d" 
d="M274 -10q-99 0 -159 69.5t-60 211.5q0 134 57 204.5t172 70.5q56 0 92 -22t55 -56h6q-2 14 -4 37t-2 42v213h89v-760h-74l-10 72h-4q-22 -36 -59.5 -59t-98.5 -23zM291 63q71 0 105.5 49.5t34.5 134.5v20q0 59 -13 105.5t-43 73.5t-81 27q-70 0 -108.5 -52t-38.5 -159
q0 -199 144 -199z" />
    <glyph glyph-name="e" unicode="e" 
d="M337 -10q-129 0 -203 71.5t-74 204.5q0 88 32 150.5t89 96t133 33.5q105 0 165.5 -68t60.5 -186v-41h-389q2 -70 26.5 -111t67 -58.5t98.5 -17.5q44 0 87 12t86 32v-80q-46 -20 -92 -29t-87 -9zM153 323h297q-3 70 -37.5 110t-98.5 40q-67 0 -108.5 -40.5t-52.5 -109.5z
" />
    <glyph glyph-name="f" unicode="f" 
d="M241 0v461h-175v62l175 13v61q0 64 24.5 100.5t68.5 52t102 15.5q44 0 77 -6t57 -14l-20 -69q-20 6 -50 10.5t-59 4.5q-52 0 -81 -22t-29 -84v-49h202v-75h-202v-461h-90z" />
    <glyph glyph-name="g" unicode="g" 
d="M276 -245q-55 0 -103.5 10.5t-89.5 27.5v80q40 -23 92.5 -34.5t97.5 -11.5q91 0 127 42.5t36 116.5v19q0 12 0.5 23t2.5 34h-4q-28 -41 -65.5 -56.5t-90.5 -15.5q-106 0 -165 72.5t-59 202.5q0 131 58.5 206t160.5 75q54 0 91 -17.5t66 -58.5h5l12 66h72v-550
q0 -115 -59 -173t-185 -58zM296 63q67 0 105 43.5t38 139.5v21q0 110 -39 158t-107 48q-76 0 -111 -53.5t-35 -151.5q0 -100 36.5 -152.5t112.5 -52.5z" />
    <glyph glyph-name="h" unicode="h" 
d="M80 0v760h90v-216q0 -19 -1.5 -48t-2.5 -46h5q26 50 69.5 73t98.5 23q83 0 134.5 -46.5t51.5 -149.5v-350h-90v332q0 73 -31 107t-88 34q-67 0 -106.5 -51.5t-39.5 -143.5v-278h-90z" />
    <glyph glyph-name="i" unicode="i" 
d="M307 633q-26 0 -44.5 16t-18.5 47q0 33 18.5 48.5t44.5 15.5t44.5 -15.5t18.5 -48.5q0 -31 -18.5 -47t-44.5 -16zM80 0v60l191 15v386l-175 13v62h265v-461l179 -15v-60h-460z" />
    <glyph glyph-name="j" unicode="j" 
d="M342 633q-26 0 -44 16t-18 48t17.5 47.5t44.5 15.5q26 0 44.5 -15.5t18.5 -47.5q0 -33 -19 -48.5t-44 -15.5zM192 -245q-31 0 -68.5 5t-63.5 12v79q26 -9 59 -15t63 -6q67 0 96 33t29 100v498l-175 13v62h265v-588q0 -93 -53.5 -143t-151.5 -50z" />
    <glyph glyph-name="k" unicode="k" 
d="M105 0v760h90v-366q0 -31 -2.5 -73.5t-4.5 -77.5h2q19 25 36.5 45.5t36.5 42.5l185 205h108l-213 -231l227 -305h-104l-183 252l-88 -85v-167h-90z" />
    <glyph glyph-name="l" unicode="l" 
d="M80 0v60l196 15v610l-190 13v62h280v-685l174 -15v-60h-460z" />
    <glyph glyph-name="m" unicode="m" 
d="M50 0v536h62l13 -59h5q20 40 44 54.5t55 14.5q41 0 63.5 -19.5t34.5 -57.5h3q17 37 42.5 57t67.5 20q62 0 86.5 -47.5t24.5 -148.5v-350h-80v335q0 63 -8.5 98t-45.5 35q-76 0 -76 -200v-268h-80v335q0 64 -11.5 98.5t-48.5 34.5q-40 0 -55.5 -54t-15.5 -146v-268h-80z
" />
    <glyph glyph-name="n" unicode="n" 
d="M80 0v536h72l13 -79h5q23 46 68.5 67.5t106.5 21.5q81 0 130.5 -45.5t49.5 -142.5v-358h-90v342q0 68 -27.5 99.5t-88.5 31.5q-82 0 -115.5 -52t-33.5 -146v-275h-90z" />
    <glyph glyph-name="o" unicode="o" 
d="M301 -10q-70 0 -125.5 30.5t-88 93t-32.5 156.5q0 93 31.5 154t86.5 91.5t125 30.5t126 -30.5t88.5 -92t32.5 -156.5q0 -93 -32 -154.5t-87 -92t-125 -30.5zM300 63q78 0 116 55.5t38 150.5t-38.5 149.5t-116.5 54.5t-116.5 -54.5t-38.5 -149.5t39 -150.5t117 -55.5z" />
    <glyph glyph-name="p" unicode="p" 
d="M80 -240v776h74l11 -73h4q23 39 61.5 61t98.5 22q98 0 157 -70t59 -207t-59 -208t-157 -71q-59 0 -98 24t-62 55h-6q6 -39 6 -80v-229h-89zM310 63q75 0 109 51.5t34 156.5q0 103 -33.5 152.5t-110.5 49.5q-73 0 -106.5 -47.5t-33.5 -136.5v-20q0 -95 30.5 -150.5
t110.5 -55.5z" />
    <glyph glyph-name="q" unicode="q" 
d="M431 -240v229q0 20 1 41l2 42h-3q-22 -34 -59.5 -58t-97.5 -24q-97 0 -158 70.5t-61 206.5q0 92 28.5 154t78 93.5t113.5 31.5q59 0 96.5 -24t59.5 -58h4l13 72h72v-776h-89zM290 63q141 0 141 184v20q0 97 -31.5 151.5t-111.5 54.5q-73 0 -107 -53t-34 -154
q0 -92 34.5 -147.5t108.5 -55.5z" />
    <glyph glyph-name="r" unicode="r" 
d="M62 0v60l163 15v386l-147 13v62h219l12 -98h4q28 53 61.5 80.5t88.5 27.5q34 0 60.5 -6t48.5 -16l-24 -79q-16 9 -38 15.5t-47 6.5q-43 0 -76 -27t-52 -72t-19 -99v-194l156 -15v-60h-410z" />
    <glyph glyph-name="s" unicode="s" 
d="M279 -10q-50 0 -95.5 9t-78.5 25v83q35 -16 77.5 -29.5t101.5 -13.5q66 0 93.5 20.5t27.5 59.5q0 21 -9.5 34.5t-36.5 27.5t-79 36q-52 23 -89 43t-57 47.5t-20 70.5q0 71 54.5 107t151.5 36q44 0 84 -8t83 -26l-27 -70q-40 17 -73.5 23t-66.5 6q-62 0 -90.5 -16
t-28.5 -50q0 -22 12.5 -37t41 -29t75.5 -34q53 -22 90 -41t56 -45.5t19 -72.5q0 -76 -54.5 -116t-161.5 -40z" />
    <glyph glyph-name="t" unicode="t" 
d="M402 -10q-57 0 -102 15t-71.5 53t-26.5 105v298h-146v62l146 16l18 140h72v-143h209v-75h-209v-281q0 -61 27 -89t89 -28q26 0 56 5t52 10v-72q-24 -6 -53 -11t-61 -5z" />
    <glyph glyph-name="u" unicode="u" 
d="M261 -10q-95 0 -140.5 47.5t-45.5 141.5v357h90v-343q0 -64 26.5 -97t91.5 -33q83 0 115 52t32 145v276h90v-536h-72l-13 72h-5q-28 -45 -70.5 -63.5t-98.5 -18.5z" />
    <glyph glyph-name="v" unicode="v" 
d="M243 0l-198 536h92l112 -318q11 -32 23.5 -67t25.5 -75h3q13 40 26.5 75.5t23.5 66.5l109 318h94l-200 -536h-111z" />
    <glyph glyph-name="w" unicode="w" 
d="M102 0l-86 536h84l39 -265q6 -37 8.5 -66t5 -59t4.5 -71h3q3 17 8.5 47.5t13 66t16.5 65.5l52 181h99l50 -181q9 -30 17 -64.5t14.5 -65t8.5 -49.5h3q3 40 5 69.5t5 58.5t9 68l42 265h82l-88 -536h-108l-48 188q-10 41 -21 82t-19 81h-3q-8 -40 -19.5 -81t-22.5 -82
l-49 -188h-105z" />
    <glyph glyph-name="x" unicode="x" 
d="M45 0l203 274l-193 262h101l144 -201l144 201h101l-194 -262l203 -274h-101l-153 213l-154 -213h-101z" />
    <glyph glyph-name="y" unicode="y" 
d="M136 -245q-20 0 -39 2.5t-33 5.5v69q12 -2 28.5 -4t32.5 -2q46 0 71 22.5t45 73.5l29 73l-225 541h88l128 -315q13 -31 25.5 -69t22.5 -73h3q11 37 23 74.5t22 68.5l105 314h92l-225 -606q-19 -52 -41.5 -91.5t-58 -61.5t-93.5 -22z" />
    <glyph glyph-name="z" unicode="z" 
d="M90 0v61l315 406h-299v69h396v-71l-305 -389h313v-76h-420z" />
    <glyph glyph-name="braceleft" unicode="{" 
d="M460 -158q-92 1 -145 40t-53 119v147q0 51 -31.5 72.5t-90.5 21.5v73q59 1 90.5 22t31.5 71v148q0 80 55 119t143 39v-72q-52 -1 -81.5 -23t-29.5 -71v-144q0 -103 -109 -122v-6q109 -19 109 -122v-147q0 -49 29 -70.5t82 -22.5v-72z" />
    <glyph glyph-name="bar" unicode="|" 
d="M264 -240v1000h73v-1000h-73z" />
    <glyph glyph-name="braceright" unicode="}" 
d="M140 714q92 -1 145 -40t53 -119v-147q0 -51 31.5 -72.5t90.5 -21.5v-73q-59 -1 -90.5 -22t-31.5 -71v-148q0 -80 -55 -119t-143 -39v72q52 1 81.5 23t29.5 71v144q0 103 109 122v6q-109 19 -109 122v147q0 49 -29 70.5t-82 22.5v72z" />
    <glyph glyph-name="asciitilde" unicode="~" 
d="M85 287v78q48 53 120 53q25 0 48.5 -7t62.5 -25q29 -13 47.5 -20t36.5 -7q29 0 60 17t55 42v-77q-49 -54 -120 -54q-25 0 -49 8t-63 24q-29 13 -47.5 20t-36.5 7q-28 0 -59 -17t-55 -42z" />
    <glyph glyph-name="uni00A0" unicode="&#xa0;" 
 />
    <glyph glyph-name="exclamdown" unicode="&#xa1;" 
d="M338 327l16 -512h-109l16 512h77zM300 539q26 0 44 -16t18 -52q0 -38 -18 -53t-44 -15t-44 15t-18 53q0 36 18 52t44 16z" />
    <glyph glyph-name="cent" unicode="&#xa2;" 
d="M295 -10v100q-62 9 -108 39t-71.5 87t-25.5 146q0 131 56.5 198t148.5 80v84h68v-80q41 -1 81.5 -9.5t65.5 -19.5l-26 -73q-26 10 -61 18t-73 8q-87 0 -128.5 -50.5t-41.5 -154.5t42 -151.5t124 -47.5q47 0 85.5 8.5t69.5 21.5v-77q-54 -27 -139 -30v-97h-67z" />
    <glyph glyph-name="sterling" unicode="&#xa3;" 
d="M90 0v74q41 11 67 43t26 98v105h-90v66h90v148q0 89 50.5 139t133.5 50q46 0 81 -10.5t68 -30.5l-31 -68q-28 18 -55 26t-55 8q-52 0 -78 -28.5t-26 -94.5v-139h177v-66h-177v-104q0 -27 -9 -54.5t-23 -49t-30 -32.5h316v-80h-435z" />
    <glyph glyph-name="currency" unicode="&#xa4;" 
d="M481 131l-68 65q-24 -16 -52 -25.5t-60 -9.5t-61.5 10t-52.5 26l-67 -65l-49 48l66 67q-16 24 -26 53t-10 60t10 60t26 52l-67 69l50 48l67 -65q23 17 52.5 26.5t61.5 9.5t59.5 -9.5t52.5 -26.5l68 65l49 -48l-65 -68q15 -23 25.5 -52.5t10.5 -61.5q0 -31 -9.5 -60
t-26.5 -53l64 -67zM301 229q56 0 94 34.5t38 96.5q0 63 -38 98.5t-94 35.5q-55 0 -93.5 -35.5t-38.5 -98.5q0 -62 38.5 -96.5t93.5 -34.5z" />
    <glyph glyph-name="yen" unicode="&#xa5;" 
d="M256 0v129h-144v64h144v82h-144v64h115l-192 375h93l171 -349l174 349h92l-196 -375h119v-64h-146v-82h146v-64h-146v-129h-86z" />
    <glyph glyph-name="brokenbar" unicode="&#xa6;" 
d="M263 379v381h73v-381h-73zM263 -241v381h73v-381h-73z" />
    <glyph glyph-name="section" unicode="&#xa7;" 
d="M276 -10q-55 0 -96 8.5t-71 24.5v74q31 -15 77.5 -29t92.5 -14q71 0 99.5 22.5t28.5 50.5q0 20 -9 36t-36.5 32.5t-81.5 37.5q-51 20 -87.5 40.5t-56 49.5t-19.5 72q0 49 25 79.5t56 45.5q-37 19 -57.5 48.5t-20.5 69.5q0 59 49.5 93t143.5 34q56 0 94.5 -9.5t73.5 -23.5
l-26 -63q-32 15 -64.5 23t-80.5 8q-59 0 -83.5 -16.5t-24.5 -43.5q0 -28 26 -49t101 -50q76 -28 118.5 -63.5t42.5 -94.5q0 -50 -23.5 -82.5t-53.5 -49.5q36 -19 56 -48t20 -70q0 -68 -56 -105.5t-157 -37.5zM351 280q24 14 45 35.5t21 54.5q0 25 -13.5 45t-47 38t-94.5 37
q-28 -7 -51 -30t-23 -55q0 -37 31.5 -62t110.5 -55z" />
    <glyph glyph-name="dieresis" unicode="&#xa8;" 
d="M415 622q-22 0 -38 14.5t-16 44.5q0 31 16 44t38 13t38.5 -13t16.5 -44q0 -30 -16.5 -44.5t-38.5 -14.5zM186 622q-22 0 -38 14.5t-16 44.5q0 31 16 44t38 13t38.5 -13t16.5 -44q0 -30 -16.5 -44.5t-38.5 -14.5z" />
    <glyph glyph-name="copyright" unicode="&#xa9;" 
d="M300 104q-80 0 -137.5 32.5t-88 90t-30.5 132.5q0 77 32 134.5t90 90t136 32.5q79 0 135.5 -32.5t87.5 -90t31 -132.5q0 -77 -32 -135t-89.5 -90t-134.5 -32zM300 151q91 0 147.5 55t56.5 152q0 96 -56.5 152.5t-148.5 56.5q-91 0 -147 -55t-56 -151q0 -63 25.5 -110.5
t71.5 -73.5t107 -26zM312 200q-73 0 -108 43.5t-35 112.5q0 72 37 117.5t105 45.5q23 0 46 -5.5t42 -15.5l-21 -47q-17 9 -33.5 13t-31.5 4q-41 0 -63.5 -28t-22.5 -84q0 -51 20.5 -79t63.5 -28q17 0 37 4t38 11v-49q-16 -7 -34 -11t-40 -4z" />
    <glyph glyph-name="ordfeminine" unicode="&#xaa;" 
d="M255 383q-47 0 -75 24.5t-28 71.5q0 53 38 79t120 29l56 2v22q0 33 -20.5 46t-51.5 13q-26 0 -51.5 -7.5t-48.5 -18.5l-22 49q26 13 58 21t69 8q63 0 96 -27t33 -86v-220h-47l-12 42q-20 -21 -48 -34.5t-66 -13.5zM275 434q46 0 68.5 23.5t22.5 63.5v23l-48 -2
q-60 -2 -81 -17.5t-21 -42.5t15.5 -37.5t43.5 -10.5z" />
    <glyph glyph-name="guillemotleft" unicode="&#xab;" 
d="M453 52l-170 205v13l170 206l58 -42l-136 -170l136 -171zM257 53l-168 204v13l168 206l59 -44l-136 -168l135 -171z" />
    <glyph glyph-name="logicalnot" unicode="&#xac;" 
d="M444 128v189h-369v71h440v-260h-71z" />
    <glyph glyph-name="uni00AD" unicode="&#xad;" 
d="M150 230v80h300v-80h-300z" />
    <glyph glyph-name="registered" unicode="&#xae;" 
d="M300 104q-80 0 -137.5 32.5t-88 90t-30.5 132.5q0 77 32 134.5t90 90t136 32.5q79 0 135.5 -32.5t87.5 -90t31 -132.5q0 -77 -32 -135t-89.5 -90t-134.5 -32zM300 151q91 0 147.5 55t56.5 152q0 96 -56.5 152.5t-148.5 56.5q-91 0 -147 -55t-56 -151q0 -63 25.5 -110.5
t71.5 -73.5t107 -26zM210 207v309h87q57 0 84 -24.5t27 -66.5q0 -37 -17.5 -58t-37.5 -29l81 -131h-61l-69 118h-43v-118h-51zM261 369h35q27 0 43.5 13t16.5 39q0 49 -61 49h-34v-101z" />
    <glyph glyph-name="overscore" unicode="&#xaf;" 
d="M152 618v71h297v-71h-297z" />
    <glyph glyph-name="degree" unicode="&#xb0;" 
d="M301 421q-68 0 -110 43.5t-42 107.5q0 43 20 77.5t54.5 54.5t77.5 20q42 0 76 -20t54 -54.5t20 -77.5t-19 -77t-53 -54t-78 -20zM302 480q38 0 63.5 24.5t25.5 67.5t-25.5 67.5t-63.5 24.5q-40 0 -66 -24t-26 -68q0 -42 27.5 -67t64.5 -25z" />
    <glyph glyph-name="plusminus" unicode="&#xb1;" 
d="M262 124v196h-186v71h186v197h72v-197h186v-71h-186v-196h-72zM80 0v71h440v-71h-440z" />
    <glyph glyph-name="uni00B2" unicode="&#xb2;" 
d="M155 416v54l115 112q42 40 64 64.5t30 43.5t8 41q0 32 -20 48t-52 16q-30 0 -54.5 -11.5t-50.5 -31.5l-35 46q29 25 63.5 40t77.5 15q65 0 102 -31.5t37 -86.5q0 -33 -13 -60t-39 -55t-65 -65l-81 -77h213v-62h-300z" />
    <glyph glyph-name="uni00B3" unicode="&#xb3;" 
d="M278 408q-33 0 -63 6.5t-60 21.5v63q34 -16 65.5 -25t61.5 -9q47 0 69 20.5t22 53.5q0 38 -27 54.5t-76 16.5h-57v55h57q47 0 68.5 19.5t21.5 50.5q0 32 -18.5 46.5t-47.5 14.5q-25 0 -50 -10.5t-51 -27.5l-36 46q31 23 63 36t76 13q67 0 101.5 -30.5t34.5 -80.5
q0 -40 -19.5 -65.5t-46.5 -35.5v-3q36 -7 57.5 -32.5t21.5 -68.5q0 -56 -40.5 -92.5t-126.5 -36.5z" />
    <glyph glyph-name="acute" unicode="&#xb4;" 
d="M246 606v12q15 19 32.5 45t34.5 53.5t28 49.5h106v-10q-12 -18 -37 -46.5t-53.5 -57t-52.5 -46.5h-58z" />
    <glyph glyph-name="uni00B5" unicode="&#xb5;" 
d="M75 -240v776h90v-343q0 -64 26.5 -97t91.5 -33q83 0 115 52t32 145v276h90v-536h-72l-13 72h-5q-28 -45 -70.5 -63.5t-98.5 -18.5q-57 0 -96 17v-247h-90z" />
    <glyph glyph-name="paragraph" unicode="&#xb6;" 
d="M321 -127v400q-16 -4 -38.5 -6.5t-42.5 -2.5q-57 0 -100 23t-66.5 77t-23.5 145q0 96 26 150.5t72 77.5t107 23h284v-887h-58v831h-102v-831h-58z" />
    <glyph glyph-name="periodcentered" unicode="&#xb7;" 
d="M300 272q-26 0 -44 16t-18 52q0 38 18 53t44 15t44 -15t18 -53q0 -36 -18 -52t-44 -16z" />
    <glyph glyph-name="cedilla" unicode="&#xb8;" 
d="M250 -240q-33 0 -51 5v55q9 -2 24 -3.5t29 -1.5q35 0 54.5 9.5t19.5 33.5q0 26 -23.5 38t-67.5 18l43 91h58l-26 -58q36 -8 61.5 -27.5t25.5 -60.5q0 -46 -37 -72.5t-110 -26.5z" />
    <glyph glyph-name="uni00B9" unicode="&#xb9;" 
d="M180 416v51l103 7v218q0 26 0.5 45t1.5 40q-20 -19 -44 -32l-59 -33l-34 56l133 76h67v-370l107 -7v-51h-275z" />
    <glyph glyph-name="ordmasculine" unicode="&#xba;" 
d="M298 383q-66 0 -105.5 43.5t-39.5 126.5q0 82 39.5 125.5t107.5 43.5q66 0 106 -43t40 -126q0 -84 -40 -127t-108 -43zM299 436q44 0 63.5 29.5t19.5 87.5q0 59 -19.5 87.5t-63.5 28.5q-43 0 -63 -31t-20 -85q0 -58 19.5 -87.5t63.5 -29.5z" />
    <glyph glyph-name="guillemotright" unicode="&#xbb;" 
d="M148 477l170 -205v-13l-170 -206l-58 42l136 170l-136 171zM344 476l168 -204v-13l-168 -206l-59 44l136 168l-135 171z" />
    <glyph glyph-name="onequarter" unicode="&#xbc;" 
d="M83 0l370 714h76l-369 -714h-77zM32 367v51l77 7v137q0 26 0.5 45t1.5 40q-20 -19 -44 -32l-29 -16l-34 56l103 59h67v-290l81 -6v-51h-223zM458 0v78h-158v52l155 219h67v-215h52v-56h-52v-78h-64zM370 134h88v74q0 20 1 32.5t1 30.5q-4 -9 -11.5 -21t-15.5 -24z" />
    <glyph glyph-name="onehalf" unicode="&#xbd;" 
d="M83 0l370 714h76l-369 -714h-77zM32 367v51l77 7v137q0 26 0.5 45t1.5 40q-20 -19 -44 -32l-29 -16l-34 56l103 59h67v-290l81 -6v-51h-223zM331 0v54l89 84q32 30 48.5 47.5t23 31.5t6.5 31q0 24 -14.5 36.5t-37.5 12.5q-22 0 -39.5 -9.5t-36.5 -24.5l-35 46
q23 20 50.5 33t61.5 13q56 0 87.5 -27.5t31.5 -75.5q0 -39 -23 -68.5t-70 -72.5l-55 -49h156v-62h-243z" />
    <glyph glyph-name="threequarters" unicode="&#xbe;" 
d="M118 361q-25 0 -47 4.5t-44 14.5v63q26 -12 49.5 -18.5t45.5 -6.5q35 0 51.5 14.5t16.5 38.5q0 26 -20.5 36.5t-55.5 10.5h-48v55h48q35 0 51 13.5t16 35.5q0 23 -14 33.5t-36 10.5q-19 0 -37.5 -8t-38.5 -21l-36 46q26 18 52 29t62 11q59 0 89.5 -26.5t30.5 -69.5
q0 -31 -14.5 -50t-35.5 -25v-3q59 -17 59 -78q0 -49 -34 -79.5t-110 -30.5zM83 0l370 714h76l-369 -714h-77zM458 0v78h-158v52l155 219h67v-215h52v-56h-52v-78h-64zM370 134h88v74q0 20 1 32.5t1 30.5q-4 -9 -11.5 -21t-15.5 -24z" />
    <glyph glyph-name="questiondown" unicode="&#xbf;" 
d="M346 327v-18q0 -38 -9 -66t-31.5 -53.5t-60.5 -52.5q-34 -24 -54.5 -45t-30 -46t-9.5 -62q0 -44 32.5 -72.5t94.5 -28.5q52 0 93.5 12.5t82.5 31.5l32 -75q-41 -18 -88.5 -32.5t-114.5 -14.5q-101 0 -159 47.5t-58 127.5q0 47 12 81t36.5 61.5t63.5 56.5t58.5 49.5
t25.5 40.5t6 49v9h78zM303 539q26 0 44 -16t18 -52q0 -38 -18 -53t-44 -15t-44 15t-18 53q0 36 18 52t44 16z" />
    <glyph glyph-name="Agrave" unicode="&#xc0;" 
d="M20 0l232 717h95l233 -717h-92l-68 219h-241l-68 -219h-91zM270 512l-66 -213h191l-66 213q-5 17 -14 48t-16 62q-6 -31 -15 -62t-14 -48zM311 784q-23 18 -52 46.5t-53.5 57t-36.5 46.5v10h105q11 -22 27.5 -49.5t35 -53.5t33.5 -45v-12h-59z" />
    <glyph glyph-name="Aacute" unicode="&#xc1;" 
d="M20 0l232 717h95l233 -717h-92l-68 219h-241l-68 -219h-91zM270 512l-66 -213h191l-66 213q-5 17 -14 48t-16 62q-6 -31 -15 -62t-14 -48zM259 784v12q15 19 32.5 45t34.5 53.5t28 49.5h106v-10q-12 -18 -37 -46.5t-53.5 -57t-52.5 -46.5h-58z" />
    <glyph glyph-name="Acircumflex" unicode="&#xc2;" 
d="M20 0l232 717h95l233 -717h-92l-68 219h-241l-68 -219h-91zM270 512l-66 -213h191l-66 213q-5 17 -14 48t-16 62q-6 -31 -15 -62t-14 -48zM131 784v11q19 20 42.5 46t45.5 53.5t35 49.5h90q12 -22 34.5 -49.5t47 -54t43.5 -45.5v-11h-62q-26 16 -54 43t-55 54
q-27 -27 -54 -53.5t-53 -43.5h-60z" />
    <glyph glyph-name="Atilde" unicode="&#xc3;" 
d="M20 0l232 717h95l233 -717h-92l-68 219h-241l-68 -219h-91zM270 512l-66 -213h191l-66 213q-5 17 -14 48t-16 62q-6 -31 -15 -62t-14 -48zM120 784q6 59 34.5 93.5t75.5 34.5q28 0 53 -14.5t48 -28.5t44 -14q23 0 35.5 14.5t19.5 43.5h50q-6 -58 -34 -93t-75 -35
q-28 0 -52.5 14t-47 28.5t-45.5 14.5q-24 0 -36 -14.5t-19 -43.5h-51z" />
    <glyph glyph-name="Adieresis" unicode="&#xc4;" 
d="M20 0l232 717h95l233 -717h-92l-68 219h-241l-68 -219h-91zM270 512l-66 -213h191l-66 213q-5 17 -14 48t-16 62q-6 -31 -15 -62t-14 -48zM414 800q-22 0 -38 14.5t-16 44.5q0 31 16 44t38 13t38.5 -13t16.5 -44q0 -30 -16.5 -44.5t-38.5 -14.5zM185 800q-22 0 -38 14.5
t-16 44.5q0 31 16 44t38 13t38.5 -13t16.5 -44q0 -30 -16.5 -44.5t-38.5 -14.5z" />
    <glyph glyph-name="Aring" unicode="&#xc5;" 
d="M20 0l232 717h95l233 -717h-92l-68 219h-241l-68 -219h-91zM270 512l-66 -213h191l-66 213q-5 17 -14 48t-16 62q-6 -31 -15 -62t-14 -48zM299 784q-49 0 -79 28t-30 78t30 77.5t79 27.5q47 0 79 -27.5t32 -76.5q0 -51 -31.5 -79t-79.5 -28zM299 836q24 0 39 14.5
t15 39.5q0 26 -15.5 40t-38.5 14q-22 0 -37.5 -14t-15.5 -40q0 -25 15 -39.5t38 -14.5z" />
    <glyph glyph-name="AE" unicode="&#xc6;" 
d="M20 0l160 714h363v-80h-180v-221h161v-79h-161v-254h180v-80h-266v219h-123l-47 -219h-87zM242 634l-72 -338h107v338h-35z" />
    <glyph glyph-name="Ccedilla" unicode="&#xc7;" 
d="M365 -10q-105 0 -171 47t-97 129.5t-31 190.5q0 113 35.5 195.5t103 127t164.5 44.5q52 0 97.5 -11t83.5 -31l-34 -73q-31 17 -70.5 26t-76.5 9q-102 0 -156.5 -74t-54.5 -213q0 -133 49 -208.5t160 -75.5q34 0 73.5 7.5t78.5 23.5v-85q-40 -15 -76.5 -22t-77.5 -7z
M298 -240q-33 0 -51 5v55q9 -2 24 -3.5t29 -1.5q35 0 54.5 9.5t19.5 33.5q0 26 -23.5 38t-67.5 18l43 91h58l-26 -58q36 -8 61.5 -27.5t25.5 -60.5q0 -46 -37 -72.5t-110 -26.5z" />
    <glyph glyph-name="Egrave" unicode="&#xc8;" 
d="M95 0v714h420v-80h-330v-221h311v-80h-311v-253h330v-80h-420zM317 784q-23 18 -52 46.5t-53.5 57t-36.5 46.5v10h105q11 -22 27.5 -49.5t35 -53.5t33.5 -45v-12h-59z" />
    <glyph glyph-name="Eacute" unicode="&#xc9;" 
d="M95 0v714h420v-80h-330v-221h311v-80h-311v-253h330v-80h-420zM265 784v12q15 19 32.5 45t34.5 53.5t28 49.5h106v-10q-12 -18 -37 -46.5t-53.5 -57t-52.5 -46.5h-58z" />
    <glyph glyph-name="Ecircumflex" unicode="&#xca;" 
d="M95 0v714h420v-80h-330v-221h311v-80h-311v-253h330v-80h-420zM137 784v11q19 20 42.5 46t45.5 53.5t35 49.5h90q12 -22 34.5 -49.5t47 -54t43.5 -45.5v-11h-62q-26 16 -54 43t-55 54q-27 -27 -54 -53.5t-53 -43.5h-60z" />
    <glyph glyph-name="Edieresis" unicode="&#xcb;" 
d="M95 0v714h420v-80h-330v-221h311v-80h-311v-253h330v-80h-420zM420 800q-22 0 -38 14.5t-16 44.5q0 31 16 44t38 13t38.5 -13t16.5 -44q0 -30 -16.5 -44.5t-38.5 -14.5zM191 800q-22 0 -38 14.5t-16 44.5q0 31 16 44t38 13t38.5 -13t16.5 -44q0 -30 -16.5 -44.5
t-38.5 -14.5z" />
    <glyph glyph-name="Igrave" unicode="&#xcc;" 
d="M110 0v62l144 13v564l-144 13v62h380v-62l-146 -13v-564l146 -13v-62h-380zM311 784q-23 18 -52 46.5t-53.5 57t-36.5 46.5v10h105q11 -22 27.5 -49.5t35 -53.5t33.5 -45v-12h-59z" />
    <glyph glyph-name="Iacute" unicode="&#xcd;" 
d="M110 0v62l144 13v564l-144 13v62h380v-62l-146 -13v-564l146 -13v-62h-380zM259 784v12q15 19 32.5 45t34.5 53.5t28 49.5h106v-10q-12 -18 -37 -46.5t-53.5 -57t-52.5 -46.5h-58z" />
    <glyph glyph-name="Icircumflex" unicode="&#xce;" 
d="M110 0v62l144 13v564l-144 13v62h380v-62l-146 -13v-564l146 -13v-62h-380zM131 784v11q19 20 42.5 46t45.5 53.5t35 49.5h90q12 -22 34.5 -49.5t47 -54t43.5 -45.5v-11h-62q-26 16 -54 43t-55 54q-27 -27 -54 -53.5t-53 -43.5h-60z" />
    <glyph glyph-name="Idieresis" unicode="&#xcf;" 
d="M110 0v62l144 13v564l-144 13v62h380v-62l-146 -13v-564l146 -13v-62h-380zM414 800q-22 0 -38 14.5t-16 44.5q0 31 16 44t38 13t38.5 -13t16.5 -44q0 -30 -16.5 -44.5t-38.5 -14.5zM185 800q-22 0 -38 14.5t-16 44.5q0 31 16 44t38 13t38.5 -13t16.5 -44
q0 -30 -16.5 -44.5t-38.5 -14.5z" />
    <glyph glyph-name="Eth" unicode="&#xd0;" 
d="M80 0v314h-80v78h80v322h173q95 0 165 -40t108.5 -117.5t38.5 -192.5q0 -181 -87.5 -272.5t-244.5 -91.5h-153zM170 78h54q128 0 188.5 72t60.5 211q0 142 -61.5 208.5t-168.5 66.5h-73v-244h122v-78h-122v-236z" />
    <glyph glyph-name="Ntilde" unicode="&#xd1;" 
d="M70 0v714h119l260 -595h3q-5 59 -7 107.5t-2 109.5v378h87v-714h-109l-273 622h-4q5 -56 9 -112t4 -112v-398h-87zM125 784q6 59 34.5 93.5t75.5 34.5q28 0 53 -14.5t48 -28.5t44 -14q23 0 35.5 14.5t19.5 43.5h50q-6 -58 -34 -93t-75 -35q-28 0 -52.5 14t-47 28.5
t-45.5 14.5q-24 0 -36 -14.5t-19 -43.5h-51z" />
    <glyph glyph-name="Ograve" unicode="&#xd2;" 
d="M299 -10q-89 0 -145 46t-82.5 129t-26.5 192q0 110 26.5 193t83 129.5t145.5 46.5t145.5 -46t83 -128.5t26.5 -192.5q0 -111 -27 -194t-83.5 -129t-145.5 -46zM301 70q90 0 126 76.5t36 211.5q0 136 -36 212t-125 76q-91 0 -128 -77t-37 -211q0 -135 37 -211.5t127 -76.5
zM311 784q-23 18 -52 46.5t-53.5 57t-36.5 46.5v10h105q11 -22 27.5 -49.5t35 -53.5t33.5 -45v-12h-59z" />
    <glyph glyph-name="Oacute" unicode="&#xd3;" 
d="M299 -10q-89 0 -145 46t-82.5 129t-26.5 192q0 110 26.5 193t83 129.5t145.5 46.5t145.5 -46t83 -128.5t26.5 -192.5q0 -111 -27 -194t-83.5 -129t-145.5 -46zM301 70q90 0 126 76.5t36 211.5q0 136 -36 212t-125 76q-91 0 -128 -77t-37 -211q0 -135 37 -211.5t127 -76.5
zM259 784v12q15 19 32.5 45t34.5 53.5t28 49.5h106v-10q-12 -18 -37 -46.5t-53.5 -57t-52.5 -46.5h-58z" />
    <glyph glyph-name="Ocircumflex" unicode="&#xd4;" 
d="M299 -10q-89 0 -145 46t-82.5 129t-26.5 192q0 110 26.5 193t83 129.5t145.5 46.5t145.5 -46t83 -128.5t26.5 -192.5q0 -111 -27 -194t-83.5 -129t-145.5 -46zM301 70q90 0 126 76.5t36 211.5q0 136 -36 212t-125 76q-91 0 -128 -77t-37 -211q0 -135 37 -211.5t127 -76.5
zM131 784v11q19 20 42.5 46t45.5 53.5t35 49.5h90q12 -22 34.5 -49.5t47 -54t43.5 -45.5v-11h-62q-26 16 -54 43t-55 54q-27 -27 -54 -53.5t-53 -43.5h-60z" />
    <glyph glyph-name="Otilde" unicode="&#xd5;" 
d="M299 -10q-89 0 -145 46t-82.5 129t-26.5 192q0 110 26.5 193t83 129.5t145.5 46.5t145.5 -46t83 -128.5t26.5 -192.5q0 -111 -27 -194t-83.5 -129t-145.5 -46zM301 70q90 0 126 76.5t36 211.5q0 136 -36 212t-125 76q-91 0 -128 -77t-37 -211q0 -135 37 -211.5t127 -76.5
zM120 784q6 59 34.5 93.5t75.5 34.5q28 0 53 -14.5t48 -28.5t44 -14q23 0 35.5 14.5t19.5 43.5h50q-6 -58 -34 -93t-75 -35q-28 0 -52.5 14t-47 28.5t-45.5 14.5q-24 0 -36 -14.5t-19 -43.5h-51z" />
    <glyph glyph-name="Odieresis" unicode="&#xd6;" 
d="M299 -10q-89 0 -145 46t-82.5 129t-26.5 192q0 110 26.5 193t83 129.5t145.5 46.5t145.5 -46t83 -128.5t26.5 -192.5q0 -111 -27 -194t-83.5 -129t-145.5 -46zM301 70q90 0 126 76.5t36 211.5q0 136 -36 212t-125 76q-91 0 -128 -77t-37 -211q0 -135 37 -211.5t127 -76.5
zM414 800q-22 0 -38 14.5t-16 44.5q0 31 16 44t38 13t38.5 -13t16.5 -44q0 -30 -16.5 -44.5t-38.5 -14.5zM185 800q-22 0 -38 14.5t-16 44.5q0 31 16 44t38 13t38.5 -13t16.5 -44q0 -30 -16.5 -44.5t-38.5 -14.5z" />
    <glyph glyph-name="multiply" unicode="&#xd7;" 
d="M136 138l-50 49l164 166l-165 165l50 50l165 -166l167 166l49 -49l-166 -166l165 -166l-49 -49l-167 164z" />
    <glyph glyph-name="Oslash" unicode="&#xd8;" 
d="M121 -38l-65 35l52 91q-32 48 -47.5 116.5t-15.5 152.5q0 110 26.5 193t83 129.5t145.5 46.5q45 0 81.5 -12t64.5 -35l40 70l64 -35l-53 -93q30 -48 44 -114.5t14 -147.5q0 -111 -27 -194t-83.5 -129t-145.5 -46q-82 0 -138 41zM137 358q0 -54 5.5 -99t17.5 -80l243 426
q-37 41 -101 41q-91 0 -128 -77t-37 -211zM301 70q90 0 126 76.5t36 211.5q0 51 -4.5 93.5t-14.5 76.5l-241 -422q38 -36 98 -36z" />
    <glyph glyph-name="Ugrave" unicode="&#xd9;" 
d="M298 -10q-82 0 -132.5 32.5t-73 92t-22.5 139.5v460h90v-455q0 -56 12.5 -99t43 -66.5t84.5 -23.5q57 0 87.5 25t41.5 68.5t11 96.5v454h90v-462q0 -74 -22 -133.5t-73 -94t-137 -34.5zM311 784q-23 18 -52 46.5t-53.5 57t-36.5 46.5v10h105q11 -22 27.5 -49.5t35 -53.5
t33.5 -45v-12h-59z" />
    <glyph glyph-name="Uacute" unicode="&#xda;" 
d="M298 -10q-82 0 -132.5 32.5t-73 92t-22.5 139.5v460h90v-455q0 -56 12.5 -99t43 -66.5t84.5 -23.5q57 0 87.5 25t41.5 68.5t11 96.5v454h90v-462q0 -74 -22 -133.5t-73 -94t-137 -34.5zM259 784v12q15 19 32.5 45t34.5 53.5t28 49.5h106v-10q-12 -18 -37 -46.5t-53.5 -57
t-52.5 -46.5h-58z" />
    <glyph glyph-name="Ucircumflex" unicode="&#xdb;" 
d="M298 -10q-82 0 -132.5 32.5t-73 92t-22.5 139.5v460h90v-455q0 -56 12.5 -99t43 -66.5t84.5 -23.5q57 0 87.5 25t41.5 68.5t11 96.5v454h90v-462q0 -74 -22 -133.5t-73 -94t-137 -34.5zM131 784v11q19 20 42.5 46t45.5 53.5t35 49.5h90q12 -22 34.5 -49.5t47 -54
t43.5 -45.5v-11h-62q-26 16 -54 43t-55 54q-27 -27 -54 -53.5t-53 -43.5h-60z" />
    <glyph glyph-name="Udieresis" unicode="&#xdc;" 
d="M298 -10q-82 0 -132.5 32.5t-73 92t-22.5 139.5v460h90v-455q0 -56 12.5 -99t43 -66.5t84.5 -23.5q57 0 87.5 25t41.5 68.5t11 96.5v454h90v-462q0 -74 -22 -133.5t-73 -94t-137 -34.5zM414 800q-22 0 -38 14.5t-16 44.5q0 31 16 44t38 13t38.5 -13t16.5 -44
q0 -30 -16.5 -44.5t-38.5 -14.5zM185 800q-22 0 -38 14.5t-16 44.5q0 31 16 44t38 13t38.5 -13t16.5 -44q0 -30 -16.5 -44.5t-38.5 -14.5z" />
    <glyph glyph-name="Yacute" unicode="&#xdd;" 
d="M257 0v278l-222 436h99l167 -361l168 361h96l-222 -436v-278h-86zM259 784v12q15 19 32.5 45t34.5 53.5t28 49.5h106v-10q-12 -18 -37 -46.5t-53.5 -57t-52.5 -46.5h-58z" />
    <glyph glyph-name="Thorn" unicode="&#xde;" 
d="M95 0v714h90v-130h114q128 0 187 -54.5t59 -154.5q0 -59 -24.5 -112t-81 -85.5t-153.5 -32.5h-101v-145h-90zM185 223h91q89 0 133 34t44 113q0 136 -162 136h-106v-283z" />
    <glyph glyph-name="germandbls" unicode="&#xdf;" 
d="M385 -10q-87 0 -141 34v81q26 -16 64 -29t80 -13q53 0 76 23.5t23 66.5q0 25 -8.5 41t-28.5 32t-57 41q-55 38 -81.5 66t-26.5 70q0 34 13.5 57t34 39.5t40.5 32t33.5 34t13.5 44.5q0 41 -34.5 60t-90.5 19q-35 0 -65 -9.5t-48.5 -32.5t-18.5 -66v-581h-88v584
q0 67 29 106.5t78.5 57t112.5 17.5q97 0 156.5 -37t59.5 -108q0 -36 -14 -62t-35 -45.5t-42 -35.5t-35 -32.5t-14 -37.5q0 -13 8 -23.5t27.5 -23.5t52.5 -37q35 -24 61 -47t40.5 -52.5t14.5 -73.5q0 -83 -52 -121.5t-138 -38.5z" />
    <glyph glyph-name="agrave" unicode="&#xe0;" 
d="M246 -10q-79 0 -127.5 39t-48.5 118q0 87 62.5 130t180.5 46l115 3v22q0 72 -36 98.5t-97 26.5q-43 0 -82 -11t-74 -31l-31 68q38 19 84.5 33t107.5 14q101 0 155.5 -45.5t54.5 -141.5v-359h-72l-10 74h-4q-33 -42 -76 -63t-102 -21zM261 63q45 0 83 16.5t61 50t23 84.5
v48l-96 -3q-96 -3 -136.5 -31t-40.5 -78q0 -46 29 -66.5t77 -20.5zM316 606q-23 18 -52 46.5t-53.5 57t-36.5 46.5v10h105q11 -22 27.5 -49.5t35 -53.5t33.5 -45v-12h-59z" />
    <glyph glyph-name="aacute" unicode="&#xe1;" 
d="M246 -10q-79 0 -127.5 39t-48.5 118q0 87 62.5 130t180.5 46l115 3v22q0 72 -36 98.5t-97 26.5q-43 0 -82 -11t-74 -31l-31 68q38 19 84.5 33t107.5 14q101 0 155.5 -45.5t54.5 -141.5v-359h-72l-10 74h-4q-33 -42 -76 -63t-102 -21zM261 63q45 0 83 16.5t61 50t23 84.5
v48l-96 -3q-96 -3 -136.5 -31t-40.5 -78q0 -46 29 -66.5t77 -20.5zM264 606v12q15 19 32.5 45t34.5 53.5t28 49.5h106v-10q-12 -18 -37 -46.5t-53.5 -57t-52.5 -46.5h-58z" />
    <glyph glyph-name="acircumflex" unicode="&#xe2;" 
d="M246 -10q-79 0 -127.5 39t-48.5 118q0 87 62.5 130t180.5 46l115 3v22q0 72 -36 98.5t-97 26.5q-43 0 -82 -11t-74 -31l-31 68q38 19 84.5 33t107.5 14q101 0 155.5 -45.5t54.5 -141.5v-359h-72l-10 74h-4q-33 -42 -76 -63t-102 -21zM261 63q45 0 83 16.5t61 50t23 84.5
v48l-96 -3q-96 -3 -136.5 -31t-40.5 -78q0 -46 29 -66.5t77 -20.5zM136 606v11q19 20 42.5 46t45.5 53.5t35 49.5h90q12 -22 34.5 -49.5t47 -54t43.5 -45.5v-11h-62q-26 16 -54 43t-55 54q-27 -27 -54 -53.5t-53 -43.5h-60z" />
    <glyph glyph-name="atilde" unicode="&#xe3;" 
d="M246 -10q-79 0 -127.5 39t-48.5 118q0 87 62.5 130t180.5 46l115 3v22q0 72 -36 98.5t-97 26.5q-43 0 -82 -11t-74 -31l-31 68q38 19 84.5 33t107.5 14q101 0 155.5 -45.5t54.5 -141.5v-359h-72l-10 74h-4q-33 -42 -76 -63t-102 -21zM261 63q45 0 83 16.5t61 50t23 84.5
v48l-96 -3q-96 -3 -136.5 -31t-40.5 -78q0 -46 29 -66.5t77 -20.5zM125 606q6 59 34.5 93.5t75.5 34.5q28 0 53 -14.5t48 -28.5t44 -14q23 0 35.5 14.5t19.5 43.5h50q-6 -58 -34 -93t-75 -35q-28 0 -52.5 14t-47 28.5t-45.5 14.5q-24 0 -36 -14.5t-19 -43.5h-51z" />
    <glyph glyph-name="adieresis" unicode="&#xe4;" 
d="M246 -10q-79 0 -127.5 39t-48.5 118q0 87 62.5 130t180.5 46l115 3v22q0 72 -36 98.5t-97 26.5q-43 0 -82 -11t-74 -31l-31 68q38 19 84.5 33t107.5 14q101 0 155.5 -45.5t54.5 -141.5v-359h-72l-10 74h-4q-33 -42 -76 -63t-102 -21zM261 63q45 0 83 16.5t61 50t23 84.5
v48l-96 -3q-96 -3 -136.5 -31t-40.5 -78q0 -46 29 -66.5t77 -20.5zM419 622q-22 0 -38 14.5t-16 44.5q0 31 16 44t38 13t38.5 -13t16.5 -44q0 -30 -16.5 -44.5t-38.5 -14.5zM190 622q-22 0 -38 14.5t-16 44.5q0 31 16 44t38 13t38.5 -13t16.5 -44q0 -30 -16.5 -44.5
t-38.5 -14.5z" />
    <glyph glyph-name="aring" unicode="&#xe5;" 
d="M246 -10q-79 0 -127.5 39t-48.5 118q0 87 62.5 130t180.5 46l115 3v22q0 72 -36 98.5t-97 26.5q-43 0 -82 -11t-74 -31l-31 68q38 19 84.5 33t107.5 14q101 0 155.5 -45.5t54.5 -141.5v-359h-72l-10 74h-4q-33 -42 -76 -63t-102 -21zM261 63q45 0 83 16.5t61 50t23 84.5
v48l-96 -3q-96 -3 -136.5 -31t-40.5 -78q0 -46 29 -66.5t77 -20.5zM304 606q-49 0 -79 28t-30 78t30 77.5t79 27.5q47 0 79 -27.5t32 -76.5q0 -51 -31.5 -79t-79.5 -28zM304 658q24 0 39 14.5t15 39.5q0 26 -15.5 40t-38.5 14q-22 0 -37.5 -14t-15.5 -40q0 -25 15 -39.5
t38 -14.5z" />
    <glyph glyph-name="ae" unicode="&#xe6;" 
d="M145 -10q-51 0 -88 39t-37 121q0 80 42.5 124t117.5 46l78 2v34q0 65 -20 91t-58 26q-23 0 -48.5 -10.5t-45.5 -27.5l-31 64q25 20 61.5 33.5t67.5 13.5q48 0 79.5 -19t47.5 -60q17 38 48 58.5t74 20.5q69 0 108 -62.5t39 -177.5v-55h-245q2 -104 34 -146t84 -42
q32 0 58.5 10t55.5 32v-79q-28 -19 -55 -27.5t-63 -8.5q-48 0 -89 23.5t-63 84.5q-25 -58 -61.5 -83t-90.5 -25zM337 321h161q0 75 -17 113.5t-57 38.5q-35 0 -59.5 -39t-27.5 -113zM161 63q25 0 46.5 14t35 47.5t13.5 89.5v45l-45 -3q-58 -4 -84.5 -30.5t-26.5 -76.5
q0 -45 18 -65.5t43 -20.5z" />
    <glyph glyph-name="ccedilla" unicode="&#xe7;" 
d="M338 -10q-118 0 -185.5 64.5t-67.5 209.5q0 103 33.5 165t93 89.5t135.5 27.5q47 0 85.5 -9.5t72.5 -27.5l-27 -73q-32 17 -62 24.5t-65 7.5q-92 0 -133 -50.5t-41 -151.5q0 -107 43 -153t128 -46q44 0 83 9.5t68 22.5v-79q-30 -14 -74 -22t-87 -8zM279 -240q-33 0 -51 5
v55q9 -2 24 -3.5t29 -1.5q35 0 54.5 9.5t19.5 33.5q0 26 -23.5 38t-67.5 18l43 91h58l-26 -58q36 -8 61.5 -27.5t25.5 -60.5q0 -46 -37 -72.5t-110 -26.5z" />
    <glyph glyph-name="egrave" unicode="&#xe8;" 
d="M337 -10q-129 0 -203 71.5t-74 204.5q0 88 32 150.5t89 96t133 33.5q105 0 165.5 -68t60.5 -186v-41h-389q2 -70 26.5 -111t67 -58.5t98.5 -17.5q44 0 87 12t86 32v-80q-46 -20 -92 -29t-87 -9zM153 323h297q-3 70 -37.5 110t-98.5 40q-67 0 -108.5 -40.5t-52.5 -109.5z
M315 606q-23 18 -52 46.5t-53.5 57t-36.5 46.5v10h105q11 -22 27.5 -49.5t35 -53.5t33.5 -45v-12h-59z" />
    <glyph glyph-name="eacute" unicode="&#xe9;" 
d="M337 -10q-129 0 -203 71.5t-74 204.5q0 88 32 150.5t89 96t133 33.5q105 0 165.5 -68t60.5 -186v-41h-389q2 -70 26.5 -111t67 -58.5t98.5 -17.5q44 0 87 12t86 32v-80q-46 -20 -92 -29t-87 -9zM153 323h297q-3 70 -37.5 110t-98.5 40q-67 0 -108.5 -40.5t-52.5 -109.5z
M263 606v12q15 19 32.5 45t34.5 53.5t28 49.5h106v-10q-12 -18 -37 -46.5t-53.5 -57t-52.5 -46.5h-58z" />
    <glyph glyph-name="ecircumflex" unicode="&#xea;" 
d="M337 -10q-129 0 -203 71.5t-74 204.5q0 88 32 150.5t89 96t133 33.5q105 0 165.5 -68t60.5 -186v-41h-389q2 -70 26.5 -111t67 -58.5t98.5 -17.5q44 0 87 12t86 32v-80q-46 -20 -92 -29t-87 -9zM153 323h297q-3 70 -37.5 110t-98.5 40q-67 0 -108.5 -40.5t-52.5 -109.5z
M135 606v11q19 20 42.5 46t45.5 53.5t35 49.5h90q12 -22 34.5 -49.5t47 -54t43.5 -45.5v-11h-62q-26 16 -54 43t-55 54q-27 -27 -54 -53.5t-53 -43.5h-60z" />
    <glyph glyph-name="edieresis" unicode="&#xeb;" 
d="M337 -10q-129 0 -203 71.5t-74 204.5q0 88 32 150.5t89 96t133 33.5q105 0 165.5 -68t60.5 -186v-41h-389q2 -70 26.5 -111t67 -58.5t98.5 -17.5q44 0 87 12t86 32v-80q-46 -20 -92 -29t-87 -9zM153 323h297q-3 70 -37.5 110t-98.5 40q-67 0 -108.5 -40.5t-52.5 -109.5z
M418 622q-22 0 -38 14.5t-16 44.5q0 31 16 44t38 13t38.5 -13t16.5 -44q0 -30 -16.5 -44.5t-38.5 -14.5zM189 622q-22 0 -38 14.5t-16 44.5q0 31 16 44t38 13t38.5 -13t16.5 -44q0 -30 -16.5 -44.5t-38.5 -14.5z" />
    <glyph glyph-name="igrave" unicode="&#xec;" 
d="M80 0v60l191 15v386l-175 13v62h265v-461l179 -15v-60h-460zM311 606q-23 18 -52 46.5t-53.5 57t-36.5 46.5v10h105q11 -22 27.5 -49.5t35 -53.5t33.5 -45v-12h-59z" />
    <glyph glyph-name="iacute" unicode="&#xed;" 
d="M80 0v60l191 15v386l-175 13v62h265v-461l179 -15v-60h-460zM259 606v12q15 19 32.5 45t34.5 53.5t28 49.5h106v-10q-12 -18 -37 -46.5t-53.5 -57t-52.5 -46.5h-58z" />
    <glyph glyph-name="icircumflex" unicode="&#xee;" 
d="M80 0v60l191 15v386l-175 13v62h265v-461l179 -15v-60h-460zM131 606v11q19 20 42.5 46t45.5 53.5t35 49.5h90q12 -22 34.5 -49.5t47 -54t43.5 -45.5v-11h-62q-26 16 -54 43t-55 54q-27 -27 -54 -53.5t-53 -43.5h-60z" />
    <glyph glyph-name="idieresis" unicode="&#xef;" 
d="M80 0v60l191 15v386l-175 13v62h265v-461l179 -15v-60h-460zM414 622q-22 0 -38 14.5t-16 44.5q0 31 16 44t38 13t38.5 -13t16.5 -44q0 -30 -16.5 -44.5t-38.5 -14.5zM185 622q-22 0 -38 14.5t-16 44.5q0 31 16 44t38 13t38.5 -13t16.5 -44q0 -30 -16.5 -44.5
t-38.5 -14.5z" />
    <glyph glyph-name="eth" unicode="&#xf0;" 
d="M301 -10q-72 0 -127.5 29.5t-87 84t-31.5 129.5q0 112 63.5 176t171.5 64q53 0 92.5 -14t63.5 -44l4 2q-18 55 -51 102t-77 87l-126 -73l-38 55l109 63q-40 29 -87 54l36 60q65 -31 120 -74l121 69l38 -54l-107 -62q74 -74 115.5 -168.5t41.5 -200.5q0 -142 -65.5 -213.5
t-178.5 -71.5zM303 62q80 0 116.5 48.5t36.5 140.5q0 62 -37.5 106.5t-115.5 44.5q-84 0 -121.5 -44.5t-37.5 -127.5q0 -73 38 -120.5t121 -47.5z" />
    <glyph glyph-name="ntilde" unicode="&#xf1;" 
d="M80 0v536h72l13 -79h5q23 46 68.5 67.5t106.5 21.5q81 0 130.5 -45.5t49.5 -142.5v-358h-90v342q0 68 -27.5 99.5t-88.5 31.5q-82 0 -115.5 -52t-33.5 -146v-275h-90zM132 606q6 59 34.5 93.5t75.5 34.5q28 0 53 -14.5t48 -28.5t44 -14q23 0 35.5 14.5t19.5 43.5h50
q-6 -58 -34 -93t-75 -35q-28 0 -52.5 14t-47 28.5t-45.5 14.5q-24 0 -36 -14.5t-19 -43.5h-51z" />
    <glyph glyph-name="ograve" unicode="&#xf2;" 
d="M301 -10q-70 0 -125.5 30.5t-88 93t-32.5 156.5q0 93 31.5 154t86.5 91.5t125 30.5t126 -30.5t88.5 -92t32.5 -156.5q0 -93 -32 -154.5t-87 -92t-125 -30.5zM300 63q78 0 116 55.5t38 150.5t-38.5 149.5t-116.5 54.5t-116.5 -54.5t-38.5 -149.5t39 -150.5t117 -55.5z
M311 606q-23 18 -52 46.5t-53.5 57t-36.5 46.5v10h105q11 -22 27.5 -49.5t35 -53.5t33.5 -45v-12h-59z" />
    <glyph glyph-name="oacute" unicode="&#xf3;" 
d="M301 -10q-70 0 -125.5 30.5t-88 93t-32.5 156.5q0 93 31.5 154t86.5 91.5t125 30.5t126 -30.5t88.5 -92t32.5 -156.5q0 -93 -32 -154.5t-87 -92t-125 -30.5zM300 63q78 0 116 55.5t38 150.5t-38.5 149.5t-116.5 54.5t-116.5 -54.5t-38.5 -149.5t39 -150.5t117 -55.5z
M259 606v12q15 19 32.5 45t34.5 53.5t28 49.5h106v-10q-12 -18 -37 -46.5t-53.5 -57t-52.5 -46.5h-58z" />
    <glyph glyph-name="ocircumflex" unicode="&#xf4;" 
d="M301 -10q-70 0 -125.5 30.5t-88 93t-32.5 156.5q0 93 31.5 154t86.5 91.5t125 30.5t126 -30.5t88.5 -92t32.5 -156.5q0 -93 -32 -154.5t-87 -92t-125 -30.5zM300 63q78 0 116 55.5t38 150.5t-38.5 149.5t-116.5 54.5t-116.5 -54.5t-38.5 -149.5t39 -150.5t117 -55.5z
M131 606v11q19 20 42.5 46t45.5 53.5t35 49.5h90q12 -22 34.5 -49.5t47 -54t43.5 -45.5v-11h-62q-26 16 -54 43t-55 54q-27 -27 -54 -53.5t-53 -43.5h-60z" />
    <glyph glyph-name="otilde" unicode="&#xf5;" 
d="M301 -10q-70 0 -125.5 30.5t-88 93t-32.5 156.5q0 93 31.5 154t86.5 91.5t125 30.5t126 -30.5t88.5 -92t32.5 -156.5q0 -93 -32 -154.5t-87 -92t-125 -30.5zM300 63q78 0 116 55.5t38 150.5t-38.5 149.5t-116.5 54.5t-116.5 -54.5t-38.5 -149.5t39 -150.5t117 -55.5z
M120 606q6 59 34.5 93.5t75.5 34.5q28 0 53 -14.5t48 -28.5t44 -14q23 0 35.5 14.5t19.5 43.5h50q-6 -58 -34 -93t-75 -35q-28 0 -52.5 14t-47 28.5t-45.5 14.5q-24 0 -36 -14.5t-19 -43.5h-51z" />
    <glyph glyph-name="odieresis" unicode="&#xf6;" 
d="M301 -10q-70 0 -125.5 30.5t-88 93t-32.5 156.5q0 93 31.5 154t86.5 91.5t125 30.5t126 -30.5t88.5 -92t32.5 -156.5q0 -93 -32 -154.5t-87 -92t-125 -30.5zM300 63q78 0 116 55.5t38 150.5t-38.5 149.5t-116.5 54.5t-116.5 -54.5t-38.5 -149.5t39 -150.5t117 -55.5z
M414 622q-22 0 -38 14.5t-16 44.5q0 31 16 44t38 13t38.5 -13t16.5 -44q0 -30 -16.5 -44.5t-38.5 -14.5zM185 622q-22 0 -38 14.5t-16 44.5q0 31 16 44t38 13t38.5 -13t16.5 -44q0 -30 -16.5 -44.5t-38.5 -14.5z" />
    <glyph glyph-name="divide" unicode="&#xf7;" 
d="M299 462q-23 0 -39.5 14.5t-16.5 46.5q0 34 16.5 47t39.5 13t39 -13t16 -47q0 -32 -16 -46.5t-39 -14.5zM80 317v71h440v-71h-440zM299 121q-23 0 -39.5 14.5t-16.5 46.5q0 34 16.5 47t39.5 13t39 -13t16 -47q0 -32 -16 -46.5t-39 -14.5z" />
    <glyph glyph-name="oslash" unicode="&#xf8;" 
d="M132 -33l-58 39l44 62q-30 34 -46.5 84.5t-16.5 117.5q0 93 31.5 154t86.5 91.5t125 30.5q78 0 136 -36l40 56l59 -38l-46 -65q27 -34 42.5 -83t15.5 -113q0 -93 -32 -154.5t-87 -92t-125 -30.5q-74 0 -129 33zM144 269q0 -78 26 -129l218 306q-36 27 -89 27
q-78 0 -116.5 -54.5t-38.5 -149.5zM300 63q78 0 116 55.5t38 150.5q0 71 -21 119l-216 -302q34 -23 83 -23z" />
    <glyph glyph-name="ugrave" unicode="&#xf9;" 
d="M261 -10q-95 0 -140.5 47.5t-45.5 141.5v357h90v-343q0 -64 26.5 -97t91.5 -33q83 0 115 52t32 145v276h90v-536h-72l-13 72h-5q-28 -45 -70.5 -63.5t-98.5 -18.5zM311 606q-23 18 -52 46.5t-53.5 57t-36.5 46.5v10h105q11 -22 27.5 -49.5t35 -53.5t33.5 -45v-12h-59z
" />
    <glyph glyph-name="uacute" unicode="&#xfa;" 
d="M261 -10q-95 0 -140.5 47.5t-45.5 141.5v357h90v-343q0 -64 26.5 -97t91.5 -33q83 0 115 52t32 145v276h90v-536h-72l-13 72h-5q-28 -45 -70.5 -63.5t-98.5 -18.5zM259 606v12q15 19 32.5 45t34.5 53.5t28 49.5h106v-10q-12 -18 -37 -46.5t-53.5 -57t-52.5 -46.5h-58z
" />
    <glyph glyph-name="ucircumflex" unicode="&#xfb;" 
d="M261 -10q-95 0 -140.5 47.5t-45.5 141.5v357h90v-343q0 -64 26.5 -97t91.5 -33q83 0 115 52t32 145v276h90v-536h-72l-13 72h-5q-28 -45 -70.5 -63.5t-98.5 -18.5zM131 606v11q19 20 42.5 46t45.5 53.5t35 49.5h90q12 -22 34.5 -49.5t47 -54t43.5 -45.5v-11h-62
q-26 16 -54 43t-55 54q-27 -27 -54 -53.5t-53 -43.5h-60z" />
    <glyph glyph-name="udieresis" unicode="&#xfc;" 
d="M261 -10q-95 0 -140.5 47.5t-45.5 141.5v357h90v-343q0 -64 26.5 -97t91.5 -33q83 0 115 52t32 145v276h90v-536h-72l-13 72h-5q-28 -45 -70.5 -63.5t-98.5 -18.5zM414 622q-22 0 -38 14.5t-16 44.5q0 31 16 44t38 13t38.5 -13t16.5 -44q0 -30 -16.5 -44.5t-38.5 -14.5z
M185 622q-22 0 -38 14.5t-16 44.5q0 31 16 44t38 13t38.5 -13t16.5 -44q0 -30 -16.5 -44.5t-38.5 -14.5z" />
    <glyph glyph-name="yacute" unicode="&#xfd;" 
d="M136 -245q-20 0 -39 2.5t-33 5.5v69q12 -2 28.5 -4t32.5 -2q46 0 71 22.5t45 73.5l29 73l-225 541h88l128 -315q13 -31 25.5 -69t22.5 -73h3q11 37 23 74.5t22 68.5l105 314h92l-225 -606q-19 -52 -41.5 -91.5t-58 -61.5t-93.5 -22zM259 606v12q15 19 32.5 45t34.5 53.5
t28 49.5h106v-10q-12 -18 -37 -46.5t-53.5 -57t-52.5 -46.5h-58z" />
    <glyph glyph-name="thorn" unicode="&#xfe;" 
d="M80 -240v1000h89v-209q0 -22 -1 -44t-3 -44h4q23 39 61.5 61t98.5 22q98 0 157 -70t59 -207t-59 -208t-157 -71q-59 0 -98 24t-62 55h-6q6 -39 6 -80v-229h-89zM310 63q75 0 109 51.5t34 156.5q0 103 -33.5 152.5t-110.5 49.5q-73 0 -106.5 -47.5t-33.5 -136.5v-20
q0 -95 30.5 -150.5t110.5 -55.5z" />
    <glyph glyph-name="ydieresis" unicode="&#xff;" 
d="M136 -245q-20 0 -39 2.5t-33 5.5v69q12 -2 28.5 -4t32.5 -2q46 0 71 22.5t45 73.5l29 73l-225 541h88l128 -315q13 -31 25.5 -69t22.5 -73h3q11 37 23 74.5t22 68.5l105 314h92l-225 -606q-19 -52 -41.5 -91.5t-58 -61.5t-93.5 -22zM414 622q-22 0 -38 14.5t-16 44.5
q0 31 16 44t38 13t38.5 -13t16.5 -44q0 -30 -16.5 -44.5t-38.5 -14.5zM185 622q-22 0 -38 14.5t-16 44.5q0 31 16 44t38 13t38.5 -13t16.5 -44q0 -30 -16.5 -44.5t-38.5 -14.5z" />
    <glyph glyph-name="Amacron" unicode="&#x100;" 
d="M20 0l232 717h95l233 -717h-92l-68 219h-241l-68 -219h-91zM270 512l-66 -213h191l-66 213q-5 17 -14 48t-16 62q-6 -31 -15 -62t-14 -48zM151 796v71h297v-71h-297z" />
    <glyph glyph-name="amacron" unicode="&#x101;" 
d="M246 -10q-79 0 -127.5 39t-48.5 118q0 87 62.5 130t180.5 46l115 3v22q0 72 -36 98.5t-97 26.5q-43 0 -82 -11t-74 -31l-31 68q38 19 84.5 33t107.5 14q101 0 155.5 -45.5t54.5 -141.5v-359h-72l-10 74h-4q-33 -42 -76 -63t-102 -21zM261 63q45 0 83 16.5t61 50t23 84.5
v48l-96 -3q-96 -3 -136.5 -31t-40.5 -78q0 -46 29 -66.5t77 -20.5zM156 618v71h297v-71h-297z" />
    <glyph glyph-name="Abreve" unicode="&#x102;" 
d="M20 0l232 717h95l233 -717h-92l-68 219h-241l-68 -219h-91zM270 512l-66 -213h191l-66 213q-5 17 -14 48t-16 62q-6 -31 -15 -62t-14 -48zM296 784q-71 0 -110.5 38t-41.5 96h58q7 -30 22.5 -45t35.5 -20.5t39 -5.5q31 0 59.5 13.5t37.5 57.5h59q-1 -58 -42.5 -96
t-116.5 -38z" />
    <glyph glyph-name="abreve" unicode="&#x103;" 
d="M246 -10q-79 0 -127.5 39t-48.5 118q0 87 62.5 130t180.5 46l115 3v22q0 72 -36 98.5t-97 26.5q-43 0 -82 -11t-74 -31l-31 68q38 19 84.5 33t107.5 14q101 0 155.5 -45.5t54.5 -141.5v-359h-72l-10 74h-4q-33 -42 -76 -63t-102 -21zM261 63q45 0 83 16.5t61 50t23 84.5
v48l-96 -3q-96 -3 -136.5 -31t-40.5 -78q0 -46 29 -66.5t77 -20.5zM301 606q-71 0 -110.5 38t-41.5 96h58q7 -30 22.5 -45t35.5 -20.5t39 -5.5q31 0 59.5 13.5t37.5 57.5h59q-1 -58 -42.5 -96t-116.5 -38z" />
    <glyph glyph-name="Aogonek" unicode="&#x104;" 
d="M20 0l232 717h95l233 -717h-92l-68 219h-241l-68 -219h-91zM270 512l-66 -213h191l-66 213q-5 17 -14 48t-16 62q-6 -31 -15 -62t-14 -48zM544 -220q-54 0 -79 25t-25 64q0 33 14.5 60.5t36 49t41.5 36.5l48 -15q-33 -31 -50.5 -58t-17.5 -57q0 -25 13 -35.5t38 -10.5
q11 0 22.5 1.5t19.5 4.5v-56q-14 -4 -28.5 -6.5t-32.5 -2.5z" />
    <glyph glyph-name="aogonek" unicode="&#x105;" 
d="M246 -10q-79 0 -127.5 39t-48.5 118q0 87 62.5 130t180.5 46l115 3v22q0 72 -36 98.5t-97 26.5q-43 0 -82 -11t-74 -31l-31 68q38 19 84.5 33t107.5 14q101 0 155.5 -45.5t54.5 -141.5v-359h-72l-10 74h-4q-33 -42 -76 -63t-102 -21zM261 63q45 0 83 16.5t61 50t23 84.5
v48l-96 -3q-96 -3 -136.5 -31t-40.5 -78q0 -46 29 -66.5t77 -20.5zM468 -220q-54 0 -79 25t-25 64q0 33 14.5 60.5t36 49t41.5 36.5l48 -15q-33 -31 -50.5 -58t-17.5 -57q0 -25 13 -35.5t38 -10.5q11 0 22.5 1.5t19.5 4.5v-56q-14 -4 -28.5 -6.5t-32.5 -2.5z" />
    <glyph glyph-name="Cacute" unicode="&#x106;" 
d="M365 -10q-105 0 -171 47t-97 129.5t-31 190.5q0 113 35.5 195.5t103 127t164.5 44.5q52 0 97.5 -11t83.5 -31l-34 -73q-31 17 -70.5 26t-76.5 9q-102 0 -156.5 -74t-54.5 -213q0 -133 49 -208.5t160 -75.5q34 0 73.5 7.5t78.5 23.5v-85q-40 -15 -76.5 -22t-77.5 -7z
M318 784v12q15 19 32.5 45t34.5 53.5t28 49.5h106v-10q-12 -18 -37 -46.5t-53.5 -57t-52.5 -46.5h-58z" />
    <glyph glyph-name="cacute" unicode="&#x107;" 
d="M338 -10q-118 0 -185.5 64.5t-67.5 209.5q0 103 33.5 165t93 89.5t135.5 27.5q47 0 85.5 -9.5t72.5 -27.5l-27 -73q-32 17 -62 24.5t-65 7.5q-92 0 -133 -50.5t-41 -151.5q0 -107 43 -153t128 -46q44 0 83 9.5t68 22.5v-79q-30 -14 -74 -22t-87 -8zM287 606v12
q15 19 32.5 45t34.5 53.5t28 49.5h106v-10q-12 -18 -37 -46.5t-53.5 -57t-52.5 -46.5h-58z" />
    <glyph glyph-name="Ccircumflex" unicode="&#x108;" 
d="M365 -10q-105 0 -171 47t-97 129.5t-31 190.5q0 113 35.5 195.5t103 127t164.5 44.5q52 0 97.5 -11t83.5 -31l-34 -73q-31 17 -70.5 26t-76.5 9q-102 0 -156.5 -74t-54.5 -213q0 -133 49 -208.5t160 -75.5q34 0 73.5 7.5t78.5 23.5v-85q-40 -15 -76.5 -22t-77.5 -7z
M190 784v11q19 20 42.5 46t45.5 53.5t35 49.5h90q12 -22 34.5 -49.5t47 -54t43.5 -45.5v-11h-62q-26 16 -54 43t-55 54q-27 -27 -54 -53.5t-53 -43.5h-60z" />
    <glyph glyph-name="ccircumflex" unicode="&#x109;" 
d="M338 -10q-118 0 -185.5 64.5t-67.5 209.5q0 103 33.5 165t93 89.5t135.5 27.5q47 0 85.5 -9.5t72.5 -27.5l-27 -73q-32 17 -62 24.5t-65 7.5q-92 0 -133 -50.5t-41 -151.5q0 -107 43 -153t128 -46q44 0 83 9.5t68 22.5v-79q-30 -14 -74 -22t-87 -8zM159 606v11
q19 20 42.5 46t45.5 53.5t35 49.5h90q12 -22 34.5 -49.5t47 -54t43.5 -45.5v-11h-62q-26 16 -54 43t-55 54q-27 -27 -54 -53.5t-53 -43.5h-60z" />
    <glyph glyph-name="Cdot" unicode="&#x10a;" 
d="M365 -10q-105 0 -171 47t-97 129.5t-31 190.5q0 113 35.5 195.5t103 127t164.5 44.5q52 0 97.5 -11t83.5 -31l-34 -73q-31 17 -70.5 26t-76.5 9q-102 0 -156.5 -74t-54.5 -213q0 -133 49 -208.5t160 -75.5q34 0 73.5 7.5t78.5 23.5v-85q-40 -15 -76.5 -22t-77.5 -7z
M358 811q-26 0 -44.5 16t-18.5 47q0 33 18.5 48.5t44.5 15.5t44.5 -15.5t18.5 -48.5q0 -31 -18.5 -47t-44.5 -16z" />
    <glyph glyph-name="cdot" unicode="&#x10b;" 
d="M338 -10q-118 0 -185.5 64.5t-67.5 209.5q0 103 33.5 165t93 89.5t135.5 27.5q47 0 85.5 -9.5t72.5 -27.5l-27 -73q-32 17 -62 24.5t-65 7.5q-92 0 -133 -50.5t-41 -151.5q0 -107 43 -153t128 -46q44 0 83 9.5t68 22.5v-79q-30 -14 -74 -22t-87 -8zM327 633
q-26 0 -44.5 16t-18.5 47q0 33 18.5 48.5t44.5 15.5t44.5 -15.5t18.5 -48.5q0 -31 -18.5 -47t-44.5 -16z" />
    <glyph glyph-name="Ccaron" unicode="&#x10c;" 
d="M365 -10q-105 0 -171 47t-97 129.5t-31 190.5q0 113 35.5 195.5t103 127t164.5 44.5q52 0 97.5 -11t83.5 -31l-34 -73q-31 17 -70.5 26t-76.5 9q-102 0 -156.5 -74t-54.5 -213q0 -133 49 -208.5t160 -75.5q34 0 73.5 7.5t78.5 23.5v-85q-40 -15 -76.5 -22t-77.5 -7z
M313 784q-13 23 -35 49.5t-46 52.5t-42 45v13h60q26 -17 54 -41t53 -51q27 27 55 51t54 41h62v-13q-19 -19 -43.5 -45t-47 -52.5t-34.5 -49.5h-90z" />
    <glyph glyph-name="ccaron" unicode="&#x10d;" 
d="M338 -10q-118 0 -185.5 64.5t-67.5 209.5q0 103 33.5 165t93 89.5t135.5 27.5q47 0 85.5 -9.5t72.5 -27.5l-27 -73q-32 17 -62 24.5t-65 7.5q-92 0 -133 -50.5t-41 -151.5q0 -107 43 -153t128 -46q44 0 83 9.5t68 22.5v-79q-30 -14 -74 -22t-87 -8zM282 606
q-13 23 -35 49.5t-46 52.5t-42 45v13h60q26 -17 54 -41t53 -51q27 27 55 51t54 41h62v-13q-19 -19 -43.5 -45t-47 -52.5t-34.5 -49.5h-90z" />
    <glyph glyph-name="Dcaron" unicode="&#x10e;" 
d="M70 0v714h173q95 0 165 -40t108.5 -117.5t38.5 -192.5q0 -181 -87.5 -272.5t-244.5 -91.5h-153zM160 78h54q128 0 188.5 72t60.5 211q0 142 -61.5 208.5t-168.5 66.5h-73v-558zM231 784q-13 23 -35 49.5t-46 52.5t-42 45v13h60q26 -17 54 -41t53 -51q27 27 55 51t54 41
h62v-13q-19 -19 -43.5 -45t-47 -52.5t-34.5 -49.5h-90z" />
    <glyph glyph-name="dcaron" unicode="&#x10f;" 
d="M245 -10q-91 0 -145.5 69t-54.5 211q0 134 52 205t152 71q59 0 91 -22t51 -56h6q-2 17 -4 38.5t-2 44.5v209h89v-760h-74l-10 72h-4q-22 -37 -57.5 -59.5t-89.5 -22.5zM522 600v12q7 19 13.5 45.5t12 54t7.5 48.5h87v-8q-4 -18 -15.5 -45.5t-26.5 -56t-30 -50.5h-48z
M261 63q66 0 98 49.5t32 134.5v20q0 58 -12 104.5t-39.5 74t-74.5 27.5q-61 0 -94.5 -52t-33.5 -159q0 -199 124 -199z" />
    <glyph glyph-name="Dcroat" unicode="&#x110;" 
d="M80 0v314h-80v78h80v322h173q95 0 165 -40t108.5 -117.5t38.5 -192.5q0 -181 -87.5 -272.5t-244.5 -91.5h-153zM170 78h54q128 0 188.5 72t60.5 211q0 142 -61.5 208.5t-168.5 66.5h-73v-244h122v-78h-122v-236z" />
    <glyph glyph-name="dcroat" unicode="&#x111;" 
d="M274 -10q-99 0 -159 68.5t-60 210.5q0 132 57 202t172 70q56 0 92 -22t55 -56h6q-2 19 -4 39t-2 40v62h-177v66h177v90h89v-90h80v-66h-80v-604h-74l-10 72h-4q-22 -36 -59.5 -59t-98.5 -23zM291 63q71 0 105.5 49t34.5 133v20q0 58 -13 103.5t-43 72.5t-81 27
q-70 0 -108.5 -51t-38.5 -157q0 -197 144 -197z" />
    <glyph glyph-name="Emacron" unicode="&#x112;" 
d="M95 0v714h420v-80h-330v-221h311v-80h-311v-253h330v-80h-420zM157 796v71h297v-71h-297z" />
    <glyph glyph-name="emacron" unicode="&#x113;" 
d="M337 -10q-129 0 -203 71.5t-74 204.5q0 88 32 150.5t89 96t133 33.5q105 0 165.5 -68t60.5 -186v-41h-389q2 -70 26.5 -111t67 -58.5t98.5 -17.5q44 0 87 12t86 32v-80q-46 -20 -92 -29t-87 -9zM153 323h297q-3 70 -37.5 110t-98.5 40q-67 0 -108.5 -40.5t-52.5 -109.5z
M155 618v71h297v-71h-297z" />
    <glyph glyph-name="Ebreve" unicode="&#x114;" 
d="M95 0v714h420v-80h-330v-221h311v-80h-311v-253h330v-80h-420zM302 784q-71 0 -110.5 38t-41.5 96h58q7 -30 22.5 -45t35.5 -20.5t39 -5.5q31 0 59.5 13.5t37.5 57.5h59q-1 -58 -42.5 -96t-116.5 -38z" />
    <glyph glyph-name="ebreve" unicode="&#x115;" 
d="M337 -10q-129 0 -203 71.5t-74 204.5q0 88 32 150.5t89 96t133 33.5q105 0 165.5 -68t60.5 -186v-41h-389q2 -70 26.5 -111t67 -58.5t98.5 -17.5q44 0 87 12t86 32v-80q-46 -20 -92 -29t-87 -9zM153 323h297q-3 70 -37.5 110t-98.5 40q-67 0 -108.5 -40.5t-52.5 -109.5z
M300 606q-71 0 -110.5 38t-41.5 96h58q7 -30 22.5 -45t35.5 -20.5t39 -5.5q31 0 59.5 13.5t37.5 57.5h59q-1 -58 -42.5 -96t-116.5 -38z" />
    <glyph glyph-name="Edotaccent" unicode="&#x116;" 
d="M95 0v714h420v-80h-330v-221h311v-80h-311v-253h330v-80h-420zM305 811q-26 0 -44.5 16t-18.5 47q0 33 18.5 48.5t44.5 15.5t44.5 -15.5t18.5 -48.5q0 -31 -18.5 -47t-44.5 -16z" />
    <glyph glyph-name="edotaccent" unicode="&#x117;" 
d="M337 -10q-129 0 -203 71.5t-74 204.5q0 88 32 150.5t89 96t133 33.5q105 0 165.5 -68t60.5 -186v-41h-389q2 -70 26.5 -111t67 -58.5t98.5 -17.5q44 0 87 12t86 32v-80q-46 -20 -92 -29t-87 -9zM153 323h297q-3 70 -37.5 110t-98.5 40q-67 0 -108.5 -40.5t-52.5 -109.5z
M303 633q-26 0 -44.5 16t-18.5 47q0 33 18.5 48.5t44.5 15.5t44.5 -15.5t18.5 -48.5q0 -31 -18.5 -47t-44.5 -16z" />
    <glyph glyph-name="Eogonek" unicode="&#x118;" 
d="M95 0v714h420v-80h-330v-221h311v-80h-311v-253h330v-80h-420zM425 -220q-54 0 -79 25t-25 64q0 33 14.5 60.5t36 49t41.5 36.5l48 -15q-33 -31 -50.5 -58t-17.5 -57q0 -25 13 -35.5t38 -10.5q11 0 22.5 1.5t19.5 4.5v-56q-14 -4 -28.5 -6.5t-32.5 -2.5z" />
    <glyph glyph-name="eogonek" unicode="&#x119;" 
d="M337 -10q-129 0 -203 71.5t-74 204.5q0 88 32 150.5t89 96t133 33.5q105 0 165.5 -68t60.5 -186v-41h-389q2 -70 26.5 -111t67 -58.5t98.5 -17.5q44 0 87 12t86 32v-80q-41 -31 -71.5 -63.5t-30.5 -74.5q0 -51 52 -51q9 0 21 1.5t20 4.5v-56q-14 -4 -28.5 -6.5
t-31.5 -2.5q-55 0 -80 28t-25 68q0 38 19.5 68t47.5 52q-36 -6 -72 -6zM153 323h297q-3 70 -37.5 110t-98.5 40q-67 0 -108.5 -40.5t-52.5 -109.5z" />
    <glyph glyph-name="Ecaron" unicode="&#x11a;" 
d="M95 0v714h420v-80h-330v-221h311v-80h-311v-253h330v-80h-420zM260 784q-13 23 -35 49.5t-46 52.5t-42 45v13h60q26 -17 54 -41t53 -51q27 27 55 51t54 41h62v-13q-19 -19 -43.5 -45t-47 -52.5t-34.5 -49.5h-90z" />
    <glyph glyph-name="ecaron" unicode="&#x11b;" 
d="M337 -10q-129 0 -203 71.5t-74 204.5q0 88 32 150.5t89 96t133 33.5q105 0 165.5 -68t60.5 -186v-41h-389q2 -70 26.5 -111t67 -58.5t98.5 -17.5q44 0 87 12t86 32v-80q-46 -20 -92 -29t-87 -9zM153 323h297q-3 70 -37.5 110t-98.5 40q-67 0 -108.5 -40.5t-52.5 -109.5z
M258 606q-13 23 -35 49.5t-46 52.5t-42 45v13h60q26 -17 54 -41t53 -51q27 27 55 51t54 41h62v-13q-19 -19 -43.5 -45t-47 -52.5t-34.5 -49.5h-90z" />
    <glyph glyph-name="Gcircumflex" unicode="&#x11c;" 
d="M340 -10q-146 0 -220.5 91t-74.5 265q0 179 78 278.5t229 99.5q51 0 92 -11t78 -31l-32 -75q-25 16 -59 26t-77 10q-109 0 -163 -76.5t-54 -216.5q0 -80 19.5 -143.5t65 -100t122.5 -36.5q32 0 56 5t43 10v212h-130v80h217v-350q-37 -15 -85.5 -26t-104.5 -11zM153 784
v11q19 20 42.5 46t45.5 53.5t35 49.5h90q12 -22 34.5 -49.5t47 -54t43.5 -45.5v-11h-62q-26 16 -54 43t-55 54q-27 -27 -54 -53.5t-53 -43.5h-60z" />
    <glyph glyph-name="gcircumflex" unicode="&#x11d;" 
d="M276 -245q-55 0 -103.5 10.5t-89.5 27.5v80q40 -23 92.5 -34.5t97.5 -11.5q91 0 127 42.5t36 116.5v19q0 12 0.5 23t2.5 34h-4q-28 -41 -65.5 -56.5t-90.5 -15.5q-106 0 -165 72.5t-59 202.5q0 131 58.5 206t160.5 75q54 0 91 -17.5t66 -58.5h5l12 66h72v-550
q0 -115 -59 -173t-185 -58zM296 63q67 0 105 43.5t38 139.5v21q0 110 -39 158t-107 48q-76 0 -111 -53.5t-35 -151.5q0 -100 36.5 -152.5t112.5 -52.5zM131 606v11q19 20 42.5 46t45.5 53.5t35 49.5h90q12 -22 34.5 -49.5t47 -54t43.5 -45.5v-11h-62q-26 16 -54 43t-55 54
q-27 -27 -54 -53.5t-53 -43.5h-60z" />
    <glyph glyph-name="Gbreve" unicode="&#x11e;" 
d="M340 -10q-146 0 -220.5 91t-74.5 265q0 179 78 278.5t229 99.5q51 0 92 -11t78 -31l-32 -75q-25 16 -59 26t-77 10q-109 0 -163 -76.5t-54 -216.5q0 -80 19.5 -143.5t65 -100t122.5 -36.5q32 0 56 5t43 10v212h-130v80h217v-350q-37 -15 -85.5 -26t-104.5 -11zM318 784
q-71 0 -110.5 38t-41.5 96h58q7 -30 22.5 -45t35.5 -20.5t39 -5.5q31 0 59.5 13.5t37.5 57.5h59q-1 -58 -42.5 -96t-116.5 -38z" />
    <glyph glyph-name="gbreve" unicode="&#x11f;" 
d="M276 -245q-55 0 -103.5 10.5t-89.5 27.5v80q40 -23 92.5 -34.5t97.5 -11.5q91 0 127 42.5t36 116.5v19q0 12 0.5 23t2.5 34h-4q-28 -41 -65.5 -56.5t-90.5 -15.5q-106 0 -165 72.5t-59 202.5q0 131 58.5 206t160.5 75q54 0 91 -17.5t66 -58.5h5l12 66h72v-550
q0 -115 -59 -173t-185 -58zM296 63q67 0 105 43.5t38 139.5v21q0 110 -39 158t-107 48q-76 0 -111 -53.5t-35 -151.5q0 -100 36.5 -152.5t112.5 -52.5zM296 606q-71 0 -110.5 38t-41.5 96h58q7 -30 22.5 -45t35.5 -20.5t39 -5.5q31 0 59.5 13.5t37.5 57.5h59
q-1 -58 -42.5 -96t-116.5 -38z" />
    <glyph glyph-name="Gdot" unicode="&#x120;" 
d="M340 -10q-146 0 -220.5 91t-74.5 265q0 179 78 278.5t229 99.5q51 0 92 -11t78 -31l-32 -75q-25 16 -59 26t-77 10q-109 0 -163 -76.5t-54 -216.5q0 -80 19.5 -143.5t65 -100t122.5 -36.5q32 0 56 5t43 10v212h-130v80h217v-350q-37 -15 -85.5 -26t-104.5 -11zM321 811
q-26 0 -44.5 16t-18.5 47q0 33 18.5 48.5t44.5 15.5t44.5 -15.5t18.5 -48.5q0 -31 -18.5 -47t-44.5 -16z" />
    <glyph glyph-name="gdot" unicode="&#x121;" 
d="M276 -245q-55 0 -103.5 10.5t-89.5 27.5v80q40 -23 92.5 -34.5t97.5 -11.5q91 0 127 42.5t36 116.5v19q0 12 0.5 23t2.5 34h-4q-28 -41 -65.5 -56.5t-90.5 -15.5q-106 0 -165 72.5t-59 202.5q0 131 58.5 206t160.5 75q54 0 91 -17.5t66 -58.5h5l12 66h72v-550
q0 -115 -59 -173t-185 -58zM296 63q67 0 105 43.5t38 139.5v21q0 110 -39 158t-107 48q-76 0 -111 -53.5t-35 -151.5q0 -100 36.5 -152.5t112.5 -52.5zM299 633q-26 0 -44.5 16t-18.5 47q0 33 18.5 48.5t44.5 15.5t44.5 -15.5t18.5 -48.5q0 -31 -18.5 -47t-44.5 -16z" />
    <glyph glyph-name="uni0122" unicode="&#x122;" 
d="M340 -10q-146 0 -220.5 91t-74.5 265q0 179 78 278.5t229 99.5q51 0 92 -11t78 -31l-32 -75q-25 16 -59 26t-77 10q-109 0 -163 -76.5t-54 -216.5q0 -80 19.5 -143.5t65 -100t122.5 -36.5q32 0 56 5t43 10v212h-130v80h217v-350q-37 -15 -85.5 -26t-104.5 -11zM254 -221
v12q8 17 16.5 43.5t15.5 55t9 49.5h87v-7q-4 -18 -16.5 -46t-29 -56.5t-34.5 -50.5h-48z" />
    <glyph glyph-name="uni0123" unicode="&#x123;" 
d="M235 606v8q5 18 17 45.5t28.5 56t34.5 50.5h49v-12q-8 -17 -16.5 -43.5t-15.5 -54.5t-10 -50h-87zM276 -245q-55 0 -103.5 10.5t-89.5 27.5v80q40 -23 92.5 -34.5t97.5 -11.5q91 0 127 42.5t36 116.5v19q0 12 0.5 23t2.5 34h-4q-28 -41 -65.5 -56.5t-90.5 -15.5
q-106 0 -165 72.5t-59 202.5q0 131 58.5 206t160.5 75q54 0 91 -17.5t66 -58.5h5l12 66h72v-550q0 -115 -59 -173t-185 -58zM296 63q67 0 105 43.5t38 139.5v21q0 110 -39 158t-107 48q-76 0 -111 -53.5t-35 -151.5q0 -100 36.5 -152.5t112.5 -52.5z" />
    <glyph glyph-name="Hcircumflex" unicode="&#x124;" 
d="M70 0v714h90v-301h280v301h90v-714h-90v333h-280v-333h-90zM131 784v11q19 20 42.5 46t45.5 53.5t35 49.5h90q12 -22 34.5 -49.5t47 -54t43.5 -45.5v-11h-62q-26 16 -54 43t-55 54q-27 -27 -54 -53.5t-53 -43.5h-60z" />
    <glyph glyph-name="hcircumflex" unicode="&#x125;" 
d="M80 0v760h90v-216q0 -19 -1.5 -48t-2.5 -46h5q26 50 69.5 73t98.5 23q83 0 134.5 -46.5t51.5 -149.5v-350h-90v332q0 73 -31 107t-88 34q-67 0 -106.5 -51.5t-39.5 -143.5v-278h-90zM-43 830v11q19 20 42.5 46t45.5 53.5t35 49.5h90q12 -22 34.5 -49.5t47 -54t43.5 -45.5
v-11h-62q-26 16 -54 43t-55 54q-27 -27 -54 -53.5t-53 -43.5h-60z" />
    <glyph glyph-name="Hbar" unicode="&#x126;" 
d="M70 0v523h-70v72h70v119h90v-119h280v119h90v-119h70v-72h-70v-523h-90v333h-280v-333h-90zM160 413h280v110h-280v-110z" />
    <glyph glyph-name="hbar" unicode="&#x127;" 
d="M80 0v604h-80v66h80v90h90v-90h176v-66h-176v-60q0 -19 -1.5 -48t-2.5 -46h5q26 50 69.5 73t98.5 23q83 0 134.5 -46.5t51.5 -149.5v-350h-90v332q0 73 -31 107t-88 34q-67 0 -106.5 -51.5t-39.5 -143.5v-278h-90z" />
    <glyph glyph-name="Itilde" unicode="&#x128;" 
d="M110 0v62l144 13v564l-144 13v62h380v-62l-146 -13v-564l146 -13v-62h-380zM120 784q6 59 34.5 93.5t75.5 34.5q28 0 53 -14.5t48 -28.5t44 -14q23 0 35.5 14.5t19.5 43.5h50q-6 -58 -34 -93t-75 -35q-28 0 -52.5 14t-47 28.5t-45.5 14.5q-24 0 -36 -14.5t-19 -43.5h-51z
" />
    <glyph glyph-name="itilde" unicode="&#x129;" 
d="M80 0v60l191 15v386l-175 13v62h265v-461l179 -15v-60h-460zM120 606q6 59 34.5 93.5t75.5 34.5q28 0 53 -14.5t48 -28.5t44 -14q23 0 35.5 14.5t19.5 43.5h50q-6 -58 -34 -93t-75 -35q-28 0 -52.5 14t-47 28.5t-45.5 14.5q-24 0 -36 -14.5t-19 -43.5h-51z" />
    <glyph glyph-name="Imacron" unicode="&#x12a;" 
d="M110 0v62l144 13v564l-144 13v62h380v-62l-146 -13v-564l146 -13v-62h-380zM151 796v71h297v-71h-297z" />
    <glyph glyph-name="imacron" unicode="&#x12b;" 
d="M80 0v60l191 15v386l-175 13v62h265v-461l179 -15v-60h-460zM151 618v71h297v-71h-297z" />
    <glyph glyph-name="Ibreve" unicode="&#x12c;" 
d="M110 0v62l144 13v564l-144 13v62h380v-62l-146 -13v-564l146 -13v-62h-380zM296 784q-71 0 -110.5 38t-41.5 96h58q7 -30 22.5 -45t35.5 -20.5t39 -5.5q31 0 59.5 13.5t37.5 57.5h59q-1 -58 -42.5 -96t-116.5 -38z" />
    <glyph glyph-name="ibreve" unicode="&#x12d;" 
d="M80 0v60l191 15v386l-175 13v62h265v-461l179 -15v-60h-460zM296 606q-71 0 -110.5 38t-41.5 96h58q7 -30 22.5 -45t35.5 -20.5t39 -5.5q31 0 59.5 13.5t37.5 57.5h59q-1 -58 -42.5 -96t-116.5 -38z" />
    <glyph glyph-name="Iogonek" unicode="&#x12e;" 
d="M110 0v62l144 13v564l-144 13v62h380v-62l-146 -13v-564l146 -13v-62h-380zM407 -220q-54 0 -79 25t-25 64q0 33 14.5 60.5t36 49t41.5 36.5l48 -15q-33 -31 -50.5 -58t-17.5 -57q0 -25 13 -35.5t38 -10.5q11 0 22.5 1.5t19.5 4.5v-56q-14 -4 -28.5 -6.5t-32.5 -2.5z" />
    <glyph glyph-name="iogonek" unicode="&#x12f;" 
d="M307 633q-26 0 -44.5 16t-18.5 47q0 33 18.5 48.5t44.5 15.5t44.5 -15.5t18.5 -48.5q0 -31 -18.5 -47t-44.5 -16zM80 0v60l191 15v386l-175 13v62h265v-461l179 -15v-60h-460zM425 -220q-54 0 -79 25t-25 64q0 33 14.5 60.5t36 49t41.5 36.5l48 -15q-33 -31 -50.5 -58
t-17.5 -57q0 -25 13 -35.5t38 -10.5q11 0 22.5 1.5t19.5 4.5v-56q-14 -4 -28.5 -6.5t-32.5 -2.5z" />
    <glyph glyph-name="Idotaccent" unicode="&#x130;" 
d="M110 0v62l144 13v564l-144 13v62h380v-62l-146 -13v-564l146 -13v-62h-380zM299 811q-26 0 -44.5 16t-18.5 47q0 33 18.5 48.5t44.5 15.5t44.5 -15.5t18.5 -48.5q0 -31 -18.5 -47t-44.5 -16z" />
    <glyph glyph-name="dotlessi" unicode="&#x131;" 
d="M80 0v60l191 15v386l-175 13v62h265v-461l179 -15v-60h-460z" />
    <glyph glyph-name="IJ" unicode="&#x132;" 
d="M270 -10q-29 0 -62 3.5t-61.5 10.5t-44.5 15v85q14 -6 40 -13.5t58.5 -12.5t62.5 -5q65 0 106 35.5t41 120.5v485h90v-497q0 -109 -59 -168t-171 -59zM100 200v514h90v-514h-90z" />
    <glyph glyph-name="ij" unicode="&#x133;" 
d="M163 633q-26 0 -44.5 16t-18.5 48t18 47.5t45 15.5q26 0 44.5 -15.5t18.5 -47.5q0 -33 -19 -48.5t-44 -15.5zM437 633q-26 0 -44 16t-18 48t17.5 47.5t44.5 15.5q26 0 44.5 -15.5t18.5 -47.5q0 -33 -19 -48.5t-44 -15.5zM271 -245q-33 0 -73 5t-68 12v79q29 -9 64.5 -15
t67.5 -6q72 0 103.5 33t31.5 100v573h90v-588q0 -93 -56 -143t-160 -50zM117 0v536h90v-536h-90z" />
    <glyph glyph-name="Jcircumflex" unicode="&#x134;" 
d="M252 -10q-38 0 -81 8t-71 21v85q23 -10 64 -20.5t81 -10.5q59 0 94.5 35.5t35.5 120.5v485h90v-497q0 -109 -54 -168t-159 -59zM251 784v11q19 20 42.5 46t45.5 53.5t35 49.5h90q12 -22 34.5 -49.5t47 -54t43.5 -45.5v-11h-62q-26 16 -54 43t-55 54q-27 -27 -54 -53.5
t-53 -43.5h-60z" />
    <glyph glyph-name="jcircumflex" unicode="&#x135;" 
d="M192 -245q-31 0 -68.5 5t-63.5 12v79q26 -9 59 -15t63 -6q67 0 96 33t29 100v498l-175 13v62h265v-588q0 -93 -53.5 -143t-151.5 -50zM171 606v11q19 20 42.5 46t45.5 53.5t35 49.5h90q12 -22 34.5 -49.5t47 -54t43.5 -45.5v-11h-62q-26 16 -54 43t-55 54
q-27 -27 -54 -53.5t-53 -43.5h-60z" />
    <glyph glyph-name="uni0136" unicode="&#x136;" 
d="M70 0v714h90v-384q17 27 35 55t39 56l204 273h103l-239 -323l248 -391h-103l-206 330l-81 -93v-237h-90zM227 -221v12q8 17 16.5 43.5t15.5 55t9 49.5h87v-7q-4 -18 -16.5 -46t-29 -56.5t-34.5 -50.5h-48z" />
    <glyph glyph-name="uni0137" unicode="&#x137;" 
d="M105 0v760h90v-366q0 -31 -2.5 -73.5t-4.5 -77.5h2q19 25 36.5 45.5t36.5 42.5l185 205h108l-213 -231l227 -305h-104l-183 252l-88 -85v-167h-90zM256 -221v12q8 17 16.5 43.5t15.5 55t9 49.5h87v-7q-4 -18 -16.5 -46t-29 -56.5t-34.5 -50.5h-48z" />
    <glyph glyph-name="kgreenlandic" unicode="&#x138;" 
d="M105 0v536h90v-142q0 -31 -2.5 -73.5t-4.5 -77.5h2q19 25 36 45.5t37 42.5l185 205h108l-213 -231l227 -305h-104l-183 252l-88 -85v-167h-90z" />
    <glyph glyph-name="Lacute" unicode="&#x139;" 
d="M115 0v714h90v-631h310v-83h-400zM120 784v12q15 19 32.5 45t34.5 53.5t28 49.5h106v-10q-12 -18 -37 -46.5t-53.5 -57t-52.5 -46.5h-58z" />
    <glyph glyph-name="lacute" unicode="&#x13a;" 
d="M80 0v60l196 15v610l-190 13v62h280v-685l174 -15v-60h-460zM259 830v12q15 19 32.5 45t34.5 53.5t28 49.5h106v-10q-12 -18 -37 -46.5t-53.5 -57t-52.5 -46.5h-58z" />
    <glyph glyph-name="uni013B" unicode="&#x13b;" 
d="M115 0v714h90v-631h310v-83h-400zM247 -221v12q8 17 16.5 43.5t15.5 55t9 49.5h87v-7q-4 -18 -16.5 -46t-29 -56.5t-34.5 -50.5h-48z" />
    <glyph glyph-name="uni013C" unicode="&#x13c;" 
d="M80 0v60l196 15v610l-190 13v62h280v-685l174 -15v-60h-460zM239 -221v12q8 17 16.5 43.5t15.5 55t9 49.5h87v-7q-4 -18 -16.5 -46t-29 -56.5t-34.5 -50.5h-48z" />
    <glyph glyph-name="Lcaron" unicode="&#x13d;" 
d="M384 554v12q7 19 13.5 45.5t12 54t7.5 48.5h87v-8q-4 -18 -15.5 -45.5t-26.5 -56t-30 -50.5h-48zM115 0v714h90v-631h310v-83h-400z" />
    <glyph glyph-name="lcaron" unicode="&#x13e;" 
d="M443 600v12q7 19 13.5 45.5t12 54t7.5 48.5h87v-8q-4 -18 -15.5 -45.5t-26.5 -56t-30 -50.5h-48zM80 0v60l196 15v610l-190 13v62h280v-685l174 -15v-60h-460z" />
    <glyph glyph-name="Ldot" unicode="&#x13f;" 
d="M115 0v714h90v-631h310v-83h-400zM453 304q-26 0 -44 16t-18 52q0 38 18 53t44 15t44 -15t18 -53q0 -36 -18 -52t-44 -16z" />
    <glyph glyph-name="ldot" unicode="&#x140;" 
d="M600 343q-26 0 -44 16t-18 52q0 38 18 53t44 15t44 -15t18 -53q0 -36 -18 -52t-44 -16zM80 0v60l196 15v610l-190 13v62h280v-685l174 -15v-60h-460z" />
    <glyph glyph-name="Lslash" unicode="&#x141;" 
d="M155 0v251l-66 -38l-35 60l101 60v381h90v-328l120 71l36 -63l-156 -90v-221h310v-83h-400z" />
    <glyph glyph-name="lslash" unicode="&#x142;" 
d="M80 0v60l196 15v221l-96 -59l-36 59l132 82v307l-190 13v62h280v-326l86 53l37 -59l-123 -76v-277l174 -15v-60h-460z" />
    <glyph glyph-name="Nacute" unicode="&#x143;" 
d="M70 0v714h119l260 -595h3q-5 59 -7 107.5t-2 109.5v378h87v-714h-109l-273 622h-4q5 -56 9 -112t4 -112v-398h-87zM264 784v12q15 19 32.5 45t34.5 53.5t28 49.5h106v-10q-12 -18 -37 -46.5t-53.5 -57t-52.5 -46.5h-58z" />
    <glyph glyph-name="nacute" unicode="&#x144;" 
d="M80 0v536h72l13 -79h5q23 46 68.5 67.5t106.5 21.5q81 0 130.5 -45.5t49.5 -142.5v-358h-90v342q0 68 -27.5 99.5t-88.5 31.5q-82 0 -115.5 -52t-33.5 -146v-275h-90zM271 606v12q15 19 32.5 45t34.5 53.5t28 49.5h106v-10q-12 -18 -37 -46.5t-53.5 -57t-52.5 -46.5h-58z
" />
    <glyph glyph-name="uni0145" unicode="&#x145;" 
d="M70 0v714h119l260 -595h3q-5 59 -7 107.5t-2 109.5v378h87v-714h-109l-273 622h-4q5 -56 9 -112t4 -112v-398h-87zM217 -221v12q8 17 16.5 43.5t15.5 55t9 49.5h87v-7q-4 -18 -16.5 -46t-29 -56.5t-34.5 -50.5h-48z" />
    <glyph glyph-name="uni0146" unicode="&#x146;" 
d="M80 0v536h72l13 -79h5q23 46 68.5 67.5t106.5 21.5q81 0 130.5 -45.5t49.5 -142.5v-358h-90v342q0 68 -27.5 99.5t-88.5 31.5q-82 0 -115.5 -52t-33.5 -146v-275h-90zM223 -221v12q8 17 16.5 43.5t15.5 55t9 49.5h87v-7q-4 -18 -16.5 -46t-29 -56.5t-34.5 -50.5h-48z" />
    <glyph glyph-name="Ncaron" unicode="&#x147;" 
d="M70 0v714h119l260 -595h3q-5 59 -7 107.5t-2 109.5v378h87v-714h-109l-273 622h-4q5 -56 9 -112t4 -112v-398h-87zM259 784q-13 23 -35 49.5t-46 52.5t-42 45v13h60q26 -17 54 -41t53 -51q27 27 55 51t54 41h62v-13q-19 -19 -43.5 -45t-47 -52.5t-34.5 -49.5h-90z" />
    <glyph glyph-name="ncaron" unicode="&#x148;" 
d="M80 0v536h72l13 -79h5q23 46 68.5 67.5t106.5 21.5q81 0 130.5 -45.5t49.5 -142.5v-358h-90v342q0 68 -27.5 99.5t-88.5 31.5q-82 0 -115.5 -52t-33.5 -146v-275h-90zM266 606q-13 23 -35 49.5t-46 52.5t-42 45v13h60q26 -17 54 -41t53 -51q27 27 55 51t54 41h62v-13
q-19 -19 -43.5 -45t-47 -52.5t-34.5 -49.5h-90z" />
    <glyph glyph-name="napostrophe" unicode="&#x149;" 
d="M-50 469q14 59 28 126t21 119h103l7 -11q-13 -53 -37 -116t-49 -118h-73zM95 0v536h72l13 -79h5q23 46 65.5 67.5t99.5 21.5q79 0 127 -45.5t48 -142.5v-358h-90v342q0 68 -29 99.5t-82 31.5q-74 0 -106.5 -52t-32.5 -146v-275h-90z" />
    <glyph glyph-name="Eng" unicode="&#x14a;" 
d="M70 0v714h119l260 -595h3q-5 59 -7 107.5t-2 109.5v378h87v-714v0q-2 -98 -52.5 -144t-135.5 -46q-25 0 -43.5 3.5t-32.5 9.5v76q35 -10 72 -10q28 0 52.5 9.5t40 34t15.5 67.5h-25l-273 622h-4q5 -56 9 -112t4 -112v-398h-87z" />
    <glyph glyph-name="eng" unicode="&#x14b;" 
d="M80 0v536h72l13 -79h5q23 46 68.5 67.5t106.5 21.5q81 0 130.5 -45.5t49.5 -142.5v-438q0 -75 -35.5 -117.5t-109.5 -42.5q-24 0 -41 3.5t-30 8.5v71q14 -4 28 -7t32 -3q29 0 47.5 17.5t18.5 66.5v425q0 68 -27.5 99.5t-88.5 31.5q-82 0 -115.5 -52t-33.5 -146v-275h-90z
" />
    <glyph glyph-name="Omacron" unicode="&#x14c;" 
d="M299 -10q-89 0 -145 46t-82.5 129t-26.5 192q0 110 26.5 193t83 129.5t145.5 46.5t145.5 -46t83 -128.5t26.5 -192.5q0 -111 -27 -194t-83.5 -129t-145.5 -46zM301 70q90 0 126 76.5t36 211.5q0 136 -36 212t-125 76q-91 0 -128 -77t-37 -211q0 -135 37 -211.5t127 -76.5
zM151 796v71h297v-71h-297z" />
    <glyph glyph-name="omacron" unicode="&#x14d;" 
d="M301 -10q-70 0 -125.5 30.5t-88 93t-32.5 156.5q0 93 31.5 154t86.5 91.5t125 30.5t126 -30.5t88.5 -92t32.5 -156.5q0 -93 -32 -154.5t-87 -92t-125 -30.5zM300 63q78 0 116 55.5t38 150.5t-38.5 149.5t-116.5 54.5t-116.5 -54.5t-38.5 -149.5t39 -150.5t117 -55.5z
M151 618v71h297v-71h-297z" />
    <glyph glyph-name="Obreve" unicode="&#x14e;" 
d="M299 -10q-89 0 -145 46t-82.5 129t-26.5 192q0 110 26.5 193t83 129.5t145.5 46.5t145.5 -46t83 -128.5t26.5 -192.5q0 -111 -27 -194t-83.5 -129t-145.5 -46zM301 70q90 0 126 76.5t36 211.5q0 136 -36 212t-125 76q-91 0 -128 -77t-37 -211q0 -135 37 -211.5t127 -76.5
zM296 784q-71 0 -110.5 38t-41.5 96h58q7 -30 22.5 -45t35.5 -20.5t39 -5.5q31 0 59.5 13.5t37.5 57.5h59q-1 -58 -42.5 -96t-116.5 -38z" />
    <glyph glyph-name="obreve" unicode="&#x14f;" 
d="M301 -10q-70 0 -125.5 30.5t-88 93t-32.5 156.5q0 93 31.5 154t86.5 91.5t125 30.5t126 -30.5t88.5 -92t32.5 -156.5q0 -93 -32 -154.5t-87 -92t-125 -30.5zM300 63q78 0 116 55.5t38 150.5t-38.5 149.5t-116.5 54.5t-116.5 -54.5t-38.5 -149.5t39 -150.5t117 -55.5z
M296 606q-71 0 -110.5 38t-41.5 96h58q7 -30 22.5 -45t35.5 -20.5t39 -5.5q31 0 59.5 13.5t37.5 57.5h59q-1 -58 -42.5 -96t-116.5 -38z" />
    <glyph glyph-name="Ohungarumlaut" unicode="&#x150;" 
d="M299 -10q-89 0 -145 46t-82.5 129t-26.5 192q0 110 26.5 193t83 129.5t145.5 46.5t145.5 -46t83 -128.5t26.5 -192.5q0 -111 -27 -194t-83.5 -129t-145.5 -46zM301 70q90 0 126 76.5t36 211.5q0 136 -36 212t-125 76q-91 0 -128 -77t-37 -211q0 -135 37 -211.5t127 -76.5
zM316 784v12q14 19 30 45t31.5 53.5t25.5 49.5h96v-10q-10 -17 -33 -46t-50 -57.5t-50 -46.5h-50zM140 784v12q21 29 46 71.5t41 76.5h96v-10q-10 -17 -33 -46t-50 -57.5t-50 -46.5h-50z" />
    <glyph glyph-name="ohungarumlaut" unicode="&#x151;" 
d="M301 -10q-70 0 -125.5 30.5t-88 93t-32.5 156.5q0 93 31.5 154t86.5 91.5t125 30.5t126 -30.5t88.5 -92t32.5 -156.5q0 -93 -32 -154.5t-87 -92t-125 -30.5zM300 63q78 0 116 55.5t38 150.5t-38.5 149.5t-116.5 54.5t-116.5 -54.5t-38.5 -149.5t39 -150.5t117 -55.5z
M316 606v12q14 19 30 45t31.5 53.5t25.5 49.5h96v-10q-10 -17 -33 -46t-50 -57.5t-50 -46.5h-50zM140 606v12q21 29 46 71.5t41 76.5h96v-10q-10 -17 -33 -46t-50 -57.5t-50 -46.5h-50z" />
    <glyph glyph-name="OE" unicode="&#x152;" 
d="M240 -10q-71 0 -115 46t-64.5 129t-20.5 194t21.5 193t68.5 127t122 45q42 0 75 -10h243v-80h-173v-221h154v-79h-154v-254h173v-80h-259q-16 -4 -34 -7t-37 -3zM245 70q36 0 65 16v543q-29 16 -64 16q-61 0 -87.5 -76.5t-26.5 -210.5t26.5 -211t86.5 -77z" />
    <glyph glyph-name="oe" unicode="&#x153;" 
d="M190 -10q-81 0 -124.5 74.5t-43.5 208.5q0 132 42.5 203t124.5 71q48 0 77.5 -24.5t49.5 -71.5q39 95 122 95q50 0 81.5 -31.5t46 -85.5t14.5 -120v-56h-224q2 -99 25 -147t77 -48q44 0 102 36v-70q-55 -34 -110 -34q-46 0 -78.5 23t-54.5 74q-19 -48 -50 -72.5
t-77 -24.5zM357 317h148q0 45 -7 81.5t-22 58.5t-41 22q-34 0 -55 -41t-23 -121zM194 60q44 0 63.5 50.5t19.5 156.5q0 104 -19.5 156.5t-65.5 52.5q-47 0 -68.5 -52.5t-21.5 -153.5q0 -210 92 -210z" />
    <glyph glyph-name="Racute" unicode="&#x154;" 
d="M95 0v714h167q251 0 251 -200q0 -56 -18 -94.5t-48.5 -63t-68.5 -38.5l191 -318h-100l-172 292h-112v-292h-90zM185 370h74q88 0 124.5 34.5t36.5 101.5q0 71 -38.5 100.5t-124.5 29.5h-72v-266zM259 784v12q15 19 32.5 45t34.5 53.5t28 49.5h106v-10q-12 -18 -37 -46.5
t-53.5 -57t-52.5 -46.5h-58z" />
    <glyph glyph-name="racute" unicode="&#x155;" 
d="M62 0v60l163 15v386l-147 13v62h219l12 -98h4q28 53 61.5 80.5t88.5 27.5q34 0 60.5 -6t48.5 -16l-24 -79q-16 9 -38 15.5t-47 6.5q-43 0 -76 -27t-52 -72t-19 -99v-194l156 -15v-60h-410zM299 606v12q15 19 32.5 45t34.5 53.5t28 49.5h106v-10q-12 -18 -37 -46.5
t-53.5 -57t-52.5 -46.5h-58z" />
    <glyph glyph-name="uni0156" unicode="&#x156;" 
d="M95 0v714h167q251 0 251 -200q0 -56 -18 -94.5t-48.5 -63t-68.5 -38.5l191 -318h-100l-172 292h-112v-292h-90zM185 370h74q88 0 124.5 34.5t36.5 101.5q0 71 -38.5 100.5t-124.5 29.5h-72v-266zM247 -221v12q8 17 16.5 43.5t15.5 55t9 49.5h87v-7q-4 -18 -16.5 -46
t-29 -56.5t-34.5 -50.5h-48z" />
    <glyph glyph-name="uni0157" unicode="&#x157;" 
d="M62 0v60l163 15v386l-147 13v62h219l12 -98h4q28 53 61.5 80.5t88.5 27.5q34 0 60.5 -6t48.5 -16l-24 -79q-16 9 -38 15.5t-47 6.5q-43 0 -76 -27t-52 -72t-19 -99v-194l156 -15v-60h-410zM188 -221v12q8 17 16.5 43.5t15.5 55t9 49.5h87v-7q-4 -18 -16.5 -46t-29 -56.5
t-34.5 -50.5h-48z" />
    <glyph glyph-name="Rcaron" unicode="&#x158;" 
d="M95 0v714h167q251 0 251 -200q0 -56 -18 -94.5t-48.5 -63t-68.5 -38.5l191 -318h-100l-172 292h-112v-292h-90zM185 370h74q88 0 124.5 34.5t36.5 101.5q0 71 -38.5 100.5t-124.5 29.5h-72v-266zM254 784q-13 23 -35 49.5t-46 52.5t-42 45v13h60q26 -17 54 -41t53 -51
q27 27 55 51t54 41h62v-13q-19 -19 -43.5 -45t-47 -52.5t-34.5 -49.5h-90z" />
    <glyph glyph-name="rcaron" unicode="&#x159;" 
d="M62 0v60l163 15v386l-147 13v62h219l12 -98h4q28 53 61.5 80.5t88.5 27.5q34 0 60.5 -6t48.5 -16l-24 -79q-16 9 -38 15.5t-47 6.5q-43 0 -76 -27t-52 -72t-19 -99v-194l156 -15v-60h-410zM294 606q-13 23 -35 49.5t-46 52.5t-42 45v13h60q26 -17 54 -41t53 -51
q27 27 55 51t54 41h62v-13q-19 -19 -43.5 -45t-47 -52.5t-34.5 -49.5h-90z" />
    <glyph glyph-name="Sacute" unicode="&#x15a;" 
d="M281 -10q-57 0 -110.5 10.5t-85.5 26.5v83q37 -16 90 -29.5t108 -13.5q154 0 154 125q0 34 -14 54t-49.5 38.5t-99.5 46.5q-42 19 -82 42t-65.5 61t-25.5 100q0 92 61 141t167 49q54 0 102 -11.5t84 -28.5l-29 -75q-34 16 -76 25.5t-83 9.5q-58 0 -96 -25t-38 -87
q0 -35 14.5 -57t46.5 -38.5t82 -38.5q57 -24 100.5 -48.5t68 -60.5t24.5 -98q0 -95 -62.5 -148t-185.5 -53zM278 784v12q15 19 32.5 45t34.5 53.5t28 49.5h106v-10q-12 -18 -37 -46.5t-53.5 -57t-52.5 -46.5h-58z" />
    <glyph glyph-name="sacute" unicode="&#x15b;" 
d="M279 -10q-50 0 -95.5 9t-78.5 25v83q35 -16 77.5 -29.5t101.5 -13.5q66 0 93.5 20.5t27.5 59.5q0 21 -9.5 34.5t-36.5 27.5t-79 36q-52 23 -89 43t-57 47.5t-20 70.5q0 71 54.5 107t151.5 36q44 0 84 -8t83 -26l-27 -70q-40 17 -73.5 23t-66.5 6q-62 0 -90.5 -16
t-28.5 -50q0 -22 12.5 -37t41 -29t75.5 -34q53 -22 90 -41t56 -45.5t19 -72.5q0 -76 -54.5 -116t-161.5 -40zM264 606v12q15 19 32.5 45t34.5 53.5t28 49.5h106v-10q-12 -18 -37 -46.5t-53.5 -57t-52.5 -46.5h-58z" />
    <glyph glyph-name="Scircumflex" unicode="&#x15c;" 
d="M281 -10q-57 0 -110.5 10.5t-85.5 26.5v83q37 -16 90 -29.5t108 -13.5q154 0 154 125q0 34 -14 54t-49.5 38.5t-99.5 46.5q-42 19 -82 42t-65.5 61t-25.5 100q0 92 61 141t167 49q54 0 102 -11.5t84 -28.5l-29 -75q-34 16 -76 25.5t-83 9.5q-58 0 -96 -25t-38 -87
q0 -35 14.5 -57t46.5 -38.5t82 -38.5q57 -24 100.5 -48.5t68 -60.5t24.5 -98q0 -95 -62.5 -148t-185.5 -53zM150 784v11q19 20 42.5 46t45.5 53.5t35 49.5h90q12 -22 34.5 -49.5t47 -54t43.5 -45.5v-11h-62q-26 16 -54 43t-55 54q-27 -27 -54 -53.5t-53 -43.5h-60z" />
    <glyph glyph-name="scircumflex" unicode="&#x15d;" 
d="M279 -10q-50 0 -95.5 9t-78.5 25v83q35 -16 77.5 -29.5t101.5 -13.5q66 0 93.5 20.5t27.5 59.5q0 21 -9.5 34.5t-36.5 27.5t-79 36q-52 23 -89 43t-57 47.5t-20 70.5q0 71 54.5 107t151.5 36q44 0 84 -8t83 -26l-27 -70q-40 17 -73.5 23t-66.5 6q-62 0 -90.5 -16
t-28.5 -50q0 -22 12.5 -37t41 -29t75.5 -34q53 -22 90 -41t56 -45.5t19 -72.5q0 -76 -54.5 -116t-161.5 -40zM136 606v11q19 20 42.5 46t45.5 53.5t35 49.5h90q12 -22 34.5 -49.5t47 -54t43.5 -45.5v-11h-62q-26 16 -54 43t-55 54q-27 -27 -54 -53.5t-53 -43.5h-60z" />
    <glyph glyph-name="Scedilla" unicode="&#x15e;" 
d="M281 -10q-57 0 -110.5 10.5t-85.5 26.5v83q37 -16 90 -29.5t108 -13.5q154 0 154 125q0 34 -14 54t-49.5 38.5t-99.5 46.5q-42 19 -82 42t-65.5 61t-25.5 100q0 92 61 141t167 49q54 0 102 -11.5t84 -28.5l-29 -75q-34 16 -76 25.5t-83 9.5q-58 0 -96 -25t-38 -87
q0 -35 14.5 -57t46.5 -38.5t82 -38.5q57 -24 100.5 -48.5t68 -60.5t24.5 -98q0 -95 -62.5 -148t-185.5 -53zM247 -240q-33 0 -51 5v55q9 -2 24 -3.5t29 -1.5q35 0 54.5 9.5t19.5 33.5q0 26 -23.5 38t-67.5 18l43 91h58l-26 -58q36 -8 61.5 -27.5t25.5 -60.5q0 -46 -37 -72.5
t-110 -26.5z" />
    <glyph glyph-name="scedilla" unicode="&#x15f;" 
d="M279 -10q-50 0 -95.5 9t-78.5 25v83q35 -16 77.5 -29.5t101.5 -13.5q66 0 93.5 20.5t27.5 59.5q0 21 -9.5 34.5t-36.5 27.5t-79 36q-52 23 -89 43t-57 47.5t-20 70.5q0 71 54.5 107t151.5 36q44 0 84 -8t83 -26l-27 -70q-40 17 -73.5 23t-66.5 6q-62 0 -90.5 -16
t-28.5 -50q0 -22 12.5 -37t41 -29t75.5 -34q53 -22 90 -41t56 -45.5t19 -72.5q0 -76 -54.5 -116t-161.5 -40zM252 -240q-33 0 -51 5v55q9 -2 24 -3.5t29 -1.5q35 0 54.5 9.5t19.5 33.5q0 26 -23.5 38t-67.5 18l43 91h58l-26 -58q36 -8 61.5 -27.5t25.5 -60.5
q0 -46 -37 -72.5t-110 -26.5z" />
    <glyph glyph-name="Scaron" unicode="&#x160;" 
d="M281 -10q-57 0 -110.5 10.5t-85.5 26.5v83q37 -16 90 -29.5t108 -13.5q154 0 154 125q0 34 -14 54t-49.5 38.5t-99.5 46.5q-42 19 -82 42t-65.5 61t-25.5 100q0 92 61 141t167 49q54 0 102 -11.5t84 -28.5l-29 -75q-34 16 -76 25.5t-83 9.5q-58 0 -96 -25t-38 -87
q0 -35 14.5 -57t46.5 -38.5t82 -38.5q57 -24 100.5 -48.5t68 -60.5t24.5 -98q0 -95 -62.5 -148t-185.5 -53zM273 784q-13 23 -35 49.5t-46 52.5t-42 45v13h60q26 -17 54 -41t53 -51q27 27 55 51t54 41h62v-13q-19 -19 -43.5 -45t-47 -52.5t-34.5 -49.5h-90z" />
    <glyph glyph-name="scaron" unicode="&#x161;" 
d="M279 -10q-50 0 -95.5 9t-78.5 25v83q35 -16 77.5 -29.5t101.5 -13.5q66 0 93.5 20.5t27.5 59.5q0 21 -9.5 34.5t-36.5 27.5t-79 36q-52 23 -89 43t-57 47.5t-20 70.5q0 71 54.5 107t151.5 36q44 0 84 -8t83 -26l-27 -70q-40 17 -73.5 23t-66.5 6q-62 0 -90.5 -16
t-28.5 -50q0 -22 12.5 -37t41 -29t75.5 -34q53 -22 90 -41t56 -45.5t19 -72.5q0 -76 -54.5 -116t-161.5 -40zM259 606q-13 23 -35 49.5t-46 52.5t-42 45v13h60q26 -17 54 -41t53 -51q27 27 55 51t54 41h62v-13q-19 -19 -43.5 -45t-47 -52.5t-34.5 -49.5h-90z" />
    <glyph glyph-name="uni0162" unicode="&#x162;" 
d="M255 0v634h-210v80h510v-80h-210v-634h-90zM247 -240q-33 0 -51 5v55q9 -2 24 -3.5t29 -1.5q35 0 54.5 9.5t19.5 33.5q0 26 -23.5 38t-67.5 18l43 91h58l-26 -58q36 -8 61.5 -27.5t25.5 -60.5q0 -46 -37 -72.5t-110 -26.5z" />
    <glyph glyph-name="uni0163" unicode="&#x163;" 
d="M402 -10q-57 0 -102 15t-71.5 53t-26.5 105v298h-146v62l146 16l18 140h72v-143h209v-75h-209v-281q0 -61 27 -89t89 -28q26 0 56 5t52 10v-72q-24 -6 -53 -11t-61 -5zM321 -240q-33 0 -51 5v55q9 -2 24 -3.5t29 -1.5q35 0 54.5 9.5t19.5 33.5q0 26 -23.5 38t-67.5 18
l43 91h58l-26 -58q36 -8 61.5 -27.5t25.5 -60.5q0 -46 -37 -72.5t-110 -26.5z" />
    <glyph glyph-name="Tcaron" unicode="&#x164;" 
d="M255 0v634h-210v80h510v-80h-210v-634h-90zM254 784q-13 23 -35 49.5t-46 52.5t-42 45v13h60q26 -17 54 -41t53 -51q27 27 55 51t54 41h62v-13q-19 -19 -43.5 -45t-47 -52.5t-34.5 -49.5h-90z" />
    <glyph glyph-name="tcaron" unicode="&#x165;" 
d="M392 611v12q7 19 13.5 45.5t12 54t7.5 48.5h87v-8q-4 -18 -15.5 -45.5t-26.5 -56t-30 -50.5h-48zM402 -10q-57 0 -102 15t-71.5 53t-26.5 105v298h-146v62l146 16l18 140h72v-143h209v-75h-209v-281q0 -61 27 -89t89 -28q26 0 56 5t52 10v-72q-24 -6 -53 -11t-61 -5z" />
    <glyph glyph-name="Tbar" unicode="&#x166;" 
d="M255 0v325h-148v74h148v235h-210v80h510v-80h-210v-235h149v-74h-149v-325h-90z" />
    <glyph glyph-name="tbar" unicode="&#x167;" 
d="M56 280v66h146v115h-146v62l146 16l18 140h72v-143h209v-75h-209v-115h224v-66h-224v-100q0 -61 27 -89t89 -28q26 0 56 5t52 10v-72q-24 -6 -53 -11t-61 -5q-57 0 -102 15t-71.5 53t-26.5 105v117h-146z" />
    <glyph glyph-name="Utilde" unicode="&#x168;" 
d="M298 -10q-82 0 -132.5 32.5t-73 92t-22.5 139.5v460h90v-455q0 -56 12.5 -99t43 -66.5t84.5 -23.5q57 0 87.5 25t41.5 68.5t11 96.5v454h90v-462q0 -74 -22 -133.5t-73 -94t-137 -34.5zM120 784q6 59 34.5 93.5t75.5 34.5q28 0 53 -14.5t48 -28.5t44 -14q23 0 35.5 14.5
t19.5 43.5h50q-6 -58 -34 -93t-75 -35q-28 0 -52.5 14t-47 28.5t-45.5 14.5q-24 0 -36 -14.5t-19 -43.5h-51z" />
    <glyph glyph-name="utilde" unicode="&#x169;" 
d="M261 -10q-95 0 -140.5 47.5t-45.5 141.5v357h90v-343q0 -64 26.5 -97t91.5 -33q83 0 115 52t32 145v276h90v-536h-72l-13 72h-5q-28 -45 -70.5 -63.5t-98.5 -18.5zM120 606q6 59 34.5 93.5t75.5 34.5q28 0 53 -14.5t48 -28.5t44 -14q23 0 35.5 14.5t19.5 43.5h50
q-6 -58 -34 -93t-75 -35q-28 0 -52.5 14t-47 28.5t-45.5 14.5q-24 0 -36 -14.5t-19 -43.5h-51z" />
    <glyph glyph-name="Umacron" unicode="&#x16a;" 
d="M298 -10q-82 0 -132.5 32.5t-73 92t-22.5 139.5v460h90v-455q0 -56 12.5 -99t43 -66.5t84.5 -23.5q57 0 87.5 25t41.5 68.5t11 96.5v454h90v-462q0 -74 -22 -133.5t-73 -94t-137 -34.5zM151 796v71h297v-71h-297z" />
    <glyph glyph-name="umacron" unicode="&#x16b;" 
d="M261 -10q-95 0 -140.5 47.5t-45.5 141.5v357h90v-343q0 -64 26.5 -97t91.5 -33q83 0 115 52t32 145v276h90v-536h-72l-13 72h-5q-28 -45 -70.5 -63.5t-98.5 -18.5zM151 618v71h297v-71h-297z" />
    <glyph glyph-name="Ubreve" unicode="&#x16c;" 
d="M298 -10q-82 0 -132.5 32.5t-73 92t-22.5 139.5v460h90v-455q0 -56 12.5 -99t43 -66.5t84.5 -23.5q57 0 87.5 25t41.5 68.5t11 96.5v454h90v-462q0 -74 -22 -133.5t-73 -94t-137 -34.5zM296 784q-71 0 -110.5 38t-41.5 96h58q7 -30 22.5 -45t35.5 -20.5t39 -5.5
q31 0 59.5 13.5t37.5 57.5h59q-1 -58 -42.5 -96t-116.5 -38z" />
    <glyph glyph-name="ubreve" unicode="&#x16d;" 
d="M261 -10q-95 0 -140.5 47.5t-45.5 141.5v357h90v-343q0 -64 26.5 -97t91.5 -33q83 0 115 52t32 145v276h90v-536h-72l-13 72h-5q-28 -45 -70.5 -63.5t-98.5 -18.5zM296 606q-71 0 -110.5 38t-41.5 96h58q7 -30 22.5 -45t35.5 -20.5t39 -5.5q31 0 59.5 13.5t37.5 57.5h59
q-1 -58 -42.5 -96t-116.5 -38z" />
    <glyph glyph-name="Uring" unicode="&#x16e;" 
d="M298 -10q-82 0 -132.5 32.5t-73 92t-22.5 139.5v460h90v-455q0 -56 12.5 -99t43 -66.5t84.5 -23.5q57 0 87.5 25t41.5 68.5t11 96.5v454h90v-462q0 -74 -22 -133.5t-73 -94t-137 -34.5zM299 784q-49 0 -79 28t-30 78t30 77.5t79 27.5q47 0 79 -27.5t32 -76.5
q0 -51 -31.5 -79t-79.5 -28zM299 836q24 0 39 14.5t15 39.5q0 26 -15.5 40t-38.5 14q-22 0 -37.5 -14t-15.5 -40q0 -25 15 -39.5t38 -14.5z" />
    <glyph glyph-name="uring" unicode="&#x16f;" 
d="M261 -10q-95 0 -140.5 47.5t-45.5 141.5v357h90v-343q0 -64 26.5 -97t91.5 -33q83 0 115 52t32 145v276h90v-536h-72l-13 72h-5q-28 -45 -70.5 -63.5t-98.5 -18.5zM299 606q-49 0 -79 28t-30 78t30 77.5t79 27.5q47 0 79 -27.5t32 -76.5q0 -51 -31.5 -79t-79.5 -28z
M299 658q24 0 39 14.5t15 39.5q0 26 -15.5 40t-38.5 14q-22 0 -37.5 -14t-15.5 -40q0 -25 15 -39.5t38 -14.5z" />
    <glyph glyph-name="Uhungarumlaut" unicode="&#x170;" 
d="M298 -10q-82 0 -132.5 32.5t-73 92t-22.5 139.5v460h90v-455q0 -56 12.5 -99t43 -66.5t84.5 -23.5q57 0 87.5 25t41.5 68.5t11 96.5v454h90v-462q0 -74 -22 -133.5t-73 -94t-137 -34.5zM316 784v12q14 19 30 45t31.5 53.5t25.5 49.5h96v-10q-10 -17 -33 -46t-50 -57.5
t-50 -46.5h-50zM140 784v12q21 29 46 71.5t41 76.5h96v-10q-10 -17 -33 -46t-50 -57.5t-50 -46.5h-50z" />
    <glyph glyph-name="uhungarumlaut" unicode="&#x171;" 
d="M261 -10q-95 0 -140.5 47.5t-45.5 141.5v357h90v-343q0 -64 26.5 -97t91.5 -33q83 0 115 52t32 145v276h90v-536h-72l-13 72h-5q-28 -45 -70.5 -63.5t-98.5 -18.5zM316 606v12q14 19 30 45t31.5 53.5t25.5 49.5h96v-10q-10 -17 -33 -46t-50 -57.5t-50 -46.5h-50zM140 606
v12q21 29 46 71.5t41 76.5h96v-10q-10 -17 -33 -46t-50 -57.5t-50 -46.5h-50z" />
    <glyph glyph-name="Uogonek" unicode="&#x172;" 
d="M298 -10q-82 0 -132.5 32.5t-73 92t-22.5 139.5v460h90v-455q0 -56 12.5 -99t43 -66.5t84.5 -23.5q57 0 87.5 25t41.5 68.5t11 96.5v454h90v-462q0 -82 -26.5 -145.5t-90.5 -93.5q-52 -31 -80 -60.5t-28 -65.5q0 -48 51 -48q11 0 22.5 1.5t19.5 4.5v-56
q-14 -4 -28.5 -6.5t-32.5 -2.5q-54 0 -79 28t-25 71q0 35 20 62.5t48 48.5h-3z" />
    <glyph glyph-name="uogonek" unicode="&#x173;" 
d="M261 -10q-95 0 -140.5 47.5t-45.5 141.5v357h90v-343q0 -64 26.5 -97t91.5 -33q83 0 115 52t32 145v276h90v-536h-72l-13 72h-5q-28 -45 -70.5 -63.5t-98.5 -18.5zM479 -220q-54 0 -79 25t-25 64q0 33 14.5 60.5t36 49t41.5 36.5l48 -15q-33 -31 -50.5 -58t-17.5 -57
q0 -25 13 -35.5t38 -10.5q11 0 22.5 1.5t19.5 4.5v-56q-14 -4 -28.5 -6.5t-32.5 -2.5z" />
    <glyph glyph-name="Wcircumflex" unicode="&#x174;" 
d="M105 0l-80 714h83q8 -79 15.5 -157.5t14.5 -157.5q4 -38 7.5 -83t6.5 -88t5 -77.5t2 -52.5h2q4 23 11.5 59.5t16 76t15.5 70.5l54 232h86l56 -234q9 -34 17.5 -73t16 -73.5t10.5 -57.5h2q1 24 3.5 71t6.5 108t9 125q7 78 13.5 156t13.5 156h83l-72 -714h-97l-79 328
q-10 45 -16.5 77.5t-8.5 44.5h-2q-1 -12 -6.5 -44t-16.5 -78l-76 -328h-96zM131 784v11q19 20 42.5 46t45.5 53.5t35 49.5h90q12 -22 34.5 -49.5t47 -54t43.5 -45.5v-11h-62q-26 16 -54 43t-55 54q-27 -27 -54 -53.5t-53 -43.5h-60z" />
    <glyph glyph-name="wcircumflex" unicode="&#x175;" 
d="M102 0l-86 536h84l39 -265q6 -37 8.5 -66t5 -59t4.5 -71h3q3 17 8.5 47.5t13 66t16.5 65.5l52 181h99l50 -181q9 -30 17 -64.5t14.5 -65t8.5 -49.5h3q3 40 5 69.5t5 58.5t9 68l42 265h82l-88 -536h-108l-48 188q-10 41 -21 82t-19 81h-3q-8 -40 -19.5 -81t-22.5 -82
l-49 -188h-105zM132 606v11q19 20 42.5 46t45.5 53.5t35 49.5h90q12 -22 34.5 -49.5t47 -54t43.5 -45.5v-11h-62q-26 16 -54 43t-55 54q-27 -27 -54 -53.5t-53 -43.5h-60z" />
    <glyph glyph-name="Ycircumflex" unicode="&#x176;" 
d="M257 0v278l-222 436h99l167 -361l168 361h96l-222 -436v-278h-86zM131 784v11q19 20 42.5 46t45.5 53.5t35 49.5h90q12 -22 34.5 -49.5t47 -54t43.5 -45.5v-11h-62q-26 16 -54 43t-55 54q-27 -27 -54 -53.5t-53 -43.5h-60z" />
    <glyph glyph-name="ycircumflex" unicode="&#x177;" 
d="M136 -245q-20 0 -39 2.5t-33 5.5v69q12 -2 28.5 -4t32.5 -2q46 0 71 22.5t45 73.5l29 73l-225 541h88l128 -315q13 -31 25.5 -69t22.5 -73h3q11 37 23 74.5t22 68.5l105 314h92l-225 -606q-19 -52 -41.5 -91.5t-58 -61.5t-93.5 -22zM131 606v11q19 20 42.5 46t45.5 53.5
t35 49.5h90q12 -22 34.5 -49.5t47 -54t43.5 -45.5v-11h-62q-26 16 -54 43t-55 54q-27 -27 -54 -53.5t-53 -43.5h-60z" />
    <glyph glyph-name="Ydieresis" unicode="&#x178;" 
d="M257 0v278l-222 436h99l167 -361l168 361h96l-222 -436v-278h-86zM414 800q-22 0 -38 14.5t-16 44.5q0 31 16 44t38 13t38.5 -13t16.5 -44q0 -30 -16.5 -44.5t-38.5 -14.5zM185 800q-22 0 -38 14.5t-16 44.5q0 31 16 44t38 13t38.5 -13t16.5 -44q0 -30 -16.5 -44.5
t-38.5 -14.5z" />
    <glyph glyph-name="Zacute" unicode="&#x179;" 
d="M95 0v71l317 565h-297v78h390v-71l-313 -563h313v-80h-410zM271 784v12q15 19 32.5 45t34.5 53.5t28 49.5h106v-10q-12 -18 -37 -46.5t-53.5 -57t-52.5 -46.5h-58z" />
    <glyph glyph-name="zacute" unicode="&#x17a;" 
d="M90 0v61l315 406h-299v69h396v-71l-305 -389h313v-76h-420zM269 606v12q15 19 32.5 45t34.5 53.5t28 49.5h106v-10q-12 -18 -37 -46.5t-53.5 -57t-52.5 -46.5h-58z" />
    <glyph glyph-name="Zdotaccent" unicode="&#x17b;" 
d="M95 0v71l317 565h-297v78h390v-71l-313 -563h313v-80h-410zM311 811q-26 0 -44.5 16t-18.5 47q0 33 18.5 48.5t44.5 15.5t44.5 -15.5t18.5 -48.5q0 -31 -18.5 -47t-44.5 -16z" />
    <glyph glyph-name="zdotaccent" unicode="&#x17c;" 
d="M90 0v61l315 406h-299v69h396v-71l-305 -389h313v-76h-420zM309 633q-26 0 -44.5 16t-18.5 47q0 33 18.5 48.5t44.5 15.5t44.5 -15.5t18.5 -48.5q0 -31 -18.5 -47t-44.5 -16z" />
    <glyph glyph-name="Zcaron" unicode="&#x17d;" 
d="M95 0v71l317 565h-297v78h390v-71l-313 -563h313v-80h-410zM266 784q-13 23 -35 49.5t-46 52.5t-42 45v13h60q26 -17 54 -41t53 -51q27 27 55 51t54 41h62v-13q-19 -19 -43.5 -45t-47 -52.5t-34.5 -49.5h-90z" />
    <glyph glyph-name="zcaron" unicode="&#x17e;" 
d="M90 0v61l315 406h-299v69h396v-71l-305 -389h313v-76h-420zM264 606q-13 23 -35 49.5t-46 52.5t-42 45v13h60q26 -17 54 -41t53 -51q27 27 55 51t54 41h62v-13q-19 -19 -43.5 -45t-47 -52.5t-34.5 -49.5h-90z" />
    <glyph glyph-name="longs" unicode="&#x17f;" 
d="M221 0v577q0 103 56 145.5t148 42.5q38 0 71 -5.5t52 -13.5l-23 -69q-16 5 -44.5 10t-56.5 5q-55 0 -85 -28t-30 -102v-562h-88z" />
    <glyph glyph-name="uni0180" unicode="&#x180;" 
d="M329 -10q-59 0 -99.5 23.5t-63.5 54.5h-6l-8 -68h-72v605h-81v66h81v89h87v-89h199v-66h-199v-29q0 -28 -0.5 -55t-3.5 -55h4q21 32 61 56t101 24q97 0 156.5 -70t59.5 -207q0 -138 -60 -208.5t-156 -70.5zM312 63q73 0 107 53t34 153q0 98 -34 151t-108 53
q-69 0 -106.5 -52.5t-37.5 -149.5q0 -101 35.5 -154.5t109.5 -53.5z" />
    <glyph glyph-name="uni0181" unicode="&#x181;" 
d="M158 0v637h-15q-25 0 -39 -13.5t-14 -36.5q0 -16 3.5 -31.5t6.5 -22.5h-79q-4 11 -7.5 27t-3.5 28q0 126 133 126h167q110 0 174 -39.5t64 -135.5q0 -70 -34 -110t-94 -50v-5q41 -7 74.5 -25t53.5 -52t20 -90q0 -97 -61 -152t-167 -55h-182zM243 412h75q75 0 107 28.5
t32 86.5q0 59 -34.5 84t-119.5 25h-60v-224zM243 78h81q86 0 119 36t33 93q0 58 -34.5 92.5t-123.5 34.5h-75v-256z" />
    <glyph glyph-name="uni0182" unicode="&#x182;" 
d="M95 0v714h410v-77h-323v-223h124q88 0 140.5 -24.5t75.5 -70t23 -109.5q0 -99 -56.5 -154.5t-174.5 -55.5h-219zM182 76h127q77 0 112 33.5t35 100.5q0 68 -36 98t-119 30h-119v-262z" />
    <glyph glyph-name="uni0183" unicode="&#x183;" 
d="M329 -10q-59 0 -99.5 23.5t-63.5 54.5h-6l-8 -68h-72v760h406v-74h-319v-110q0 -28 -0.5 -55t-3.5 -55h4q21 32 61 56t101 24q97 0 156.5 -70t59.5 -207q0 -138 -60 -208.5t-156 -70.5zM312 63q73 0 107 53t34 153q0 98 -34 151t-108 53q-69 0 -106.5 -52.5t-37.5 -149.5
q0 -101 35.5 -154.5t109.5 -53.5z" />
    <glyph glyph-name="uni0184" unicode="&#x184;" 
d="M314 -12q-81 0 -129 28.5t-69 79t-21 115.5v503h87v-300h136q88 0 137 -28.5t69.5 -75.5t20.5 -105t-25 -107.5t-76 -79.5t-130 -30zM318 67q74 0 106 38t32 100q0 42 -13.5 71.5t-47.5 45.5t-98 16h-115v-119q0 -73 35 -112.5t101 -39.5z" />
    <glyph glyph-name="uni0185" unicode="&#x185;" 
d="M309 -10q-109 0 -169 69.5t-60 207.5v493h88v-185q0 -34 -1.5 -63.5t-3.5 -46.5h5q23 34 62.5 57t97.5 23q96 0 156 -69.5t60 -207.5t-62.5 -208t-172.5 -70zM312 63q141 0 141 206q0 202 -140 202q-71 0 -108 -48.5t-37 -151.5v-6q0 -106 37 -154t107 -48z" />
    <glyph glyph-name="uni0186" unicode="&#x186;" 
d="M235 -10q105 0 171 47t97 129.5t31 190.5q0 113 -35.5 195.5t-103 127t-164.5 44.5q-52 0 -97.5 -11t-83.5 -31l34 -73q31 17 70.5 26t76.5 9q102 0 156.5 -74t54.5 -213q0 -133 -49 -208.5t-160 -75.5q-34 0 -73.5 7.5t-78.5 23.5v-85q40 -15 76.5 -22t77.5 -7z" />
    <glyph glyph-name="uni0187" unicode="&#x187;" 
d="M365 -10q-105 0 -171 47t-97 129.5t-31 190.5q0 113 35.5 195.5t103 127t164.5 44.5q55 0 105 -13v13q0 65 27 99.5t88 34.5q19 0 34.5 -4t25.5 -9v-72q-7 3 -21 6.5t-31 3.5q-47 0 -47 -48v-53l-34 -73q-31 17 -70.5 26t-76.5 9q-102 0 -156.5 -74t-54.5 -213
q0 -133 49 -208.5t160 -75.5q34 0 73.5 7.5t78.5 23.5v-85q-40 -15 -76.5 -22t-77.5 -7z" />
    <glyph glyph-name="uni0188" unicode="&#x188;" 
d="M338 -10q-118 0 -185.5 64.5t-67.5 209.5q0 103 33.5 165t93 89.5t135.5 27.5q44 0 82 -9v94q0 65 27 99.5t88 34.5q19 0 34.5 -4t25.5 -9v-73q-7 3 -21 6.5t-31 3.5q-47 0 -47 -48v-132l-27 -73q-32 17 -62 24.5t-65 7.5q-92 0 -133 -50.5t-41 -151.5q0 -107 43 -153
t128 -46q44 0 83 9.5t68 22.5v-79q-30 -14 -74 -22t-87 -8z" />
    <glyph glyph-name="uni0189" unicode="&#x189;" 
d="M80 0v314h-80v78h80v322h173q95 0 165 -40t108.5 -117.5t38.5 -192.5q0 -181 -87.5 -272.5t-244.5 -91.5h-153zM170 78h54q128 0 188.5 72t60.5 211q0 142 -61.5 208.5t-168.5 66.5h-73v-244h122v-78h-122v-236z" />
    <glyph glyph-name="uni018A" unicode="&#x18a;" 
d="M150 0v637h-7q-25 0 -39 -13.5t-14 -36.5q0 -16 3.5 -31.5t6.5 -22.5h-79q-4 11 -7.5 27t-3.5 28q0 126 133 126h135q149 0 215.5 -89t66.5 -261q0 -181 -72 -272.5t-230 -91.5h-108zM240 78h24q79 0 123 32t62.5 95t18.5 156q0 95 -18 155.5t-61.5 90t-120.5 29.5h-28
v-558z" />
    <glyph glyph-name="uni018B" unicode="&#x18b;" 
d="M94 635v79h411v-714h-204q-128 0 -187 54.5t-59 154.5q0 60 24.5 112.5t81 85t153.5 32.5h101v196h-321zM415 361h-91q-88 0 -132.5 -34t-44.5 -113q0 -73 40 -104.5t122 -31.5h106v283z" />
    <glyph glyph-name="uni018C" unicode="&#x18c;" 
d="M274 -10q-99 0 -159 69.5t-60 211.5q0 134 57 204.5t172 70.5q56 0 92 -22t55 -56h6q-2 14 -4 37t-2 42v139h-322v74h411v-760h-74l-10 72h-4q-22 -36 -59.5 -59t-98.5 -23zM291 63q71 0 105.5 49.5t34.5 134.5v20q0 59 -13 105.5t-43 73.5t-81 27q-70 0 -108.5 -52
t-38.5 -159q0 -199 144 -199z" />
    <glyph glyph-name="uni018D" unicode="&#x18d;" 
d="M301 546q71 0 126.5 -26.5t86.5 -76t31 -119.5q0 -65 -26.5 -113t-73.5 -80.5t-106 -50.5q56 -32 90 -70.5t34 -93.5q0 -69 -51 -104.5t-133 -35.5q-63 0 -113.5 17t-88.5 37l38 69q33 -19 76 -35t90 -16q52 0 72.5 20.5t20.5 49.5t-17.5 49.5t-48 39t-68.5 40.5
q-57 33 -98.5 67.5t-64 79t-22.5 110.5q0 115 67.5 178.5t178.5 63.5zM301 473q-74 0 -114.5 -44.5t-40.5 -123.5q0 -73 33 -114.5t90 -72.5q42 10 84.5 33t71 64t28.5 104q0 71 -40 112.5t-112 41.5z" />
    <glyph glyph-name="uni018E" unicode="&#x18e;" 
d="M505 0v714h-420v-80h330v-221h-311v-80h311v-253h-330v-80h420z" />
    <glyph glyph-name="uni018F" unicode="&#x18f;" 
d="M286 -10q-121 0 -185 86.5t-64 265.5v37h430q-2 98 -27.5 156.5t-71 85t-107.5 26.5q-54 0 -98 -14.5t-80 -33.5v80q31 17 78.5 31.5t111.5 14.5q141 0 213 -90t72 -278q0 -108 -29.5 -190.5t-90 -129.5t-152.5 -47zM287 65q80 0 126.5 59.5t52.5 182.5h-343
q1 -123 43 -182.5t121 -59.5z" />
    <glyph glyph-name="uni0190" unicode="&#x190;" 
d="M330 -10q-136 0 -206.5 55.5t-70.5 149.5q0 74 50.5 120.5t141.5 56.5v4q-79 11 -124.5 53.5t-45.5 115.5q0 78 62.5 128.5t179.5 50.5q76 0 131.5 -19.5t100.5 -50.5l-48 -64q-41 26 -84.5 42t-105.5 16q-67 0 -105.5 -28.5t-38.5 -83.5q0 -60 51 -94.5t151 -34.5h101
v-74h-100q-104 0 -163.5 -32.5t-59.5 -100.5q0 -67 49 -100.5t137 -33.5q61 0 114.5 12t98.5 33v-83q-86 -38 -216 -38z" />
    <glyph glyph-name="uni0191" unicode="&#x191;" 
d="M165 -15q-62 0 -102 33.5t-40 96.5q0 35 10 63l86 -26q-5 -17 -5 -37q0 -24 13 -38.5t35 -14.5q33 0 48.5 28.5t15.5 75.5v548h340v-80h-250v-221h231v-80h-231v-169q0 -82 -37 -130.5t-114 -48.5z" />
    <glyph glyph-name="florin" unicode="&#x192;" 
d="M200 -16q-70 0 -107 39t-37 97q0 14 2 26.5t5 22.5l88 -20q-1 -6 -2.5 -13.5t-1.5 -15.5q0 -29 15 -45t40 -16q30 0 44.5 23.5t14.5 66.5v312h-165v62l165 13v61q0 64 23 100.5t65 52t97 15.5q41 0 71.5 -6t52.5 -14l-20 -69q-19 6 -46 10.5t-53 4.5q-48 0 -74 -22
t-26 -84v-49h182v-75h-182v-313q0 -71 -35.5 -117.5t-115.5 -46.5z" />
    <glyph glyph-name="uni0193" unicode="&#x193;" 
d="M340 -10q-146 0 -220.5 91t-74.5 265q0 179 78 278.5t229 99.5q51 0 94 -11v11q0 65 27 99.5t88 34.5q19 0 34.5 -4t25.5 -9v-72q-7 3 -21 6.5t-31 3.5q-47 0 -47 -48v-53l-32 -75q-25 16 -59 26t-77 10q-109 0 -163 -76.5t-54 -216.5q0 -80 19.5 -143.5t65 -100
t122.5 -36.5q32 0 56 5t43 10v212h-130v80h217v-350q-37 -15 -85.5 -26t-104.5 -11z" />
    <glyph glyph-name="uni0194" unicode="&#x194;" 
d="M300 -240q-55 0 -87.5 38t-32.5 93q0 37 13 76.5t31 79t34 75.5l-223 592h94l138 -389q8 -22 17.5 -50.5t16.5 -50.5q8 23 17 51.5t18 53.5l134 385h95l-224 -586q17 -42 35 -82.5t30.5 -79t12.5 -74.5q0 -55 -31.5 -93.5t-87.5 -38.5zM301 -162q19 0 30 13.5t11 42.5
q0 34 -13.5 68.5t-30.5 67.5q-16 -34 -28.5 -68t-12.5 -66q0 -30 12.5 -44t31.5 -14z" />
    <glyph glyph-name="uni0195" unicode="&#x195;" 
d="M406 -11q-65 0 -104.5 35t-39.5 127v227q0 53 -14 74.5t-40 21.5q-37 0 -54.5 -30.5t-17.5 -116.5v-327h-81v760h81v-197q0 -44 -6 -80h6q13 30 37 47t58 17q54 0 83 -34t29 -119v-243q0 -50 17 -69t47 -19q29 0 46 18.5t17 59.5v396h81v-396q0 -72 -38.5 -112
t-106.5 -40z" />
    <glyph glyph-name="uni0196" unicode="&#x196;" 
d="M367 -10q-52 0 -92 17t-62.5 57.5t-22.5 112.5v537h89v-529q0 -59 23.5 -87.5t78.5 -28.5q15 0 34 1.5t37 4.5t26 5v-74q-14 -7 -46.5 -11.5t-64.5 -4.5z" />
    <glyph glyph-name="uni0197" unicode="&#x197;" 
d="M110 0v62l144 13v263h-124v75h124v226l-144 13v62h380v-62l-146 -13v-226h126v-75h-126v-263l146 -13v-62h-380z" />
    <glyph glyph-name="uni0198" unicode="&#x198;" 
d="M70 0v714h90v-384q17 27 35 55t39 56l156 209q24 32 44 46.5t39.5 19t41.5 4.5q17 0 29 -2t21 -6v-70q-7 2 -21 2.5t-23 0.5q-13 0 -28.5 -8.5t-39.5 -41.5l-151 -204l248 -391h-103l-206 330l-81 -93v-237h-90z" />
    <glyph glyph-name="uni0199" unicode="&#x199;" 
d="M105 0v625q0 140 124 140q19 0 37 -4t28 -9v-73q-7 3 -21 6.5t-31 3.5q-22 0 -34.5 -13t-12.5 -45v-237q0 -31 -2.5 -73.5t-4.5 -77.5h2q19 25 36.5 45.5t36.5 42.5l185 205h108l-213 -231l227 -305h-104l-183 252l-88 -85v-167h-90z" />
    <glyph glyph-name="uni019A" unicode="&#x19a;" 
d="M80 0v60l196 15v279h-139v66h139v265l-190 13v62h280v-340h139v-66h-139v-279l174 -15v-60h-460z" />
    <glyph glyph-name="uni019B" unicode="&#x19b;" 
d="M525 -10q-37 0 -58.5 18.5t-37.5 62.5l-73 205q-8 24 -18.5 53.5t-19 58t-12.5 47.5h-4q-9 -35 -23.5 -75t-31.5 -79l-122 -281h-91l231 526l-15 41l-102 -31l-19 63l98 30q-13 30 -32 47t-54 17q-18 0 -31.5 -2t-24.5 -4v71q14 3 31 5.5t35 2.5q64 0 97.5 -27.5
t58.5 -85.5l111 34l19 -63l-106 -32l171 -476q19 -54 50 -54q8 0 16.5 2t13.5 3v-65q-11 -5 -25.5 -8.5t-31.5 -3.5z" />
    <glyph glyph-name="uni019C" unicode="&#x19c;" 
d="M160 -10q-61 0 -85.5 47.5t-24.5 148.5v528h80v-513q0 -63 8 -98t45 -35q76 0 76 200v446h80v-513q0 -64 11.5 -98.5t48.5 -34.5q40 0 55.5 54t15.5 146v446h80v-714h-62l-13 59h-5q-19 -40 -43 -54.5t-56 -14.5q-40 0 -63 19.5t-35 57.5h-3q-17 -37 -42.5 -57t-67.5 -20
z" />
    <glyph glyph-name="uni019D" unicode="&#x19d;" 
d="M18 -195q-18 0 -31.5 3.5t-24.5 9.5v72q10 -4 21 -7t24 -3q31 0 47 18.5t16 67.5v748h119l260 -595h3q-5 59 -7 107.5t-2 109.5v378h87v-714h-109l-273 622h-4q5 -56 9 -112t4 -112v-436q0 -82 -35.5 -119.5t-103.5 -37.5z" />
    <glyph glyph-name="uni019E" unicode="&#x19e;" 
d="M80 0v536h72l13 -79h5q23 46 68.5 67.5t106.5 21.5q81 0 130.5 -45.5t49.5 -142.5v-602h-90v586q0 68 -27.5 99.5t-88.5 31.5q-82 0 -115.5 -52t-33.5 -146v-275h-90z" />
    <glyph glyph-name="uni019F" unicode="&#x19f;" 
d="M299 -10q-89 0 -145 46t-82.5 129t-26.5 192q0 110 26.5 193t83 129.5t145.5 46.5t145.5 -46t83 -128.5t26.5 -192.5q0 -111 -27 -194t-83.5 -129t-145.5 -46zM302 646q-84 0 -121.5 -65.5t-42.5 -181.5h324q-4 117 -41 182t-119 65zM301 70q84 0 120.5 66.5t40.5 184.5
h-324q4 -118 41.5 -184.5t121.5 -66.5z" />
    <glyph glyph-name="Ohorn" unicode="&#x1a0;" 
d="M299 -10q-89 0 -145 46t-82.5 129t-26.5 192q0 110 26.5 193t83 129.5t145.5 46.5t145.5 -46t83 -128.5t26.5 -192.5q0 -111 -27 -194t-83.5 -129t-145.5 -46zM301 70q90 0 126 76.5t36 211.5q0 136 -36 212t-125 76q-91 0 -128 -77t-37 -211q0 -135 37 -211.5t127 -76.5
zM493 576l-22 51q29 16 47.5 39t18.5 68q0 17 -4 34.5t-16 43.5l69 31l12 -8q9 -28 12.5 -49t3.5 -39q0 -55 -29 -97t-92 -74z" />
    <glyph glyph-name="ohorn" unicode="&#x1a1;" 
d="M301 -10q-70 0 -125.5 30.5t-88 93t-32.5 156.5q0 93 31.5 154t86.5 91.5t125 30.5t126 -30.5t88.5 -92t32.5 -156.5q0 -93 -32 -154.5t-87 -92t-125 -30.5zM300 63q78 0 116 55.5t38 150.5t-38.5 149.5t-116.5 54.5t-116.5 -54.5t-38.5 -149.5t39 -150.5t117 -55.5z
M472 436l-22 51q29 16 47.5 39t18.5 68q0 17 -4 34.5t-16 43.5l69 31l12 -8q9 -28 12.5 -49t3.5 -39q0 -55 -29 -97t-92 -74z" />
    <glyph glyph-name="uni01A2" unicode="&#x1a2;" horiz-adv-x="1200" 
d="M401 -10q-104 0 -174 46t-104.5 128.5t-34.5 192.5q0 111 35 194t105.5 129t176.5 46q76 0 132 -24t94 -67q40 39 93 65t128 26q110 0 165 -63t55 -196v-467h-90v450q0 103 -36 150t-115 47q-57 0 -99.5 -19t-66.5 -41q25 -45 37.5 -102.5t12.5 -123.5q0 -114 -35.5 -197
t-105.5 -128.5t-173 -45.5zM402 68q113 0 165.5 77.5t52.5 212.5t-52 211.5t-165 76.5t-166.5 -76.5t-53.5 -211.5t53.5 -212.5t165.5 -77.5z" />
    <glyph glyph-name="uni01A3" unicode="&#x1a3;" 
d="M465 -240v632q0 44 -13.5 63.5t-36.5 19.5q-27 0 -41 -14t-25 -36q6 -29 10.5 -70.5t4.5 -85.5q0 -133 -39.5 -206t-125.5 -73q-82 0 -122.5 73t-40.5 206q0 141 39.5 210t124.5 69q43 0 74.5 -17.5t48.5 -53.5q11 25 36 48t77 23q51 0 82 -32t31 -113v-643h-84zM200 61
q41 0 60 48t19 160t-19 160t-60 48q-42 0 -60.5 -48t-18.5 -160q0 -110 19 -159t60 -49z" />
    <glyph glyph-name="uni01A4" unicode="&#x1a4;" 
d="M145 0v636q-30 0 -42.5 -16t-12.5 -43q0 -19 3.5 -37.5t6.5 -26.5h-79q-4 13 -7.5 32t-3.5 33q0 70 33.5 103t99.5 33h186q113 0 164.5 -54.5t51.5 -154.5q0 -59 -21.5 -112t-71.5 -85.5t-136 -32.5h-81v-275h-90zM235 353h71q74 0 110.5 34t36.5 113q0 136 -132 136h-86
v-283z" />
    <glyph glyph-name="uni01A5" unicode="&#x1a5;" 
d="M80 -240v865q0 140 123 140q19 0 37 -4t28 -9v-73q-7 3 -21 6.5t-31 3.5q-22 0 -34.5 -13t-12.5 -45v-80q0 -22 -1 -44t-3 -44h4q23 39 61.5 61t98.5 22q98 0 157 -70t59 -207t-59 -208t-157 -71q-59 0 -98 24t-62 55h-6q6 -39 6 -80v-229h-89zM310 63q75 0 109 51.5
t34 156.5q0 103 -33.5 152.5t-110.5 49.5q-73 0 -106.5 -47.5t-33.5 -136.5v-20q0 -95 30.5 -150.5t110.5 -55.5z" />
    <glyph glyph-name="uni01A6" unicode="&#x1a6;" 
d="M461 -100l-173 295h-103v-195h-90v714h90v-100h68q133 0 196.5 -50.5t63.5 -152.5q0 -57 -20.5 -95t-53.5 -60.5t-69 -35.5l196 -320h-105zM185 271h68q87 0 127 34.5t40 101.5q0 70 -42 99.5t-130 29.5h-63v-265z" />
    <glyph glyph-name="uni01A7" unicode="&#x1a7;" 
d="M319 -10q57 0 110.5 10.5t85.5 26.5v83q-37 -16 -90 -29.5t-108 -13.5q-154 0 -154 125q0 34 14 54t49.5 38.5t99.5 46.5q42 19 82 42t65.5 61t25.5 100q0 92 -61 141t-167 49q-54 0 -102 -11.5t-84 -28.5l29 -75q34 16 76 25.5t83 9.5q58 0 96 -25t38 -87
q0 -35 -14.5 -57t-46.5 -38.5t-82 -38.5q-57 -24 -100.5 -48.5t-68 -60.5t-24.5 -98q0 -95 62.5 -148t185.5 -53z" />
    <glyph glyph-name="uni01A8" unicode="&#x1a8;" 
d="M321 -10q50 0 95.5 9t78.5 25v83q-35 -16 -77.5 -29.5t-101.5 -13.5q-66 0 -93.5 20.5t-27.5 59.5q0 21 9.5 34.5t36.5 27.5t79 36q52 23 89 43t57 47.5t20 70.5q0 71 -54.5 107t-151.5 36q-44 0 -84 -8t-83 -26l27 -70q40 17 73.5 23t66.5 6q62 0 90.5 -16t28.5 -50
q0 -22 -12.5 -37t-41 -29t-75.5 -34q-53 -22 -90 -41t-56 -45.5t-19 -72.5q0 -76 54.5 -116t161.5 -40z" />
    <glyph glyph-name="uni01A9" unicode="&#x1a9;" 
d="M95 0v74l204 299l-198 266v75h375v-80h-205h-35.5t-31.5 1l195 -261l-205 -296q26 0 51 0.5t52 0.5h208v-79h-410z" />
    <glyph glyph-name="uni01AA" unicode="&#x1aa;" 
d="M429 -240q-79 0 -124 39.5t-45 137.5v596h-58q-76 0 -108 33.5t-32 84.5q0 28 13.5 54t44.5 43t81 17q70 0 108 -37t38 -114v-676q0 -49 20.5 -77.5t73.5 -28.5q28 0 52.5 6t42.5 14v-69q-43 -23 -107 -23zM207 602h53v19q0 33 -14 53.5t-49 20.5q-55 0 -55 -46
q0 -47 65 -47z" />
    <glyph glyph-name="uni01AB" unicode="&#x1ab;" 
d="M402 -10q-57 0 -102 15t-71.5 53t-26.5 105v298h-146v62l146 16l18 140h72v-143h209v-75h-209v-281q0 -61 27 -89t89 -28q26 0 56 5t52 10v-185q0 -64 -28.5 -98.5t-88.5 -34.5q-19 0 -34.5 4t-25.5 8v73q8 -3 21 -6t29 -3q48 0 48 52v104q-18 -2 -35 -2z" />
    <glyph glyph-name="uni01AC" unicode="&#x1ac;" 
d="M253 0v635h-88q-42 0 -58.5 -12.5t-16.5 -35.5q0 -16 3.5 -31.5t6.5 -22.5h-79q-4 11 -7.5 27t-3.5 28q0 65 34.5 95.5t106.5 30.5h414v-79h-222v-635h-90z" />
    <glyph glyph-name="uni01AD" unicode="&#x1ad;" 
d="M402 -10q-57 0 -102 15t-71.5 53t-26.5 105v298h-146v62l146 16v69q0 77 38 117t112 40q23 0 43.5 -4t33.5 -9v-73q-9 3 -31.5 6.5t-45.5 3.5q-60 0 -60 -68v-85h209v-75h-209v-281q0 -61 27 -89t89 -28q26 0 56 5t52 10v-72q-24 -6 -53 -11t-61 -5z" />
    <glyph glyph-name="uni01AE" unicode="&#x1ae;" 
d="M390 -180q-67 0 -101 37.5t-34 119.5v657h-210v80h510v-80h-210v-653q0 -47 16 -64.5t47 -17.5q13 0 24 3t21 7v-76q-10 -6 -27.5 -9.5t-35.5 -3.5z" />
    <glyph glyph-name="Uhorn" unicode="&#x1af;" 
d="M298 -10q-82 0 -132.5 32.5t-73 92t-22.5 139.5v460h90v-455q0 -56 12.5 -99t43 -66.5t84.5 -23.5q57 0 87.5 25t41.5 68.5t11 96.5v454h90v-462q0 -74 -22 -133.5t-73 -94t-137 -34.5zM506 557l-22 51q29 16 47.5 39t18.5 68q0 17 -4 34.5t-16 43.5l69 31l12 -8
q9 -28 12.5 -49t3.5 -39q0 -55 -29 -97t-92 -74z" />
    <glyph glyph-name="uhorn" unicode="&#x1b0;" 
d="M261 -10q-95 0 -140.5 47.5t-45.5 141.5v357h90v-343q0 -64 26.5 -97t91.5 -33q83 0 115 52t32 145v276h90v-536h-72l-13 72h-5q-28 -45 -70.5 -63.5t-98.5 -18.5zM496 471l-22 51q29 16 47.5 39t18.5 68q0 17 -4 34.5t-16 43.5l69 31l12 -8q9 -28 12.5 -49t3.5 -39
q0 -55 -29 -97t-92 -74z" />
    <glyph glyph-name="uni01B1" unicode="&#x1b1;" 
d="M580 714v-76h-134q43 -44 74 -131t31 -197q0 -154 -65.5 -237t-186.5 -83q-122 0 -185.5 84t-63.5 236q0 112 30.5 198.5t74.5 129.5h-135v76h229v-67q-60 -56 -84 -136t-24 -177q0 -131 37 -199.5t120 -68.5q79 0 120 65t41 200q0 102 -26 181.5t-82 134.5v67h229z" />
    <glyph glyph-name="uni01B2" unicode="&#x1b2;" 
d="M298 -10q-82 0 -132.5 32.5t-73 92t-22.5 139.5v460h90v-455q0 -56 12.5 -99t43 -66.5t84.5 -23.5q57 0 87.5 25t41.5 68.5t11 96.5v314q0 39 -16 55t-46 16q-20 0 -39 -5.5t-35 -14.5v76q15 11 40 17t51 6q135 0 135 -144v-328q0 -74 -22 -133.5t-73 -94t-137 -34.5z
" />
    <glyph glyph-name="uni01B3" unicode="&#x1b3;" 
d="M257 0v278l-222 436h99l167 -361l127 297q20 45 44 60t56 15q20 0 35 -3.5t25 -7.5v-73q-18 8 -39 8q-24 0 -42 -35l-164 -337v-277h-86z" />
    <glyph glyph-name="uni01B4" unicode="&#x1b4;" 
d="M128 -245q-20 0 -39 2.5t-33 5.5v69q12 -2 28.5 -4t32.5 -2q46 0 71 22.5t45 73.5l29 73l-225 541h88l128 -315q13 -31 25.5 -69t22.5 -73h3q11 37 22.5 74.5t22.5 68.5l79 227q20 56 40.5 76.5t57.5 20.5q17 0 31.5 -3.5t25.5 -8.5v-65q-5 2 -13.5 3.5t-16.5 1.5
q-17 0 -28 -13t-22 -41l-182 -490q-19 -52 -41.5 -91.5t-58 -61.5t-93.5 -22z" />
    <glyph glyph-name="uni01B5" unicode="&#x1b5;" 
d="M95 0v71l145 258h-124v78h168l128 229h-297v78h390v-71l-131 -236h120v-78h-164l-138 -249h313v-80h-410z" />
    <glyph glyph-name="uni01B6" unicode="&#x1b6;" 
d="M90 0v61l141 182h-102v70h157l119 154h-299v69h396v-71l-119 -152h103v-70h-158l-131 -167h313v-76h-420z" />
    <glyph glyph-name="uni01B7" unicode="&#x1b7;" 
d="M248 -10q-58 0 -109.5 8.5t-96.5 30.5v82q47 -22 102 -34.5t105 -12.5q97 0 145 37t48 104t-56.5 98t-161.5 31h-67v73l235 227h-330v80h444v-71l-245 -236q128 -4 201.5 -54t73.5 -149q0 -94 -71 -154t-217 -60z" />
    <glyph glyph-name="uni01B8" unicode="&#x1b8;" 
d="M352 -10q58 0 109.5 8.5t96.5 30.5v82q-47 -22 -102 -34.5t-105 -12.5q-97 0 -145 37t-48 104t56.5 98t161.5 31h67v73l-235 227h330v80h-444v-71l245 -236q-128 -4 -201.5 -54t-73.5 -149q0 -94 71 -154t217 -60z" />
    <glyph glyph-name="uni01B9" unicode="&#x1b9;" 
d="M354 -240q59 0 111 12t84 27v80q-33 -17 -85.5 -31.5t-113.5 -14.5q-96 0 -142 45t-46 125q0 84 47.5 119.5t149.5 35.5h79v61l-234 243h331v74h-434v-64l234 -244q-125 -2 -193 -58t-68 -165q0 -71 30.5 -126.5t92.5 -87t157 -31.5z" />
    <glyph glyph-name="uni01BA" unicode="&#x1ba;" 
d="M272 -240q-97 0 -149.5 31.5t-52.5 99.5q0 37 17 65t60.5 44t121.5 16q99 0 136.5 25t37.5 81q0 64 -54 90t-162 26h-53v61l200 163h-295v74h419v-64l-204 -164q113 -4 173.5 -51t60.5 -134q0 -51 -25.5 -92t-82 -64.5t-149.5 -23.5q-50 0 -76 -5.5t-34.5 -17.5t-8.5 -30
q0 -59 123 -59q56 0 99 9t74 20v-72q-30 -10 -74.5 -19t-101.5 -9z" />
    <glyph glyph-name="uni01BB" unicode="&#x1bb;" 
d="M70 0v76l190 187l25.5 25.5t23.5 24.5h-213v70h271q24 35 37 69.5t13 71.5q0 64 -35 92.5t-89 28.5q-47 0 -88.5 -19t-77.5 -48l-50 62q41 35 95 59.5t124 24.5q96 0 153.5 -51t57.5 -146q0 -39 -10 -74.5t-30 -69.5h66v-70h-114q-16 -20 -35 -39.5t-40 -40.5l-153 -149
v-4h354v-80h-475z" />
    <glyph glyph-name="uni01BC" unicode="&#x1bc;" 
d="M255 -10q-49 0 -90 8.5t-86 30.5v82q47 -22 90.5 -34.5t86.5 -12.5q87 0 130 41t43 117q0 75 -45.5 110t-111.5 35h-124v267h-94v80h439v-80h-255v-193h42q70 0 124.5 -25.5t86.5 -74.5t32 -120q0 -67 -29.5 -119.5t-88.5 -82t-150 -29.5z" />
    <glyph glyph-name="uni01BD" unicode="&#x1bd;" 
d="M276 -10q-65 0 -115 9.5t-88 25.5v79q41 -16 90.5 -29t111.5 -13q78 0 122.5 25.5t44.5 83.5q0 53 -41 77.5t-136 24.5h-90v189h-92v74h413v-74h-242v-117h30q96 0 149 -21.5t74.5 -59.5t21.5 -87t-25.5 -91.5t-81 -69t-146.5 -26.5z" />
    <glyph glyph-name="uni01BE" unicode="&#x1be;" 
d="M270 -10q-64 0 -112 12t-75 26v78q29 -16 81.5 -30.5t107.5 -14.5q77 0 113 20t36 59q0 26 -12.5 41t-42.5 27t-83 28q-44 14 -62.5 43.5t-18.5 87.5v94h-146v62l146 16l18 140h72v-143h209v-75h-209v-85q0 -35 9.5 -50.5t35.5 -23.5q56 -16 93.5 -34t56.5 -46t19 -74
q0 -77 -60 -117.5t-176 -40.5z" />
    <glyph glyph-name="uni01BF" unicode="&#x1bf;" 
d="M89 -240v776h72l12 -73h4q23 35 60 59t98 24q60 0 107 -25t74 -74.5t27 -123.5q0 -95 -47 -167.5t-129.5 -115.5t-189.5 -50v-230h-88zM177 62q129 17 202 85t73 174q0 68 -35.5 109.5t-99.5 41.5q-76 0 -108 -46t-32 -140v-224z" />
    <glyph glyph-name="uni01C0" unicode="&#x1c0;" 
d="M261 0v760h78v-760h-78z" />
    <glyph glyph-name="uni01C1" unicode="&#x1c1;" 
d="M120 0v760h78v-760h-78zM402 0v760h78v-760h-78z" />
    <glyph glyph-name="uni01C2" unicode="&#x1c2;" 
d="M261 0v256h-154v72h154v124h-154v72h154v236h78v-236h154v-72h-154v-124h154v-72h-154v-256h-78z" />
    <glyph glyph-name="uni01C3" unicode="&#x1c3;" 
d="M262 202l-16 512h109l-16 -512h-77zM300 -10q-26 0 -44 16t-18 52q0 38 18 53t44 15t44 -15t18 -53q0 -36 -18 -52t-44 -16z" />
    <glyph glyph-name="uni01C4" unicode="&#x1c4;" horiz-adv-x="1200" 
d="M835 784q-13 23 -35 49.5t-46 52.5t-42 45v13h60q26 -17 54 -41t53 -51q27 27 55 51t54 41h62v-13q-19 -19 -43.5 -45t-47 -52.5t-34.5 -49.5h-90zM114 0v714h173q95 0 165 -40t108.5 -117.5t38.5 -192.5q0 -181 -87.5 -272.5t-244.5 -91.5h-153zM204 78h54
q128 0 188.5 72t60.5 211q0 142 -61.5 208.5t-168.5 66.5h-73v-558zM671 0v71l317 565h-297v78h390v-71l-313 -563h313v-80h-410z" />
    <glyph glyph-name="uni01C5" unicode="&#x1c5;" horiz-adv-x="1200" 
d="M70 0v714h173q95 0 165 -40t108.5 -117.5t38.5 -192.5q0 -181 -87.5 -272.5t-244.5 -91.5h-153zM160 78h54q128 0 188.5 72t60.5 211q0 142 -61.5 208.5t-168.5 66.5h-73v-558zM690 0v61l315 406h-299v69h396v-71l-305 -389h313v-76h-420zM860 606q-13 23 -35 49.5
t-46 52.5t-42 45v13h60q26 -17 54 -41t53 -51q27 27 55 51t54 41h62v-13q-19 -19 -43.5 -45t-47 -52.5t-34.5 -49.5h-90z" />
    <glyph glyph-name="uni01C6" unicode="&#x1c6;" horiz-adv-x="1200" 
d="M274 -10q-99 0 -159 69.5t-60 211.5q0 134 57 204.5t172 70.5q56 0 92 -22t55 -56h6q-2 14 -4 37t-2 42v213h89v-760h-74l-10 72h-4q-22 -36 -59.5 -59t-98.5 -23zM291 63q71 0 105.5 49.5t34.5 134.5v20q0 59 -13 105.5t-43 73.5t-81 27q-70 0 -108.5 -52t-38.5 -159
q0 -199 144 -199zM690 0v61l315 406h-299v69h396v-71l-305 -389h313v-76h-420zM859 606q-13 23 -35 49.5t-46 52.5t-42 45v13h60q26 -17 54 -41t53 -51q27 27 55 51t54 41h62v-13q-19 -19 -43.5 -45t-47 -52.5t-34.5 -49.5h-90z" />
    <glyph glyph-name="uni01C7" unicode="&#x1c7;" horiz-adv-x="1200" 
d="M115 0v714h90v-631h310v-83h-400zM852 -10q-38 0 -81 8t-71 21v85q23 -10 64 -20.5t81 -10.5q59 0 94.5 35.5t35.5 120.5v485h90v-497q0 -109 -54 -168t-159 -59z" />
    <glyph glyph-name="uni01C8" unicode="&#x1c8;" horiz-adv-x="1200" 
d="M115 0v714h90v-631h310v-83h-400zM942 633q-26 0 -44 16t-18 48t17.5 47.5t44.5 15.5q26 0 44.5 -15.5t18.5 -47.5q0 -33 -19 -48.5t-44 -15.5zM792 -245q-31 0 -68.5 5t-63.5 12v79q26 -9 59 -15t63 -6q67 0 96 33t29 100v498l-175 13v62h265v-588q0 -93 -53.5 -143
t-151.5 -50z" />
    <glyph glyph-name="uni01C9" unicode="&#x1c9;" horiz-adv-x="1200" 
d="M80 0v60l196 15v610l-190 13v62h280v-685l174 -15v-60h-460zM942 633q-26 0 -44 16t-18 48t17.5 47.5t44.5 15.5q26 0 44.5 -15.5t18.5 -47.5q0 -33 -19 -48.5t-44 -15.5zM792 -245q-31 0 -68.5 5t-63.5 12v79q26 -9 59 -15t63 -6q67 0 96 33t29 100v498l-175 13v62h265
v-588q0 -93 -53.5 -143t-151.5 -50z" />
    <glyph glyph-name="uni01CA" unicode="&#x1ca;" horiz-adv-x="1200" 
d="M70 0v714h119l260 -595h3q-5 59 -7 107.5t-2 109.5v378h87v-714h-109l-273 622h-4q5 -56 9 -112t4 -112v-398h-87zM852 -10q-38 0 -81 8t-71 21v85q23 -10 64 -20.5t81 -10.5q59 0 94.5 35.5t35.5 120.5v485h90v-497q0 -109 -54 -168t-159 -59z" />
    <glyph glyph-name="uni01CB" unicode="&#x1cb;" horiz-adv-x="1200" 
d="M70 0v714h119l260 -595h3q-5 59 -7 107.5t-2 109.5v378h87v-714h-109l-273 622h-4q5 -56 9 -112t4 -112v-398h-87zM942 633q-26 0 -44 16t-18 48t17.5 47.5t44.5 15.5q26 0 44.5 -15.5t18.5 -47.5q0 -33 -19 -48.5t-44 -15.5zM792 -245q-31 0 -68.5 5t-63.5 12v79
q26 -9 59 -15t63 -6q67 0 96 33t29 100v498l-175 13v62h265v-588q0 -93 -53.5 -143t-151.5 -50z" />
    <glyph glyph-name="uni01CC" unicode="&#x1cc;" horiz-adv-x="1200" 
d="M80 0v536h72l13 -79h5q23 46 68.5 67.5t106.5 21.5q81 0 130.5 -45.5t49.5 -142.5v-358h-90v342q0 68 -27.5 99.5t-88.5 31.5q-82 0 -115.5 -52t-33.5 -146v-275h-90zM942 633q-26 0 -44 16t-18 48t17.5 47.5t44.5 15.5q26 0 44.5 -15.5t18.5 -47.5q0 -33 -19 -48.5
t-44 -15.5zM792 -245q-31 0 -68.5 5t-63.5 12v79q26 -9 59 -15t63 -6q67 0 96 33t29 100v498l-175 13v62h265v-588q0 -93 -53.5 -143t-151.5 -50z" />
    <glyph glyph-name="uni01CD" unicode="&#x1cd;" 
d="M20 0l232 717h95l233 -717h-92l-68 219h-241l-68 -219h-91zM270 512l-66 -213h191l-66 213q-5 17 -14 48t-16 62q-6 -31 -15 -62t-14 -48zM254 784q-13 23 -35 49.5t-46 52.5t-42 45v13h60q26 -17 54 -41t53 -51q27 27 55 51t54 41h62v-13q-19 -19 -43.5 -45t-47 -52.5
t-34.5 -49.5h-90z" />
    <glyph glyph-name="uni01CE" unicode="&#x1ce;" 
d="M246 -10q-79 0 -127.5 39t-48.5 118q0 87 62.5 130t180.5 46l115 3v22q0 72 -36 98.5t-97 26.5q-43 0 -82 -11t-74 -31l-31 68q38 19 84.5 33t107.5 14q101 0 155.5 -45.5t54.5 -141.5v-359h-72l-10 74h-4q-33 -42 -76 -63t-102 -21zM261 63q45 0 83 16.5t61 50t23 84.5
v48l-96 -3q-96 -3 -136.5 -31t-40.5 -78q0 -46 29 -66.5t77 -20.5zM259 606q-13 23 -35 49.5t-46 52.5t-42 45v13h60q26 -17 54 -41t53 -51q27 27 55 51t54 41h62v-13q-19 -19 -43.5 -45t-47 -52.5t-34.5 -49.5h-90z" />
    <glyph glyph-name="uni01CF" unicode="&#x1cf;" 
d="M110 0v62l144 13v564l-144 13v62h380v-62l-146 -13v-564l146 -13v-62h-380zM254 784q-13 23 -35 49.5t-46 52.5t-42 45v13h60q26 -17 54 -41t53 -51q27 27 55 51t54 41h62v-13q-19 -19 -43.5 -45t-47 -52.5t-34.5 -49.5h-90z" />
    <glyph glyph-name="uni01D0" unicode="&#x1d0;" 
d="M80 0v60l191 15v386l-175 13v62h265v-461l179 -15v-60h-460zM254 606q-13 23 -35 49.5t-46 52.5t-42 45v13h60q26 -17 54 -41t53 -51q27 27 55 51t54 41h62v-13q-19 -19 -43.5 -45t-47 -52.5t-34.5 -49.5h-90z" />
    <glyph glyph-name="uni01D1" unicode="&#x1d1;" 
d="M299 -10q-89 0 -145 46t-82.5 129t-26.5 192q0 110 26.5 193t83 129.5t145.5 46.5t145.5 -46t83 -128.5t26.5 -192.5q0 -111 -27 -194t-83.5 -129t-145.5 -46zM301 70q90 0 126 76.5t36 211.5q0 136 -36 212t-125 76q-91 0 -128 -77t-37 -211q0 -135 37 -211.5t127 -76.5
zM254 784q-13 23 -35 49.5t-46 52.5t-42 45v13h60q26 -17 54 -41t53 -51q27 27 55 51t54 41h62v-13q-19 -19 -43.5 -45t-47 -52.5t-34.5 -49.5h-90z" />
    <glyph glyph-name="uni01D2" unicode="&#x1d2;" 
d="M301 -10q-70 0 -125.5 30.5t-88 93t-32.5 156.5q0 93 31.5 154t86.5 91.5t125 30.5t126 -30.5t88.5 -92t32.5 -156.5q0 -93 -32 -154.5t-87 -92t-125 -30.5zM300 63q78 0 116 55.5t38 150.5t-38.5 149.5t-116.5 54.5t-116.5 -54.5t-38.5 -149.5t39 -150.5t117 -55.5z
M254 606q-13 23 -35 49.5t-46 52.5t-42 45v13h60q26 -17 54 -41t53 -51q27 27 55 51t54 41h62v-13q-19 -19 -43.5 -45t-47 -52.5t-34.5 -49.5h-90z" />
    <glyph glyph-name="uni01D3" unicode="&#x1d3;" 
d="M298 -10q-82 0 -132.5 32.5t-73 92t-22.5 139.5v460h90v-455q0 -56 12.5 -99t43 -66.5t84.5 -23.5q57 0 87.5 25t41.5 68.5t11 96.5v454h90v-462q0 -74 -22 -133.5t-73 -94t-137 -34.5zM254 784q-13 23 -35 49.5t-46 52.5t-42 45v13h60q26 -17 54 -41t53 -51q27 27 55 51
t54 41h62v-13q-19 -19 -43.5 -45t-47 -52.5t-34.5 -49.5h-90z" />
    <glyph glyph-name="uni01D4" unicode="&#x1d4;" 
d="M261 -10q-95 0 -140.5 47.5t-45.5 141.5v357h90v-343q0 -64 26.5 -97t91.5 -33q83 0 115 52t32 145v276h90v-536h-72l-13 72h-5q-28 -45 -70.5 -63.5t-98.5 -18.5zM254 606q-13 23 -35 49.5t-46 52.5t-42 45v13h60q26 -17 54 -41t53 -51q27 27 55 51t54 41h62v-13
q-19 -19 -43.5 -45t-47 -52.5t-34.5 -49.5h-90z" />
    <glyph glyph-name="uni01D5" unicode="&#x1d5;" 
d="M298 -10q-82 0 -132.5 32.5t-73 92t-22.5 139.5v460h90v-455q0 -56 12.5 -99t43 -66.5t84.5 -23.5q57 0 87.5 25t41.5 68.5t11 96.5v454h90v-462q0 -74 -22 -133.5t-73 -94t-137 -34.5zM414 800q-22 0 -38 14.5t-16 44.5q0 31 16 44t38 13t38.5 -13t16.5 -44
q0 -30 -16.5 -44.5t-38.5 -14.5zM185 800q-22 0 -38 14.5t-16 44.5q0 31 16 44t38 13t38.5 -13t16.5 -44q0 -30 -16.5 -44.5t-38.5 -14.5zM151 985v71h297v-71h-297z" />
    <glyph glyph-name="uni01D6" unicode="&#x1d6;" 
d="M261 -10q-95 0 -140.5 47.5t-45.5 141.5v357h90v-343q0 -64 26.5 -97t91.5 -33q83 0 115 52t32 145v276h90v-536h-72l-13 72h-5q-28 -45 -70.5 -63.5t-98.5 -18.5zM414 622q-22 0 -38 14.5t-16 44.5q0 31 16 44t38 13t38.5 -13t16.5 -44q0 -30 -16.5 -44.5t-38.5 -14.5z
M185 622q-22 0 -38 14.5t-16 44.5q0 31 16 44t38 13t38.5 -13t16.5 -44q0 -30 -16.5 -44.5t-38.5 -14.5zM151 807v71h297v-71h-297z" />
    <glyph glyph-name="uni01D7" unicode="&#x1d7;" 
d="M298 -10q-82 0 -132.5 32.5t-73 92t-22.5 139.5v460h90v-455q0 -56 12.5 -99t43 -66.5t84.5 -23.5q57 0 87.5 25t41.5 68.5t11 96.5v454h90v-462q0 -74 -22 -133.5t-73 -94t-137 -34.5zM414 800q-22 0 -38 14.5t-16 44.5q0 31 16 44t38 13t38.5 -13t16.5 -44
q0 -30 -16.5 -44.5t-38.5 -14.5zM185 800q-22 0 -38 14.5t-16 44.5q0 31 16 44t38 13t38.5 -13t16.5 -44q0 -30 -16.5 -44.5t-38.5 -14.5zM259 973v12q15 19 32.5 45t34.5 53.5t28 49.5h106v-10q-12 -18 -37 -46.5t-53.5 -57t-52.5 -46.5h-58z" />
    <glyph glyph-name="uni01D8" unicode="&#x1d8;" 
d="M261 -10q-95 0 -140.5 47.5t-45.5 141.5v357h90v-343q0 -64 26.5 -97t91.5 -33q83 0 115 52t32 145v276h90v-536h-72l-13 72h-5q-28 -45 -70.5 -63.5t-98.5 -18.5zM414 622q-22 0 -38 14.5t-16 44.5q0 31 16 44t38 13t38.5 -13t16.5 -44q0 -30 -16.5 -44.5t-38.5 -14.5z
M185 622q-22 0 -38 14.5t-16 44.5q0 31 16 44t38 13t38.5 -13t16.5 -44q0 -30 -16.5 -44.5t-38.5 -14.5zM259 795v12q15 19 32.5 45t34.5 53.5t28 49.5h106v-10q-12 -18 -37 -46.5t-53.5 -57t-52.5 -46.5h-58z" />
    <glyph glyph-name="uni01D9" unicode="&#x1d9;" 
d="M298 -10q-82 0 -132.5 32.5t-73 92t-22.5 139.5v460h90v-455q0 -56 12.5 -99t43 -66.5t84.5 -23.5q57 0 87.5 25t41.5 68.5t11 96.5v454h90v-462q0 -74 -22 -133.5t-73 -94t-137 -34.5zM414 800q-22 0 -38 14.5t-16 44.5q0 31 16 44t38 13t38.5 -13t16.5 -44
q0 -30 -16.5 -44.5t-38.5 -14.5zM185 800q-22 0 -38 14.5t-16 44.5q0 31 16 44t38 13t38.5 -13t16.5 -44q0 -30 -16.5 -44.5t-38.5 -14.5zM254 973q-13 23 -35 49.5t-46 52.5t-42 45v13h60q26 -17 54 -41t53 -51q27 27 55 51t54 41h62v-13q-19 -19 -43.5 -45t-47 -52.5
t-34.5 -49.5h-90z" />
    <glyph glyph-name="uni01DA" unicode="&#x1da;" 
d="M261 -10q-95 0 -140.5 47.5t-45.5 141.5v357h90v-343q0 -64 26.5 -97t91.5 -33q83 0 115 52t32 145v276h90v-536h-72l-13 72h-5q-28 -45 -70.5 -63.5t-98.5 -18.5zM414 622q-22 0 -38 14.5t-16 44.5q0 31 16 44t38 13t38.5 -13t16.5 -44q0 -30 -16.5 -44.5t-38.5 -14.5z
M185 622q-22 0 -38 14.5t-16 44.5q0 31 16 44t38 13t38.5 -13t16.5 -44q0 -30 -16.5 -44.5t-38.5 -14.5zM254 795q-13 23 -35 49.5t-46 52.5t-42 45v13h60q26 -17 54 -41t53 -51q27 27 55 51t54 41h62v-13q-19 -19 -43.5 -45t-47 -52.5t-34.5 -49.5h-90z" />
    <glyph glyph-name="uni01DB" unicode="&#x1db;" 
d="M298 -10q-82 0 -132.5 32.5t-73 92t-22.5 139.5v460h90v-455q0 -56 12.5 -99t43 -66.5t84.5 -23.5q57 0 87.5 25t41.5 68.5t11 96.5v454h90v-462q0 -74 -22 -133.5t-73 -94t-137 -34.5zM414 800q-22 0 -38 14.5t-16 44.5q0 31 16 44t38 13t38.5 -13t16.5 -44
q0 -30 -16.5 -44.5t-38.5 -14.5zM185 800q-22 0 -38 14.5t-16 44.5q0 31 16 44t38 13t38.5 -13t16.5 -44q0 -30 -16.5 -44.5t-38.5 -14.5zM311 973q-23 18 -52 46.5t-53.5 57t-36.5 46.5v10h105q11 -22 27.5 -49.5t35 -53.5t33.5 -45v-12h-59z" />
    <glyph glyph-name="uni01DC" unicode="&#x1dc;" 
d="M261 -10q-95 0 -140.5 47.5t-45.5 141.5v357h90v-343q0 -64 26.5 -97t91.5 -33q83 0 115 52t32 145v276h90v-536h-72l-13 72h-5q-28 -45 -70.5 -63.5t-98.5 -18.5zM414 622q-22 0 -38 14.5t-16 44.5q0 31 16 44t38 13t38.5 -13t16.5 -44q0 -30 -16.5 -44.5t-38.5 -14.5z
M185 622q-22 0 -38 14.5t-16 44.5q0 31 16 44t38 13t38.5 -13t16.5 -44q0 -30 -16.5 -44.5t-38.5 -14.5zM311 795q-23 18 -52 46.5t-53.5 57t-36.5 46.5v10h105q11 -22 27.5 -49.5t35 -53.5t33.5 -45v-12h-59z" />
    <glyph glyph-name="uni01DD" unicode="&#x1dd;" 
d="M263 546q129 0 203 -71.5t74 -204.5q0 -88 -32 -150.5t-89 -96t-133 -33.5q-105 0 -165.5 68t-60.5 186v41h389q-2 70 -26.5 111t-67 58.5t-98.5 17.5q-44 0 -87 -12t-86 -32v80q46 20 92 29t87 9zM447 213h-297q3 -70 37.5 -110t98.5 -40q67 0 108.5 40.5t52.5 109.5z
" />
    <glyph glyph-name="uni01DE" unicode="&#x1de;" 
d="M20 0l232 717h95l233 -717h-92l-68 219h-241l-68 -219h-91zM270 512l-66 -213h191l-66 213q-5 17 -14 48t-16 62q-6 -31 -15 -62t-14 -48zM414 800q-22 0 -38 14.5t-16 44.5q0 31 16 44t38 13t38.5 -13t16.5 -44q0 -30 -16.5 -44.5t-38.5 -14.5zM185 800q-22 0 -38 14.5
t-16 44.5q0 31 16 44t38 13t38.5 -13t16.5 -44q0 -30 -16.5 -44.5t-38.5 -14.5zM151 985v71h297v-71h-297z" />
    <glyph glyph-name="uni01DF" unicode="&#x1df;" 
d="M246 -10q-79 0 -127.5 39t-48.5 118q0 87 62.5 130t180.5 46l115 3v22q0 72 -36 98.5t-97 26.5q-43 0 -82 -11t-74 -31l-31 68q38 19 84.5 33t107.5 14q101 0 155.5 -45.5t54.5 -141.5v-359h-72l-10 74h-4q-33 -42 -76 -63t-102 -21zM261 63q45 0 83 16.5t61 50t23 84.5
v48l-96 -3q-96 -3 -136.5 -31t-40.5 -78q0 -46 29 -66.5t77 -20.5zM419 622q-22 0 -38 14.5t-16 44.5q0 31 16 44t38 13t38.5 -13t16.5 -44q0 -30 -16.5 -44.5t-38.5 -14.5zM190 622q-22 0 -38 14.5t-16 44.5q0 31 16 44t38 13t38.5 -13t16.5 -44q0 -30 -16.5 -44.5
t-38.5 -14.5zM156 807v71h297v-71h-297z" />
    <glyph glyph-name="uni01E0" unicode="&#x1e0;" 
d="M20 0l232 717h95l233 -717h-92l-68 219h-241l-68 -219h-91zM270 512l-66 -213h191l-66 213q-5 17 -14 48t-16 62q-6 -31 -15 -62t-14 -48zM299 811q-26 0 -44.5 16t-18.5 47q0 33 18.5 48.5t44.5 15.5t44.5 -15.5t18.5 -48.5q0 -31 -18.5 -47t-44.5 -16zM151 974v71h297
v-71h-297z" />
    <glyph glyph-name="uni01E1" unicode="&#x1e1;" 
d="M246 -10q-79 0 -127.5 39t-48.5 118q0 87 62.5 130t180.5 46l115 3v22q0 72 -36 98.5t-97 26.5q-43 0 -82 -11t-74 -31l-31 68q38 19 84.5 33t107.5 14q101 0 155.5 -45.5t54.5 -141.5v-359h-72l-10 74h-4q-33 -42 -76 -63t-102 -21zM261 63q45 0 83 16.5t61 50t23 84.5
v48l-96 -3q-96 -3 -136.5 -31t-40.5 -78q0 -46 29 -66.5t77 -20.5zM304 633q-26 0 -44.5 16t-18.5 47q0 33 18.5 48.5t44.5 15.5t44.5 -15.5t18.5 -48.5q0 -31 -18.5 -47t-44.5 -16zM156 796v71h297v-71h-297z" />
    <glyph glyph-name="uni01E2" unicode="&#x1e2;" 
d="M20 0l160 714h363v-80h-180v-221h161v-79h-161v-254h180v-80h-266v219h-123l-47 -219h-87zM242 634l-72 -338h107v338h-35zM176 796v71h297v-71h-297z" />
    <glyph glyph-name="uni01E3" unicode="&#x1e3;" 
d="M145 -10q-51 0 -88 39t-37 121q0 80 42.5 124t117.5 46l78 2v34q0 65 -20 91t-58 26q-23 0 -48.5 -10.5t-45.5 -27.5l-31 64q25 20 61.5 33.5t67.5 13.5q48 0 79.5 -19t47.5 -60q17 38 48 58.5t74 20.5q69 0 108 -62.5t39 -177.5v-55h-245q2 -104 34 -146t84 -42
q32 0 58.5 10t55.5 32v-79q-28 -19 -55 -27.5t-63 -8.5q-48 0 -89 23.5t-63 84.5q-25 -58 -61.5 -83t-90.5 -25zM337 321h161q0 75 -17 113.5t-57 38.5q-35 0 -59.5 -39t-27.5 -113zM161 63q25 0 46.5 14t35 47.5t13.5 89.5v45l-45 -3q-58 -4 -84.5 -30.5t-26.5 -76.5
q0 -45 18 -65.5t43 -20.5zM151 618v71h297v-71h-297z" />
    <glyph glyph-name="uni01E4" unicode="&#x1e4;" 
d="M299 158v71h144v77h-144v80h231v-157h69v-71h-69v-131q-37 -15 -85.5 -26t-104.5 -11q-146 0 -220.5 91t-74.5 265q0 179 78 278.5t229 99.5q51 0 92 -11t78 -31l-32 -75q-25 16 -59 26t-77 10q-109 0 -163 -76.5t-54 -216.5q0 -80 19.5 -143.5t65 -100t122.5 -36.5
q32 0 56 5t43 10v73h-144z" />
    <glyph glyph-name="uni01E5" unicode="&#x1e5;" 
d="M297 -240q-45 0 -95.5 8t-89.5 26v81q39 -21 91.5 -31.5t98.5 -10.5q51 0 80.5 14.5t42.5 49.5h-167v71h180v65q0 17 1 36t2 30h-4q-54 -81 -165 -81q-105 0 -161 69.5t-56 192.5t56 194.5t159 71.5q53 0 95.5 -20t72.5 -61h5l12 71h70v-568h55v-71h-63
q-14 -62 -65 -99.5t-155 -37.5zM294 90q145 0 145 171v16q0 195 -149 195q-73 0 -108.5 -47.5t-35.5 -145.5q0 -96 35 -142.5t113 -46.5z" />
    <glyph glyph-name="uni01E6" unicode="&#x1e6;" 
d="M340 -10q-146 0 -220.5 91t-74.5 265q0 179 78 278.5t229 99.5q51 0 92 -11t78 -31l-32 -75q-25 16 -59 26t-77 10q-109 0 -163 -76.5t-54 -216.5q0 -80 19.5 -143.5t65 -100t122.5 -36.5q32 0 56 5t43 10v212h-130v80h217v-350q-37 -15 -85.5 -26t-104.5 -11zM276 784
q-13 23 -35 49.5t-46 52.5t-42 45v13h60q26 -17 54 -41t53 -51q27 27 55 51t54 41h62v-13q-19 -19 -43.5 -45t-47 -52.5t-34.5 -49.5h-90z" />
    <glyph glyph-name="uni01E7" unicode="&#x1e7;" 
d="M276 -245q-55 0 -103.5 10.5t-89.5 27.5v80q40 -23 92.5 -34.5t97.5 -11.5q91 0 127 42.5t36 116.5v19q0 12 0.5 23t2.5 34h-4q-28 -41 -65.5 -56.5t-90.5 -15.5q-106 0 -165 72.5t-59 202.5q0 131 58.5 206t160.5 75q54 0 91 -17.5t66 -58.5h5l12 66h72v-550
q0 -115 -59 -173t-185 -58zM296 63q67 0 105 43.5t38 139.5v21q0 110 -39 158t-107 48q-76 0 -111 -53.5t-35 -151.5q0 -100 36.5 -152.5t112.5 -52.5zM254 606q-13 23 -35 49.5t-46 52.5t-42 45v13h60q26 -17 54 -41t53 -51q27 27 55 51t54 41h62v-13q-19 -19 -43.5 -45
t-47 -52.5t-34.5 -49.5h-90z" />
    <glyph glyph-name="uni01E8" unicode="&#x1e8;" 
d="M70 0v714h90v-384q17 27 35 55t39 56l204 273h103l-239 -323l248 -391h-103l-206 330l-81 -93v-237h-90zM254 784q-13 23 -35 49.5t-46 52.5t-42 45v13h60q26 -17 54 -41t53 -51q27 27 55 51t54 41h62v-13q-19 -19 -43.5 -45t-47 -52.5t-34.5 -49.5h-90z" />
    <glyph glyph-name="uni01E9" unicode="&#x1e9;" 
d="M105 0v760h90v-366q0 -31 -2.5 -73.5t-4.5 -77.5h2q19 25 36.5 45.5t36.5 42.5l185 205h108l-213 -231l227 -305h-104l-183 252l-88 -85v-167h-90zM294 830q-13 23 -35 49.5t-46 52.5t-42 45v13h60q26 -17 54 -41t53 -51q27 27 55 51t54 41h62v-13q-19 -19 -43.5 -45
t-47 -52.5t-34.5 -49.5h-90z" />
    <glyph glyph-name="uni01EA" unicode="&#x1ea;" 
d="M299 -10q-89 0 -145 46t-82.5 129t-26.5 192q0 110 26.5 193t83 129.5t145.5 46.5t145.5 -46t83 -128.5t26.5 -192.5q0 -111 -27 -194t-83.5 -129t-145.5 -46zM301 70q90 0 126 76.5t36 211.5q0 136 -36 212t-125 76q-91 0 -128 -77t-37 -211q0 -135 37 -211.5t127 -76.5
zM321 -220q-54 0 -79 25t-25 64q0 33 14.5 60.5t36 49t41.5 36.5l48 -15q-33 -31 -50.5 -58t-17.5 -57q0 -25 13 -35.5t38 -10.5q11 0 22.5 1.5t19.5 4.5v-56q-14 -4 -28.5 -6.5t-32.5 -2.5z" />
    <glyph glyph-name="uni01EB" unicode="&#x1eb;" 
d="M301 -10q-70 0 -125.5 30.5t-88 93t-32.5 156.5q0 93 31.5 154t86.5 91.5t125 30.5t126 -30.5t88.5 -92t32.5 -156.5q0 -93 -32 -154.5t-87 -92t-125 -30.5zM300 63q78 0 116 55.5t38 150.5t-38.5 149.5t-116.5 54.5t-116.5 -54.5t-38.5 -149.5t39 -150.5t117 -55.5z
M321 -220q-54 0 -79 25t-25 64q0 33 14.5 60.5t36 49t41.5 36.5l48 -15q-33 -31 -50.5 -58t-17.5 -57q0 -25 13 -35.5t38 -10.5q11 0 22.5 1.5t19.5 4.5v-56q-14 -4 -28.5 -6.5t-32.5 -2.5z" />
    <glyph glyph-name="uni01EC" unicode="&#x1ec;" 
d="M299 -10q-89 0 -145 46t-82.5 129t-26.5 192q0 110 26.5 193t83 129.5t145.5 46.5t145.5 -46t83 -128.5t26.5 -192.5q0 -111 -27 -194t-83.5 -129t-145.5 -46zM301 70q90 0 126 76.5t36 211.5q0 136 -36 212t-125 76q-91 0 -128 -77t-37 -211q0 -135 37 -211.5t127 -76.5
zM321 -220q-54 0 -79 25t-25 64q0 33 14.5 60.5t36 49t41.5 36.5l48 -15q-33 -31 -50.5 -58t-17.5 -57q0 -25 13 -35.5t38 -10.5q11 0 22.5 1.5t19.5 4.5v-56q-14 -4 -28.5 -6.5t-32.5 -2.5zM151 796v71h297v-71h-297z" />
    <glyph glyph-name="uni01ED" unicode="&#x1ed;" 
d="M301 -10q-70 0 -125.5 30.5t-88 93t-32.5 156.5q0 93 31.5 154t86.5 91.5t125 30.5t126 -30.5t88.5 -92t32.5 -156.5q0 -93 -32 -154.5t-87 -92t-125 -30.5zM300 63q78 0 116 55.5t38 150.5t-38.5 149.5t-116.5 54.5t-116.5 -54.5t-38.5 -149.5t39 -150.5t117 -55.5z
M321 -220q-54 0 -79 25t-25 64q0 33 14.5 60.5t36 49t41.5 36.5l48 -15q-33 -31 -50.5 -58t-17.5 -57q0 -25 13 -35.5t38 -10.5q11 0 22.5 1.5t19.5 4.5v-56q-14 -4 -28.5 -6.5t-32.5 -2.5zM151 618v71h297v-71h-297z" />
    <glyph glyph-name="uni01EE" unicode="&#x1ee;" 
d="M248 -10q-58 0 -109.5 8.5t-96.5 30.5v82q47 -22 102 -34.5t105 -12.5q97 0 145 37t48 104t-56.5 98t-161.5 31h-67v73l235 227h-330v80h444v-71l-245 -236q128 -4 201.5 -54t73.5 -149q0 -94 -71 -154t-217 -60zM254 784q-13 23 -35 49.5t-46 52.5t-42 45v13h60
q26 -17 54 -41t53 -51q27 27 55 51t54 41h62v-13q-19 -19 -43.5 -45t-47 -52.5t-34.5 -49.5h-90z" />
    <glyph glyph-name="uni01EF" unicode="&#x1ef;" 
d="M246 -240q-59 0 -111 12t-84 27v80q33 -17 85.5 -31.5t113.5 -14.5q96 0 142 45t46 125q0 84 -47.5 119.5t-149.5 35.5h-79v61l234 243h-331v74h434v-64l-234 -244q125 -2 193 -58t68 -165q0 -71 -30.5 -126.5t-92.5 -87t-157 -31.5zM239 614q-13 23 -35 49.5t-46 52.5
t-42 45v13h60q26 -17 54 -41t53 -51q27 27 55 51t54 41h62v-13q-19 -19 -43.5 -45t-47 -52.5t-34.5 -49.5h-90z" />
    <glyph glyph-name="uni01F0" unicode="&#x1f0;" 
d="M192 -245q-31 0 -68.5 5t-63.5 12v79q26 -9 59 -15t63 -6q67 0 96 33t29 100v498l-175 13v62h265v-588q0 -93 -53.5 -143t-151.5 -50zM294 606q-13 23 -35 49.5t-46 52.5t-42 45v13h60q26 -17 54 -41t53 -51q27 27 55 51t54 41h62v-13q-19 -19 -43.5 -45t-47 -52.5
t-34.5 -49.5h-90z" />
    <glyph glyph-name="uni01F1" unicode="&#x1f1;" horiz-adv-x="1200" 
d="M114 0v714h173q95 0 165 -40t108.5 -117.5t38.5 -192.5q0 -181 -87.5 -272.5t-244.5 -91.5h-153zM204 78h54q128 0 188.5 72t60.5 211q0 142 -61.5 208.5t-168.5 66.5h-73v-558zM671 0v71l317 565h-297v78h390v-71l-313 -563h313v-80h-410z" />
    <glyph glyph-name="uni01F2" unicode="&#x1f2;" horiz-adv-x="1200" 
d="M70 0v714h173q95 0 165 -40t108.5 -117.5t38.5 -192.5q0 -181 -87.5 -272.5t-244.5 -91.5h-153zM160 78h54q128 0 188.5 72t60.5 211q0 142 -61.5 208.5t-168.5 66.5h-73v-558zM690 0v61l315 406h-299v69h396v-71l-305 -389h313v-76h-420z" />
    <glyph glyph-name="uni01F3" unicode="&#x1f3;" horiz-adv-x="1200" 
d="M274 -10q-99 0 -159 69.5t-60 211.5q0 134 57 204.5t172 70.5q56 0 92 -22t55 -56h6q-2 14 -4 37t-2 42v213h89v-760h-74l-10 72h-4q-22 -36 -59.5 -59t-98.5 -23zM291 63q71 0 105.5 49.5t34.5 134.5v20q0 59 -13 105.5t-43 73.5t-81 27q-70 0 -108.5 -52t-38.5 -159
q0 -199 144 -199zM690 0v61l315 406h-299v69h396v-71l-305 -389h313v-76h-420z" />
    <glyph glyph-name="uni01F4" unicode="&#x1f4;" 
d="M340 -10q-146 0 -220.5 91t-74.5 265q0 179 78 278.5t229 99.5q51 0 92 -11t78 -31l-32 -75q-25 16 -59 26t-77 10q-109 0 -163 -76.5t-54 -216.5q0 -80 19.5 -143.5t65 -100t122.5 -36.5q32 0 56 5t43 10v212h-130v80h217v-350q-37 -15 -85.5 -26t-104.5 -11zM281 784
v12q15 19 32.5 45t34.5 53.5t28 49.5h106v-10q-12 -18 -37 -46.5t-53.5 -57t-52.5 -46.5h-58z" />
    <glyph glyph-name="uni01F5" unicode="&#x1f5;" 
d="M276 -245q-55 0 -103.5 10.5t-89.5 27.5v80q40 -23 92.5 -34.5t97.5 -11.5q91 0 127 42.5t36 116.5v19q0 12 0.5 23t2.5 34h-4q-28 -41 -65.5 -56.5t-90.5 -15.5q-106 0 -165 72.5t-59 202.5q0 131 58.5 206t160.5 75q54 0 91 -17.5t66 -58.5h5l12 66h72v-550
q0 -115 -59 -173t-185 -58zM296 63q67 0 105 43.5t38 139.5v21q0 110 -39 158t-107 48q-76 0 -111 -53.5t-35 -151.5q0 -100 36.5 -152.5t112.5 -52.5zM259 606v12q15 19 32.5 45t34.5 53.5t28 49.5h106v-10q-12 -18 -37 -46.5t-53.5 -57t-52.5 -46.5h-58z" />
    <glyph glyph-name="uni01F6" unicode="&#x1f6;" 
d="M403 -10q-54 0 -85 20.5t-44 54.5t-13 72v198h-120v-335h-84v714h84v-303h120v303h84v-573q0 -36 14 -57t44 -21q29 0 43 21t14 57v396h84v-400q0 -38 -15 -72t-46 -54.5t-80 -20.5z" />
    <glyph glyph-name="uni01F7" unicode="&#x1f7;" 
d="M87 -240v955h71l15 -97h5q23 45 69 76t112 31q57 0 103 -26t73 -80t27 -137q0 -89 -36.5 -177.5t-121 -169t-227.5 -145.5v-230h-90zM177 74q143 71 219 176t76 231q0 83 -34.5 124.5t-94.5 41.5q-90 0 -128 -62.5t-38 -166.5v-344z" />
    <glyph glyph-name="uni01F8" unicode="&#x1f8;" 
d="M70 0v714h119l260 -595h3q-5 59 -7 107.5t-2 109.5v378h87v-714h-109l-273 622h-4q5 -56 9 -112t4 -112v-398h-87zM316 784q-23 18 -52 46.5t-53.5 57t-36.5 46.5v10h105q11 -22 27.5 -49.5t35 -53.5t33.5 -45v-12h-59z" />
    <glyph glyph-name="uni01F9" unicode="&#x1f9;" 
d="M80 0v536h72l13 -79h5q23 46 68.5 67.5t106.5 21.5q81 0 130.5 -45.5t49.5 -142.5v-358h-90v342q0 68 -27.5 99.5t-88.5 31.5q-82 0 -115.5 -52t-33.5 -146v-275h-90zM323 606q-23 18 -52 46.5t-53.5 57t-36.5 46.5v10h105q11 -22 27.5 -49.5t35 -53.5t33.5 -45v-12h-59z
" />
    <glyph glyph-name="Aringacute" unicode="&#x1fa;" 
d="M20 0l232 717h95l233 -717h-92l-68 219h-241l-68 -219h-91zM270 512l-66 -213h191l-66 213q-5 17 -14 48t-16 62q-6 -31 -15 -62t-14 -48zM299 666q-49 0 -79 28t-30 78t30 77.5t79 27.5q47 0 79 -27.5t32 -76.5q0 -51 -31.5 -79t-79.5 -28zM299 718q24 0 39 14.5
t15 39.5q0 26 -15.5 40t-38.5 14q-22 0 -37.5 -14t-15.5 -40q0 -25 15 -39.5t38 -14.5zM259 915v12q15 19 32.5 45t34.5 53.5t28 49.5h106v-10q-12 -18 -37 -46.5t-53.5 -57t-52.5 -46.5h-58z" />
    <glyph glyph-name="aringacute" unicode="&#x1fb;" 
d="M246 -10q-79 0 -127.5 39t-48.5 118q0 87 62.5 130t180.5 46l115 3v22q0 72 -36 98.5t-97 26.5q-43 0 -82 -11t-74 -31l-31 68q38 19 84.5 33t107.5 14q101 0 155.5 -45.5t54.5 -141.5v-359h-72l-10 74h-4q-33 -42 -76 -63t-102 -21zM261 63q45 0 83 16.5t61 50t23 84.5
v48l-96 -3q-96 -3 -136.5 -31t-40.5 -78q0 -46 29 -66.5t77 -20.5zM304 606q-49 0 -79 28t-30 78t30 77.5t79 27.5q47 0 79 -27.5t32 -76.5q0 -51 -31.5 -79t-79.5 -28zM304 658q24 0 39 14.5t15 39.5q0 26 -15.5 40t-38.5 14q-22 0 -37.5 -14t-15.5 -40q0 -25 15 -39.5
t38 -14.5zM264 887v12q15 19 32.5 45t34.5 53.5t28 49.5h106v-10q-12 -18 -37 -46.5t-53.5 -57t-52.5 -46.5h-58z" />
    <glyph glyph-name="AEacute" unicode="&#x1fc;" 
d="M20 0l160 714h363v-80h-180v-221h161v-79h-161v-254h180v-80h-266v219h-123l-47 -219h-87zM242 634l-72 -338h107v338h-35zM284 784v12q15 19 32.5 45t34.5 53.5t28 49.5h106v-10q-12 -18 -37 -46.5t-53.5 -57t-52.5 -46.5h-58z" />
    <glyph glyph-name="aeacute" unicode="&#x1fd;" 
d="M145 -10q-51 0 -88 39t-37 121q0 80 42.5 124t117.5 46l78 2v34q0 65 -20 91t-58 26q-23 0 -48.5 -10.5t-45.5 -27.5l-31 64q25 20 61.5 33.5t67.5 13.5q48 0 79.5 -19t47.5 -60q17 38 48 58.5t74 20.5q69 0 108 -62.5t39 -177.5v-55h-245q2 -104 34 -146t84 -42
q32 0 58.5 10t55.5 32v-79q-28 -19 -55 -27.5t-63 -8.5q-48 0 -89 23.5t-63 84.5q-25 -58 -61.5 -83t-90.5 -25zM337 321h161q0 75 -17 113.5t-57 38.5q-35 0 -59.5 -39t-27.5 -113zM161 63q25 0 46.5 14t35 47.5t13.5 89.5v45l-45 -3q-58 -4 -84.5 -30.5t-26.5 -76.5
q0 -45 18 -65.5t43 -20.5zM259 606v12q15 19 32.5 45t34.5 53.5t28 49.5h106v-10q-12 -18 -37 -46.5t-53.5 -57t-52.5 -46.5h-58z" />
    <glyph glyph-name="Oslashacute" unicode="&#x1fe;" 
d="M121 -38l-65 35l52 91q-32 48 -47.5 116.5t-15.5 152.5q0 110 26.5 193t83 129.5t145.5 46.5q45 0 81.5 -12t64.5 -35l40 70l64 -35l-53 -93q30 -48 44 -114.5t14 -147.5q0 -111 -27 -194t-83.5 -129t-145.5 -46q-82 0 -138 41zM137 358q0 -54 5.5 -99t17.5 -80l243 426
q-37 41 -101 41q-91 0 -128 -77t-37 -211zM301 70q90 0 126 76.5t36 211.5q0 51 -4.5 93.5t-14.5 76.5l-241 -422q38 -36 98 -36zM259 784v12q15 19 32.5 45t34.5 53.5t28 49.5h106v-10q-12 -18 -37 -46.5t-53.5 -57t-52.5 -46.5h-58z" />
    <glyph glyph-name="oslashacute" unicode="&#x1ff;" 
d="M132 -33l-58 39l44 62q-30 34 -46.5 84.5t-16.5 117.5q0 93 31.5 154t86.5 91.5t125 30.5q78 0 136 -36l40 56l59 -38l-46 -65q27 -34 42.5 -83t15.5 -113q0 -93 -32 -154.5t-87 -92t-125 -30.5q-74 0 -129 33zM144 269q0 -78 26 -129l218 306q-36 27 -89 27
q-78 0 -116.5 -54.5t-38.5 -149.5zM300 63q78 0 116 55.5t38 150.5q0 71 -21 119l-216 -302q34 -23 83 -23zM259 606v12q15 19 32.5 45t34.5 53.5t28 49.5h106v-10q-12 -18 -37 -46.5t-53.5 -57t-52.5 -46.5h-58z" />
    <glyph glyph-name="uni0200" unicode="&#x200;" 
d="M20 0l232 717h95l233 -717h-92l-68 219h-241l-68 -219h-91zM270 512l-66 -213h191l-66 213q-5 17 -14 48t-16 62q-6 -31 -15 -62t-14 -48zM399 784q-22 18 -49.5 46.5t-50 57.5t-33.5 46v10h97q16 -34 40.5 -76.5t45.5 -71.5v-12h-50zM223 784q-22 18 -49 46.5t-50 57.5
t-34 46v10h97q16 -34 40.5 -76.5t45.5 -71.5v-12h-50z" />
    <glyph glyph-name="uni0201" unicode="&#x201;" 
d="M246 -10q-79 0 -127.5 39t-48.5 118q0 87 62.5 130t180.5 46l115 3v22q0 72 -36 98.5t-97 26.5q-43 0 -82 -11t-74 -31l-31 68q38 19 84.5 33t107.5 14q101 0 155.5 -45.5t54.5 -141.5v-359h-72l-10 74h-4q-33 -42 -76 -63t-102 -21zM261 63q45 0 83 16.5t61 50t23 84.5
v48l-96 -3q-96 -3 -136.5 -31t-40.5 -78q0 -46 29 -66.5t77 -20.5zM404 606q-22 18 -49.5 46.5t-50 57.5t-33.5 46v10h97q16 -34 40.5 -76.5t45.5 -71.5v-12h-50zM228 606q-22 18 -49 46.5t-50 57.5t-34 46v10h97q16 -34 40.5 -76.5t45.5 -71.5v-12h-50z" />
    <glyph glyph-name="uni0202" unicode="&#x202;" 
d="M20 0l232 717h95l233 -717h-92l-68 219h-241l-68 -219h-91zM270 512l-66 -213h191l-66 213q-5 17 -14 48t-16 62q-6 -31 -15 -62t-14 -48zM296 944q-71 0 -110.5 -38t-41.5 -96h58q7 30 22.5 45t35.5 20.5t39 5.5q31 0 59.5 -13.5t37.5 -57.5h59q-1 58 -42.5 96
t-116.5 38z" />
    <glyph glyph-name="uni0203" unicode="&#x203;" 
d="M246 -10q-79 0 -127.5 39t-48.5 118q0 87 62.5 130t180.5 46l115 3v22q0 72 -36 98.5t-97 26.5q-43 0 -82 -11t-74 -31l-31 68q38 19 84.5 33t107.5 14q101 0 155.5 -45.5t54.5 -141.5v-359h-72l-10 74h-4q-33 -42 -76 -63t-102 -21zM261 63q45 0 83 16.5t61 50t23 84.5
v48l-96 -3q-96 -3 -136.5 -31t-40.5 -78q0 -46 29 -66.5t77 -20.5zM301 766q-71 0 -110.5 -38t-41.5 -96h58q7 30 22.5 45t35.5 20.5t39 5.5q31 0 59.5 -13.5t37.5 -57.5h59q-1 58 -42.5 96t-116.5 38z" />
    <glyph glyph-name="uni0204" unicode="&#x204;" 
d="M95 0v714h420v-80h-330v-221h311v-80h-311v-253h330v-80h-420zM405 784q-22 18 -49.5 46.5t-50 57.5t-33.5 46v10h97q16 -34 40.5 -76.5t45.5 -71.5v-12h-50zM229 784q-22 18 -49 46.5t-50 57.5t-34 46v10h97q16 -34 40.5 -76.5t45.5 -71.5v-12h-50z" />
    <glyph glyph-name="uni0205" unicode="&#x205;" 
d="M337 -10q-129 0 -203 71.5t-74 204.5q0 88 32 150.5t89 96t133 33.5q105 0 165.5 -68t60.5 -186v-41h-389q2 -70 26.5 -111t67 -58.5t98.5 -17.5q44 0 87 12t86 32v-80q-46 -20 -92 -29t-87 -9zM153 323h297q-3 70 -37.5 110t-98.5 40q-67 0 -108.5 -40.5t-52.5 -109.5z
M403 606q-22 18 -49.5 46.5t-50 57.5t-33.5 46v10h97q16 -34 40.5 -76.5t45.5 -71.5v-12h-50zM227 606q-22 18 -49 46.5t-50 57.5t-34 46v10h97q16 -34 40.5 -76.5t45.5 -71.5v-12h-50z" />
    <glyph glyph-name="uni0206" unicode="&#x206;" 
d="M95 0v714h420v-80h-330v-221h311v-80h-311v-253h330v-80h-420zM302 944q-71 0 -110.5 -38t-41.5 -96h58q7 30 22.5 45t35.5 20.5t39 5.5q31 0 59.5 -13.5t37.5 -57.5h59q-1 58 -42.5 96t-116.5 38z" />
    <glyph glyph-name="uni0207" unicode="&#x207;" 
d="M337 -10q-129 0 -203 71.5t-74 204.5q0 88 32 150.5t89 96t133 33.5q105 0 165.5 -68t60.5 -186v-41h-389q2 -70 26.5 -111t67 -58.5t98.5 -17.5q44 0 87 12t86 32v-80q-46 -20 -92 -29t-87 -9zM153 323h297q-3 70 -37.5 110t-98.5 40q-67 0 -108.5 -40.5t-52.5 -109.5z
M300 766q-71 0 -110.5 -38t-41.5 -96h58q7 30 22.5 45t35.5 20.5t39 5.5q31 0 59.5 -13.5t37.5 -57.5h59q-1 58 -42.5 96t-116.5 38z" />
    <glyph glyph-name="uni0208" unicode="&#x208;" 
d="M110 0v62l144 13v564l-144 13v62h380v-62l-146 -13v-564l146 -13v-62h-380zM399 784q-22 18 -49.5 46.5t-50 57.5t-33.5 46v10h97q16 -34 40.5 -76.5t45.5 -71.5v-12h-50zM223 784q-22 18 -49 46.5t-50 57.5t-34 46v10h97q16 -34 40.5 -76.5t45.5 -71.5v-12h-50z" />
    <glyph glyph-name="uni0209" unicode="&#x209;" 
d="M80 0v60l191 15v386l-175 13v62h265v-461l179 -15v-60h-460zM399 606q-22 18 -49.5 46.5t-50 57.5t-33.5 46v10h97q16 -34 40.5 -76.5t45.5 -71.5v-12h-50zM223 606q-22 18 -49 46.5t-50 57.5t-34 46v10h97q16 -34 40.5 -76.5t45.5 -71.5v-12h-50z" />
    <glyph glyph-name="uni020A" unicode="&#x20a;" 
d="M110 0v62l144 13v564l-144 13v62h380v-62l-146 -13v-564l146 -13v-62h-380zM296 944q-71 0 -110.5 -38t-41.5 -96h58q7 30 22.5 45t35.5 20.5t39 5.5q31 0 59.5 -13.5t37.5 -57.5h59q-1 58 -42.5 96t-116.5 38z" />
    <glyph glyph-name="uni020B" unicode="&#x20b;" 
d="M80 0v60l191 15v386l-175 13v62h265v-461l179 -15v-60h-460zM296 766q-71 0 -110.5 -38t-41.5 -96h58q7 30 22.5 45t35.5 20.5t39 5.5q31 0 59.5 -13.5t37.5 -57.5h59q-1 58 -42.5 96t-116.5 38z" />
    <glyph glyph-name="uni020C" unicode="&#x20c;" 
d="M299 -10q-89 0 -145 46t-82.5 129t-26.5 192q0 110 26.5 193t83 129.5t145.5 46.5t145.5 -46t83 -128.5t26.5 -192.5q0 -111 -27 -194t-83.5 -129t-145.5 -46zM301 70q90 0 126 76.5t36 211.5q0 136 -36 212t-125 76q-91 0 -128 -77t-37 -211q0 -135 37 -211.5t127 -76.5
zM399 784q-22 18 -49.5 46.5t-50 57.5t-33.5 46v10h97q16 -34 40.5 -76.5t45.5 -71.5v-12h-50zM223 784q-22 18 -49 46.5t-50 57.5t-34 46v10h97q16 -34 40.5 -76.5t45.5 -71.5v-12h-50z" />
    <glyph glyph-name="uni020D" unicode="&#x20d;" 
d="M301 -10q-70 0 -125.5 30.5t-88 93t-32.5 156.5q0 93 31.5 154t86.5 91.5t125 30.5t126 -30.5t88.5 -92t32.5 -156.5q0 -93 -32 -154.5t-87 -92t-125 -30.5zM300 63q78 0 116 55.5t38 150.5t-38.5 149.5t-116.5 54.5t-116.5 -54.5t-38.5 -149.5t39 -150.5t117 -55.5z
M399 606q-22 18 -49.5 46.5t-50 57.5t-33.5 46v10h97q16 -34 40.5 -76.5t45.5 -71.5v-12h-50zM223 606q-22 18 -49 46.5t-50 57.5t-34 46v10h97q16 -34 40.5 -76.5t45.5 -71.5v-12h-50z" />
    <glyph glyph-name="uni020E" unicode="&#x20e;" 
d="M299 -10q-89 0 -145 46t-82.5 129t-26.5 192q0 110 26.5 193t83 129.5t145.5 46.5t145.5 -46t83 -128.5t26.5 -192.5q0 -111 -27 -194t-83.5 -129t-145.5 -46zM301 70q90 0 126 76.5t36 211.5q0 136 -36 212t-125 76q-91 0 -128 -77t-37 -211q0 -135 37 -211.5t127 -76.5
zM296 944q-71 0 -110.5 -38t-41.5 -96h58q7 30 22.5 45t35.5 20.5t39 5.5q31 0 59.5 -13.5t37.5 -57.5h59q-1 58 -42.5 96t-116.5 38z" />
    <glyph glyph-name="uni020F" unicode="&#x20f;" 
d="M301 -10q-70 0 -125.5 30.5t-88 93t-32.5 156.5q0 93 31.5 154t86.5 91.5t125 30.5t126 -30.5t88.5 -92t32.5 -156.5q0 -93 -32 -154.5t-87 -92t-125 -30.5zM300 63q78 0 116 55.5t38 150.5t-38.5 149.5t-116.5 54.5t-116.5 -54.5t-38.5 -149.5t39 -150.5t117 -55.5z
M296 766q-71 0 -110.5 -38t-41.5 -96h58q7 30 22.5 45t35.5 20.5t39 5.5q31 0 59.5 -13.5t37.5 -57.5h59q-1 58 -42.5 96t-116.5 38z" />
    <glyph glyph-name="uni0210" unicode="&#x210;" 
d="M95 0v714h167q251 0 251 -200q0 -56 -18 -94.5t-48.5 -63t-68.5 -38.5l191 -318h-100l-172 292h-112v-292h-90zM185 370h74q88 0 124.5 34.5t36.5 101.5q0 71 -38.5 100.5t-124.5 29.5h-72v-266zM399 784q-22 18 -49.5 46.5t-50 57.5t-33.5 46v10h97q16 -34 40.5 -76.5
t45.5 -71.5v-12h-50zM223 784q-22 18 -49 46.5t-50 57.5t-34 46v10h97q16 -34 40.5 -76.5t45.5 -71.5v-12h-50z" />
    <glyph glyph-name="uni0211" unicode="&#x211;" 
d="M62 0v60l163 15v386l-147 13v62h219l12 -98h4q28 53 61.5 80.5t88.5 27.5q34 0 60.5 -6t48.5 -16l-24 -79q-16 9 -38 15.5t-47 6.5q-43 0 -76 -27t-52 -72t-19 -99v-194l156 -15v-60h-410zM439 606q-22 18 -49.5 46.5t-50 57.5t-33.5 46v10h97q16 -34 40.5 -76.5
t45.5 -71.5v-12h-50zM263 606q-22 18 -49 46.5t-50 57.5t-34 46v10h97q16 -34 40.5 -76.5t45.5 -71.5v-12h-50z" />
    <glyph glyph-name="uni0212" unicode="&#x212;" 
d="M95 0v714h167q251 0 251 -200q0 -56 -18 -94.5t-48.5 -63t-68.5 -38.5l191 -318h-100l-172 292h-112v-292h-90zM185 370h74q88 0 124.5 34.5t36.5 101.5q0 71 -38.5 100.5t-124.5 29.5h-72v-266zM296 944q-71 0 -110.5 -38t-41.5 -96h58q7 30 22.5 45t35.5 20.5t39 5.5
q31 0 59.5 -13.5t37.5 -57.5h59q-1 58 -42.5 96t-116.5 38z" />
    <glyph glyph-name="uni0213" unicode="&#x213;" 
d="M62 0v60l163 15v386l-147 13v62h219l12 -98h4q28 53 61.5 80.5t88.5 27.5q34 0 60.5 -6t48.5 -16l-24 -79q-16 9 -38 15.5t-47 6.5q-43 0 -76 -27t-52 -72t-19 -99v-194l156 -15v-60h-410zM336 766q-71 0 -110.5 -38t-41.5 -96h58q7 30 22.5 45t35.5 20.5t39 5.5
q31 0 59.5 -13.5t37.5 -57.5h59q-1 58 -42.5 96t-116.5 38z" />
    <glyph glyph-name="uni0214" unicode="&#x214;" 
d="M298 -10q-82 0 -132.5 32.5t-73 92t-22.5 139.5v460h90v-455q0 -56 12.5 -99t43 -66.5t84.5 -23.5q57 0 87.5 25t41.5 68.5t11 96.5v454h90v-462q0 -74 -22 -133.5t-73 -94t-137 -34.5zM399 784q-22 18 -49.5 46.5t-50 57.5t-33.5 46v10h97q16 -34 40.5 -76.5t45.5 -71.5
v-12h-50zM223 784q-22 18 -49 46.5t-50 57.5t-34 46v10h97q16 -34 40.5 -76.5t45.5 -71.5v-12h-50z" />
    <glyph glyph-name="uni0215" unicode="&#x215;" 
d="M261 -10q-95 0 -140.5 47.5t-45.5 141.5v357h90v-343q0 -64 26.5 -97t91.5 -33q83 0 115 52t32 145v276h90v-536h-72l-13 72h-5q-28 -45 -70.5 -63.5t-98.5 -18.5zM399 606q-22 18 -49.5 46.5t-50 57.5t-33.5 46v10h97q16 -34 40.5 -76.5t45.5 -71.5v-12h-50zM223 606
q-22 18 -49 46.5t-50 57.5t-34 46v10h97q16 -34 40.5 -76.5t45.5 -71.5v-12h-50z" />
    <glyph glyph-name="uni0216" unicode="&#x216;" 
d="M298 -10q-82 0 -132.5 32.5t-73 92t-22.5 139.5v460h90v-455q0 -56 12.5 -99t43 -66.5t84.5 -23.5q57 0 87.5 25t41.5 68.5t11 96.5v454h90v-462q0 -74 -22 -133.5t-73 -94t-137 -34.5zM296 944q-71 0 -110.5 -38t-41.5 -96h58q7 30 22.5 45t35.5 20.5t39 5.5
q31 0 59.5 -13.5t37.5 -57.5h59q-1 58 -42.5 96t-116.5 38z" />
    <glyph glyph-name="uni0217" unicode="&#x217;" 
d="M261 -10q-95 0 -140.5 47.5t-45.5 141.5v357h90v-343q0 -64 26.5 -97t91.5 -33q83 0 115 52t32 145v276h90v-536h-72l-13 72h-5q-28 -45 -70.5 -63.5t-98.5 -18.5zM296 766q-71 0 -110.5 -38t-41.5 -96h58q7 30 22.5 45t35.5 20.5t39 5.5q31 0 59.5 -13.5t37.5 -57.5h59
q-1 58 -42.5 96t-116.5 38z" />
    <glyph glyph-name="uni0218" unicode="&#x218;" 
d="M281 -10q-57 0 -110.5 10.5t-85.5 26.5v83q37 -16 90 -29.5t108 -13.5q154 0 154 125q0 34 -14 54t-49.5 38.5t-99.5 46.5q-42 19 -82 42t-65.5 61t-25.5 100q0 92 61 141t167 49q54 0 102 -11.5t84 -28.5l-29 -75q-34 16 -76 25.5t-83 9.5q-58 0 -96 -25t-38 -87
q0 -35 14.5 -57t46.5 -38.5t82 -38.5q57 -24 100.5 -48.5t68 -60.5t24.5 -98q0 -95 -62.5 -148t-185.5 -53zM217 -221v12q8 17 16.5 43.5t15.5 55t9 49.5h87v-7q-4 -18 -16.5 -46t-29 -56.5t-34.5 -50.5h-48z" />
    <glyph glyph-name="uni0219" unicode="&#x219;" 
d="M279 -10q-50 0 -95.5 9t-78.5 25v83q35 -16 77.5 -29.5t101.5 -13.5q66 0 93.5 20.5t27.5 59.5q0 21 -9.5 34.5t-36.5 27.5t-79 36q-52 23 -89 43t-57 47.5t-20 70.5q0 71 54.5 107t151.5 36q44 0 84 -8t83 -26l-27 -70q-40 17 -73.5 23t-66.5 6q-62 0 -90.5 -16
t-28.5 -50q0 -22 12.5 -37t41 -29t75.5 -34q53 -22 90 -41t56 -45.5t19 -72.5q0 -76 -54.5 -116t-161.5 -40zM222 -221v12q8 17 16.5 43.5t15.5 55t9 49.5h87v-7q-4 -18 -16.5 -46t-29 -56.5t-34.5 -50.5h-48z" />
    <glyph glyph-name="uni021A" unicode="&#x21a;" 
d="M255 0v634h-210v80h510v-80h-210v-634h-90zM217 -221v12q8 17 16.5 43.5t15.5 55t9 49.5h87v-7q-4 -18 -16.5 -46t-29 -56.5t-34.5 -50.5h-48z" />
    <glyph glyph-name="uni021B" unicode="&#x21b;" 
d="M402 -10q-57 0 -102 15t-71.5 53t-26.5 105v298h-146v62l146 16l18 140h72v-143h209v-75h-209v-281q0 -61 27 -89t89 -28q26 0 56 5t52 10v-72q-24 -6 -53 -11t-61 -5zM291 -221v12q8 17 16.5 43.5t15.5 55t9 49.5h87v-7q-4 -18 -16.5 -46t-29 -56.5t-34.5 -50.5h-48z
" />
    <glyph glyph-name="uni021C" unicode="&#x21c;" 
d="M63 -180v86q145 39 226 80t114.5 89t33.5 107q0 60 -30.5 95t-83.5 61q-35 -13 -73 -23.5t-78 -20.5l-17 70q95 25 154 48t86.5 53.5t27.5 75.5q0 51 -35 80t-97 29q-53 0 -95.5 -15t-83.5 -44l-43 61q52 39 107.5 55.5t115.5 16.5q57 0 108 -17.5t83.5 -56.5t32.5 -106
q0 -58 -31.5 -99.5t-83.5 -70.5q34 -16 63.5 -41t48 -61.5t18.5 -89.5q0 -93 -48 -158.5t-151.5 -113.5t-268.5 -90z" />
    <glyph glyph-name="uni021D" unicode="&#x21d;" 
d="M45 -240v79q202 34 306 88.5t104 139.5q0 51 -32.5 80.5t-89.5 49.5q-35 -12 -75 -22t-84 -19l-20 66q108 23 165.5 46.5t79.5 50.5t22 61q0 46 -35.5 70.5t-98.5 24.5q-52 0 -98 -10t-90 -30l-28 67q53 24 107.5 34t110.5 10q61 0 111 -16.5t79.5 -53t29.5 -96.5
q0 -47 -24.5 -83.5t-69.5 -63.5q53 -21 90.5 -59.5t37.5 -106.5q0 -87 -63 -147t-175 -98.5t-260 -61.5z" />
    <glyph glyph-name="uni021E" unicode="&#x21e;" 
d="M70 0v714h90v-301h280v301h90v-714h-90v333h-280v-333h-90zM254 784q-13 23 -35 49.5t-46 52.5t-42 45v13h60q26 -17 54 -41t53 -51q27 27 55 51t54 41h62v-13q-19 -19 -43.5 -45t-47 -52.5t-34.5 -49.5h-90z" />
    <glyph glyph-name="uni021F" unicode="&#x21f;" 
d="M80 0v760h90v-216q0 -19 -1.5 -48t-2.5 -46h5q26 50 69.5 73t98.5 23q83 0 134.5 -46.5t51.5 -149.5v-350h-90v332q0 73 -31 107t-88 34q-67 0 -106.5 -51.5t-39.5 -143.5v-278h-90zM80 830q-13 23 -35 49.5t-46 52.5t-42 45v13h60q26 -17 54 -41t53 -51q27 27 55 51
t54 41h62v-13q-19 -19 -43.5 -45t-47 -52.5t-34.5 -49.5h-90z" />
    <glyph glyph-name="uni0220" unicode="&#x220;" 
d="M446 -240v726q0 86 -33.5 123.5t-91.5 37.5t-91.5 -27t-47.5 -77.5t-14 -119.5v-423h-90v715h71l12 -85h5q49 95 170 95q54 0 99.5 -23.5t73 -75.5t27.5 -140v-726h-90z" />
    <glyph glyph-name="uni0221" unicode="&#x221;" 
d="M383 -102l-64 5q2 31 6.5 63.5t10.5 57.5q-16 9 -30 22.5t-19 28.5h-5q-13 -44 -42.5 -64.5t-67.5 -20.5q-67 0 -105 63.5t-38 214.5q0 149 41.5 214t108.5 65q35 0 54 -13.5t33 -34.5h4q-3 35 -3 63v198h81v-599q0 -15 2 -29t9 -26q17 59 47 90.5t78 31.5q41 0 71 -27
t30 -77q0 -55 -33 -90.5t-98 -35.5q-23 0 -35 2.5t-22 5.5q-4 -21 -8.5 -51t-5.5 -57zM191 59q35 0 55.5 42.5t20.5 142.5v30q0 79 -9.5 122.5t-27 61t-41.5 17.5q-37 0 -57 -45.5t-20 -161.5q0 -79 9.5 -124.5t27 -65t42.5 -19.5zM457 61q26 0 39 16.5t13 41.5q0 47 -34 47
q-23 0 -37 -22.5t-28 -75.5q11 -3 21 -5t26 -2z" />
    <glyph glyph-name="uni0222" unicode="&#x222;" 
d="M300 -10q-90 0 -144 31.5t-78.5 84.5t-24.5 117q0 79 31.5 127.5t88.5 68.5q-40 23 -64 70t-24 123v102h84v-108q0 -83 34 -119t98 -36q65 0 97 35.5t32 120.5v107h84v-101q0 -79 -23.5 -126t-64.5 -69q62 -23 91 -75.5t29 -120.5q0 -65 -24.5 -117.5t-78.5 -83.5
t-143 -31zM299 67q158 0 158 156q0 155 -157 155q-160 0 -160 -155q0 -156 159 -156z" />
    <glyph glyph-name="uni0223" unicode="&#x223;" 
d="M298 -10q-71 0 -126.5 29t-87.5 85t-32 135q0 84 34 135.5t96 73.5q-48 17 -72 60t-24 123v129h88v-126q0 -79 30.5 -114t95.5 -35t95.5 35t30.5 114v126h88v-129q0 -81 -24.5 -124t-72.5 -60q60 -22 95.5 -73.5t35.5 -134.5q0 -119 -67.5 -184t-182.5 -65zM300 63
q81 0 119 47t38 129q0 81 -38 127t-120 46t-119 -46t-37 -127q0 -82 37.5 -129t119.5 -47z" />
    <glyph glyph-name="uni0224" unicode="&#x224;" 
d="M95 0v71l317 565h-297v78h390v-71l-313 -563h334v-145q0 -64 -28.5 -98.5t-88.5 -34.5q-19 0 -34.5 4t-25.5 8v73q8 -3 21 -6t29 -3q48 0 48 52v70h-352z" />
    <glyph glyph-name="uni0225" unicode="&#x225;" 
d="M90 0v61l315 406h-299v69h396v-71l-305 -389h325v-141q0 -64 -28.5 -98.5t-88.5 -34.5q-19 0 -34.5 4t-25.5 8v73q8 -3 21 -6t29 -3q48 0 48 52v70h-353z" />
    <glyph glyph-name="uni0226" unicode="&#x226;" 
d="M20 0l232 717h95l233 -717h-92l-68 219h-241l-68 -219h-91zM270 512l-66 -213h191l-66 213q-5 17 -14 48t-16 62q-6 -31 -15 -62t-14 -48zM299 811q-26 0 -44.5 16t-18.5 47q0 33 18.5 48.5t44.5 15.5t44.5 -15.5t18.5 -48.5q0 -31 -18.5 -47t-44.5 -16z" />
    <glyph glyph-name="uni0227" unicode="&#x227;" 
d="M246 -10q-79 0 -127.5 39t-48.5 118q0 87 62.5 130t180.5 46l115 3v22q0 72 -36 98.5t-97 26.5q-43 0 -82 -11t-74 -31l-31 68q38 19 84.5 33t107.5 14q101 0 155.5 -45.5t54.5 -141.5v-359h-72l-10 74h-4q-33 -42 -76 -63t-102 -21zM261 63q45 0 83 16.5t61 50t23 84.5
v48l-96 -3q-96 -3 -136.5 -31t-40.5 -78q0 -46 29 -66.5t77 -20.5zM304 633q-26 0 -44.5 16t-18.5 47q0 33 18.5 48.5t44.5 15.5t44.5 -15.5t18.5 -48.5q0 -31 -18.5 -47t-44.5 -16z" />
    <glyph glyph-name="uni0228" unicode="&#x228;" 
d="M95 0v714h420v-80h-330v-221h311v-80h-311v-253h330v-80h-420zM251 -240q-33 0 -51 5v55q9 -2 24 -3.5t29 -1.5q35 0 54.5 9.5t19.5 33.5q0 26 -23.5 38t-67.5 18l43 91h58l-26 -58q36 -8 61.5 -27.5t25.5 -60.5q0 -46 -37 -72.5t-110 -26.5z" />
    <glyph glyph-name="uni0229" unicode="&#x229;" 
d="M337 -10q-129 0 -203 71.5t-74 204.5q0 88 32 150.5t89 96t133 33.5q105 0 165.5 -68t60.5 -186v-41h-389q2 -70 26.5 -111t67 -58.5t98.5 -17.5q44 0 87 12t86 32v-80q-46 -20 -92 -29t-87 -9zM153 323h297q-3 70 -37.5 110t-98.5 40q-67 0 -108.5 -40.5t-52.5 -109.5z
M257 -240q-33 0 -51 5v55q9 -2 24 -3.5t29 -1.5q35 0 54.5 9.5t19.5 33.5q0 26 -23.5 38t-67.5 18l43 91h58l-26 -58q36 -8 61.5 -27.5t25.5 -60.5q0 -46 -37 -72.5t-110 -26.5z" />
    <glyph glyph-name="uni022A" unicode="&#x22a;" 
d="M299 -10q-89 0 -145 46t-82.5 129t-26.5 192q0 110 26.5 193t83 129.5t145.5 46.5t145.5 -46t83 -128.5t26.5 -192.5q0 -111 -27 -194t-83.5 -129t-145.5 -46zM301 70q90 0 126 76.5t36 211.5q0 136 -36 212t-125 76q-91 0 -128 -77t-37 -211q0 -135 37 -211.5t127 -76.5
zM414 800q-22 0 -38 14.5t-16 44.5q0 31 16 44t38 13t38.5 -13t16.5 -44q0 -30 -16.5 -44.5t-38.5 -14.5zM185 800q-22 0 -38 14.5t-16 44.5q0 31 16 44t38 13t38.5 -13t16.5 -44q0 -30 -16.5 -44.5t-38.5 -14.5zM151 985v71h297v-71h-297z" />
    <glyph glyph-name="uni022B" unicode="&#x22b;" 
d="M301 -10q-70 0 -125.5 30.5t-88 93t-32.5 156.5q0 93 31.5 154t86.5 91.5t125 30.5t126 -30.5t88.5 -92t32.5 -156.5q0 -93 -32 -154.5t-87 -92t-125 -30.5zM300 63q78 0 116 55.5t38 150.5t-38.5 149.5t-116.5 54.5t-116.5 -54.5t-38.5 -149.5t39 -150.5t117 -55.5z
M414 622q-22 0 -38 14.5t-16 44.5q0 31 16 44t38 13t38.5 -13t16.5 -44q0 -30 -16.5 -44.5t-38.5 -14.5zM185 622q-22 0 -38 14.5t-16 44.5q0 31 16 44t38 13t38.5 -13t16.5 -44q0 -30 -16.5 -44.5t-38.5 -14.5zM151 807v71h297v-71h-297z" />
    <glyph glyph-name="uni022C" unicode="&#x22c;" 
d="M299 -10q-89 0 -145 46t-82.5 129t-26.5 192q0 110 26.5 193t83 129.5t145.5 46.5t145.5 -46t83 -128.5t26.5 -192.5q0 -111 -27 -194t-83.5 -129t-145.5 -46zM301 70q90 0 126 76.5t36 211.5q0 136 -36 212t-125 76q-91 0 -128 -77t-37 -211q0 -135 37 -211.5t127 -76.5
zM120 784q6 59 34.5 93.5t75.5 34.5q28 0 53 -14.5t48 -28.5t44 -14q23 0 35.5 14.5t19.5 43.5h50q-6 -58 -34 -93t-75 -35q-28 0 -52.5 14t-47 28.5t-45.5 14.5q-24 0 -36 -14.5t-19 -43.5h-51zM151 995v71h297v-71h-297z" />
    <glyph glyph-name="uni022D" unicode="&#x22d;" 
d="M301 -10q-70 0 -125.5 30.5t-88 93t-32.5 156.5q0 93 31.5 154t86.5 91.5t125 30.5t126 -30.5t88.5 -92t32.5 -156.5q0 -93 -32 -154.5t-87 -92t-125 -30.5zM300 63q78 0 116 55.5t38 150.5t-38.5 149.5t-116.5 54.5t-116.5 -54.5t-38.5 -149.5t39 -150.5t117 -55.5z
M120 606q6 59 34.5 93.5t75.5 34.5q28 0 53 -14.5t48 -28.5t44 -14q23 0 35.5 14.5t19.5 43.5h50q-6 -58 -34 -93t-75 -35q-28 0 -52.5 14t-47 28.5t-45.5 14.5q-24 0 -36 -14.5t-19 -43.5h-51zM151 817v71h297v-71h-297z" />
    <glyph glyph-name="uni022E" unicode="&#x22e;" 
d="M299 -10q-89 0 -145 46t-82.5 129t-26.5 192q0 110 26.5 193t83 129.5t145.5 46.5t145.5 -46t83 -128.5t26.5 -192.5q0 -111 -27 -194t-83.5 -129t-145.5 -46zM301 70q90 0 126 76.5t36 211.5q0 136 -36 212t-125 76q-91 0 -128 -77t-37 -211q0 -135 37 -211.5t127 -76.5
zM299 811q-26 0 -44.5 16t-18.5 47q0 33 18.5 48.5t44.5 15.5t44.5 -15.5t18.5 -48.5q0 -31 -18.5 -47t-44.5 -16z" />
    <glyph glyph-name="uni022F" unicode="&#x22f;" 
d="M301 -10q-70 0 -125.5 30.5t-88 93t-32.5 156.5q0 93 31.5 154t86.5 91.5t125 30.5t126 -30.5t88.5 -92t32.5 -156.5q0 -93 -32 -154.5t-87 -92t-125 -30.5zM300 63q78 0 116 55.5t38 150.5t-38.5 149.5t-116.5 54.5t-116.5 -54.5t-38.5 -149.5t39 -150.5t117 -55.5z
M299 633q-26 0 -44.5 16t-18.5 47q0 33 18.5 48.5t44.5 15.5t44.5 -15.5t18.5 -48.5q0 -31 -18.5 -47t-44.5 -16z" />
    <glyph glyph-name="uni0230" unicode="&#x230;" 
d="M299 -10q-89 0 -145 46t-82.5 129t-26.5 192q0 110 26.5 193t83 129.5t145.5 46.5t145.5 -46t83 -128.5t26.5 -192.5q0 -111 -27 -194t-83.5 -129t-145.5 -46zM301 70q90 0 126 76.5t36 211.5q0 136 -36 212t-125 76q-91 0 -128 -77t-37 -211q0 -135 37 -211.5t127 -76.5
zM299 811q-26 0 -44.5 16t-18.5 47q0 33 18.5 48.5t44.5 15.5t44.5 -15.5t18.5 -48.5q0 -31 -18.5 -47t-44.5 -16zM151 974v71h297v-71h-297z" />
    <glyph glyph-name="uni0231" unicode="&#x231;" 
d="M301 -10q-70 0 -125.5 30.5t-88 93t-32.5 156.5q0 93 31.5 154t86.5 91.5t125 30.5t126 -30.5t88.5 -92t32.5 -156.5q0 -93 -32 -154.5t-87 -92t-125 -30.5zM300 63q78 0 116 55.5t38 150.5t-38.5 149.5t-116.5 54.5t-116.5 -54.5t-38.5 -149.5t39 -150.5t117 -55.5z
M299 633q-26 0 -44.5 16t-18.5 47q0 33 18.5 48.5t44.5 15.5t44.5 -15.5t18.5 -48.5q0 -31 -18.5 -47t-44.5 -16zM151 796v71h297v-71h-297z" />
    <glyph glyph-name="uni0232" unicode="&#x232;" 
d="M257 0v278l-222 436h99l167 -361l168 361h96l-222 -436v-278h-86zM151 796v71h297v-71h-297z" />
    <glyph glyph-name="uni0233" unicode="&#x233;" 
d="M136 -245q-20 0 -39 2.5t-33 5.5v69q12 -2 28.5 -4t32.5 -2q46 0 71 22.5t45 73.5l29 73l-225 541h88l128 -315q13 -31 25.5 -69t22.5 -73h3q11 37 23 74.5t22 68.5l105 314h92l-225 -606q-19 -52 -41.5 -91.5t-58 -61.5t-93.5 -22zM151 618v71h297v-71h-297z" />
    <glyph glyph-name="uni0234" unicode="&#x234;" 
d="M121 -29l-69 24q14 44 45 92t71 75v598h88v-548q14 7 39.5 13.5t61.5 6.5q80 0 117.5 -33t37.5 -87q0 -49 -40.5 -85.5t-128.5 -36.5q-50 0 -82.5 13.5t-51 34t-26.5 41.5q-17 -16 -35.5 -49t-26.5 -59zM349 58q45 0 64 16t19 38q0 24 -19.5 37.5t-63.5 13.5
q-33 0 -57 -8t-36 -16q5 -36 26 -58.5t67 -22.5z" />
    <glyph glyph-name="uni0235" unicode="&#x235;" 
d="M334 -28l-65 23q14 47 26.5 83t28.5 62q-1 5 -1 14.5v14.5v186q0 57 -21.5 88.5t-74.5 31.5q-105 0 -105 -129v-346h-81v537h65l7 -63h5q7 17 21 33.5t40.5 28t70.5 11.5q77 0 115.5 -45.5t38.5 -130.5v-161q11 5 26.5 9.5t36.5 4.5q53 0 83.5 -32.5t30.5 -85.5
q0 -52 -32.5 -84t-90.5 -32q-44 0 -68.5 15t-37.5 41q-6 -16 -10 -34t-8 -40zM459 52q27 0 40 16t13 38q0 56 -55 56q-19 0 -31.5 -6.5t-21.5 -15.5q0 -40 12 -64t43 -24z" />
    <glyph glyph-name="uni0236" unicode="&#x236;" 
d="M167 -25l-72 26q18 49 47 88.5t57 61.5q-3 23 -3 58v252h-146v62l146 16l18 140h72v-143h209v-75h-209v-250q17 8 41.5 14t55.5 6q80 0 115 -33.5t35 -81.5q0 -53 -40 -89.5t-122 -36.5q-64 0 -99 22t-52 51q-36 -37 -53 -88zM380 58q39 0 56 15.5t17 37.5q0 23 -18 37.5
t-59 14.5q-31 0 -53 -8t-33 -18q2 -33 23.5 -56t66.5 -23z" />
    <glyph glyph-name="uni0237" unicode="&#x237;" 
d="M192 -245q-31 0 -68.5 5t-63.5 12v79q26 -9 59 -15t63 -6q67 0 96 33t29 100v498l-175 13v62h265v-588q0 -93 -53.5 -143t-151.5 -50z" />
    <glyph glyph-name="uni0238" unicode="&#x238;" 
d="M184 -10q-85 0 -118.5 74.5t-33.5 204.5q0 146 34.5 211.5t97.5 65.5q38 0 61 -16t35 -48h4q-1 23 -2 33t-1 26v219h75v-218q0 -16 -1 -27.5t-2 -32.5h3q26 63 94 63q65 0 100 -64.5t35 -211.5q0 -85 -14.5 -148t-47.5 -97t-90 -34q-87 0 -115 107q-14 -54 -41.5 -80.5
t-72.5 -26.5zM183 59q40 0 59 47.5t19 161.5q0 116 -19.5 162t-60.5 46q-34 0 -51.5 -50t-17.5 -158q0 -111 18.5 -160t52.5 -49zM416 60q32 0 50.5 47.5t18.5 162.5q0 109 -17.5 157.5t-52.5 48.5q-47 0 -63 -55t-16 -153q0 -114 20 -161t60 -47z" />
    <glyph glyph-name="uni0239" unicode="&#x239;" 
d="M416 546q85 0 118.5 -74.5t33.5 -204.5q0 -146 -34.5 -211.5t-97.5 -65.5q-38 0 -61 16t-35 48h-4q1 -23 2 -33t1 -26v-219h-75v218q0 16 1 27.5t2 32.5h-3q-26 -63 -94 -63q-65 0 -100 64.5t-35 211.5q0 85 14.5 148t47.5 97t90 34q87 0 115 -107q14 54 41.5 80.5
t72.5 26.5zM417 477q-40 0 -59 -47.5t-19 -161.5q0 -116 19.5 -162t60.5 -46q34 0 51.5 50t17.5 158q0 111 -18.5 160t-52.5 49zM184 476q-32 0 -50.5 -47.5t-18.5 -162.5q0 -109 17.5 -157.5t52.5 -48.5q47 0 63 55t16 153q0 114 -20 161t-60 47z" />
    <glyph glyph-name="uni023A" unicode="&#x23a;" 
d="M20 0l232 717h95l24 -74l36 117h67l-68 -224l174 -536h-92l-68 219h-111l-90 -294h-67l90 294h-63l-68 -219h-91zM270 512l-66 -213h62l64 209l-1 4q-5 17 -14 48t-16 62q-6 -31 -15 -62t-14 -48zM333 299h62l-31 101z" />
    <glyph glyph-name="uni023B" unicode="&#x23b;" 
d="M162 -75l34 111q-67 45 -98.5 128.5t-31.5 192.5q0 113 35.5 195.5t103 127t164.5 44.5q19 0 37 -1l11 37h67l-15 -48q44 -10 81 -30l-34 -73q-30 16 -70 26l-167 -546q38 -16 88 -16q34 0 73.5 7.5t78.5 23.5v-85q-40 -15 -76.5 -22t-77.5 -7q-61 0 -111 17l-25 -82h-67
zM158 357q0 -77 16 -135t50 -94l157 516h-12q-102 0 -156.5 -74t-54.5 -213z" />
    <glyph glyph-name="uni023C" unicode="&#x23c;" 
d="M111 -208l82 231q-52 30 -80 89.5t-28 151.5q0 103 33.5 165t93 89.5t135.5 27.5q17 0 32 -1l77 215h67l-81 -226q32 -9 63 -25l-27 -73q-33 17 -62 24l-137 -384q30 -9 69 -9q44 0 83 9.5t68 22.5v-79q-30 -14 -74 -22t-87 -8q-47 0 -86 10l-74 -208h-67zM177 266
q0 -109 47 -157l128 359h-1q-92 0 -133 -50.5t-41 -151.5z" />
    <glyph glyph-name="uni023D" unicode="&#x23d;" 
d="M115 0v332h-115v71h115v311h90v-311h152v-71h-152v-249h310v-83h-400z" />
    <glyph glyph-name="uni023E" unicode="&#x23e;" 
d="M62 -75l193 395v314h-210v80h403l22 46h70l-22 -46h37v-80h-77l-133 -273v-361h-90v177l-123 -252h-70zM345 634v-130l63 130h-63z" />
    <glyph glyph-name="uni023F" unicode="&#x23f;" 
d="M279 -10h-14q9 -8 17.5 -23t18.5 -41q18 -48 41.5 -70.5t64.5 -22.5q24 0 43 5t32 11v-72q-13 -6 -33.5 -11.5t-46.5 -5.5q-51 0 -84.5 15t-55.5 48t-40 86q-13 39 -25.5 61t-36.5 34q-31 8 -55 20v83q35 -16 77.5 -29.5t101.5 -13.5q66 0 93.5 20.5t27.5 59.5
q0 21 -9.5 34.5t-36.5 27.5t-79 36q-52 23 -89 43t-57 47.5t-20 70.5q0 71 54.5 107t151.5 36q44 0 84 -8t83 -26l-27 -70q-40 17 -73.5 23t-66.5 6q-62 0 -90.5 -16t-28.5 -50q0 -22 12.5 -37t41 -29t75.5 -34q53 -22 90 -41t56 -45.5t19 -72.5q0 -76 -54.5 -116
t-161.5 -40z" />
    <glyph glyph-name="uni0240" unicode="&#x240;" 
d="M436 -240q-53 0 -86 12.5t-53 34.5t-32 50.5t-22 59.5q-8 26 -19 44.5t-33.5 28.5t-65.5 10h-35v61l315 403h-299v72h396v-71l-309 -397q46 -10 70.5 -30.5t38 -50t26.5 -70.5q7 -21 17.5 -40t33.5 -31.5t65 -12.5q20 0 35.5 3t30.5 8v-72q-13 -5 -29.5 -8.5t-44.5 -3.5z
" />
    <glyph glyph-name="uni0241" unicode="&#x241;" 
d="M237 0v322q98 28 152 73t54 119q0 38 -14.5 67.5t-49.5 46.5t-98 17q-57 0 -105.5 -17t-83.5 -41l-33 72q39 26 95 45.5t131 19.5q128 0 190.5 -56.5t62.5 -150.5q0 -84 -47.5 -143t-163.5 -103v-271h-90z" />
    <glyph glyph-name="uni0242" unicode="&#x242;" 
d="M218 0v144q89 28 137.5 83t48.5 125q0 121 -123 121q-34 0 -73 -13t-69 -36l-33 66q35 26 81 41t98 15q103 0 156 -51t53 -140q0 -45 -18 -92t-59 -89.5t-111 -75.5v-98h-88z" />
    <glyph glyph-name="uni0243" unicode="&#x243;" 
d="M95 0v167h-95v78h95v469h192q110 0 174 -39.5t64 -135.5q0 -70 -34 -110t-94 -50v-5q41 -7 74.5 -25t53.5 -52t20 -90q0 -97 -61 -152t-167 -55h-222zM180 412h115q75 0 107 28.5t32 86.5q0 59 -34.5 84t-119.5 25h-100v-224zM180 78h121q86 0 119 36t33 93
q0 58 -34.5 92.5t-123.5 34.5h-115v-89h110v-78h-110v-89z" />
    <glyph glyph-name="uni0244" unicode="&#x244;" 
d="M298 -10q-82 0 -132.5 32.5t-73 92t-22.5 139.5v100h-70v78h70v282h90v-282h280v282h90v-282h70v-78h-70v-102q0 -74 -22 -133.5t-73 -94t-137 -34.5zM160 259q0 -56 12.5 -99t43 -66.5t84.5 -23.5q57 0 87.5 25t41.5 68.5t11 96.5v94h-280v-95z" />
    <glyph glyph-name="uni0245" unicode="&#x245;" 
d="M20 0l232 714h94l234 -714h-95l-138 450q-14 47 -27 88.5t-22 77.5q-7 -36 -19 -77.5t-26 -87.5l-138 -451h-95z" />
    <glyph glyph-name="uni0246" unicode="&#x246;" 
d="M95 0v714h328l14 46h67l-14 -46h25v-80h-49l-68 -221h98v-80h-122l-78 -253h219v-80h-243l-23 -75h-67l23 75h-110zM185 413h146l68 221h-214v-221zM185 80h44l78 253h-122v-253z" />
    <glyph glyph-name="uni0247" unicode="&#x247;" 
d="M96 -208l84 235q-58 33 -89 93t-31 146q0 88 32 150.5t89 96t133 33.5q26 0 49 -4l78 218h67l-85 -238q56 -29 86.5 -88t30.5 -142v-41h-213l-63 -177q34 -10 79 -10q44 0 87 12t86 32v-80q-46 -20 -92 -29t-87 -9q-54 0 -99 13l-75 -211h-67zM153 323h132l53 148
q-11 2 -24 2q-67 0 -108.5 -40.5t-52.5 -109.5zM450 323q-4 86 -53 125l-45 -125h98zM151 251q2 -53 16.5 -89t39.5 -58l53 147h-109z" />
    <glyph glyph-name="uni0248" unicode="&#x248;" 
d="M142 -190q-38 0 -81 8t-71 21v85q23 -10 64 -20.5t81 -10.5q59 0 94.5 35.5t35.5 120.5v265h-136v78h136v322h90v-322h135v-78h-135v-277q0 -109 -54 -168t-159 -59z" />
    <glyph glyph-name="uni0249" unicode="&#x249;" 
d="M342 633q-26 0 -44 16t-18 48t17.5 47.5t44.5 15.5q26 0 44.5 -15.5t18.5 -47.5q0 -33 -19 -48.5t-44 -15.5zM171 225v71h136v165l-175 13v62h265v-240h122v-71h-122v-277q0 -93 -53.5 -143t-151.5 -50q-31 0 -68.5 5t-63.5 12v79q26 -9 59 -15t63 -6q67 0 96 33t29 100
v262h-136z" />
    <glyph glyph-name="uni024A" unicode="&#x24a;" 
d="M286 -10q-120 0 -180.5 97t-60.5 270q0 189 67 278t179 89q45 0 73.5 -13t47 -33.5t30.5 -45.5h5l12 82h71v-793q0 -47 16 -64.5t46 -17.5q14 0 25 3t21 7v-76q-10 -6 -24 -9.5t-35 -3.5q-64 0 -101.5 37.5t-37.5 119.5v103q0 16 1 31.5t3 30.5h-3q-20 -39 -57.5 -65.5
t-97.5 -26.5zM301 68q54 0 84.5 31t42.5 80t12 101v139q0 64 -13 115.5t-44 81.5t-85 30q-82 0 -120.5 -73t-38.5 -214t40 -216t122 -75z" />
    <glyph glyph-name="uni024B" unicode="&#x24b;" 
d="M549 -240q-31 0 -58 14.5t-43.5 51t-16.5 101.5v62q0 20 1 41l2 42h-3q-22 -34 -59.5 -58t-97.5 -24q-97 0 -158 70.5t-61 206.5q0 92 28.5 154t78 93.5t113.5 31.5q59 0 96.5 -24t59.5 -58h4l13 72h72v-608q0 -59 12 -77.5t37 -18.5q17 0 30 3.5t20 7.5v-67
q-9 -7 -27 -11.5t-43 -4.5zM290 63q141 0 141 184v20q0 97 -31.5 151.5t-111.5 54.5q-73 0 -107 -53t-34 -154q0 -92 34.5 -147.5t108.5 -55.5z" />
    <glyph glyph-name="uni024C" unicode="&#x24c;" 
d="M95 0v292h-95v78h95v344h167q251 0 251 -200q0 -56 -18 -94.5t-48.5 -63t-68.5 -38.5l191 -318h-100l-172 292h-112v-292h-90zM185 370h74q88 0 124.5 34.5t36.5 101.5q0 71 -38.5 100.5t-124.5 29.5h-72v-266z" />
    <glyph glyph-name="uni024D" unicode="&#x24d;" 
d="M62 0v60l163 15v137h-118v71h118v178l-147 13v62h219l12 -98h4q28 53 61.5 80.5t88.5 27.5q34 0 60.5 -6t48.5 -16l-24 -79q-16 9 -38 15.5t-47 6.5q-41 0 -73 -25t-51.5 -66.5t-22.5 -92.5h130v-71h-130v-137l156 -15v-60h-410z" />
    <glyph glyph-name="uni024E" unicode="&#x24e;" 
d="M257 0v278l-121 237h-136v78h97l-62 121h99l56 -121h223l56 121h96l-62 -121h97v-78h-136l-121 -237v-278h-86zM301 353l75 162h-150z" />
    <glyph glyph-name="uni024F" unicode="&#x24f;" 
d="M136 -245q-20 0 -39 2.5t-33 5.5v69q12 -2 28.5 -4t32.5 -2q46 0 71 22.5t45 73.5l29 73l-122 293h-128v71h99l-74 177h88l72 -177h198l59 177h92l-66 -177h93v-71h-119l-133 -358q-19 -52 -41.5 -91.5t-58 -61.5t-93.5 -22zM309 79h3q11 37 23 74.5t22 68.5l22 66h-145
l27 -67q13 -31 25.5 -69t22.5 -73z" />
    <glyph glyph-name="uni0250" unicode="&#x250;" 
d="M354 546q79 0 127.5 -39t48.5 -118q0 -87 -62.5 -130t-180.5 -46l-115 -3v-22q0 -72 36 -98.5t97 -26.5q43 0 82 11t74 31l31 -68q-38 -19 -84.5 -33t-107.5 -14q-101 0 -155.5 45.5t-54.5 141.5v359h72l10 -74h4q33 42 76 63t102 21zM339 473q-45 0 -83 -16.5t-61 -50
t-23 -84.5v-48l96 3q96 3 136.5 31t40.5 78q0 46 -29 66.5t-77 20.5z" />
    <glyph glyph-name="uni0251" unicode="&#x251;" 
d="M271 -10q-98 0 -157 69.5t-59 207.5q0 142 59.5 210.5t157.5 68.5q56 0 94.5 -23t63.5 -56h4l14 69h72v-418q0 -31 12 -43.5t29 -12.5q8 0 17 2t13 3v-64q-7 -4 -23 -8.5t-36 -4.5q-31 0 -56 17t-36 65h-7q-25 -34 -64.5 -58t-97.5 -24zM285 63q79 0 112.5 49t33.5 143
v12q0 100 -33.5 153t-113.5 53q-67 0 -102.5 -56.5t-35.5 -151.5q0 -96 34.5 -149t104.5 -53z" />
    <glyph glyph-name="uni0252" unicode="&#x252;" 
d="M329 546q98 0 157 -69.5t59 -207.5q0 -142 -59.5 -210.5t-157.5 -68.5q-56 0 -94.5 23t-63.5 56h-4l-14 -69h-72v418q0 31 -12 43.5t-29 12.5q-8 0 -17 -2t-13 -3v64q7 4 23 8.5t36 4.5q31 0 56 -17t36 -65h7q25 34 64.5 58t97.5 24zM315 473q-79 0 -112.5 -49
t-33.5 -143v-12q0 -100 33.5 -153t113.5 -53q67 0 102.5 56.5t35.5 151.5q0 96 -34.5 149t-104.5 53z" />
    <glyph glyph-name="uni0253" unicode="&#x253;" 
d="M329 -10q-59 0 -99.5 23.5t-63.5 54.5h-6l-8 -68h-72v625q0 140 120 140q19 0 37.5 -4t28.5 -9v-73q-7 3 -21 6.5t-31 3.5q-22 0 -34.5 -13t-12.5 -45v-55q0 -28 -0.5 -55t-3.5 -55h4q21 32 61 56t101 24q97 0 156.5 -70t59.5 -207q0 -138 -60 -208.5t-156 -70.5zM312 63
q73 0 107 53t34 153q0 98 -34 151t-108 53q-69 0 -106.5 -52.5t-37.5 -149.5q0 -101 35.5 -154.5t109.5 -53.5z" />
    <glyph glyph-name="uni0254" unicode="&#x254;" 
d="M262 -10q118 0 185.5 64.5t67.5 209.5q0 103 -33.5 165t-93 89.5t-135.5 27.5q-47 0 -85.5 -9.5t-72.5 -27.5l27 -73q32 17 62 24.5t65 7.5q92 0 133 -50.5t41 -151.5q0 -107 -43 -153t-128 -46q-44 0 -83 9.5t-68 22.5v-79q30 -14 74 -22t87 -8z" />
    <glyph glyph-name="uni0255" unicode="&#x255;" 
d="M139 -49l-67 31q11 32 24 61t28 54q-19 32 -29 74t-10 94q0 146 69.5 213.5t188.5 67.5q53 0 95.5 -11.5t67.5 -25.5l-28 -72q-24 13 -57 22t-77 9q-83 0 -125 -49t-42 -153q0 -52 10 -89q31 38 76 57.5t97 19.5q74 0 115 -34t41 -88q0 -50 -26.5 -81.5t-67.5 -46
t-85 -14.5q-48 0 -88.5 11.5t-72.5 36.5q-10 -19 -19.5 -40.5t-17.5 -46.5zM336 63q43 0 70 18t27 49q0 19 -17.5 35t-61.5 16q-35 0 -69 -16.5t-63 -55.5q40 -46 114 -46z" />
    <glyph glyph-name="uni0256" unicode="&#x256;" 
d="M557 -240q-34 0 -62.5 14.5t-46 51t-17.5 101.5v63q0 15 2.5 40.5t3.5 38.5h-6q-25 -33 -64 -56t-98 -23q-100 0 -157 69.5t-57 207.5t57 208.5t157 70.5q59 0 98 -23t64 -56h6q-1 13 -3.5 38.5t-2.5 40.5v214h88v-832q0 -59 14.5 -77.5t42.5 -18.5q19 0 34.5 3.5
t22.5 7.5v-67q-10 -7 -29.5 -11.5t-46.5 -4.5zM282 63q82 0 116 46.5t34 140.5v16q0 100 -32.5 153.5t-118.5 53.5q-71 0 -103 -56.5t-32 -151.5q0 -96 32 -149t104 -53z" />
    <glyph glyph-name="uni0257" unicode="&#x257;" 
d="M274 -10q-99 0 -159 69.5t-60 211.5q0 134 57 204.5t172 70.5q56 0 92 -22t55 -56h6q-2 18 -4 39.5t-2 39.5v78q0 140 118 140q28 0 51 -10v-73q-16 7 -37 7q-19 0 -31 -13t-12 -45v-631h-74l-9 72h-4q-22 -36 -59.5 -59t-99.5 -23zM291 63q71 0 105.5 49.5t34.5 134.5
v20q0 59 -13 105.5t-43 73.5t-81 27q-70 0 -108.5 -52t-38.5 -159q0 -199 144 -199z" />
    <glyph glyph-name="uni0258" unicode="&#x258;" 
d="M263 -10q129 0 203 71.5t74 204.5q0 88 -32 150.5t-89 96t-133 33.5q-105 0 -165.5 -68t-60.5 -186v-41h389q-2 -70 -26.5 -111t-67 -58.5t-98.5 -17.5q-44 0 -87 12t-86 32v-80q46 -20 92 -29t87 -9zM447 323h-297q3 70 37.5 110t98.5 40q67 0 108.5 -40.5t52.5 -109.5z
" />
    <glyph glyph-name="uni0259" unicode="&#x259;" 
d="M263 546q129 0 203 -71.5t74 -204.5q0 -88 -32 -150.5t-89 -96t-133 -33.5q-105 0 -165.5 68t-60.5 186v41h389q-2 70 -26.5 111t-67 58.5t-98.5 17.5q-44 0 -87 -12t-86 -32v80q46 20 92 29t87 9zM447 213h-297q3 -70 37.5 -110t98.5 -40q67 0 108.5 40.5t52.5 109.5z
" />
    <glyph glyph-name="uni025A" unicode="&#x25a;" 
d="M214 -10q-83 0 -123 59t-40 194l283 89q-12 147 -134 147q-34 0 -65.5 -9.5t-61.5 -26.5v69q25 14 59.5 24t77.5 10q93 0 140.5 -52.5t57.5 -138.5l70 19l5 -48q5 -49 18 -69.5t37 -20.5q14 0 25 5t18 12l24 -45q-12 -10 -30 -19t-41 -9q-42 0 -67.5 26t-33.5 94l-20 -6
q-1 -141 -49 -222.5t-150 -81.5zM218 56q46 0 71.5 29t36.5 78t11 108l-210 -63q1 -70 20 -111t71 -41z" />
    <glyph glyph-name="uni025B" unicode="&#x25b;" 
d="M327 -10q-115 0 -170 44.5t-55 111.5q0 40 16.5 65.5t43.5 41t59 24.5v5q-45 14 -72.5 43.5t-27.5 78.5q0 68 57.5 105t148.5 37q58 0 99.5 -10t81.5 -28l-33 -70q-33 15 -67.5 25t-81.5 10q-121 0 -121 -76q0 -44 41.5 -63t111.5 -19h56v-72h-73q-151 0 -151 -92
q0 -49 41 -69t101 -20q56 0 98.5 13t75.5 29v-77q-31 -16 -74 -26.5t-105 -10.5z" />
    <glyph glyph-name="uni025C" unicode="&#x25c;" 
d="M266 -10q-58 0 -108 11.5t-83 27.5v77q33 -16 83 -30.5t110 -14.5q74 0 113 22.5t39 71.5q0 44 -38.5 67.5t-130.5 23.5h-66v69h58q77 0 117 20.5t40 63.5q0 77 -122 77q-48 0 -85 -9t-69 -24l-31 64q39 19 87 29.5t102 10.5q98 0 150 -37.5t52 -100.5q0 -95 -115 -122
v-4q57 -12 97.5 -42.5t40.5 -91.5q0 -68 -57.5 -113.5t-183.5 -45.5z" />
    <glyph glyph-name="uni025D" unicode="&#x25d;" 
d="M192 -10q-58 0 -108 11.5t-83 27.5v77q33 -16 83 -30.5t110 -14.5q74 0 113 22.5t39 71.5q0 44 -38.5 67.5t-130.5 23.5h-66v69h58q77 0 117 20.5t40 63.5q0 77 -122 77q-48 0 -85 -9t-69 -24l-31 64q39 19 87 29.5t102 10.5q79 0 128.5 -25t65.5 -68l76 21l5 -48
q5 -49 18 -69.5t37 -20.5q14 0 25 5t18 12l24 -45q-12 -10 -30 -19t-41 -9q-42 0 -67.5 26t-33.5 94l-24 -7q-8 -82 -114 -107v-4q57 -12 97.5 -42.5t40.5 -91.5q0 -68 -57.5 -113.5t-183.5 -45.5z" />
    <glyph glyph-name="uni025E" unicode="&#x25e;" 
d="M322 -10q-133 0 -199.5 75t-66.5 202q0 131 71 205t207 74q100 0 152 -40.5t52 -105.5q0 -52 -27 -78.5t-74 -39.5v-4q29 -4 56.5 -18t45 -40t17.5 -67q0 -44 -25 -81.5t-77 -59.5t-132 -22zM332 63q62 0 99.5 23.5t37.5 71.5q0 44 -38 62.5t-115 18.5h-42v72h28
q69 0 110.5 16.5t41.5 64.5q0 34 -27 57t-95 23q-95 0 -140 -52t-45 -153q0 -104 46.5 -154t138.5 -50z" />
    <glyph glyph-name="uni025F" unicode="&#x25f;" 
d="M225 -240q-25 0 -44 3.5t-33 8.5v71q15 -4 31 -7t35 -3q32 0 53 17.5t21 66.5v331h-75v71h75v217h88v-217h75v-71h-75v-328q0 -75 -36 -117.5t-115 -42.5z" />
    <glyph glyph-name="uni0260" unicode="&#x260;" 
d="M276 -245q-55 0 -103.5 10.5t-89.5 27.5v80q40 -23 92.5 -34.5t97.5 -11.5q91 0 127 42.5t36 116.5v19q0 12 0.5 23t2.5 34h-4q-28 -41 -65.5 -56.5t-90.5 -15.5q-106 0 -165 72.5t-59 202.5q0 131 58.5 206t160.5 75q54 0 91 -17.5t66 -58.5h5q-1 18 -2 42.5t-1 40.5v72
q0 140 122 140q19 0 37 -4t28 -9v-73q-7 3 -21 6.5t-31 3.5q-22 0 -35 -13t-13 -45v-645q0 -115 -59 -173t-185 -58zM296 63q67 0 105 43.5t38 139.5v21q0 110 -39 158t-107 48q-76 0 -111 -53.5t-35 -151.5q0 -100 36.5 -152.5t112.5 -52.5z" />
    <glyph glyph-name="uni0261" unicode="&#x261;" 
d="M276 -245q-55 0 -103.5 10.5t-89.5 27.5v80q40 -23 92.5 -34.5t97.5 -11.5q91 0 127 42.5t36 116.5v19q0 12 0.5 23t2.5 34h-4q-28 -41 -65.5 -56.5t-90.5 -15.5q-106 0 -165 72.5t-59 202.5q0 131 58.5 206t160.5 75q54 0 91 -17.5t66 -58.5h5l12 66h72v-550
q0 -115 -59 -173t-185 -58zM296 63q67 0 105 43.5t38 139.5v21q0 110 -39 158t-107 48q-76 0 -111 -53.5t-35 -151.5q0 -100 36.5 -152.5t112.5 -52.5z" />
    <glyph glyph-name="uni0262" unicode="&#x262;" 
d="M315 -10q-72 0 -129.5 29t-91.5 90t-34 156q0 99 38.5 161t102 91t137.5 29q110 0 171 -36l-32 -76q-31 16 -66.5 25.5t-67.5 9.5q-92 0 -142 -51t-50 -152q0 -97 43.5 -148.5t119.5 -51.5q36 0 61.5 3.5t53.5 10.5v147h-115v71h203v-270q-49 -18 -96 -28t-106 -10z" />
    <glyph glyph-name="uni0263" unicode="&#x263;" 
d="M299 -238q-58 0 -94 36t-36 91q0 53 23.5 99t53.5 92l-234 456h100l116 -236q11 -21 24.5 -51t26 -58.5t18.5 -47.5h5q7 18 20 47t27.5 59t24.5 51l116 236h99l-235 -456q35 -52 55.5 -98t20.5 -93q0 -55 -36 -91t-95 -36zM299 -165q46 0 46 57q0 24 -10.5 55.5
t-35.5 62.5q-23 -31 -34 -62t-11 -55q0 -58 45 -58z" />
    <glyph glyph-name="uni0264" unicode="&#x264;" 
d="M299 -9q-52 0 -83.5 30.5t-31.5 85.5q0 41 18 76t50 78l-127 172q-17 24 -29 32.5t-26 8.5q-10 0 -16 -1.5t-11 -3.5v67q9 4 19 7t26 3q29 0 50 -15t49 -53l61 -84q4 -5 13 -18.5t19.5 -29.5t16.5 -30h4q10 17 24 38.5t27 39.5l61 86q23 32 45 49t56 17q13 0 23 -2t19 -6
v-69q-5 2 -13.5 3.5t-16.5 1.5q-12 0 -24.5 -8.5t-34.5 -38.5l-121 -166q35 -47 51.5 -81t16.5 -72q0 -56 -31.5 -86.5t-83.5 -30.5zM299 64q15 0 26 12t11 36q0 26 -11.5 48.5t-25.5 40.5q-16 -23 -26.5 -44.5t-10.5 -44.5q0 -25 11 -36.5t26 -11.5z" />
    <glyph glyph-name="uni0265" unicode="&#x265;" 
d="M520 536v-760h-90v216q0 19 1.5 48t2.5 46h-5q-26 -50 -69.5 -73t-98.5 -23q-83 0 -134.5 46.5t-51.5 149.5v350h90v-332q0 -73 31 -107t88 -34q67 0 106.5 51.5t39.5 143.5v278h90z" />
    <glyph glyph-name="uni0266" unicode="&#x266;" 
d="M80 0v625q0 140 123 140q19 0 37 -4t28 -9v-73q-7 3 -21 6.5t-31 3.5q-22 0 -34 -13t-12 -45v-87q0 -19 -1.5 -48t-2.5 -46h5q26 50 69.5 73t98.5 23q83 0 134.5 -46.5t51.5 -149.5v-350h-90v332q0 73 -31 107t-88 34q-67 0 -106.5 -51.5t-39.5 -143.5v-278h-90z" />
    <glyph glyph-name="uni0267" unicode="&#x267;" 
d="M404 -240q-19 0 -36.5 4.5t-28.5 8.5v73q7 -3 21.5 -6.5t30.5 -3.5q23 0 33.5 13.5t10.5 44.5v438q0 73 -31 107t-88 34q-67 0 -106.5 -51.5t-39.5 -143.5v-278h-90v625q0 140 123 140q19 0 37 -4t28 -9v-73q-7 3 -21 6.5t-31 3.5q-22 0 -34 -13t-12 -45v-87
q0 -19 -1.5 -48t-2.5 -46h5q26 50 69.5 73t98.5 23q83 0 134.5 -46.5t51.5 -149.5v-450q0 -140 -121 -140z" />
    <glyph glyph-name="uni0268" unicode="&#x268;" 
d="M307 633q-26 0 -44.5 16t-18.5 47q0 33 18.5 48.5t44.5 15.5t44.5 -15.5t18.5 -48.5q0 -31 -18.5 -47t-44.5 -16zM80 0v60l191 15v159h-140v71h140v156l-175 13v62h265v-231h118v-71h-118v-159l179 -15v-60h-460z" />
    <glyph glyph-name="iotaLatin" unicode="&#x269;" 
d="M407 -10q-44 0 -78.5 14.5t-54 51t-19.5 101.5v379h87v-378q0 -48 18.5 -72t58.5 -24q22 0 45.5 3.5t36.5 7.5v-67q-14 -7 -41 -11.5t-53 -4.5z" />
    <glyph glyph-name="uni026A" unicode="&#x26a;" 
d="M110 0v62l144 13v386l-144 13v62h380v-62l-146 -13v-386l146 -13v-62h-380z" />
    <glyph glyph-name="uni026B" unicode="&#x26b;" 
d="M80 0v60l196 15v296q-19 8 -34 8q-23 0 -35 -16t-18 -42h-51q5 60 35 94t70 34q15 0 33 -6v242l-190 13v62h280v-360q20 -8 36 -8q21 0 33.5 14.5t19.5 43.5h50q-6 -63 -36.5 -95.5t-68.5 -32.5q-16 0 -34 6v-253l174 -15v-60h-460z" />
    <glyph glyph-name="uni026C" unicode="&#x26c;" 
d="M80 0v60l196 15v222h-42q-61 0 -88.5 29.5t-27.5 75.5q0 39 24 71.5t78 32.5q35 0 56 -18v197l-190 13v62h280v-391h102v-72h-102v-222l174 -15v-60h-460zM241 369h35v11q0 23 -9 38.5t-34 15.5q-19 0 -27 -10t-8 -22q0 -18 12.5 -25.5t30.5 -7.5z" />
    <glyph glyph-name="uni026D" unicode="&#x26d;" 
d="M451 -240q-81 0 -128 44.5t-47 142.5v738l-190 13v62h280v-812q0 -48 21 -82t76 -34q25 0 46 4t34 9v-71q-14 -5 -37 -9.5t-55 -4.5z" />
    <glyph glyph-name="uni026E" unicode="&#x26e;" 
d="M314 -240q-59 0 -106 9.5t-79 25.5v80q33 -16 82 -29t107 -13q45 0 81.5 20t57.5 57.5t21 88.5q0 56 -24.5 91t-67.5 51.5t-97 16.5h-59v61l206 243h-277v-462h-88v760h88v-224h380v-64l-206 -244q69 -4 121.5 -30.5t82 -75t29.5 -121.5q0 -71 -32 -125.5t-89 -85
t-131 -30.5z" />
    <glyph glyph-name="uni026F" unicode="&#x26f;" 
d="M550 536v-536h-62l-13 59h-5q-20 -40 -44 -54.5t-55 -14.5q-41 0 -63.5 19.5t-34.5 57.5h-3q-17 -37 -42.5 -57t-67.5 -20q-62 0 -86.5 47.5t-24.5 148.5v350h80v-335q0 -63 8.5 -98t45.5 -35q76 0 76 200v268h80v-335q0 -64 11.5 -98.5t48.5 -34.5q40 0 55.5 54
t15.5 146v268h80z" />
    <glyph glyph-name="uni0270" unicode="&#x270;" 
d="M470 -240v299h-4q-15 -37 -39 -53t-56 -16q-40 0 -63 19.5t-35 57.5h-3q-17 -37 -42.5 -57t-67.5 -20q-61 0 -86 47.5t-25 148.5v350h80v-335q0 -63 8.5 -98t45.5 -35q76 0 76 200v268h80v-335q0 -64 11.5 -98.5t48.5 -34.5q40 0 55.5 54t15.5 146v268h80v-776h-80z" />
    <glyph glyph-name="uni0271" unicode="&#x271;" 
d="M436 -240q-19 0 -33.5 3.5t-25.5 7.5v71q6 -2 17.5 -5.5t27.5 -3.5q23 0 36 14t13 47v441q0 63 -8.5 98t-45.5 35q-76 0 -76 -200v-268h-80v335q0 64 -11.5 98.5t-48.5 34.5q-40 0 -55.5 -54t-15.5 -146v-268h-80v536h62l13 -59h5q20 40 44 54.5t55 14.5q41 0 63.5 -19.5
t34.5 -57.5h3q17 37 42.5 57t67.5 20q62 0 86.5 -47.5t24.5 -148.5v-450q0 -69 -26.5 -104.5t-88.5 -35.5z" />
    <glyph glyph-name="uni0272" unicode="&#x272;" 
d="M38 -240q-22 0 -40.5 4.5t-29.5 11.5v67q8 -4 23.5 -7.5t28.5 -3.5q31 0 45.5 18.5t14.5 77.5v608h72l13 -79h5q23 46 68.5 67.5t106.5 21.5q81 0 130.5 -45.5t49.5 -142.5v-358h-90v342q0 68 -27.5 99.5t-88.5 31.5q-82 0 -115.5 -52t-33.5 -146v-348q0 -65 -18 -101.5
t-48 -51t-66 -14.5z" />
    <glyph glyph-name="uni0273" unicode="&#x273;" 
d="M566 -240q-35 0 -65 14.5t-48 51t-18 101.5v415q0 68 -27.5 99.5t-88.5 31.5q-82 0 -115.5 -52t-33.5 -146v-275h-90v536h72l13 -79h5q23 46 68.5 67.5t106.5 21.5q81 0 130.5 -45.5t49.5 -142.5v-430q0 -59 14 -77.5t44 -18.5q14 0 29.5 3.5t23.5 7.5v-67
q-10 -7 -29.5 -11.5t-40.5 -4.5z" />
    <glyph glyph-name="uni0274" unicode="&#x274;" 
d="M69 0v536h103l282 -432q-1 14 -2.5 38t-2.5 48t-1 36v310h83v-536h-104l-279 431q1 -13 2 -38.5t1.5 -51.5t0.5 -42v-299h-83z" />
    <glyph glyph-name="uni0275" unicode="&#x275;" 
d="M301 -10q-70 0 -125.5 30.5t-88 93t-32.5 156.5q0 93 31.5 154t86.5 91.5t125 30.5t126 -30.5t88.5 -92t32.5 -156.5q0 -93 -32 -154.5t-87 -92t-125 -30.5zM299 473q-69 0 -107 -43t-46 -119h306q-8 76 -46 119t-107 43zM300 63q70 0 108 45.5t45 124.5h-307
q6 -79 45 -124.5t109 -45.5z" />
    <glyph glyph-name="uni0276" unicode="&#x276;" 
d="M205 -10q-85 0 -127.5 76.5t-42.5 206.5q0 127 41.5 200.5t128.5 73.5q34 0 61.5 -14t49.5 -52v56h237v-67h-172v-155h160v-68h-160v-180h172v-67h-237v59q-19 -36 -46.5 -52.5t-64.5 -16.5zM214 61q48 0 70.5 51t22.5 157t-22.5 156.5t-71.5 50.5q-51 0 -73 -53
t-22 -153q0 -102 22.5 -155.5t73.5 -53.5z" />
    <glyph glyph-name="omegaclosed" unicode="&#x277;" 
d="M183 -10q-75 0 -114.5 65.5t-39.5 171.5q0 97 30.5 169t91.5 111.5t151 39.5q131 0 200 -86t69 -234q0 -106 -39.5 -171.5t-114.5 -65.5q-46 0 -73.5 23t-41.5 67h-4q-13 -44 -41 -67t-74 -23zM189 63q38 0 55 37t17 93v132h77v-132q0 -62 18.5 -96t53.5 -34q38 0 60 42
t22 124q0 115 -47.5 180t-143.5 65q-97 0 -145 -65t-48 -180q0 -82 22 -124t59 -42z" />
    <glyph glyph-name="uni0278" unicode="&#x278;" 
d="M258 -240v232q-93 10 -148 82t-55 195q0 119 52 192t152 83v216h82v-216q97 -10 150.5 -85t53.5 -190q0 -117 -52.5 -191.5t-151.5 -85.5v-232h-83zM259 64v409q-59 -7 -88 -60t-29 -144q0 -85 28 -141t89 -64zM341 64q61 8 89 64.5t28 140.5q0 90 -29.5 142.5
t-87.5 60.5v-408z" />
    <glyph glyph-name="uni0279" unicode="&#x279;" 
d="M538 536v-60l-163 -15v-386l147 -13v-62h-219l-12 98h-4q-28 -53 -61.5 -80.5t-88.5 -27.5q-34 0 -60.5 6t-48.5 16l24 79q16 -9 38 -15.5t47 -6.5q43 0 76 27t52 72t19 99v194l-156 15v60h410z" />
    <glyph glyph-name="uni027A" unicode="&#x27a;" 
d="M137 -10q-34 0 -60.5 6t-48.5 16l24 79q17 -9 38.5 -15.5t46.5 -6.5q43 0 76 27t52 72t19 99v493h91v-685l147 -13v-62h-219l-12 98h-4q-28 -52 -61 -80t-89 -28z" />
    <glyph glyph-name="uni027B" unicode="&#x27b;" 
d="M415 -240q-33 0 -62.5 14.5t-47.5 51t-18 101.5v92q0 15 2.5 40.5t3.5 38.5h-4q-22 -49 -57 -78.5t-100 -29.5q-15 0 -34 1.5t-33 4.5l11 81q27 -8 58 -8q49 0 83 28t52 73.5t18 99.5v266h91v-608q0 -59 14.5 -77.5t42.5 -18.5q19 0 34.5 3.5t22.5 7.5v-67
q-10 -7 -30 -11.5t-47 -4.5z" />
    <glyph glyph-name="uni027C" unicode="&#x27c;" 
d="M225 -240v701l-147 13v62h219l12 -98h4q28 53 61.5 80.5t88.5 27.5q34 0 60.5 -6t48.5 -16l-24 -79q-16 9 -38 15.5t-47 6.5q-43 0 -76 -27t-52 -72t-19 -99v-509h-91z" />
    <glyph glyph-name="uni027D" unicode="&#x27d;" 
d="M377 -240q-44 0 -78.5 14.5t-54 51t-19.5 101.5v534l-147 13v62h219l12 -98h4q28 53 61.5 80.5t88.5 27.5q34 0 60.5 -6t48.5 -16l-24 -79q-16 9 -38 15.5t-47 6.5q-43 0 -76 -27t-52 -72t-19 -99v-341q0 -48 16.5 -72t56.5 -24q17 0 32.5 3.5t28.5 7.5v-67
q-14 -7 -30.5 -11.5t-42.5 -4.5z" />
    <glyph glyph-name="uni027E" unicode="&#x27e;" 
d="M174 0v318q0 111 56.5 169.5t153.5 58.5q43 0 73 -7t49 -16l-17 -75q-14 8 -40.5 15t-61.5 7q-62 0 -94 -38.5t-32 -124.5v-307h-87z" />
    <glyph glyph-name="uni027F" unicode="&#x27f;" 
d="M426 0v318q0 111 -56.5 169.5t-153.5 58.5q-43 0 -73 -7t-49 -16l17 -75q14 8 40.5 15t61.5 7q62 0 94 -38.5t32 -124.5v-307h87z" />
    <glyph glyph-name="uni0280" unicode="&#x280;" 
d="M110 0v536h210q86 0 138 -40.5t52 -117.5q0 -47 -18 -78.5t-46.5 -49t-60.5 -25.5l153 -225h-102l-138 213h-100v-213h-88zM198 286h96q62 0 96.5 22.5t34.5 68.5q0 38 -26 62t-88 24h-113v-177z" />
    <glyph glyph-name="uni0281" unicode="&#x281;" 
d="M110 536v-536h210q86 0 138 40.5t52 117.5q0 47 -18 78.5t-46.5 49t-60.5 25.5l153 225h-102l-138 -213h-100v213h-88zM198 250h96q62 0 96.5 -22.5t34.5 -68.5q0 -38 -26 -62t-88 -24h-113v177z" />
    <glyph glyph-name="uni0282" unicode="&#x282;" 
d="M279 -10q-48 0 -91 8v-70q0 -50 20.5 -73t60.5 -23q17 0 33 3.5t28 7.5v-68q-10 -4 -30.5 -9.5t-46.5 -5.5q-42 0 -75.5 14.5t-53 51t-19.5 101.5v180q35 -16 77.5 -29.5t101.5 -13.5q66 0 93.5 20.5t27.5 59.5q0 21 -9.5 34.5t-36.5 27.5t-79 36q-52 23 -89 43t-57 47.5
t-20 70.5q0 71 54.5 107t151.5 36q44 0 84 -8t83 -26l-27 -70q-40 17 -73.5 23t-66.5 6q-62 0 -90.5 -16t-28.5 -50q0 -22 12.5 -37t41 -29t75.5 -34q53 -22 90 -41t56 -45.5t19 -72.5q0 -76 -54.5 -116t-161.5 -40z" />
    <glyph glyph-name="uni0283" unicode="&#x283;" 
d="M164 -240q-31 0 -51 4.5t-31 9.5v78q10 -5 28.5 -10t43.5 -5q101 0 101 121v610q0 66 24 109.5t65.5 65.5t92.5 22q29 0 48.5 -4t32.5 -9v-75q-9 5 -25.5 8.5t-42.5 3.5q-52 0 -79.5 -31.5t-27.5 -90.5v-610q0 -64 -23.5 -108t-64 -66.5t-91.5 -22.5z" />
    <glyph glyph-name="uni0284" unicode="&#x284;" 
d="M115 248v71h140v249q0 66 24 109.5t65.5 65.5t92.5 22q29 0 48.5 -4t32.5 -9v-75q-9 5 -25.5 8.5t-42.5 3.5q-52 0 -79.5 -31.5t-27.5 -90.5v-248h140v-71h-140v-291q0 -64 -23.5 -108t-64 -66.5t-91.5 -22.5q-31 0 -51 4.5t-31 9.5v78q10 -5 28.5 -10t43.5 -5
q101 0 101 121v290h-140z" />
    <glyph glyph-name="uni0285" unicode="&#x285;" 
d="M436 -240q-50 0 -91 22.5t-64.5 66.5t-23.5 108v390q0 59 -27 90.5t-80 31.5q-25 0 -42 -3.5t-26 -8.5v75q14 5 33 9t48 4q52 0 93 -22t65 -65.5t24 -109.5v-390q0 -121 101 -121q25 0 43.5 5t28.5 10v-78q-10 -5 -30 -9.5t-52 -4.5z" />
    <glyph glyph-name="uni0286" unicode="&#x286;" 
d="M203 -240q-64 0 -103.5 33t-39.5 85q0 55 34 88.5t111 33.5h50v568q0 66 24 109.5t65.5 65.5t92.5 22q29 0 48.5 -4t32.5 -9v-75q-9 5 -25.5 8.5t-42.5 3.5q-52 0 -79.5 -31.5t-27.5 -90.5v-567h75v-72h-75q-1 -66 -20.5 -102.5t-50.5 -51t-69 -14.5zM196 -168
q27 0 43 18.5t16 62.5v15h-44q-28 0 -48 -10t-20 -38q0 -19 11 -33.5t42 -14.5z" />
    <glyph glyph-name="uni0287" unicode="&#x287;" 
d="M198 546q57 0 102 -15t71.5 -53t26.5 -105v-298h146v-62l-146 -16l-18 -140h-72v143h-209v75h209v281q0 61 -27 89t-89 28q-26 0 -56 -5t-52 -10v72q24 6 53 11t61 5z" />
    <glyph glyph-name="uni0288" unicode="&#x288;" 
d="M432 -239q-57 0 -102 15t-71.5 53t-26.5 105v527h-146v62l146 16l18 140h72v-143h209v-75h-209v-510q0 -61 27 -89t89 -28q26 0 56 5t52 10v-72q-24 -6 -53 -11t-61 -5z" />
    <glyph glyph-name="uni0289" unicode="&#x289;" 
d="M3 253v71h72v212h90v-212h265v212h90v-212h77v-71h-77v-253h-72l-13 72h-5q-28 -45 -70.5 -63.5t-98.5 -18.5q-95 0 -140.5 47.5t-45.5 141.5v74h-72zM165 193q0 -64 26.5 -97t91.5 -33q82 0 114 50t33 140h-265v-60z" />
    <glyph glyph-name="uni028A" unicode="&#x28a;" 
d="M563 536v-65h-134q53 -34 84.5 -93t31.5 -143q0 -72 -28.5 -127.5t-83 -87t-133.5 -31.5t-133 31.5t-82.5 87t-28.5 127.5q0 84 31.5 143t84.5 93h-134v65h220v-65q-59 -23 -91.5 -81t-32.5 -143q0 -91 43.5 -142t122.5 -51t122.5 51t43.5 142q0 85 -32.5 143t-90.5 81
v65h220z" />
    <glyph glyph-name="uni028B" unicode="&#x28b;" 
d="M300 -10q-118 0 -172.5 58.5t-54.5 183.5v304h88v-301q0 -97 33.5 -134.5t105.5 -37.5t105.5 38.5t33.5 133.5v143q0 55 -15.5 73.5t-53.5 18.5q-30 0 -57 -9v75q14 5 32.5 7.5t30.5 2.5q47 0 80.5 -14t52 -49.5t18.5 -101.5v-149q0 -121 -55.5 -181.5t-171.5 -60.5z" />
    <glyph glyph-name="uni028C" unicode="&#x28c;" 
d="M357 536l198 -536h-92l-112 318q-11 32 -23.5 67t-25.5 75h-3q-13 -40 -26.5 -75.5t-23.5 -66.5l-109 -318h-94l200 536h111z" />
    <glyph glyph-name="uni028D" unicode="&#x28d;" 
d="M498 536l86 -536h-84l-39 265q-6 37 -8.5 66t-5 59t-4.5 71h-3q-3 -17 -8.5 -47.5t-13 -66t-16.5 -65.5l-52 -181h-99l-50 181q-9 30 -17 64.5t-14.5 65t-8.5 49.5h-3q-3 -40 -5 -69.5t-5 -58.5t-9 -68l-42 -265h-82l88 536h108l48 -188q10 -41 21 -82t19 -81h3
q8 40 19.5 81t22.5 82l49 188h105z" />
    <glyph glyph-name="uni028E" unicode="&#x28e;" 
d="M464 781q20 0 39 -2.5t33 -5.5v-69q-12 2 -28.5 4t-32.5 2q-46 0 -71 -22.5t-45 -73.5l-29 -73l225 -541h-88l-128 315q-13 31 -25.5 69t-22.5 73h-3q-11 -37 -23 -74.5t-22 -68.5l-105 -314h-92l225 606q19 52 41.5 91.5t58 61.5t93.5 22z" />
    <glyph glyph-name="uni028F" unicode="&#x28f;" 
d="M257 0v219l-219 317h105l158 -242l157 242h104l-217 -317v-219h-88z" />
    <glyph glyph-name="uni0290" unicode="&#x290;" 
d="M90 0v61l315 406h-299v69h396v-71l-305 -389h313v-148q0 -59 15.5 -77.5t45.5 -18.5q14 0 29.5 3.5t23.5 7.5v-67q-10 -7 -29.5 -11.5t-40.5 -4.5q-35 0 -64 14.5t-46 51t-17 101.5v73h-337z" />
    <glyph glyph-name="uni0291" unicode="&#x291;" 
d="M274 -87l-67 28q6 16 12 31t12 28h-152v58l290 410h-273v68h368v-66l-286 -402h85q41 81 85.5 120t105.5 39q53 0 85.5 -31t32.5 -73q0 -55 -37 -89t-128 -34h-97q-18 -37 -36 -87zM343 68h69q45 0 61 15.5t16 37.5q0 14 -10.5 26t-32.5 12q-27 0 -52 -22t-51 -69z" />
    <glyph glyph-name="uni0292" unicode="&#x292;" 
d="M246 -240q-59 0 -111 12t-84 27v80q33 -17 85.5 -31.5t113.5 -14.5q96 0 142 45t46 125q0 84 -47.5 119.5t-149.5 35.5h-79v61l234 243h-331v74h434v-64l-234 -244q125 -2 193 -58t68 -165q0 -71 -30.5 -126.5t-92.5 -87t-157 -31.5z" />
    <glyph glyph-name="uni0293" unicode="&#x293;" 
d="M513 -243q-35 42 -71 77q-37 -34 -88.5 -54t-126.5 -20q-43 0 -86.5 14.5t-72.5 46t-29 81.5q0 54 43.5 88t117.5 34q66 0 118.5 -18.5t105.5 -54.5q3 11 5 23t2 25q0 87 -48 123t-155 36h-65v61l226 243h-312v74h415v-64l-226 -244q73 -1 130 -25t90 -73.5t33 -128.5
q0 -29 -7.5 -56.5t-19.5 -47.5q19 -18 39 -39t39 -44zM227 -167q55 0 91.5 13.5t63.5 38.5q-43 35 -85.5 50.5t-94.5 15.5q-43 0 -61.5 -16t-18.5 -35q0 -31 26.5 -49t78.5 -18z" />
    <glyph glyph-name="uni0294" unicode="&#x294;" 
d="M217 0v358q208 56 208 199q0 63 -37 99t-108 36q-61 0 -104 -19.5t-73 -40.5l-38 69q35 24 87.5 44t131.5 20q110 0 170.5 -56t60.5 -149q0 -45 -19.5 -89.5t-65 -85t-125.5 -73.5v-312h-88z" />
    <glyph glyph-name="uni0295" unicode="&#x295;" 
d="M383 0v358q-208 56 -208 199q0 63 37 99t108 36q61 0 104 -19.5t73 -40.5l38 69q-35 24 -87.5 44t-131.5 20q-110 0 -170.5 -56t-60.5 -149q0 -45 19.5 -89.5t65 -85t125.5 -73.5v-312h88z" />
    <glyph glyph-name="glottalturned" unicode="&#x296;" 
d="M217 536v-358q208 -56 208 -199q0 -63 -37 -99t-108 -36q-61 0 -104 19.5t-73 40.5l-38 -69q35 -24 87.5 -44t131.5 -20q110 0 170.5 56t60.5 149q0 45 -19.5 89.5t-65 85t-125.5 73.5v312h-88z" />
    <glyph glyph-name="uni0297" unicode="&#x297;" 
d="M355 -239q-145 0 -209 94.5t-64 293.5q0 114 20 190.5t57 122t88 65t114 19.5q47 0 86 -8.5t63 -20.5l-27 -73q-24 10 -57 17.5t-67 7.5q-67 0 -109.5 -31.5t-62.5 -101t-20 -185.5q0 -117 19 -185.5t60 -98.5t108 -30q50 0 84.5 9t62.5 22v-78q-27 -14 -60.5 -21.5
t-85.5 -7.5z" />
    <glyph glyph-name="uni0298" unicode="&#x298;" 
d="M299 -10q-89 0 -145 46t-82.5 129t-26.5 192q0 110 26.5 193t83 129.5t145.5 46.5t145.5 -46t83 -128.5t26.5 -192.5q0 -111 -27 -194t-83.5 -129t-145.5 -46zM301 70q90 0 126 76.5t36 211.5q0 136 -36 212t-125 76q-91 0 -128 -77t-37 -211q0 -135 37 -211.5t127 -76.5
zM300 290q-26 0 -44 16t-18 52q0 38 18 53t44 15t44 -15t18 -53q0 -36 -18 -52t-44 -16z" />
    <glyph glyph-name="uni0299" unicode="&#x299;" 
d="M130 0v537h210q81 0 130 -31.5t49 -102.5q0 -49 -24.5 -78t-68.5 -39v-4q47 -7 77.5 -38t30.5 -86q0 -72 -46 -115t-144 -43h-214zM215 315h116q102 0 102 79q0 37 -23.5 55.5t-74.5 18.5h-120v-153zM215 68h122q55 0 83 22t28 71q0 46 -28.5 66t-82.5 20h-122v-179z" />
    <glyph glyph-name="uni029A" unicode="&#x29a;" 
d="M278 -10q133 0 199.5 75t66.5 202q0 131 -71 205t-207 74q-100 0 -152 -40.5t-52 -105.5q0 -52 27 -78.5t74 -39.5v-4q-29 -4 -56.5 -18t-45 -40t-17.5 -67q0 -44 25 -81.5t77 -59.5t132 -22zM268 63q-62 0 -99.5 23.5t-37.5 71.5q0 44 38 62.5t115 18.5h42v72h-28
q-69 0 -110.5 16.5t-41.5 64.5q0 34 27 57t95 23q95 0 140 -52t45 -153q0 -104 -46.5 -154t-138.5 -50z" />
    <glyph glyph-name="uni029B" unicode="&#x29b;" 
d="M310 -10q-72 0 -127 29t-86.5 90t-31.5 156q0 99 36 161t97 91t135 29q53 0 95 -9v94q0 65 27 99.5t88 34.5q19 0 34.5 -4t25.5 -9v-73q-7 3 -21 6.5t-31 3.5q-47 0 -47 -48v-131l-32 -76q-31 16 -66.5 25.5t-67.5 9.5q-182 0 -182 -203q0 -97 38.5 -148.5t114.5 -51.5
q36 0 61.5 3.5t53.5 10.5v147h-115v71h203v-270q-49 -18 -96 -28t-106 -10z" />
    <glyph glyph-name="uni029C" unicode="&#x29c;" 
d="M80 0v536h85v-222h271v222h84v-536h-84v242h-271v-242h-85z" />
    <glyph glyph-name="uni029D" unicode="&#x29d;" 
d="M342 633q-26 0 -44 16t-18 48t17.5 47.5t44.5 15.5q26 0 44.5 -15.5t18.5 -47.5q0 -33 -19 -48.5t-44 -15.5zM248 -240q-64 0 -100 33t-36 85q0 55 35.5 88.5t107.5 33.5h52v461l-175 13v62h265v-536h75v-72h-75q-1 -66 -22 -102.5t-54 -51t-73 -14.5zM247 -168
q29 0 44.5 18t15.5 61v17h-47q-28 0 -46.5 -10t-18.5 -38q0 -19 11.5 -33.5t40.5 -14.5z" />
    <glyph glyph-name="uni029E" unicode="&#x29e;" 
d="M495 536v-760h-90v366q0 31 2.5 73.5t4.5 77.5h-2q-19 -25 -36.5 -45.5t-36.5 -42.5l-185 -205h-108l213 231l-227 305h104l183 -252l88 85v167h90z" />
    <glyph glyph-name="uni029F" unicode="&#x29f;" 
d="M165 0v536h88v-463h254v-73h-342z" />
    <glyph glyph-name="uni02A0" unicode="&#x2a0;" 
d="M432 -240v230q0 15 2.5 40.5t3.5 38.5h-6q-25 -33 -62.5 -56t-95.5 -23q-97 0 -157.5 69.5t-60.5 207.5t60.5 208.5t157.5 70.5q58 0 95.5 -23t62.5 -56h6q-1 13 -3.5 38.5t-2.5 40.5v52q0 66 17.5 102t46 50.5t62.5 14.5q27 0 46.5 -4.5t29.5 -11.5v-67q-7 4 -22.5 7.5
t-34.5 3.5q-28 0 -42.5 -18.5t-14.5 -77.5v-837h-88zM287 63q80 0 113 46.5t33 140.5v16q0 100 -31 153.5t-116 53.5q-69 0 -104 -56.5t-35 -151.5q0 -96 35 -149t105 -53z" />
    <glyph glyph-name="uni02A1" unicode="&#x2a1;" 
d="M98 153v73h119v132q208 56 208 199q0 63 -37 99t-108 36q-61 0 -104 -19.5t-73 -40.5l-38 69q35 24 87.5 44t131.5 20q110 0 170.5 -56t60.5 -149q0 -45 -19.5 -89.5t-65 -85t-125.5 -73.5v-86h130v-73h-130v-153h-88v153h-119z" />
    <glyph glyph-name="uni02A2" unicode="&#x2a2;" 
d="M502 153v73h-119v132q-208 56 -208 199q0 63 37 99t108 36q61 0 104 -19.5t73 -40.5l38 69q-35 24 -87.5 44t-131.5 20q-110 0 -170.5 -56t-60.5 -149q0 -45 19.5 -89.5t65 -85t125.5 -73.5v-86h-130v-73h130v-153h88v153h119z" />
    <glyph glyph-name="dzlig" unicode="&#x2a3;" 
d="M155 -10q-63 0 -101 64t-38 213q0 147 38.5 213t102.5 66q38 0 61.5 -17t38.5 -50h3q-1 15 -2.5 33.5t-1.5 33.5v214h78v-224h249v-64l-166 -406h171v-66h-316l-13 60h-3q-15 -33 -38.5 -51.5t-62.5 -18.5zM179 59q42 0 61 45t19 146v16q0 107 -17 159t-64 52
q-40 0 -61 -52t-21 -160q0 -115 22.5 -160.5t60.5 -45.5zM334 63l165 407h-165v-407z" />
    <glyph glyph-name="uni02A4" unicode="&#x2a4;" 
d="M396 -240q-30 0 -50 5t-34 14v75q15 -10 33 -18t43 -8q54 0 83 47t29 132q0 157 -101 157h-35v57l111 251h-152v-472h-61l-9 53h-4q-10 -29 -31.5 -46t-58.5 -17q-65 0 -97.5 63.5t-32.5 214.5q0 149 33.5 214t103.5 65q28 0 49.5 -14t32.5 -42h4q-3 30 -3 61v208h74
v-223h237v-52l-118 -260q63 -7 98.5 -59t35.5 -162q0 -71 -20.5 -126.5t-60.5 -86.5t-99 -31zM178 54q39 0 55 41t16 149v30q0 79 -7.5 124t-24.5 63.5t-45 18.5q-34 0 -51 -48t-17 -164q0 -118 20 -166t54 -48z" />
    <glyph glyph-name="dzligcurl" unicode="&#x2a5;" horiz-adv-x="1200" 
d="M819 -87l-67 28q6 16 12 31t12 28h-247l-13 72h-4q-24 -34 -66.5 -58t-120.5 -24q-121 0 -184.5 69.5t-63.5 207.5t64 208.5t185 70.5q77 0 119 -23t67 -56h6q-1 13 -3.5 38.5t-2.5 40.5v214h88v-224h444v-66l-344 -402h108q41 81 87 120t119 39q70 0 100.5 -31t30.5 -73
q0 -55 -39.5 -89t-128.5 -34h-122q-18 -37 -36 -87zM339 63q100 0 137 46.5t37 140.5v16q0 67 -15 113t-52.5 70t-107.5 24q-92 0 -131 -56.5t-39 -151.5q0 -96 39 -149t132 -53zM600 59l347 409h-347v-409zM888 68h94q47 0 63.5 14t16.5 33q0 20 -12.5 32t-42.5 12
q-38 0 -65.5 -22t-53.5 -69z" />
    <glyph glyph-name="tslig" unicode="&#x2a6;" 
d="M231 0q-49 0 -84.5 14.5t-55 50.5t-19.5 101v303h-62v42l64 35l31 114h50v-123h189q15 5 32.5 7.5t38.5 2.5q39 0 74.5 -9.5t68.5 -26.5l-27 -70q-29 14 -59.5 24t-62.5 10q-84 0 -84 -70q0 -21 10 -35t33.5 -27.5t65.5 -34.5q39 -19 69 -38t47 -47t17 -74
q0 -65 -41 -107t-141 -42h-154zM248 72h139q99 0 99 71q0 37 -25.5 56t-81.5 46q-42 21 -72 39.5t-46 46t-16 73.5q0 20 3 35.5t8 29.5h-101v-301q0 -96 93 -96z" />
    </font>
</defs>
</svg>
